<?xml version="1.0" encoding="UTF-8"?>
<svg width="16" height="16" viewBox="0 0 16 16" fill="none" xmlns="http://www.w3.org/2000/svg">
  <path fill-rule="evenodd" clip-rule="evenodd" d="M9.97178 1C9.28142 1 8.72178 1.55964 8.72178 2.25C8.72178 2.94036 9.28142 3.5 9.97178 3.5C10.6621 3.5 11.2218 2.94036 11.2218 2.25C11.2218 1.55964 10.6621 1 9.97178 1ZM8.50623 3.98601C8.68333 3.92435 8.87934 3.91185 9.07358 3.95969L10.044 4.1987L9.00081 8.62359L11.6244 9.02855C12.0912 9.10062 12.444 9.48958 12.4703 9.96126L12.7508 15H11.324L10.8305 10.5456L8.57997 10.4087L8.5795 10.4107L7.23237 10.3294C6.56983 10.2894 6.12936 9.62695 6.34883 9.00055L7.47622 5.78292L6.35813 6.15418L5.64488 7.27849H4.26356L5.05708 5.47527C5.21662 5.11271 5.52912 4.83986 5.90989 4.73065L8.50623 3.98601ZM5.45625 8.15831C4.03304 8.60237 3 9.93056 3 11.5C3 13.433 4.567 15 6.5 15C8.35974 15 9.88069 13.5496 9.99331 11.7182L8.74556 11.6425C8.67209 12.8187 7.6948 13.75 6.5 13.75C5.25736 13.75 4.25 12.7427 4.25 11.5C4.25 10.7208 4.64607 10.0342 5.24787 9.63035C5.18214 9.25126 5.20986 8.84798 5.35151 8.45149L5.45625 8.15831Z" fill="currentColor"/>
</svg>
