<?xml version="1.0" encoding="UTF-8"?>
<svg width="16" height="16" viewBox="0 0 16 16" fill="none" xmlns="http://www.w3.org/2000/svg">
  <path fill-rule="evenodd" clip-rule="evenodd" d="M9 1H13.5L13.75 2.5H8.75L9 1ZM3.74236 4.08428C3.74236 4.0253 3.74236 3.99582 3.74341 3.9709C3.76933 3.35479 4.26288 2.86124 4.87898 2.83532C4.90391 2.83428 4.93339 2.83428 4.99236 2.83428C5.05133 2.83428 5.08082 2.83428 5.10574 2.83532C5.72185 2.86124 6.2154 3.35479 6.24131 3.9709C6.24236 3.99582 6.24236 4.0253 6.24236 4.08428C6.24236 4.14325 6.24236 4.17273 6.24131 4.19765C6.2154 4.81376 5.72185 5.30731 5.10574 5.33323C5.08082 5.33428 5.05133 5.33428 4.99236 5.33428C4.93339 5.33428 4.90391 5.33428 4.87898 5.33323C4.26288 5.30731 3.76933 4.81376 3.74341 4.19765C3.74236 4.17273 3.74236 4.14325 3.74236 4.08428ZM3.50002 6.84194C3.50003 6.3817 3.87312 6.00861 4.33336 6.00861H4.69494C4.96584 6.00861 5.20924 6.1386 5.36208 6.34247L6.75726 7.72176L8.49726 8.00623L8.49725 8.96584L6.62135 8.73732C6.39561 8.70982 6.18253 8.61802 6.00747 8.47286L5.69443 8.21327L5.8323 9.39147L8.69344 9.76122C9.13712 9.81856 9.46926 10.1964 9.46926 10.6437V14.9979H8.42985L7.83974 10.9478H5.18304H4.38987C3.89841 10.9478 3.5 10.5494 3.50001 10.0579L3.50002 6.84194ZM1 12.0019C1 10.981 1.51021 10.0793 2.28955 9.53792V11.0293V11.6304C2.26364 11.7501 2.25 11.8744 2.25 12.0019C2.25 12.9673 3.03266 13.75 3.99812 13.75C4.88651 13.75 5.62013 13.0873 5.73159 12.2293H6.98775C6.87154 13.7789 5.57744 15 3.99812 15C2.34231 15 1 13.6577 1 12.0019ZM14.1857 13.4741H15.448L15.2372 11.9741H13.9749L14.1857 13.4741ZM15.0652 10.75L14.8544 9.25H13.5921L13.8029 10.75H15.0652ZM14.6787 8L14.4679 6.5H13.2056L13.4164 8H14.6787ZM14.2922 5.25L14.0814 3.75H12.8191L13.0299 5.25H14.2922ZM11.9176 3.75H10.6676V5.25H11.9176V3.75ZM9.84126 3.75H8.57898L8.36817 5.25H9.63045L9.84126 3.75ZM10.6676 6.5V8H11.9176V6.5H10.6676ZM10.6676 9.25V10.75H11.9176V9.25H10.6676ZM10.6676 11.9741V13.4741H11.9176V11.9741H10.6676Z" fill="currentColor"/>
</svg>
