<?xml version="1.0" encoding="UTF-8"?>
<svg width="16" height="16" viewBox="0 0 16 16" fill="none" xmlns="http://www.w3.org/2000/svg">
  <path fill-rule="evenodd" clip-rule="evenodd" d="M10 0.595703C9.30964 0.595703 8.75 1.15535 8.75 1.8457V2.0957C8.75 2.78606 9.30964 3.3457 10 3.3457C10.6904 3.3457 11.25 2.78606 11.25 2.0957V1.8457C11.25 1.15535 10.6904 0.595703 10 0.595703ZM8.52747 3.77742C8.71486 3.70284 8.92606 3.68423 9.13527 3.73561L10.1043 3.97357L9.00314 8.6239L11.6586 9.03379C12.1097 9.10343 12.4565 9.4698 12.5012 9.92413L13.0008 15H11.5L10.8501 10.5272L8.58509 10.3893L8.58417 10.3932L7.23859 10.321C6.57408 10.2853 6.12915 9.62264 6.34766 8.99407L7.54196 5.5586L6.35815 5.95167L5.5 7.5H4.11868L5.0603 5.2853C5.21758 4.91537 5.53335 4.63614 5.91975 4.52533L8.52747 3.77742ZM5.20352 8.24797C3.91237 8.76316 3 10.025 3 11.5C3 13.433 4.567 15 6.5 15C8.33896 15 9.84668 13.5817 9.98901 11.7794L8.74194 11.6917C8.64465 12.8446 7.67805 13.75 6.5 13.75C5.25736 13.75 4.25 12.7426 4.25 11.5C4.25 10.8903 4.49249 10.3373 4.88628 9.93206C4.83514 9.56489 4.87151 9.16733 5.02038 8.75511L5.20352 8.24797Z" fill="currentColor"/>
</svg>
