<?xml version="1.0" encoding="utf-8"?>
<!-- Generator: Adobe Illustrator 22.1.0, SVG Export Plug-In . SVG Version: 6.00 Build 0)  -->
<svg version="1.1" id="Layer_1" xmlns="http://www.w3.org/2000/svg" xmlns:xlink="http://www.w3.org/1999/xlink" x="0px" y="0px"
	 viewBox="0 0 42 42" style="enable-background:new 0 0 42 42;" xml:space="preserve">
<style type="text/css">
	.st0{fill:#292928;}
</style>
<title>Account</title>
<desc>Created with Sketch.</desc>
<g id="Clip-4">
</g>
<g>
	<path class="st0" d="M21,0C9.4,0,0,9.4,0,21c0,11.6,9.4,21,21,21c11.6,0,21-9.4,21-21C42,9.4,32.6,0,21,0z M21,40
		C10.5,40,2,31.5,2,21S10.5,2,21,2s19,8.5,19,19S31.5,40,21,40z"/>
	<path class="st0" d="M21,20c2.8,0,5-2.2,5-5s-2.2-5-5-5c-2.8,0-5,2.2-5,5S18.2,20,21,20z M21,12.1c1.6,0,2.9,1.3,2.9,2.9
		s-1.3,2.9-2.9,2.9s-2.9-1.3-2.9-2.9S19.4,12.1,21,12.1z"/>
	<path class="st0" d="M27.3,23.4C25.6,21.9,23.4,21,21,21c-4.8,0-8.7,3.6-9,8.1l0,0.5l0.4,0.3c2.4,2,5.5,3.1,8.7,3.1
		c3.1,0,6.1-1,8.5-2.9l0.4-0.3l0-0.5C29.9,27.1,28.9,25,27.3,23.4z M21.1,31c-2.5,0-5-0.8-7-2.3c0.4-3.3,3.4-5.8,6.9-5.8
		c1.8,0,3.5,0.7,4.8,1.9c1.2,1.1,1.9,2.5,2.1,4.1C26,30.2,23.6,31,21.1,31z"/>
</g>
</svg>
