<svg xmlns="http://www.w3.org/2000/svg" width="23" height="23" viewBox="0 0 23 23">
  <g id="g3418" transform="translate(-9.5 -10)">
    <path id="path3420" fill="currentColor" d="M21 20c2.8 0 5-2.2 5-5s-2.2-5-5-5-5 2.2-5 5 2.2 5 5 5zm0-7.9c1.6 0 2.9 1.3 2.9 2.9 0 1.6-1.3 2.9-2.9 2.9-1.6 0-2.9-1.3-2.9-2.9 0-1.6 1.3-2.9 2.9-2.9z" />
    <path id="path3422" fill="currentColor" d="M27.3 23.4C25.6 21.9 23.4 21 21 21c-4.8 0-8.7 3.6-9 8.1v.5l.4.3c2.4 2 5.5 3.1 8.7 3.1 3.1 0 6.1-1 8.5-2.9l.4-.3v-.5c-.1-2.2-1.1-4.3-2.7-5.9zM21.1 31c-2.5 0-5-.8-7-2.3.4-3.3 3.4-5.8 6.9-5.8 1.8 0 3.5.7 4.8 1.9 1.2 1.1 1.9 2.5 2.1 4.1-1.9 1.3-4.3 2.1-6.8 2.1z" />
  </g>
</svg>