<?xml version="1.0" encoding="UTF-8"?>
<svg width="100px" height="100px" viewBox="0 0 100 100" version="1.1" xmlns="http://www.w3.org/2000/svg" xmlns:xlink="http://www.w3.org/1999/xlink">
    <!-- Generator: Sketch 42 (36781) - http://www.bohemiancoding.com/sketch -->
    <title>arrow-right</title>
    <desc>Created with Sketch.</desc>
    <defs></defs>
    <g id="Page-1" stroke="none" stroke-width="1" fill="none" fill-rule="evenodd">
        <g id="arrow-right" fill-rule="nonzero" fill="currentColor">
            <path d="M16.3388035,68.2355717 L46.939891,98.7905305 C47.3224075,99.1724739 47.7686675,99.4907484 48.278689,99.745374 C48.78871,99.9999996 49.362474,100.063659 50,99.9363407 C50.637526,100.063659 51.21129,99.9999996 51.721311,99.745374 C52.2313325,99.4907484 52.6775925,99.1724739 53.060109,98.7905305 L83.6611965,68.2355717 C84.553732,67.3443821 84.9999905,66.3258946 85,65.1800694 C84.9999975,64.0342541 84.553732,63.0157666 83.6611965,62.124577 C82.7686605,61.2333873 81.748637,60.787795 80.6010935,60.787795 C79.453538,60.787805 78.4335145,61.2333873 77.540979,62.124577 L54.3989065,85.231769 C54.3989065,85.231769 54.4461455,5.85513724 54.421581,4.22246695 C54.3970165,2.58979166 53.0601095,1.24129737 53.0601095,1.24129737 C52.6775955,0.859358948 52.231334,0.541074435 51.7213115,0.286453815 C50.573771,-0.0954846049 49.42623,-0.0954846049 48.2786895,0.286453815 C47.768667,0.541074435 47.3224055,0.859358948 46.939892,1.24129737 C46.939892,1.24129737 45.604718,2.5744598 45.6237685,4.22246695 C45.6428185,5.87047409 45.6010935,85.231769 45.6010935,85.231769 L22.459021,62.124577 C21.5664855,61.2333873 20.546462,60.787805 19.3989065,60.787795 C18.251363,60.787795 17.2313395,61.2333873 16.3388035,62.124577 C15.446268,63.0157666 15.0000025,64.0342541 15,65.1800694 C15.0000095,66.3258946 15.446268,67.3443821 16.3388035,68.2355717 Z" transform="translate(50.000000, 50.000000) rotate(-90.000000) translate(-50.000000, -50.000000) "></path>
        </g>
    </g>
</svg>
