<?xml version="1.0" encoding="UTF-8"?>
<svg width="20" height="20" viewBox="0 0 20 20" fill="none" xmlns="http://www.w3.org/2000/svg">
  <path fill-rule="evenodd" clip-rule="evenodd" d="M18.3334 18.3333L10.0001 1.66663L1.66675 18.3333H18.3334ZM9.25358 13.2516H10.7711L11.126 7.36497H8.88641L9.25358 13.2516ZM9.13116 14.402C8.91091 14.6305 8.80075 14.9079 8.80075 15.2342C8.80075 15.5524 8.91091 15.8298 9.13116 16.0664C9.3515 16.2949 9.64108 16.409 10.0001 16.409C10.3672 16.409 10.6569 16.2949 10.869 16.0664C11.0893 15.8298 11.1994 15.5524 11.1994 15.2342C11.1994 14.9079 11.0893 14.6305 10.869 14.402C10.6569 14.1735 10.3672 14.0593 10.0001 14.0593C9.64108 14.0593 9.3515 14.1735 9.13116 14.402Z" fill="currentColor"/>
</svg>
