<?xml version="1.0" encoding="UTF-8"?>
<svg width="16" height="16" viewBox="0 0 16 16" fill="none" xmlns="http://www.w3.org/2000/svg">
  <path fill-rule="evenodd" clip-rule="evenodd" d="M11.4999 13.1667V2.83337C11.4999 2.64928 11.3507 2.50004 11.1666 2.50004H4.83325C4.64916 2.50004 4.49992 2.64928 4.49992 2.83337V13.1667C4.49992 13.3508 4.64916 13.5 4.83325 13.5H11.1666C11.3507 13.5 11.4999 13.3508 11.4999 13.1667ZM12.6666 2.83337C12.6666 2.00495 11.995 1.33337 11.1666 1.33337H4.83325C4.00483 1.33337 3.33325 2.00495 3.33325 2.83337V13.1667C3.33325 13.9951 4.00483 14.6667 4.83325 14.6667H11.1666C11.995 14.6667 12.6666 13.9951 12.6666 13.1667V2.83337ZM6.83325 12.6667C6.83325 12.4826 6.98252 12.3334 7.16659 12.3334H8.83325C9.01732 12.3334 9.16659 12.4826 9.16659 12.6667C9.16659 12.8508 9.01732 13 8.83325 13H7.16659C6.98252 13 6.83325 12.8508 6.83325 12.6667ZM9.23725 7.17517L9.91885 7.40271L9.97905 6.98031C10.154 5.75309 9.20165 4.65539 7.96205 4.65539C6.71292 4.65539 5.75789 5.76919 5.94853 7.00371L6.01028 7.40364L6.69465 7.17517L7.03219 9.30617L6.21193 9.29957L6.11457 8.68484L5.51821 8.58544L5.28967 7.10544C5.04953 5.5504 6.17903 4.13967 7.71199 4.00004H8.21199C9.73299 4.13861 10.8593 5.52914 10.6391 7.07437L10.4233 8.58764L9.81672 8.68877L9.71999 9.29957L8.89979 9.30617L9.23725 7.17517Z" fill="currentColor"/>
</svg>
