<?xml version="1.0" encoding="UTF-8"?>
<svg width="16" height="16" viewBox="0 0 16 16" fill="none" xmlns="http://www.w3.org/2000/svg">
  <path fill-rule="evenodd" clip-rule="evenodd" d="M10.5 1.33337C11.3284 1.33337 12 2.00495 12 2.83337V13.1667C12 13.9951 11.3284 14.6667 10.5 14.6667H5.5C4.67157 14.6667 4 13.9951 4 13.1667V2.83337C4 2.00495 4.67157 1.33337 5.5 1.33337H10.5ZM6.83333 12.6667C6.83333 12.4826 6.9826 12.3334 7.16667 12.3334H8.83333C9.0174 12.3334 9.16667 12.4826 9.16667 12.6667C9.16667 12.8508 9.0174 13 8.83333 13H7.16667C6.9826 13 6.83333 12.8508 6.83333 12.6667ZM9.23733 7.17517L9.91893 7.40271L9.97913 6.98031C10.1541 5.75309 9.20173 4.65539 7.96213 4.65539C6.713 4.65539 5.75797 5.76919 5.94861 7.00371L6.01036 7.40364L6.69473 7.17517L7.03227 9.30617L6.21201 9.29957L6.11465 8.68484L5.51829 8.58544L5.28975 7.10544C5.04961 5.5504 6.17911 4.13967 7.71207 4.00004H8.21207C9.73307 4.13861 10.8594 5.52914 10.6391 7.07437L10.4234 8.58764L9.8168 8.68877L9.72007 9.29957L8.89987 9.30617L9.23733 7.17517Z" fill="currentColor"/>
</svg>
