<?xml version="1.0" encoding="UTF-8"?>
<svg width="16" height="16" viewBox="0 0 16 16" fill="none" xmlns="http://www.w3.org/2000/svg">
  <path fill-rule="evenodd" clip-rule="evenodd" d="M12.3981 8.12377C12.3981 7.09544 12.0272 6.1062 11.3636 5.33337H10.5425C11.2823 6.06911 11.7048 7.07684 11.7048 8.12377C11.7048 9.05324 11.3709 9.94151 10.7836 10.6463H11.5779C12.1075 9.92291 12.3981 9.03677 12.3981 8.12377ZM6.00028 10.6666H4.83382V9.96184H2.88012L2.43085 10.6666H0.718262L4.54324 5.33723H6.00028V10.6666ZM4.841 8.85137H3.61273L4.841 6.94304V8.85137ZM9.57632 8.00317C9.57632 7.22211 8.94366 6.58533 8.15845 6.58533H7.86205V9.42317H8.15845C8.94366 9.42317 9.57632 8.78631 9.57632 8.00317ZM10.9675 8.00317C10.9675 9.47057 9.77212 10.6638 8.30272 10.6638V10.6658H6.66846V5.3385H8.29859H8.31512C9.78452 5.3385 10.9675 6.52968 10.9675 8.00317ZM12.7287 5.33337H12.7081H12.5391H12.2217H12.0527H11.9077C12.6475 6.06911 13.07 7.07684 13.07 8.12377C13.07 9.05324 12.7361 9.94151 12.1487 10.6463H12.2939H12.4629H12.7514H12.9183H12.9431C13.4727 9.92291 13.7633 9.03677 13.7633 8.12377C13.7633 7.09544 13.3923 6.1062 12.7287 5.33337ZM14.0485 5.33337H14.0877C14.7513 6.1062 15.1222 7.09544 15.1222 8.12377C15.1222 9.03677 14.8317 9.92291 14.302 10.6463H14.2629H14.0918H13.8033H13.6343H13.5077C14.0951 9.94151 14.4289 9.05324 14.4289 8.12377C14.4289 7.07684 14.0064 6.06911 13.2666 5.33337H13.3932H13.5621H13.8795H14.0485Z" fill="currentColor"/>
</svg>
