<?xml version="1.0" encoding="UTF-8"?>
<svg width="16" height="16" viewBox="0 0 16 16" fill="none" xmlns="http://www.w3.org/2000/svg">
  <path fill-rule="evenodd" clip-rule="evenodd" d="M7.50009 1C6.80974 1 6.25009 1.55964 6.25009 2.25C6.25009 2.94036 6.80974 3.5 7.50009 3.5C8.19045 3.5 8.75009 2.94036 8.75009 2.25C8.75009 1.55964 8.19045 1 7.50009 1ZM14.9896 11H5.9999V12.25H14.9896V11ZM12.9897 9.05223C12.9897 8.49995 13.4374 8.05223 13.9897 8.05223C14.542 8.05223 14.9897 8.49995 14.9897 9.05223C14.9897 9.60452 14.542 10.0522 13.9897 10.0522C13.4374 10.0522 12.9897 9.60452 12.9897 9.05223ZM4.98162 8.33086C4.99434 8.31564 5.01463 8.2914 5.0489 8.22749L6.32397 5.86293L6.96885 6.41377C7.21781 6.62642 7.53448 6.74325 7.8619 6.74325H10.0513V5.49325H7.8619C7.83213 5.49325 7.80334 5.48263 7.78071 5.4633L6.24016 4.14742C6.09945 3.98969 5.91883 3.86253 5.70477 3.78311C5.06397 3.54537 4.34674 3.82588 4.03725 4.43528L2.87874 6.71648C2.54779 7.36815 2.43982 8.11042 2.5714 8.82937L3.70073 14.9998H4.95073V8.47876L4.95083 8.47742C4.958 8.38474 4.95968 8.36309 4.96972 8.34649C4.97278 8.34143 4.97662 8.33685 4.98162 8.33086ZM8.24704 8.98644H8.89095C8.93749 8.98644 8.98017 9.01229 9.00173 9.05353L9.20346 9.43945C9.44061 9.8931 9.91012 10.1775 10.422 10.1775H11.0919C11.7132 10.1775 12.2169 9.67378 12.2169 9.05245V7.76587H10.9669V8.92745H10.422C10.3754 8.92745 10.3328 8.9016 10.3112 8.86036L10.1095 8.47445C9.87236 8.0208 9.40284 7.73644 8.89095 7.73644H8.24704V8.98644Z" fill="currentColor"/>
</svg>
