<?xml version="1.0" encoding="UTF-8"?>
<svg width="16" height="16" viewBox="0 0 16 16" fill="none" xmlns="http://www.w3.org/2000/svg">
  <path fill-rule="evenodd" clip-rule="evenodd" d="M8.00004 1C6.89547 1 6.00004 1.89543 6.00004 3C6.00004 4.10457 6.89547 5 8.00004 5C9.10461 5 10 4.10457 10 3C10 1.89543 9.10461 1 8.00004 1ZM12 9.91666L10 8.19948V10H6.00004V8.19948L4.00003 9.91666L2.9209 8.83753L4.80652 6.95191C5.41601 6.34242 6.24266 6.00001 7.10461 6.00001H8.89547C9.75743 6.00001 10.584 6.34242 11.1935 6.95191L13.0792 8.83753L12 9.91666ZM6.0059 10.6716C5.57824 11.1048 4.92735 11.7714 4.65861 12.0845C4.24231 12.5694 4.32997 13.1226 4.7238 13.7818L5.6206 15.3453L6.69556 14.2703L6.07492 12.9328L7.27696 11.7308L6.0059 10.6716ZM8.7193 11.734L9.91817 12.9328L9.29752 14.2703L10.3725 15.3453L11.2693 13.7818C11.6631 13.1226 11.7507 12.5694 11.3344 12.0845C11.0664 11.7722 10.418 11.1081 9.99034 10.6748L8.7193 11.734Z" fill="currentColor"/>
</svg>
