<?xml version="1.0" encoding="UTF-8"?>
<svg width="100px" height="100px" viewBox="0 0 100 100" version="1.1" xmlns="http://www.w3.org/2000/svg" xmlns:xlink="http://www.w3.org/1999/xlink">
    <!-- Generator: Sketch 42 (36781) - http://www.bohemiancoding.com/sketch -->
    <title>bag</title>
    <desc>Created with Sketch.</desc>
    <defs></defs>
    <g id="Page-1" stroke="none" stroke-width="1" fill="none" fill-rule="evenodd">
        <g id="bag" fill="currentColor" fill-rule="nonzero">
            <path d="M14,32 L14,92 L86,92 L86,32 L14,32 Z M6,31.9896876 C6,27.577105 9.55869579,24 13.96462,24 L86.03538,24 C90.434118,24 94,27.5637016 94,31.9896876 L94,92.0103124 C94,96.4228952 90.4413044,100 86.03538,100 L13.96462,100 C9.56588183,100 6,96.4362984 6,92.0103124 L6,31.9896876 Z M70,20 L30,20 C30,8.954305 38.954305,0 50,0 C61.0456948,0 70,8.954305 70,20 Z M62,20 C62,13.372583 56.6274168,8 50,8 C43.372583,8 38,13.372583 38,20 L62,20 Z"></path>
        </g>
    </g>
</svg>
