<?xml version="1.0" encoding="UTF-8"?>
<svg width="62px" height="62px" viewBox="0 0 100 100" version="1.1" xmlns="http://www.w3.org/2000/svg" xmlns:xlink="http://www.w3.org/1999/xlink">
    <!-- Generator: Sketch 42 (36781) - http://www.bohemiancoding.com/sketch -->
    <defs></defs>
    <g
       id="g4"
       style="fill:currentColor;fill-rule:evenodd"
       transform="translate(0,79)">
      <path d="m 100.07832,-75.877277 -87.907789,0 a 11.150152,11.150152 0 1 0 0,22.300302 l 87.903339,0 c -6.052305,-0.03569 -10.944992,-5.013107 -10.944992,-11.15015 0,-6.137044 4.892687,-11.114472 10.949442,-11.150152 z m -100.056995,57.980789 87.903337,0 a 11.150152,11.150152 0 0 0 0,-22.300303 l -87.903337,0 c 6.0478423,0.03568 10.944989,5.013107 10.944989,11.150151 0,6.137044 -4.8971467,11.114472 -10.944989,11.150152 z m 100.056995,13.3801819 -87.907789,0 a 11.150152,11.150152 0 1 0 0,22.3003031 l 87.903339,0 C 94.021565,17.748316 89.128878,12.770888 89.128878,6.6338457 c 0,-6.13704358 4.892687,-11.1144714 10.944992,-11.1501518 z" />
    </g>
</svg>
