<?xml version="1.0" encoding="UTF-8"?>
<svg width="16" height="16" viewBox="0 0 16 16" fill="none" xmlns="http://www.w3.org/2000/svg">
  <path fill-rule="evenodd" clip-rule="evenodd" d="M8 2.54599L10.8978 1.76953L13.2919 10.7043L10.3941 11.4808L8 2.54599ZM10.5616 3.41253C10.6688 3.81263 10.4313 4.22389 10.0312 4.33109C9.63113 4.4383 9.21988 4.20086 9.11267 3.80076C9.00547 3.40066 9.2429 2.98941 9.643 2.8822C10.0431 2.775 10.4544 3.01243 10.5616 3.41253ZM7 2.00009H4V11.2501H7V2.00009ZM5.5 4.25009C5.91421 4.25009 6.25 3.9143 6.25 3.50009C6.25 3.08588 5.91421 2.75009 5.5 2.75009C5.08579 2.75009 4.75 3.08588 4.75 3.50009C4.75 3.9143 5.08579 4.25009 5.5 4.25009ZM14 12.3751V13.6251H2V12.3751H14Z" fill="currentColor"/>
</svg>
