<?xml version="1.0" encoding="UTF-8"?>
<svg width="16" height="16" viewBox="0 0 16 16" fill="none" xmlns="http://www.w3.org/2000/svg">
  <path fill-rule="evenodd" clip-rule="evenodd" d="M8.66675 2.25H7.33341C7.28739 2.25 7.25008 2.28731 7.25008 2.33333V3.25H8.75008V2.33333C8.75008 2.28731 8.71277 2.25 8.66675 2.25ZM6.00008 2.33333V3.25H3.00008L2.66675 4.5H6.00008H7.25008H8.75008H10.0001H13.3334L13.0001 3.25H10.0001V2.33333C10.0001 1.59695 9.40313 1 8.66675 1H7.33341C6.59703 1 6.00008 1.59695 6.00008 2.33333ZM6.78563 6.98155H5.53458L5.81234 13.7501H7.0634L6.78563 6.98155ZM8.93784 13.7501L9.21561 6.98155H10.4667L10.1889 13.7501H8.93784ZM3.33341 5.75004H12.6668L12.067 14.0719C12.0293 14.595 11.594 15 11.0696 15H4.9306C4.40621 15 3.97088 14.595 3.93319 14.0719L3.33341 5.75004Z" fill="currentColor"/>
</svg>
