<?xml version="1.0" encoding="UTF-8"?>
<svg width="16" height="16" viewBox="0 0 16 16" fill="none" xmlns="http://www.w3.org/2000/svg">
  <path fill-rule="evenodd" clip-rule="evenodd" d="M1.99992 2.66671C2.36811 2.66671 2.66659 2.36823 2.66659 2.00004C2.66659 1.63185 2.36811 1.33337 1.99992 1.33337C1.63173 1.33337 1.33325 1.63185 1.33325 2.00004C1.33325 2.36823 1.63173 2.66671 1.99992 2.66671ZM1.99992 4.66671C2.36811 4.66671 2.66659 4.36823 2.66659 4.00004C2.66659 3.63185 2.36811 3.33337 1.99992 3.33337C1.63173 3.33337 1.33325 3.63185 1.33325 4.00004C1.33325 4.36823 1.63173 4.66671 1.99992 4.66671ZM4.66658 2.00004C4.66658 2.36823 4.36811 2.66671 3.99992 2.66671C3.63173 2.66671 3.33325 2.36823 3.33325 2.00004C3.33325 1.63185 3.63173 1.33337 3.99992 1.33337C4.36811 1.33337 4.66658 1.63185 4.66658 2.00004ZM3.99992 4.66671C4.36811 4.66671 4.66658 4.36823 4.66658 4.00004C4.66658 3.63185 4.36811 3.33337 3.99992 3.33337C3.63173 3.33337 3.33325 3.63185 3.33325 4.00004C3.33325 4.36823 3.63173 4.66671 3.99992 4.66671ZM4.66658 6.00004C4.66658 6.36823 4.36811 6.66671 3.99992 6.66671C3.63173 6.66671 3.33325 6.36823 3.33325 6.00004C3.33325 5.63185 3.63173 5.33337 3.99992 5.33337C4.36811 5.33337 4.66658 5.63185 4.66658 6.00004ZM5.99992 4.66671C6.3681 4.66671 6.66658 4.36823 6.66658 4.00004C6.66658 3.63185 6.3681 3.33337 5.99992 3.33337C5.63173 3.33337 5.33325 3.63185 5.33325 4.00004C5.33325 4.36823 5.63173 4.66671 5.99992 4.66671ZM14.4848 7.68771V11.2071C14.4848 12.0173 14.3002 12.8169 13.9451 13.5451L13.3775 14.7087H8.48885L6.56748 12.3133C5.81847 11.3796 5.43376 10.2057 5.48477 9.00971L5.33325 7.13291C6.60787 7.13291 7.40945 7.92391 7.40945 9.64751L7.62112 9.55931L7.94845 2.2191C7.96225 1.91012 8.21678 1.66671 8.52605 1.66671C8.82178 1.66671 9.06985 1.88988 9.10098 2.18397L9.17145 2.84899L9.39265 6.88791L9.81532 6.98637L9.68252 1.9395C9.67379 1.60736 9.94065 1.33337 10.2729 1.33337C10.5871 1.33337 10.8462 1.57925 10.8627 1.89293L11.1491 7.33424L11.5183 7.42024V4.56277L12.5501 5.07421L12.6926 7.67664L13.1849 7.79131V5.39792C13.9867 5.87625 14.4848 6.74397 14.4848 7.68771Z" fill="currentColor"/>
</svg>
