<?xml version="1.0" encoding="UTF-8"?>
<svg width="16" height="16" viewBox="0 0 16 16" fill="none" xmlns="http://www.w3.org/2000/svg">
  <path fill-rule="evenodd" clip-rule="evenodd" d="M8.49706 10.0506C8.77706 10.0506 9.00105 9.99694 9.16905 9.88961C9.33706 9.78227 9.42105 9.62827 9.42105 9.42761C9.42105 9.27827 9.39072 9.16161 9.33006 9.07761C9.26939 8.98894 9.18539 8.92127 9.07806 8.87461C8.98006 8.82794 8.85172 8.78594 8.69306 8.74861C8.53905 8.70661 8.36872 8.66461 8.18205 8.62261C8.00005 8.58061 7.81572 8.53394 7.62906 8.48261C7.44239 8.42661 7.26972 8.36361 7.11105 8.29361C6.87772 8.18627 6.67705 8.02761 6.50906 7.81761C6.34573 7.60294 6.26406 7.31361 6.26406 6.94961C6.26406 6.64628 6.34573 6.38495 6.50906 6.16561C6.67705 5.94161 6.89872 5.77128 7.17405 5.65461C7.45405 5.53795 7.75972 5.47961 8.09105 5.47961C8.42706 5.47961 8.72339 5.51228 8.98005 5.57761C9.23672 5.63828 9.46306 5.74328 9.65906 5.89261C9.85505 6.03728 10.0324 6.23795 10.1911 6.49461L9.55406 6.97761C9.39539 6.69761 9.19705 6.49695 8.95905 6.37561C8.72106 6.25428 8.42939 6.19361 8.08405 6.19361C7.83206 6.19361 7.63372 6.24028 7.48906 6.33361C7.34906 6.42695 7.27905 6.55295 7.27905 6.71161C7.27905 6.85161 7.31172 6.95894 7.37706 7.03361C7.44705 7.10827 7.54505 7.17127 7.67105 7.22261C7.78772 7.27394 7.93006 7.32294 8.09805 7.36961C8.26606 7.41627 8.44339 7.46294 8.63005 7.50961C8.81672 7.55161 8.99639 7.59827 9.16905 7.64961C9.34639 7.70094 9.50039 7.75927 9.63105 7.82461C9.89239 7.95061 10.0977 8.12561 10.2471 8.34961C10.3964 8.56894 10.4711 8.84427 10.4711 9.17561C10.4711 9.50694 10.3824 9.79161 10.2051 10.0296C10.0324 10.2676 9.79672 10.4519 9.49805 10.5826C9.19939 10.7086 8.86806 10.7716 8.50406 10.7716C8.07006 10.7716 7.69906 10.7156 7.39106 10.6036C7.08772 10.4916 6.83339 10.3399 6.62806 10.1486C6.42739 9.95261 6.26173 9.73094 6.13106 9.48361L6.79605 9.00061C6.98272 9.35994 7.21372 9.62594 7.48906 9.79861C7.76906 9.96661 8.10506 10.0506 8.49706 10.0506ZM12.6135 9.91061H15.1475V10.6666H11.3465V5.58461H12.6135V9.91061ZM5.01007 10.3166C5.38807 10.0833 5.57707 9.74027 5.57707 9.28761V9.27361C5.57707 8.99361 5.52107 8.76727 5.40907 8.59461C5.29707 8.41727 5.14307 8.28194 4.94707 8.18861C4.75107 8.09527 4.52707 8.03227 4.27507 7.99961V7.97161C4.65774 7.90161 4.93774 7.77561 5.11507 7.59361C5.2924 7.41161 5.38107 7.15261 5.38107 6.81661V6.79561C5.38107 6.43161 5.22707 6.13995 4.91907 5.92061C4.61107 5.69661 4.14207 5.58461 3.51207 5.58461H1.19507V10.6666H3.44207C4.11407 10.6666 4.63674 10.5499 5.01007 10.3166ZM2.46207 6.29161H3.22507C3.5424 6.29161 3.7594 6.34995 3.87607 6.46661C3.99274 6.57861 4.05107 6.75127 4.05107 6.98461V6.99861C4.05107 7.25061 3.98807 7.43261 3.86207 7.54461C3.73607 7.65194 3.5494 7.70561 3.30207 7.70561H2.46207V6.29161ZM3.29507 9.95961H2.46207V8.41261H3.33007C3.6614 8.41261 3.89707 8.47794 4.03707 8.60861C4.17707 8.73461 4.24707 8.92361 4.24707 9.17561V9.18261C4.24707 9.44394 4.18174 9.63994 4.05107 9.77061C3.9204 9.89661 3.6684 9.95961 3.29507 9.95961Z" fill="currentColor"/>
</svg>
