<?xml version="1.0" encoding="UTF-8"?>
<svg width="16" height="16" viewBox="0 0 16 16" fill="none" xmlns="http://www.w3.org/2000/svg">
  <path fill-rule="evenodd" clip-rule="evenodd" d="M3.0375 3.06372H1.98682V1.81372H3.29638H3.55527L3.73832 1.99678L12.0027 10.2612V11.9806H11.9544L11.95 11.9762H7.57951C6.15667 11.9762 5.00324 10.8228 5.00324 9.39995V5.02946L3.0375 3.06372ZM5 14.0001C5 13.4478 5.44772 13.0001 6 13.0001C6.55228 13.0001 7 13.4478 7 14.0001C7 14.5524 6.55228 15.0001 6 15.0001C5.44772 15.0001 5 14.5524 5 14.0001ZM10 14.0001C10 13.4478 10.4477 13.0001 11 13.0001C11.5523 13.0001 12 13.4478 12 14.0001C12 14.5524 11.5523 15.0001 11 15.0001C10.4477 15.0001 10 14.5524 10 14.0001Z" fill="currentColor"/>
</svg>
