<?xml version="1.0" encoding="UTF-8"?>
<svg width="16" height="16" viewBox="0 0 16 16" fill="none" xmlns="http://www.w3.org/2000/svg">
  <path fill-rule="evenodd" clip-rule="evenodd" d="M2.0375 3.06372H0.986816V1.81372H2.29638H2.54734L11.0027 10.2691V11.9806H10.9544L10.95 11.9762H6.57951C5.15667 11.9762 4.00324 10.8228 4.00324 9.39995V5.02946L2.0375 3.06372ZM14.1149 11.6135L15.127 10.5238L13.0011 8.54943L12.7852 8.34898H12.4907H10.8504L14.1149 11.6135ZM10.0436 7.54219L12.0528 7.05805L11.76 5.84283L9.00746 6.50608L10.0436 7.54219ZM7.35718 4.85579L6.64432 4.14293C6.55177 3.9481 6.49999 3.73016 6.49999 3.50012C6.49999 2.67169 7.17156 2.00012 7.99999 2.00012C8.82842 2.00012 9.49999 2.67169 9.49999 3.50012C9.49999 4.32855 8.82842 5.00012 7.99999 5.00012C7.76995 5.00012 7.55201 4.94834 7.35718 4.85579ZM4 14.0001C4 13.4478 4.44772 13.0001 5 13.0001C5.55228 13.0001 6 13.4478 6 14.0001C6 14.5524 5.55228 15.0001 5 15.0001C4.44772 15.0001 4 14.5524 4 14.0001ZM9 14.0001C9 13.4478 9.44771 13.0001 10 13.0001C10.5523 13.0001 11 13.4478 11 14.0001C11 14.5524 10.5523 15.0001 10 15.0001C9.44771 15.0001 9 14.5524 9 14.0001Z" fill="currentColor"/>
</svg>
