<?xml version="1.0" encoding="UTF-8"?>
<svg width="40px" height="40px" viewBox="0 0 40 40" version="1.1" xmlns="http://www.w3.org/2000/svg" xmlns:xlink="http://www.w3.org/1999/xlink">
    <!-- Generator: Sketch 55 (78076) - https://sketchapp.com -->
    <title>Group 3</title>
    <desc>Created with Sketch.</desc>
    <g id="Symbols" stroke="none" stroke-width="1" fill="none" fill-rule="evenodd">
        <g id="Shop-header-/-Mobile-/-Global-Nav-FULL-BAG-Copy" transform="translate(-246.000000, -11.000000)">
            <g id="Menu" transform="translate(196.000000, 11.000000)">
                <g id="Group-3" transform="translate(50.000000, 0.000000)">
                    <g id="Group">
                        <path d="M20,39 C30.4934102,39 39,30.4934102 39,20 C39,9.50658975 30.4934102,1 20,1 C9.50658975,1 1,9.50658975 1,20 C1,30.4934102 9.50658975,39 20,39 Z" id="Oval-1-Copy-3" stroke="#333333" stroke-width="2"></path>
                        <path d="M13,15 C13,14.4477153 13.4499488,14 14.0068455,14 L25.9931545,14 C26.5492199,14 27,14.4438648 27,15 C27,15.5522847 26.5500512,16 25.9931545,16 L14.0068455,16 C13.4507801,16 13,15.5561352 13,15 Z M13,20 C13,19.4477153 13.4499488,19 14.0068455,19 L25.9931545,19 C26.5492199,19 27,19.4438648 27,20 C27,20.5522847 26.5500512,21 25.9931545,21 L14.0068455,21 C13.4507801,21 13,20.5561352 13,20 Z M13,25 C13,24.4477153 13.4499488,24 14.0068455,24 L25.9931545,24 C26.5492199,24 27,24.4438648 27,25 C27,25.5522847 26.5500512,26 25.9931545,26 L14.0068455,26 C13.4507801,26 13,25.5561352 13,25 Z" id="Menu" fill="#2A2A2A"></path>
                    </g>
                    <path d="M13,15 C13,14.4477153 13.4499488,14 14.0068455,14 L25.9931545,14 C26.5492199,14 27,14.4438648 27,15 C27,15.5522847 26.5500512,16 25.9931545,16 L14.0068455,16 C13.4507801,16 13,15.5561352 13,15 Z M13,20 C13,19.4477153 13.4499488,19 14.0068455,19 L25.9931545,19 C26.5492199,19 27,19.4438648 27,20 C27,20.5522847 26.5500512,21 25.9931545,21 L14.0068455,21 C13.4507801,21 13,20.5561352 13,20 Z M13,25 C13,24.4477153 13.4499488,24 14.0068455,24 L25.9931545,24 C26.5492199,24 27,24.4438648 27,25 C27,25.5522847 26.5500512,26 25.9931545,26 L14.0068455,26 C13.4507801,26 13,25.5561352 13,25 Z" id="Menu" fill="#2A2A2A"></path>
                </g>
            </g>
        </g>
    </g>
</svg>