<?xml version="1.0" encoding="UTF-8"?>
<svg width="16" height="16" viewBox="0 0 16 16" fill="none" xmlns="http://www.w3.org/2000/svg">
  <path fill-rule="evenodd" clip-rule="evenodd" d="M2.9166 3.00232H12.7499L12.588 4.50384C13.9279 4.55024 14.9999 5.65109 14.9999 7.00232C14.9999 8.38303 13.8806 9.50232 12.4999 9.50232H11.9974C11.6388 10.6709 10.5526 11.5023 9.28906 11.5023H6.37747C4.93025 11.5023 3.71564 10.4117 3.56047 8.97278L2.9166 3.00232ZM12.1837 8.25232H12.4999C13.1903 8.25232 13.7499 7.69268 13.7499 7.00232C13.7499 6.31196 13.1903 5.75232 12.4999 5.75232H12.4534L12.1837 8.25232ZM1.33325 12.7546H14.6666L13.4999 14.0046H2.49992L1.33325 12.7546Z" fill="currentColor"/>
</svg>
