<?xml version="1.0" encoding="UTF-8"?>
<svg width="100px" height="100px" viewBox="0 0 100 100" version="1.1" xmlns="http://www.w3.org/2000/svg" xmlns:xlink="http://www.w3.org/1999/xlink">
    <!-- Generator: Sketch 42 (36781) - http://www.bohemiancoding.com/sketch -->
    <defs></defs>
    <g id="Page-1" stroke="none" stroke-width="1" fill="none" fill-rule="evenodd">
        <g id="calendar" fill="currentColor" fill-rule="nonzero">
            <path d="M12.0000004,92 L27.7500018,92 L27.7500018,76.2499985 L12.0000004,76.2499985 L12.0000004,92 Z M31.2499983,92 L48.7500053,92 L48.7500053,76.2499985 L31.2499983,76.2499985 L31.2499983,92 Z M12.0000004,72.7500021 L27.7500018,72.7500021 L27.7500018,55.2499948 L12.0000004,55.2499948 L12.0000004,72.7500021 Z M31.2499983,72.7500021 L48.7500053,72.7500021 L48.7500053,55.2499948 L31.2499983,55.2499948 L31.2499983,72.7500021 Z M12.0000004,51.7499985 L27.7500018,51.7499985 L27.7500018,36.0000018 L12.0000004,36.0000018 L12.0000004,51.7499985 Z M52.2500018,92 L69.7499967,92 L69.7499967,76.2499985 L52.2500018,76.2499985 L52.2500018,92 Z M31.2499983,51.7499985 L48.7500053,51.7499985 L48.7500053,36.0000018 L31.2499983,36.0000018 L31.2499983,51.7499985 Z M73.2500052,92 L89.0000018,92 L89.0000018,76.2499985 L73.2500052,76.2499985 L73.2500052,92 Z M52.2500018,72.7500021 L69.7499967,72.7500021 L69.7499967,55.2499948 L52.2500018,55.2499948 L52.2500018,72.7500021 Z M32.9999965,25.5 L32.9999965,9.75000352 C32.9999965,9.27603874 32.8268305,8.86588427 32.480474,8.51952775 C32.1341176,8.17317128 31.723963,8.00000528 31.2499983,8.00000528 L27.7500018,8.00000528 C27.276037,8.00000528 26.8658825,8.17317128 26.519526,8.51952775 C26.1731695,8.86588427 26.0000035,9.27603874 26.0000035,9.75000352 L26.0000035,25.5 C26.0000035,25.9739648 26.1731695,26.3841071 26.519526,26.7304635 C26.8658825,27.07682 27.276037,27.2499983 27.7500018,27.2499983 L31.2499983,27.2499983 C31.723963,27.2499983 32.1341176,27.07682 32.480474,26.7304635 C32.8268305,26.3841071 32.9999965,25.9739648 32.9999965,25.5 L32.9999965,25.5 Z M73.2500052,72.7500021 L89.0000018,72.7500021 L89.0000018,55.2499948 L73.2500052,55.2499948 L73.2500052,72.7500021 Z M52.2500018,51.7499985 L69.7499967,51.7499985 L69.7499967,36.0000018 L52.2500018,36.0000018 L52.2500018,51.7499985 Z M73.2500052,51.7499985 L89.0000018,51.7499985 L89.0000018,36.0000018 L73.2500052,36.0000018 L73.2500052,51.7499985 Z M75.0000036,25.5 L75.0000036,9.75000352 C75.0000036,9.27603874 74.8268252,8.86588427 74.4804689,8.51952775 C74.134112,8.17317128 73.723958,8.00000528 73.2500052,8.00000528 L69.7499967,8.00000528 C69.2760438,8.00000528 68.8658898,8.17317128 68.5195329,8.51952775 C68.1731766,8.86588427 67.9999982,9.27603874 67.9999982,9.75000352 L67.9999982,25.5 C67.9999982,25.9739648 68.1731766,26.3841071 68.5195329,26.7304635 C68.8658898,27.07682 69.2760438,27.2499983 69.7499967,27.2499983 L73.2500052,27.2499983 C73.723958,27.2499983 74.134112,27.07682 74.4804689,26.7304635 C74.8268252,26.3841071 75.0000036,25.9739648 75.0000036,25.5 L75.0000036,25.5 Z M95.9999951,22.0000035 L95.9999951,92 C95.9999951,93.8958431 95.3072941,95.5364511 93.9218805,96.9218745 C92.5364542,98.307299 90.8958486,99 89.0000018,99 L12.0000004,99 C10.1041573,99 8.4635491,98.307299 7.07812555,96.9218745 C5.69270134,95.5364511 5,93.8958431 5,92 L5,22.0000035 C5,20.1041568 5.69270134,18.463551 7.07812555,17.078125 C8.4635491,15.692699 10.1041573,14.9999982 12.0000004,14.9999982 L18.9999982,14.9999982 L18.9999982,9.75000352 C18.9999982,7.34373604 19.8567633,5.28386173 21.5703178,3.57030723 C23.28386,1.85676499 25.3437343,1 27.7500018,1 L31.2499983,1 C33.6562658,1 35.71614,1.85676499 37.4296823,3.57030723 C39.1432368,5.28386173 40.0000018,7.34373604 40.0000018,9.75000352 L40.0000018,14.9999982 L61.0000055,14.9999982 L61.0000055,9.75000352 C61.0000055,7.34373604 61.8567579,5.28386173 63.5703125,3.57030723 C65.2838671,1.85676499 67.3437416,1 69.7499967,1 L73.2500052,1 C75.6562608,1 77.7161347,1.85676499 79.4296893,3.57030723 C81.1432439,5.28386173 81.9999964,7.34373604 81.9999964,9.75000352 L81.9999964,14.9999982 L89.0000018,14.9999982 C90.8958486,14.9999982 92.5364542,15.692699 93.9218805,17.078125 C95.3072941,18.463551 95.9999951,20.1041568 95.9999951,22.0000035 L95.9999951,22.0000035 Z"></path>
        </g>
    </g>
</svg>
