<?xml version="1.0" encoding="UTF-8"?>
<svg width="16" height="16" viewBox="0 0 16 16" fill="none" xmlns="http://www.w3.org/2000/svg">
  <path fill-rule="evenodd" clip-rule="evenodd" d="M1.33325 4.33325C1.33325 3.78097 1.78097 3.33325 2.33325 3.33325H13.6666C14.2189 3.33325 14.6666 3.78097 14.6666 4.33325V5.33325H1.33325V4.33325ZM1.33325 7.33325H14.6666V11.6666C14.6666 12.2189 14.2189 12.6666 13.6666 12.6666H2.33325C1.78097 12.6666 1.33325 12.2189 1.33325 11.6666V7.33325ZM2.99992 9.99992C2.81583 9.99992 2.66659 10.1492 2.66659 10.3333V10.9999C2.66659 11.184 2.81583 11.3333 2.99992 11.3333H4.33325C4.51735 11.3333 4.66659 11.184 4.66659 10.9999V10.3333C4.66659 10.1492 4.51735 9.99992 4.33325 9.99992H2.99992Z" fill="currentColor"/>
</svg>
