<?xml version="1.0" encoding="UTF-8"?>
<svg width="73px" height="50px" viewBox="0 0 73 50" version="1.1" xmlns="http://www.w3.org/2000/svg" xmlns:xlink="http://www.w3.org/1999/xlink">
    <!-- Generator: Sketch 55 (78076) - https://sketchapp.com -->
    <title>members-card</title>
    <desc>Created with Sketch.</desc>
    <defs>
        <rect id="path-1" x="0" y="0" width="65" height="42" rx="3"></rect>
        <filter x="-7.7%" y="-11.9%" width="121.5%" height="133.3%" filterUnits="objectBoundingBox" id="filter-2">
            <feOffset dx="2" dy="2" in="SourceAlpha" result="shadowOffsetOuter1"></feOffset>
            <feGaussianBlur stdDeviation="2" in="shadowOffsetOuter1" result="shadowBlurOuter1"></feGaussianBlur>
            <feColorMatrix values="0 0 0 0 0   0 0 0 0 0   0 0 0 0 0  0 0 0 0.5 0" type="matrix" in="shadowBlurOuter1"></feColorMatrix>
        </filter>
    </defs>
    <g id="Symbols" stroke="none" stroke-width="1" fill="none" fill-rule="evenodd">
        <g id="Shop-header-/-Desktop-/-Minibag-white-v7" transform="translate(-912.000000, -138.000000)">
            <g id="Mini-bag" transform="translate(902.000000, 114.000000)">
                <g id="Item" transform="translate(12.000000, 19.000000)">
                    <g id="members-card" transform="translate(0.000000, 7.000000)">
                        <g id="Rectangle-2">
                            <use fill="black" fill-opacity="1" filter="url(#filter-2)" xlink:href="#path-1"></use>
                            <use fill="#1D1E20" fill-rule="evenodd" xlink:href="#path-1"></use>
                        </g>
                        <g id="V&amp;A-Logo/White" transform="translate(23.000000, 18.000000)" fill="#FFFFFF" fill-rule="evenodd">
                            <path d="M41.0000476,23.4449822 C41.1974394,23.4610893 41.3235612,23.474976 41.3616216,23.4811479 C41.4519218,23.496126 41.5429684,23.5389905 41.5429684,23.6914436 C41.5429684,23.7809735 41.4560264,23.8577833 41.3739353,23.8577833 L31.5978539,23.8577833 C31.4853144,23.8577833 31.4083764,23.7830057 31.4083764,23.6795891 C31.4083764,23.5949137 31.452963,23.4989861 31.5638234,23.4826909 C31.6646089,23.4679009 31.7599092,23.4581915 31.8714412,23.4488584 C32.225627,23.4190528 32.6858596,23.3578608 32.9275806,23.2427782 C33.2339671,23.0967978 33.415575,22.7855698 33.415575,22.5140071 C33.415575,22.299459 33.3221031,22.0202939 33.2260938,21.7382315 L27.7522957,6.54637331 C27.7522957,6.54637331 29.8554327,0.258243304 29.9000604,0.121822167 C29.9522256,-0.0375929871 30.1011836,-0.0418079298 30.1608116,0.116591122 C30.2129768,0.25489393 38.1481277,20.9999767 38.349624,21.5259037 C38.9776211,23.1678121 40.0336113,23.3665541 41.0000476,23.4449822 Z M19.3080679,1.02848645 C19.0181743,1.20047116 18.8482084,1.54429006 18.7425721,1.80388537 C18.6195474,2.10630751 10.0475933,23.8057363 10.0049059,23.9070078 C9.96292752,24.0065482 9.82229052,24.0030107 9.7887451,23.9049756 C9.7668417,23.8409988 2.851449,2.87177121 2.68458016,2.36785976 C2.51771131,1.86394831 2.18319002,1.2322714 1.69452402,0.996610945 C1.45362391,0.880436587 1.24317215,0.824588596 0.591629908,0.778148959 C0.298266121,0.757187146 0.141919864,0.736714567 0.0896054362,0.712742081 C0.0357238145,0.688054559 -0.00621728157,0.637211813 0.000760463062,0.546929245 C0.00949197239,0.432824725 0.0993444273,0.377729403 0.18124897,0.377729403 C0.22106316,0.377729403 9.02108125,0.377127268 9.08414215,0.377127268 C9.22198059,0.377127268 9.29515363,0.40347066 9.32034067,0.530295275 C9.34448292,0.652039379 9.28063842,0.7516174 9.1681736,0.761326822 C9.06111933,0.770584643 9.00664068,0.774987752 8.88921307,0.78311657 C8.0341595,0.842539736 7.69131716,0.98554672 7.51922433,1.39266503 C7.42493149,1.61564302 7.4982911,2.02212156 7.68109308,2.59923001 C7.86385775,3.17633846 12.078826,16.5420347 12.1430063,16.7432982 L12.16435,16.7432982 C12.16435,16.7432982 17.4851228,2.9857252 17.6853505,2.44052989 C17.8862498,1.89337764 17.9819979,1.43330912 17.8036736,1.17439121 C17.6138566,0.898764061 17.3598219,0.829330406 16.6986899,0.782552069 C16.4245802,0.763246126 16.1788293,0.747891692 16.0714392,0.733515727 C15.9294216,0.714473218 15.8989732,0.631115199 15.8989732,0.557015001 C15.8989732,0.410922076 16.023901,0.37814337 16.1319627,0.37814337 C16.2400618,0.37814337 20.6713028,0.379723974 20.7545506,0.379723974 C20.8376492,0.379723974 20.926233,0.443512616 20.926233,0.559235373 C20.926233,0.668861516 20.8422016,0.728999717 20.7344383,0.734832896 C19.9723716,0.776192022 19.595648,0.857856537 19.3080679,1.02848645 Z M29.8447235,21.9945527 C29.9864053,22.0390354 30.0170029,22.2104932 29.9665169,22.3290012 C29.6706157,23.0232245 28.5272358,23.8709927 27.0832531,23.8709927 C25.5613585,23.8709927 24.5024577,23.2836854 23.9302454,22.5009859 C22.6889904,23.3953061 21.1318339,24 19.2422085,24 C15.7768067,24 13.8968083,21.9496936 13.8968083,19.400255 C13.8968083,17.1083047 15.5177346,15.4382465 17.4276963,14.5435873 C17.7792702,14.382441 18.1960318,14.2001824 18.5318591,14.0788146 C18.5318591,14.0788146 18.2517419,13.6504711 17.9964385,13.2265683 C17.0515325,11.6575558 16.8441405,9.78137947 17.6471781,8.49661225 C18.4787611,7.16612042 20.0135291,6.63447314 21.4491161,6.63447314 C22.6006305,6.63447314 23.6150901,6.99575395 24.2924164,7.44735495 C24.9511976,7.88661219 25.4325501,8.54538516 25.4325501,9.39345421 C25.4325501,10.8235241 24.2846924,11.698087 23.5344916,12.1331293 C22.7655964,12.5789724 21.6331868,13.1722256 21.6331868,13.1722256 C21.6331868,13.1722256 24.3686119,17.50259 25.8761406,19.888511 C26.7047384,18.6348666 27.2744881,16.9665396 27.4249387,15.8350157 C27.4922534,15.3282817 27.5268063,14.9565012 27.1717995,14.7183569 C26.9516461,14.5706081 26.5989155,14.5156257 26.1161451,14.4902231 C26.0423378,14.4863845 25.9335297,14.4753579 25.8726704,14.4606056 C25.7847956,14.4391922 25.7239362,14.3865054 25.7239362,14.2927982 C25.7239362,14.1929568 25.7820716,14.1097493 25.9102084,14.1097493 C26.0178597,14.1097493 29.6841608,14.1104267 29.7622966,14.1104267 C29.840507,14.1104267 29.9140532,14.1564147 29.9277475,14.2608851 C29.9367775,14.3303564 29.9079337,14.4255313 29.8083795,14.4551488 C29.7366618,14.476374 29.6518094,14.4857071 29.4605744,14.5050507 C29.0198198,14.5494581 28.7146647,14.6442567 28.4354803,14.9726083 C28.2340212,15.2096612 28.0995038,15.7806354 28.008308,16.1584372 C27.7438253,17.2540965 27.1672472,18.9135797 26.1558474,20.3312309 C26.553243,20.9601609 26.8176883,21.3785313 26.8432858,21.4187237 C27.3091902,22.1512582 27.9364036,22.8709973 28.5594379,22.8709973 C28.8925785,22.8709973 29.2390403,22.7672043 29.3997897,22.3841342 C29.5382625,22.0537877 29.6558393,21.9353177 29.8447235,21.9945527 Z M19.8315107,7.68410678 C20.1300238,7.25132248 20.5764876,7.07256375 21.1748198,7.07256375 C21.9877831,7.07256375 22.9819064,7.83791455 22.9819064,9.76978838 C22.9819064,10.9841435 22.3733874,12.1509299 21.3948986,12.8004074 C21.3948986,12.8004074 20.5510393,11.485684 20.0673734,10.567805 C19.6437459,9.7639552 19.2543729,8.52084817 19.8315107,7.68410678 L19.8315107,7.68410678 Z M16.8757455,18.034162 C16.8757455,16.8825795 17.2761263,15.3818717 18.7370869,14.4363321 C18.7370869,14.4363321 18.7377959,14.4374611 18.7388407,14.4390793 L18.7370869,14.4363321 C18.7385795,14.4386654 18.7400347,14.440961 18.7415646,14.4433319 C18.7439527,14.44702 18.7472364,14.4521758 18.7515275,14.4588369 C21.9377821,19.4157977 22.1152482,19.7009084 23.6642328,22.0984585 C22.9833244,22.5546132 22.22831,22.8285844 21.4734076,22.8285844 C18.8927242,22.8285844 16.8757455,20.4134975 16.8757455,18.034162 L16.8757455,18.034162 Z" id="V&amp;A-logo-mobile"></path>
                        </g>
                    </g>
                </g>
            </g>
        </g>
    </g>
</svg>