<?xml version="1.0" encoding="UTF-8"?>
<svg width="16" height="16" viewBox="0 0 16 16" fill="none" xmlns="http://www.w3.org/2000/svg">
  <path fill-rule="evenodd" clip-rule="evenodd" d="M1.6665 3.33325C1.11422 3.33325 0.666504 3.78097 0.666504 4.33325V11.6666C0.666504 12.2189 1.11422 12.6666 1.6665 12.6666H14.3332C14.8854 12.6666 15.3332 12.2189 15.3332 11.6666V4.33325C15.3332 3.78097 14.8854 3.33325 14.3332 3.33325H1.6665ZM10.0021 8.39385C10.9884 8.39385 11.788 7.55945 11.788 6.53022C11.788 5.50097 10.9884 4.66659 10.0021 4.66659C9.0157 4.66659 8.2161 5.50097 8.2161 6.53022C8.2161 7.55945 9.0157 8.39385 10.0021 8.39385ZM6.36169 11.2187C6.51986 10.4278 7.07524 9.77472 7.83044 9.49152L9.1009 9.01505H10.9645L12.235 9.49152C12.9902 9.77472 13.5456 10.4278 13.7037 11.2187L13.76 11.4999H6.30544L6.36169 11.2187ZM4.49984 4.66659H1.99984L2.49984 6.66659H4.99984L4.49984 4.66659Z" fill="currentColor"/>
</svg>