<svg xmlns="http://www.w3.org/2000/svg" xmlns:xlink="http://www.w3.org/1999/xlink" width="66" height="66" viewBox="0 0 66 66">
  <defs>
    <rect id="a" width="65" height="42" rx="3"/>
  </defs>
  <g fill="none" fill-rule="evenodd">
    <use width="100%" height="100%" fill="currentColor" transform="translate(.5 12)" href="#a"/>
    <path fill="#fff" d="M64.518 51.45c.197.016.323.03.361.036.09.015.181.058.181.21 0 .09-.086.167-.169.167h-9.776c-.112 0-.19-.075-.19-.178 0-.085.045-.181.156-.197.101-.015.196-.025.308-.034.354-.03.814-.091 1.056-.206.306-.146.488-.457.488-.729 0-.215-.093-.494-.19-.776L51.27 34.551l2.148-6.424c.052-.16.2-.164.26-.005l8.19 21.409c.627 1.642 1.683 1.84 2.65 1.919zM42.826 29.033c-.29.172-.46.516-.566.776-.123.302-8.695 22.002-8.738 22.103-.042.1-.182.096-.216-.002l-7.104-21.537c-.167-.504-.501-1.136-.99-1.371-.24-.117-.451-.172-1.103-.219-.293-.02-.45-.041-.502-.065-.054-.025-.096-.076-.089-.166a.177.177 0 0 1 .18-.17h8.904c.137 0 .21.026.236.153.024.122-.04.222-.152.231-.107.01-.162.014-.28.022-.854.06-1.197.203-1.37.61-.094.223-.02.63.163 1.206.182.577 4.397 13.943 4.462 14.144h.02s5.322-13.757 5.522-14.302c.2-.548.296-1.008.118-1.267-.19-.275-.444-.345-1.105-.391-.274-.02-.52-.035-.627-.05-.142-.019-.173-.102-.173-.176 0-.146.125-.179.233-.179l4.623.002c.083 0 .172.064.172.18 0 .109-.084.169-.192.175-.762.041-1.139.123-1.426.293zM53.362 50c.142.044.173.215.122.334-.296.694-1.44 1.542-2.883 1.542-1.522 0-2.581-.587-3.153-1.37-1.242.894-2.799 1.499-4.688 1.499-3.466 0-5.346-2.05-5.346-4.6 0-2.292 1.621-3.962 3.531-4.856.352-.162.769-.344 1.104-.465 0 0-.28-.429-.535-.852-.945-1.57-1.152-3.446-.35-4.73.832-1.33 2.367-1.863 3.803-1.863 1.151 0 2.166.362 2.843.813.659.44 1.14 1.098 1.14 1.946 0 1.43-1.148 2.305-1.898 2.74-.769.446-1.901 1.04-1.901 1.04l4.243 6.716c.828-1.254 1.398-2.922 1.548-4.054.068-.507.102-.879-.253-1.117-.22-.147-.573-.202-1.055-.228a1.613 1.613 0 0 1-.244-.03c-.088-.02-.149-.073-.149-.167 0-.1.059-.183.187-.183h3.852c.078 0 .152.046.165.15.01.07-.02.166-.12.195a2.05 2.05 0 0 1-.347.05c-.44.044-.746.14-1.025.468-.201.237-.336.808-.427 1.185-.265 1.096-.841 2.756-1.853 4.173l.688 1.088c.466.732 1.093 1.452 1.716 1.452.333 0 .68-.104.84-.487.139-.33.256-.449.445-.39zM43.35 35.69c.299-.434.745-.612 1.343-.612.813 0 1.807.765 1.807 2.697 0 1.214-.608 2.38-1.587 3.03 0 0-.843-1.314-1.327-2.232-.424-.804-.813-2.047-.236-2.884zm-2.956 10.35c0-1.152.4-2.653 1.862-3.599l.001.003-.001-.003.004.007.01.016c3.186 4.957 3.364 5.242 4.913 7.64-.681.456-1.436.73-2.191.73-2.58 0-4.598-2.415-4.598-4.795z"/>
  </g>
</svg>