<?xml version="1.0" encoding="UTF-8"?>
<svg width="16" height="16" viewBox="0 0 16 16" fill="none" xmlns="http://www.w3.org/2000/svg">
  <path fill-rule="evenodd" clip-rule="evenodd" d="M5.99992 8.16667V9.5H1.33325V3.5H13.3333V6.83333H7.33325C6.59687 6.83333 5.99992 7.43027 5.99992 8.16667ZM4.08841 6.66987H4.76365V6.31716H4.01099C3.99092 6.20821 3.97515 6.10785 3.96368 6.01609C3.95507 5.92434 3.95077 5.84693 3.95077 5.78385C3.95077 5.61467 3.98375 5.48565 4.04969 5.39676C4.11565 5.30501 4.2203 5.25913 4.36367 5.25913C4.51563 5.25913 4.62459 5.30644 4.69054 5.40106C4.75649 5.49568 4.79519 5.64048 4.80667 5.83545V5.83976H5.40019V5.83545C5.40019 5.65768 5.36005 5.49281 5.27977 5.34085C5.19949 5.18888 5.08193 5.06702 4.92709 4.97527C4.77226 4.88065 4.57871 4.83333 4.34646 4.83333C4.12855 4.83333 3.93357 4.87491 3.76153 4.95806C3.58949 5.04121 3.4533 5.15877 3.35294 5.31074C3.25545 5.45984 3.20671 5.63618 3.20671 5.83976C3.20671 5.90571 3.21245 5.97882 3.22391 6.05911C3.23538 6.13939 3.25689 6.22541 3.28843 6.31716H2.87123V6.66987H3.44756C3.50777 6.7874 3.55079 6.88487 3.57659 6.96233C3.6024 7.03973 3.61673 7.1114 3.6196 7.17733C3.55652 7.15727 3.48914 7.14007 3.41745 7.12573C3.34864 7.1114 3.27123 7.10427 3.18521 7.10427C2.96442 7.10427 2.79812 7.153 2.68629 7.25047C2.57447 7.34793 2.51855 7.46553 2.51855 7.60313C2.51855 7.74367 2.56873 7.8598 2.66909 7.95153C2.77231 8.0404 2.92571 8.08487 3.12929 8.08487C3.28413 8.08487 3.41889 8.05187 3.53358 7.98593C3.65114 7.91713 3.75006 7.83827 3.83035 7.7494C3.95651 7.844 4.08411 7.92427 4.21313 7.99027C4.34503 8.05333 4.48696 8.08487 4.63893 8.08487C4.84824 8.08487 5.01455 8.04187 5.13784 7.9558C5.26113 7.86693 5.35002 7.7422 5.4045 7.58167C5.46185 7.4182 5.49482 7.2218 5.50342 6.9924H5.11633C5.10487 7.1788 5.06615 7.30927 5.00021 7.3838C4.93713 7.45833 4.83247 7.4956 4.68624 7.4956C4.58875 7.4956 4.48696 7.48413 4.38087 7.4612C4.27765 7.4354 4.17156 7.40247 4.0626 7.36227C4.08267 7.30493 4.09701 7.2462 4.10561 7.18593C4.11421 7.12287 4.11851 7.06267 4.11851 7.00533C4.11851 6.8992 4.10847 6.7874 4.08841 6.66987ZM3.13789 7.77087C2.98019 7.77087 2.90134 7.71353 2.90134 7.59887C2.90134 7.47553 2.98019 7.41393 3.13789 7.41393C3.21245 7.41393 3.28269 7.4268 3.34864 7.4526C3.41459 7.47553 3.48053 7.50853 3.54649 7.55153C3.50634 7.62033 3.45187 7.6748 3.38305 7.715C3.3171 7.75227 3.23538 7.77087 3.13789 7.77087ZM6.66659 8.16667C6.66659 7.79847 6.96505 7.5 7.33325 7.5H14.0952C14.4633 7.5 14.7619 7.79847 14.7619 8.16667V8.83333H6.66659V8.16667ZM6.66659 10H14.7619V12.5C14.7619 12.8682 14.4633 13.1667 14.0952 13.1667H7.33325C6.96505 13.1667 6.66659 12.8682 6.66659 12.5V10Z" fill="currentColor"/>
</svg>
