<?xml version="1.0" encoding="UTF-8"?>
<svg width="16" height="16" viewBox="0 0 16 16" fill="none" xmlns="http://www.w3.org/2000/svg">
  <path fill-rule="evenodd" clip-rule="evenodd" d="M13.5555 4.66683L12.9018 2.22729L3.79734 4.66683H13.5555ZM14.6667 12.0001V11.8789C14.6667 11.9209 14.6639 11.9613 14.6587 12.0001H14.6667ZM14.1518 10.5507C14.3381 10.6709 14.6667 10.9406 14.6667 11.3941V5.33349H1.33341V12.0001H8.00815C8.00288 11.9613 8.00008 11.9209 8.00008 11.8789V11.3941C8.00008 10.9406 8.32868 10.6709 8.51501 10.5507C8.73121 10.4113 8.99995 10.3109 9.27242 10.2367C9.82688 10.0854 10.5553 10.0001 11.3334 10.0001C12.1115 10.0001 12.8399 10.0854 13.3944 10.2367C13.6669 10.3109 13.9356 10.4113 14.1518 10.5507ZM8.66675 12.9092V12.8098C8.85108 12.9051 9.06061 12.9786 9.27242 13.0364C9.82688 13.1876 10.5553 13.2729 11.3334 13.2729C12.1115 13.2729 12.8399 13.1876 13.3944 13.0364C13.6062 12.9786 13.8157 12.9051 14.0001 12.8098V12.9092V13.3941C14 13.7957 12.8061 14.1213 11.3334 14.1213C9.86068 14.1213 8.66681 13.7957 8.66675 13.3941V12.9092ZM4.46406 8.90541H5.30082V8.46841H4.36812C4.34325 8.33335 4.32371 8.20901 4.30949 8.09528C4.29883 7.98161 4.29351 7.88568 4.29351 7.80748C4.29351 7.59788 4.33437 7.43795 4.41609 7.32781C4.49781 7.21415 4.6275 7.15728 4.80516 7.15728C4.99347 7.15728 5.12849 7.21588 5.21021 7.33315C5.29194 7.45041 5.33991 7.62981 5.35411 7.87148V7.87681H6.08961V7.87148C6.08961 7.65115 6.03988 7.44688 5.94039 7.25855C5.8409 7.07021 5.69522 6.91921 5.50335 6.80555C5.31148 6.68828 5.07164 6.62964 4.78384 6.62964C4.5138 6.62964 4.27219 6.68115 4.059 6.78421C3.84581 6.88721 3.67704 7.03295 3.55268 7.22121C3.43187 7.40601 3.37147 7.62455 3.37147 7.87681C3.37147 7.95848 3.37857 8.04915 3.39279 8.14861C3.407 8.24808 3.43365 8.35468 3.47273 8.46841H2.95575V8.90541H3.66993C3.74455 9.05108 3.79785 9.17188 3.82982 9.26781C3.8618 9.36375 3.87957 9.45261 3.88312 9.53435C3.80496 9.50948 3.72145 9.48815 3.63263 9.47035C3.54735 9.45261 3.45141 9.44375 3.34482 9.44375C3.07123 9.44375 2.86515 9.50415 2.72657 9.62495C2.588 9.74575 2.51871 9.89141 2.51871 10.0619C2.51871 10.2361 2.58089 10.3799 2.70525 10.4937C2.83317 10.6038 3.02326 10.6589 3.27553 10.6589C3.4674 10.6589 3.6344 10.618 3.77653 10.5363C3.92221 10.451 4.04479 10.3533 4.14427 10.2431C4.30061 10.3604 4.45873 10.4599 4.61862 10.5416C4.78206 10.6198 4.95794 10.6589 5.14626 10.6589C5.40564 10.6589 5.61172 10.6056 5.76451 10.499C5.91729 10.3889 6.02743 10.2343 6.09495 10.0353C6.16601 9.83281 6.20687 9.58941 6.21753 9.30515H5.73785C5.72364 9.53608 5.67567 9.69775 5.59396 9.79015C5.51579 9.88255 5.3861 9.92875 5.20489 9.92875C5.08408 9.92875 4.95794 9.91448 4.82648 9.88608C4.69857 9.85408 4.5671 9.81321 4.43208 9.76348C4.45695 9.69241 4.47471 9.61961 4.48537 9.54501C4.49603 9.46681 4.50137 9.39221 4.50137 9.32115C4.50137 9.18968 4.48893 9.05108 4.46406 8.90541ZM3.28619 10.2698C3.09077 10.2698 2.99306 10.1987 2.99306 10.0566C2.99306 9.90388 3.09077 9.82748 3.28619 9.82748C3.37857 9.82748 3.46563 9.84348 3.54735 9.87541C3.62907 9.90388 3.71079 9.94468 3.79251 9.99801C3.74277 10.0833 3.67526 10.1508 3.58999 10.2005C3.50827 10.2467 3.407 10.2698 3.28619 10.2698ZM8.66675 11.3941V11.8789C8.66675 12.2806 9.86068 12.6062 11.3334 12.6062C12.8061 12.6062 14.0001 12.2806 14.0001 11.8789V11.3941C14.0001 10.9924 12.8061 10.6668 11.3334 10.6668C9.86068 10.6668 8.66675 10.9924 8.66675 11.3941Z" fill="currentColor"/>
</svg>
