<?xml version="1.0" encoding="UTF-8"?>
<svg width="16" height="16" viewBox="0 0 16 16" fill="none" xmlns="http://www.w3.org/2000/svg">
  <path fill-rule="evenodd" clip-rule="evenodd" d="M3.91067 5.22003L3.24399 6.37475L5.89949 7.9079C5.69944 8.1628 5.58014 8.48409 5.58014 8.83325C5.58014 9.14339 5.67426 9.43154 5.8355 9.67071L5.00247 10.8961H2.25V9.33321L1 8.99988V13.9999L2.25 13.6665V12.1461H5.33333H5.6642L5.85021 11.8725L6.90357 10.323C6.96148 10.3298 7.0204 10.3333 7.08014 10.3333C7.71062 10.3333 8.25024 9.94428 8.47213 9.39321L10.458 10.5397L11.3632 8.97194L10.8486 9.01689L10.5345 9.04432L10.2615 8.88671L3.91067 5.22003ZM3.83335 4.02069L5 2L14.8149 7.66663L13.0778 7.81837L10.7615 8.02069L4.69937 4.52069L3.83335 4.02069ZM12.5833 8.86537L11.6602 10.4641L12.9593 11.2141L14.2926 8.90466L14.0089 8.74084L12.5833 8.86537Z" fill="currentColor"/>
</svg>
