<?xml version="1.0" encoding="UTF-8"?>
<svg width="16" height="16" viewBox="0 0 16 16" fill="none" xmlns="http://www.w3.org/2000/svg">
  <path fill-rule="evenodd" clip-rule="evenodd" d="M10.4029 0V2.03496L8.29822 3.07162L8.85053 4.19298L11.0274 3.1208L13.1946 4.19254L13.7487 3.07206L11.6529 2.03566V0H10.4029ZM4 6.63658C4 6.0843 4.44771 5.63659 4.99999 5.63659C5.145 5.63659 5.2828 5.66745 5.40719 5.72297C5.44844 5.7394 5.48822 5.76036 5.52574 5.78578C5.67369 5.8774 5.79597 6.00654 5.87929 6.1599L6.9541 7.39302L9.01276 7.70776L8.82385 8.9434L6.5389 8.59407L6.31262 8.55947L6.16221 8.38691L5.99999 8.2008V9.49142L8.51075 9.89345C8.96068 9.96549 9.30502 10.3326 9.34815 10.7862L9.75 15.0122H8.62364L8.01774 11.1839L5.03589 11.0024V11.0013L4.9488 10.9969C4.41711 10.9696 4 10.5306 4 9.99819V6.63658ZM1 11.7501C1 10.4724 1.73721 9.36702 2.80944 8.83596V9.68591C2.80944 9.89446 2.83421 10.0974 2.88103 10.292C2.4926 10.6568 2.25 11.1751 2.25 11.7501C2.25 12.8546 3.14543 13.7501 4.25 13.7501C5.15955 13.7501 5.92729 13.1429 6.17004 12.3118L7.43727 12.3887C7.14055 13.8778 5.82633 15.0001 4.25 15.0001C2.45507 15.0001 1 13.545 1 11.7501ZM11.6682 7.5H16V8.75H10.9967L11.6682 7.5ZM3.75 3.75C3.75 3.05964 4.30964 2.5 5 2.5C5.69036 2.5 6.25 3.05964 6.25 3.75C6.25 4.44036 5.69036 5 5 5C4.30964 5 3.75 4.44036 3.75 3.75Z" fill="currentColor"/>
</svg>
