<?xml version="1.0" encoding="UTF-8"?>
<svg width="16" height="16" viewBox="0 0 16 16" fill="none" xmlns="http://www.w3.org/2000/svg">
  <path fill-rule="evenodd" clip-rule="evenodd" d="M7.05664 4.25171C7.05664 3.73071 7.479 3.30835 8 3.30835C8.521 3.30835 8.94336 3.73071 8.94336 4.25171C8.94336 4.63301 8.71709 4.9628 8.38884 5.11162C7.97859 5.29762 7.375 5.74383 7.375 6.48673V7.3289L2.47938 9.90521C1.76064 10.2834 1.25919 10.9649 1.10474 11.75C1.08291 11.861 1.06801 11.9741 1.06041 12.0887L1 13H2.25274H13.7473H15L14.9396 12.0887C14.932 11.9741 14.9171 11.861 14.8953 11.75C14.7408 10.9649 14.2394 10.2834 13.5206 9.90521L8.625 7.3289V6.48673C8.625 6.48496 8.625 6.48104 8.62899 6.47166C8.63361 6.46082 8.64432 6.44135 8.66734 6.41513C8.71623 6.35946 8.7992 6.29805 8.905 6.25008C9.66362 5.90614 10.1934 5.14145 10.1934 4.25171C10.1934 3.04035 9.21136 2.05835 8 2.05835C6.78864 2.05835 5.80664 3.04035 5.80664 4.25171H7.05664ZM12.9385 11.0114C13.2444 11.1724 13.4762 11.4368 13.5985 11.75H2.40149C2.52378 11.4368 2.75559 11.1724 3.0615 11.0114L8 8.41252L12.9385 11.0114Z" fill="currentColor"/>
</svg>
