<?xml version="1.0" encoding="UTF-8"?>
<svg width="16" height="16" viewBox="0 0 16 16" fill="none" xmlns="http://www.w3.org/2000/svg">
  <path fill-rule="evenodd" clip-rule="evenodd" d="M7.99983 13.0834C10.8072 13.0834 13.0831 10.8075 13.0831 8.00008C13.0831 5.19263 10.8072 2.91675 7.99983 2.91675C5.19238 2.91675 2.9165 5.19263 2.9165 8.00008C2.9165 10.8075 5.19238 13.0834 7.99983 13.0834ZM7.99983 14.3334C11.4976 14.3334 14.3331 11.4979 14.3331 8.00008C14.3331 4.50228 11.4976 1.66675 7.99983 1.66675C4.50203 1.66675 1.6665 4.50228 1.6665 8.00008C1.6665 11.4979 4.50203 14.3334 7.99983 14.3334ZM9.08267 8.62491C8.86655 8.99859 8.46256 9.25 7.99984 9.25C7.30948 9.25 6.74984 8.69036 6.74984 8C6.74984 7.53725 7.00129 7.13324 7.375 6.91713V4.16357H8.625V6.91731C8.81467 7.02707 8.97283 7.18523 9.08257 7.37491H11.8363V8.62491H9.08267Z" fill="currentColor"/>
</svg>
