<?xml version="1.0" encoding="UTF-8"?>
<svg width="100px" height="100px" viewBox="0 0 100 100" version="1.1" xmlns="http://www.w3.org/2000/svg" xmlns:xlink="http://www.w3.org/1999/xlink">
    <!-- Generator: Sketch 42 (36781) - http://www.bohemiancoding.com/sketch -->
    <defs></defs>
    <g id="Page-1" stroke="none" stroke-width="1" fill="none" fill-rule="evenodd">
        <g id="clock" fill="currentColor" fill-rule="nonzero">
            <path d="M50,11.8888889 C28.9844444,11.8888889 11.8888889,28.9844444 11.8888889,50 C11.8888889,71.0155556 28.9844444,88.1111111 50,88.1111111 C71.0155556,88.1111111 88.1111111,71.0155556 88.1111111,50 C88.1111111,28.9844444 71.0155556,11.8888889 50,11.8888889 L50,11.8888889 Z M63.8288889,23.4311111 L65.2444444,21.0355556 C65.5711111,20.3822222 66.4422222,20.1644444 67.0955556,20.4911111 C67.7488889,20.8177778 67.9666667,21.6888889 67.64,22.3422222 L66.2244444,24.7377778 C66.0066667,25.1733333 65.4622222,25.3911111 65.0266667,25.3911111 C64.8088889,25.3911111 64.5911111,25.2822222 64.3733333,25.1733333 C63.6111111,24.8466667 63.3933333,24.0844444 63.8288889,23.4311111 L63.8288889,23.4311111 Z M48.6933333,17.3333333 C48.6933333,16.5711111 49.3466667,15.9177778 50.1088889,15.9177778 C50.8711111,15.9177778 51.5244444,16.5711111 51.5244444,17.3333333 L51.5244444,20.0555556 C51.5244444,20.8177778 50.8711111,21.4711111 50.1088889,21.4711111 C49.3466667,21.4711111 48.6933333,20.8177778 48.6933333,20.0555556 L48.6933333,17.3333333 L48.6933333,17.3333333 Z M17.3333333,51.4155556 C16.5711111,51.4155556 15.9177778,50.7622222 15.9177778,50 C15.9177778,49.2377778 16.5711111,48.5844444 17.3333333,48.5844444 L20.0555556,48.5844444 C20.8177778,48.5844444 21.4711111,49.2377778 21.4711111,50 C21.4711111,50.7622222 20.8177778,51.4155556 20.0555556,51.4155556 L17.3333333,51.4155556 L17.3333333,51.4155556 Z M24.7377778,66.1155556 L22.3422222,67.5311111 C22.1244444,67.64 21.9066667,67.7488889 21.6888889,67.7488889 C21.2533333,67.7488889 20.7088889,67.5311111 20.4911111,67.0955556 C20.1644444,66.4422222 20.3822222,65.5711111 21.0355556,65.2444444 L23.4311111,63.8288889 C24.0844444,63.5022222 24.9555556,63.72 25.2822222,64.3733333 C25.6088889,64.9177778 25.3911111,65.7888889 24.7377778,66.1155556 L24.7377778,66.1155556 Z M25.2822222,35.7355556 C25.0644444,36.1711111 24.52,36.3888889 24.0844444,36.3888889 C23.8666667,36.3888889 23.6488889,36.28 23.4311111,36.1711111 L21.0355556,34.7555556 C20.3822222,34.4288889 20.1644444,33.5577778 20.4911111,32.9044444 C20.8177778,32.2511111 21.6888889,32.0333333 22.3422222,32.36 L24.7377778,33.7755556 C25.3911111,34.2111111 25.6088889,35.0822222 25.2822222,35.7355556 L25.2822222,35.7355556 Z M36.1711111,76.5688889 L34.7555556,78.9644444 C34.5377778,79.4 33.9933333,79.6177778 33.5577778,79.6177778 C33.34,79.6177778 33.1222222,79.5088889 32.9044444,79.4 C32.2511111,79.0733333 32.0333333,78.2022222 32.36,77.5488889 L33.7755556,75.1533333 C34.1022222,74.5 34.9733333,74.2822222 35.6266667,74.6088889 C36.3888889,75.1533333 36.6066667,75.9155556 36.1711111,76.5688889 L36.1711111,76.5688889 Z M35.7355556,25.2822222 C35.5177778,25.3911111 35.3,25.5 35.0822222,25.5 C34.6466667,25.5 34.1022222,25.2822222 33.8844444,24.8466667 L32.4688889,22.4511111 C32.1422222,21.7977778 32.36,20.9266667 33.0133333,20.6 C33.6666667,20.2733333 34.5377778,20.4911111 34.8644444,21.1444444 L36.28,23.54 C36.6066667,24.0844444 36.3888889,24.8466667 35.7355556,25.2822222 L35.7355556,25.2822222 Z M51.4155556,82.6666667 C51.4155556,83.4288889 50.7622222,84.0822222 50,84.0822222 C49.2377778,84.0822222 48.5844444,83.4288889 48.5844444,82.6666667 L48.5844444,79.9444444 C48.5844444,79.1822222 49.2377778,78.5288889 50,78.5288889 C50.7622222,78.5288889 51.4155556,79.1822222 51.4155556,79.9444444 L51.4155556,82.6666667 L51.4155556,82.6666667 Z M66.9866667,79.5088889 C66.7688889,79.6177778 66.5511111,79.7266667 66.3333333,79.7266667 C65.8977778,79.7266667 65.3533333,79.5088889 65.1355556,79.0733333 L63.72,76.6777778 C63.3933333,76.0244444 63.6111111,75.1533333 64.2644444,74.8266667 C64.9177778,74.5 65.7888889,74.7177778 66.1155556,75.3711111 L67.5311111,77.7666667 C67.8577778,78.3111111 67.64,79.0733333 66.9866667,79.5088889 L66.9866667,79.5088889 Z M69.0555556,51.4155556 L53.8111111,51.4155556 C53.3755556,52.6133333 52.5044444,53.4844444 51.3066667,53.92 L51.3066667,55.4444444 C51.3066667,56.2066667 50.6533333,56.86 49.8911111,56.86 C49.1288889,56.86 48.4755556,56.2066667 48.4755556,55.4444444 L48.4755556,53.8111111 C47.2777778,53.3755556 46.4066667,52.5044444 45.9711111,51.3066667 L44.5555556,51.3066667 C43.7933333,51.3066667 43.14,50.6533333 43.14,49.8911111 C43.14,49.1288889 43.7933333,48.4755556 44.5555556,48.4755556 L46.1888889,48.4755556 C46.6244444,47.2777778 47.4955556,46.4066667 48.6933333,45.9711111 L48.6933333,28.2222222 C48.6933333,27.46 49.3466667,26.8066667 50.1088889,26.8066667 C50.8711111,26.8066667 51.5244444,27.46 51.5244444,28.2222222 L51.5244444,46.1888889 C52.7222222,46.6244444 53.5933333,47.4955556 54.0288889,48.6933333 L69.2733333,48.6933333 C70.0355556,48.6933333 70.6888889,49.3466667 70.6888889,50.1088889 C70.6888889,50.8711111 69.8177778,51.4155556 69.0555556,51.4155556 L69.0555556,51.4155556 Z M79.5088889,66.9866667 C79.2911111,67.4222222 78.7466667,67.64 78.3111111,67.64 C78.0933333,67.64 77.8755556,67.5311111 77.6577778,67.4222222 L75.2622222,66.0066667 C74.6088889,65.68 74.3911111,64.8088889 74.7177778,64.1555556 C75.0444444,63.5022222 75.9155556,63.2844444 76.5688889,63.6111111 L78.9644444,65.0266667 C79.6177778,65.5711111 79.8355556,66.3333333 79.5088889,66.9866667 L79.5088889,66.9866667 Z M82.6666667,48.6933333 C83.4288889,48.6933333 84.0822222,49.3466667 84.0822222,50.1088889 C84.0822222,50.8711111 83.4288889,51.5244444 82.6666667,51.5244444 L79.9444444,51.5244444 C79.1822222,51.5244444 78.5288889,50.8711111 78.5288889,50.1088889 C78.5288889,49.3466667 79.1822222,48.6933333 79.9444444,48.6933333 L82.6666667,48.6933333 L82.6666667,48.6933333 Z M50,1 C77.0044444,1 99,22.9955556 99,50 C99,77.0044444 77.0044444,99 50,99 C22.9955556,99 1,77.0044444 1,50 C1,22.9955556 22.9955556,1 50,1 Z M79.5088889,33.0133333 C79.8355556,33.6666667 79.6177778,34.5377778 78.9644444,34.8644444 L76.5688889,36.28 C76.3511111,36.3888889 76.1333333,36.4977778 75.9155556,36.4977778 C75.48,36.4977778 74.9355556,36.28 74.7177778,35.8444444 C74.3911111,35.1911111 74.6088889,34.32 75.2622222,33.9933333 L77.6577778,32.5777778 C78.3111111,32.1422222 79.0733333,32.36 79.5088889,33.0133333 Z M50,93.5555556 C74.0644444,93.5555556 93.5555556,74.0644444 93.5555556,50 C93.5555556,25.9355556 74.0644444,6.44444444 50,6.44444444 C25.9355556,6.44444444 6.44444444,25.9355556 6.44444444,50 C6.44444444,74.0644444 25.9355556,93.5555556 50,93.5555556 Z M50,51.4155556 C49.2182103,51.4155556 48.5844444,50.7817897 48.5844444,50 C48.5844444,49.2182103 49.2182103,48.5844444 50,48.5844444 C50.7817897,48.5844444 51.4155556,49.2182103 51.4155556,50 C51.4155556,50.7817897 50.7817897,51.4155556 50,51.4155556 Z"></path>
        </g>
    </g>
</svg>
