<?xml version="1.0" encoding="UTF-8"?>
<svg width="16" height="16" viewBox="0 0 16 16" fill="none" xmlns="http://www.w3.org/2000/svg">
  <path fill-rule="evenodd" clip-rule="evenodd" d="M14.335 8.00004C14.335 11.4988 11.4988 14.335 8.00004 14.335C4.50132 14.335 1.66504 11.4988 1.66504 8.00004C1.66504 4.50132 4.50132 1.66504 8.00004 1.66504C11.4988 1.66504 14.335 4.50132 14.335 8.00004ZM8.60917 6.94555V3.24212H7.3909V6.94776C7.02781 7.15867 6.78367 7.55179 6.78367 8.00194C6.78367 8.67478 7.32911 9.22021 8.00194 9.22021C8.45366 9.22021 8.84795 8.97436 9.05832 8.60917H12.7579V7.3909H9.05612C8.94882 7.20617 8.79433 7.05223 8.60917 6.94555Z" fill="currentColor"/>
</svg>
