<?xml version="1.0" encoding="UTF-8"?>
<svg width="100px" height="100px" viewBox="0 0 100 100" version="1.1" xmlns="http://www.w3.org/2000/svg" xmlns:xlink="http://www.w3.org/1999/xlink">
    <!-- Generator: Sketch 42 (36781) - http://www.bohemiancoding.com/sketch -->
    <title>close-menu</title>
    <desc>Created with Sketch.</desc>
    <defs></defs>
    <g id="Page-1" stroke="none" stroke-width="1" fill="none" fill-rule="evenodd">
        <g id="close-menu" fill="currentColor" fill-rule="nonzero">
            <path d="M53.2032036,37.1871853 L88.4384425,1.9519463 C89.7397567,0.65063211 91.3413383,-9.60961012e-06 93.2432442,0 C95.1451667,-1.15315322e-05 96.7467442,0.650637875 98.0480525,1.9519463 C99.3493608,3.25325473 100.000011,4.85483271 100,6.75675618 C100.000008,8.65865967 99.3493667,10.2602423 98.0480525,11.5615565 L62.8128137,46.7967954 L53.2032036,37.1871853 Z M37.1871852,53.2032036 L46.7967954,62.8128138 L11.5615612,98.0480483 C10.2602528,99.3493567 8.65866833,99.9999992 6.75675618,100 C4.85484405,99.9999992 3.25325952,99.3493567 1.9519511,98.0480483 C0.65064268,96.7467392 -1.92191406e-07,95.145155 7.99360578e-13,93.2432442 C-9.60960208e-07,91.34133 0.65064268,89.7397458 1.9519511,88.4384375 L37.1871852,53.2032036 Z M1.95194726,11.5615574 C0.650638837,10.260249 -1.05705712e-05,8.658671 0,6.75674753 C-7.87988033e-06,4.85484405 0.650633071,3.25326145 1.95194726,1.95194726 C3.25326145,0.650633071 4.85484405,-7.87988027e-06 6.75674753,6.39488462e-14 C8.658671,-1.05705711e-05 10.260249,0.650638837 11.5615574,1.95194726 L98.0480492,88.4384383 C99.3493633,89.7397533 100.000011,91.3413292 99.9999917,93.2432442 C100.000011,95.1451583 99.3493633,96.746735 98.0480492,98.0480492 C96.746735,99.3493633 95.1451583,100.000011 93.2432442,99.9999917 C91.3413292,100.000011 89.7397533,99.3493633 88.4384383,98.0480492 L1.95194726,11.5615574 Z"></path>
        </g>
    </g>
</svg>
