<?xml version="1.0" encoding="UTF-8"?>
<svg width="16" height="16" viewBox="0 0 16 16" fill="none" xmlns="http://www.w3.org/2000/svg">
  <path fill-rule="evenodd" clip-rule="evenodd" d="M14.3334 7.99992C14.3334 10.3528 11.7529 12.6666 8.00008 12.6666C4.24719 12.6666 1.66675 10.3528 1.66675 7.99992C1.66675 5.64707 4.24719 3.33325 8.00008 3.33325C11.7529 3.33325 14.3334 5.64707 14.3334 7.99992ZM15.3334 7.99992C15.3334 11.1295 12.0501 13.6666 8.00008 13.6666C3.94999 13.6666 0.666748 11.1295 0.666748 7.99992C0.666748 4.87031 3.94999 2.33325 8.00008 2.33325C12.0501 2.33325 15.3334 4.87031 15.3334 7.99992ZM10.6667 7.99992C10.6667 9.60345 10.0708 11.0677 9.08835 12.1835L8.27308 11.5949C9.13875 10.6467 9.66675 9.38499 9.66675 7.99992C9.66675 6.62089 9.14335 5.36412 8.28441 4.41739L9.11635 3.84831C10.0821 4.95999 10.6667 6.41168 10.6667 7.99992ZM8.66461 8.05072C8.66461 9.20259 8.22435 10.2517 7.50288 11.0387L6.68495 10.4481C7.29095 9.83059 7.66461 8.98432 7.66461 8.05072C7.66461 7.07425 7.25575 6.19327 6.59992 5.56963L7.43968 4.99523C8.19855 5.78933 8.66461 6.86559 8.66461 8.05072ZM6.60617 8.05072C6.60617 8.75432 6.3207 9.39125 5.85927 9.85199L5.03084 9.25385C5.38173 8.97052 5.60617 8.53685 5.60617 8.05072C5.60617 7.50005 5.31817 7.01672 4.8846 6.74299L5.75281 6.14909C6.27639 6.61531 6.60617 7.29452 6.60617 8.05072Z" fill="currentColor"/>
</svg>
