<?xml version="1.0" encoding="UTF-8"?>
<svg width="20" height="20" viewBox="0 0 20 20" fill="none" xmlns="http://www.w3.org/2000/svg">
  <path fill-rule="evenodd" clip-rule="evenodd" d="M7.70818 3.22925C7.70818 2.36631 8.40773 1.66675 9.27064 1.66675C10.1336 1.66675 10.8331 2.36631 10.8331 3.22925V3.43758C10.8331 4.30052 10.1336 5.00008 9.27064 5.00008C8.40773 5.00008 7.70818 4.30052 7.70818 3.43758V3.22925ZM6.10915 4.44271C4.95036 4.44271 4.01097 5.3821 4.01097 6.5409V7.00716C4.01097 8.16596 4.95036 9.10533 6.10915 9.10533C6.3285 9.10533 6.53999 9.07166 6.73873 9.00925C6.72728 8.89991 6.7214 8.78883 6.7214 8.6765V8.15955C6.7214 7.12079 7.2227 6.19911 7.99656 5.62324C7.65612 4.92431 6.93888 4.44271 6.10915 4.44271ZM4.9784 9.99566H7.00914C7.21502 10.4431 7.52239 10.8342 7.90175 11.1394L6.0979 11.8985C5.02603 12.3495 4.29328 13.3584 4.19595 14.5172L4.01326 16.6924H1.65405V14.8311L1.84323 12.6156C1.91673 11.7549 2.46797 11.0087 3.26904 10.6854L4.9784 9.99566ZM14.9101 16.6667L14.7354 14.587C14.7309 14.5339 14.7246 14.4812 14.7166 14.4291C14.5959 13.6463 14.0776 12.9767 13.3406 12.6666L11.1731 11.7545H10.5967H9.88089H9.16498H8.58856L6.42113 12.6666C5.63509 12.9973 5.09774 13.7372 5.02636 14.587L4.84954 16.6924L4.7117 18.3334H15.0501L14.9101 16.6667ZM18.3078 16.6667H15.7463L15.5658 14.5172C15.4685 13.3584 14.7357 12.3495 13.6638 11.8985L11.86 11.1394C12.5797 10.5602 13.0403 9.67216 13.0403 8.6765V8.15954C13.0403 7.93364 13.0166 7.71327 12.9716 7.5008H14.8798L16.6624 8.26896C17.4406 8.60433 17.9701 9.34166 18.0395 10.1862L18.3078 13.4578V16.6667ZM8.20734 6.54393C8.63039 6.10585 9.22381 5.83341 9.88089 5.83341C11.0041 5.83341 11.9414 6.62957 12.1592 7.68836C12.1906 7.84052 12.207 7.99812 12.207 8.15954V8.6765C12.207 9.74916 11.4808 10.6523 10.4932 10.9212C10.2981 10.9742 10.0928 11.0026 9.88089 11.0026C9.70623 11.0026 9.53606 10.9833 9.37248 10.9468C9.36981 10.9462 9.36715 10.9457 9.36448 10.9451C9.33223 10.9377 9.30023 10.9297 9.26848 10.9212C8.93898 10.8314 8.63856 10.6712 8.38456 10.4575C7.87719 10.0308 7.55474 9.39133 7.55474 8.6765V8.52792V8.15955C7.55474 7.53193 7.80329 6.96236 8.20734 6.54393ZM11.6803 4.10426C11.6803 2.96833 12.6012 2.04748 13.7371 2.04748C14.8731 2.04748 15.7939 2.96833 15.7939 4.10426V4.56133C15.7939 5.69726 14.8731 6.61811 13.7371 6.61811C12.6012 6.61811 11.6803 5.69726 11.6803 4.56133V4.10426Z" fill="currentColor"/>
</svg>
