<?xml version="1.0" encoding="UTF-8"?>
<svg width="16" height="16" viewBox="0 0 16 16" fill="none" xmlns="http://www.w3.org/2000/svg">
  <path fill-rule="evenodd" clip-rule="evenodd" d="M6.16654 2.58325C6.16654 1.8929 6.72618 1.33325 7.41652 1.33325C8.10692 1.33325 8.66652 1.8929 8.66652 2.58325V2.74992C8.66652 3.44027 8.10692 3.99992 7.41652 3.99992C6.72618 3.99992 6.16654 3.44027 6.16654 2.74992V2.58325ZM4.88732 3.55402C3.96029 3.55402 3.20878 4.30553 3.20878 5.23257V5.60558C3.20878 6.53262 3.96029 7.28412 4.88732 7.28412C5.0628 7.28412 5.23199 7.25718 5.39098 7.20725C5.38182 7.11978 5.37712 7.03092 5.37712 6.94105V6.52749C5.37712 5.69649 5.77816 4.95914 6.39725 4.49845C6.1249 3.93931 5.5511 3.55402 4.88732 3.55402ZM3.98272 7.99639H5.60732C5.77202 8.35432 6.01791 8.66718 6.3214 8.91138L4.87832 9.51865C4.02082 9.87945 3.43462 10.6866 3.35676 11.6137L3.21061 13.3538H1.32324V11.8647L1.47458 10.0923C1.53338 9.40378 1.97438 8.80679 2.61523 8.54818L3.98272 7.99639ZM11.928 13.3333L11.7883 11.6695C11.7847 11.627 11.7797 11.5849 11.7732 11.5431C11.6767 10.9169 11.262 10.3812 10.6725 10.1331L8.93852 9.40345H8.47738H7.90472H7.33198H6.87085L5.1369 10.1331C4.50807 10.3977 4.07819 10.9897 4.02109 11.6695L3.87963 13.3538L3.76936 14.6666H12.04L11.928 13.3333ZM14.6462 13.3333H12.597L12.4527 11.6137C12.3748 10.6866 11.7886 9.87945 10.931 9.51865L9.48798 8.91138C10.0638 8.44805 10.4322 7.73759 10.4322 6.94105V6.52749C10.4322 6.34677 10.4133 6.17047 10.3772 6.00049H11.9038L13.3299 6.61502C13.9525 6.88332 14.3761 7.47319 14.4316 8.14878L14.6462 10.7661V13.3333ZM6.56588 5.235C6.90432 4.88453 7.37905 4.66658 7.90472 4.66658C8.80332 4.66658 9.55312 5.30351 9.72738 6.15054C9.75245 6.27227 9.76558 6.39834 9.76558 6.52749V6.94105C9.76558 7.79919 9.18465 8.52172 8.39458 8.73678C8.23852 8.77925 8.07425 8.80192 7.90472 8.80192C7.76498 8.80192 7.62885 8.78652 7.49798 8.75732C7.49585 8.75685 7.49372 8.75638 7.49158 8.75592C7.46578 8.75005 7.44018 8.74365 7.41478 8.73678C7.15118 8.66498 6.91085 8.53678 6.70765 8.36585C6.30175 8.02452 6.04379 7.51292 6.04379 6.94105V6.82219V6.52749C6.04379 6.0254 6.24264 5.56975 6.56588 5.235ZM9.34425 3.28327C9.34425 2.37452 10.081 1.63784 10.9897 1.63784C11.8984 1.63784 12.6351 2.37452 12.6351 3.28327V3.64892C12.6351 4.55766 11.8984 5.29434 10.9897 5.29434C10.081 5.29434 9.34425 4.55766 9.34425 3.64892V3.28327Z" fill="currentColor"/>
</svg>
