<?xml version="1.0" encoding="UTF-8"?>
<svg width="16" height="16" viewBox="0 0 16 16" fill="none" xmlns="http://www.w3.org/2000/svg">
  <path fill-rule="evenodd" clip-rule="evenodd" d="M3.50009 4.54041H6.16676L5.83342 5.25282L5.19143 5.38597L5.65003 6.54044H10.5745L10.2603 5.58836C10.2265 5.48591 10.1308 5.41671 10.0229 5.41671H8.65987H8.2432V4.58337H8.65987H10.0229C10.4904 4.58337 10.9051 4.88327 11.0516 5.32721L11.9022 7.90451C12.043 7.88424 12.187 7.87375 12.3334 7.87375C13.9903 7.87375 15.3334 9.21689 15.3334 10.8737C15.3334 12.5306 13.9903 13.8737 12.3334 13.8737C10.6766 13.8737 9.33341 12.5306 9.33341 10.8737C9.33341 9.65594 10.059 8.60761 11.1015 8.13753L10.9166 7.57712L7.80366 10.6238C7.82436 10.704 7.83537 10.788 7.83537 10.8747C7.83537 11.4275 7.38721 11.8757 6.83439 11.8757C6.72212 11.8757 6.61418 11.8572 6.51342 11.8231C6.11622 13.0147 4.9918 13.8737 3.66675 13.8737C2.00989 13.8737 0.666748 12.5306 0.666748 10.8737C0.666748 9.21687 2.00989 7.87372 3.66675 7.87372C3.91538 7.87372 4.15694 7.90397 4.38796 7.96098L4.78007 7.05913L4.18795 5.56857L3.50009 5.25282V4.54041ZM3.98048 8.89818C3.87827 8.88207 3.77348 8.87372 3.66675 8.87372C2.56218 8.87372 1.66675 9.76915 1.66675 10.8737C1.66675 11.9783 2.56218 12.8737 3.66675 12.8737C4.59865 12.8737 5.38169 12.2364 5.60373 11.3738H3.66675C3.49821 11.3738 3.34102 11.2889 3.24861 11.1479C3.1562 11.007 3.14101 10.829 3.20821 10.6744L3.98048 8.89818ZM6.04915 10.2539C6.01919 10.2917 5.99191 10.3318 5.96758 10.3738H4.42935L5.30068 8.3697L6.04915 10.2539ZM7.10309 9.9102C7.06246 9.8989 7.02078 9.8901 6.97823 9.88398L6.04727 7.54044H9.52438L7.10309 9.9102ZM12.0891 11.1301L11.4176 9.09529C10.7737 9.42755 10.3334 10.0992 10.3334 10.8737C10.3334 11.9783 11.2289 12.8737 12.3334 12.8737C13.438 12.8737 14.3334 11.9783 14.3334 10.8737C14.3334 9.76918 13.438 8.87374 12.3334 8.87374C12.2964 8.87374 12.2596 8.87475 12.223 8.87674L12.8804 10.869L13.011 11.2646L12.2196 11.5258L12.0891 11.1301Z" fill="currentColor"/>
</svg>
