<?xml version="1.0" encoding="UTF-8"?>
<svg width="100px" height="100px" viewBox="0 0 100 100" version="1.1" xmlns="http://www.w3.org/2000/svg" xmlns:xlink="http://www.w3.org/1999/xlink">
    <!-- Generator: Sketch 42 (36781) - http://www.bohemiancoding.com/sketch -->
    <defs></defs>
    <g id="Page-1" stroke="none" stroke-width="1" fill="none" fill-rule="evenodd">
        <g id="cycle" fill="currentColor">
            <path d="M88.7606717,60.4589528 C86.7654877,60.4589528 84.8953936,60.9870492 83.272352,61.9060946 L78.8222785,55.2158223 L78.8222785,47.8934106 L77.9575945,47.8934106 C77.7230509,47.8934106 77.4728711,47.8981398 77.2226913,47.9012927 C75.9092473,47.9233624 74.5488945,47.9485849 73.9078087,47.318022 C73.5794477,46.9964349 73.4230853,46.4762205 73.4230853,45.7258507 C73.4230853,45.2466229 73.0478156,44.8588267 72.5630922,44.8588267 C72.0940051,44.8588267 71.7030991,45.2466229 71.7030991,45.7258507 C71.7030991,46.9475663 72.0470964,47.9012927 72.7038184,48.5555017 C73.8296275,49.6589867 75.5496138,49.663716 77.1132376,49.636917 L77.1132376,53.3099459 L68.5445789,53.3099459 C69.8736592,51.0241554 71.9845514,44.8604031 68.6227601,44.8288749 C66.1835069,44.8131109 57.4272133,45.1914486 57.3177596,44.8761671 C57.208306,44.5608857 64.1195234,38.5547741 64.2289771,37.3724687 C64.3384307,36.1901632 64.2289771,34.1723619 64.2289771,33.0058206 C64.2289771,32.2806732 65.1827876,32.2806732 65.2453326,33.0373487 C65.3235138,34.0935416 65.2140601,37.5616375 65.3547863,38.7124148 C65.4642399,39.6109669 71.0932858,42.3854437 73.9547175,44.5293576 C74.7678019,45.1441564 74.2830785,46.1372929 74.6896207,46.4841025 C76.5190606,48.0447457 79.6619445,46.373754 77.5041436,44.6081779 C76.5034243,43.7884461 68.1474185,37.3882327 68.1474185,37.3882327 C68.1474185,37.3882327 68.7259593,30.3101642 68.8666854,28.4342396 C68.9589392,26.5252104 67.2295713,25.6581864 67.2295713,25.6581864 L69.0183569,23.5615648 C69.4968258,23.8768462 70.0659849,24.0660151 70.6836163,24.0660151 C72.3566939,24.0660151 73.7014104,22.7103049 73.7014104,21.0330075 C73.7014104,19.3572866 72.3410576,18 70.6679801,18 C69.2450824,18 68.0567283,18.9836781 67.7283673,20.3078602 C64.4775933,24.1133073 49.2166244,42.1158781 50.0922538,46.3091213 C50.561341,48.5791478 53.51659,51.1171634 56.5734747,53.3115223 L45.6671983,53.3115223 L45.6671983,47.8965634 L44.8025143,47.8965634 C44.5632799,47.8965634 44.3177909,47.9012927 44.0676111,47.9044455 C42.7541671,47.9265152 41.3906871,47.9517377 40.7527285,47.3211748 C40.4243675,46.9995877 40.2680051,46.4793733 40.2680051,45.7290035 C40.2680051,45.2497757 39.8802264,44.8619795 39.4033211,44.8619795 C38.9264159,44.8619795 38.5386371,45.2497757 38.5386371,45.7290035 C38.5386371,46.9507191 38.8826344,47.9044455 39.5549927,48.5586545 C40.6808018,49.6621395 42.4007881,49.6668688 43.9487757,49.6400698 L43.9487757,53.3130987 L35.380117,53.3130987 C36.7091972,51.0162734 38.8200894,44.8588267 35.4582982,44.8288749 C33.0190449,44.8131109 24.2627514,45.1914486 24.1532977,44.8761671 C24.043844,44.5608857 30.9550615,38.5547741 31.0645151,37.3724687 C31.1739688,36.1901632 31.0645151,34.1723619 31.0645151,33.0058206 C31.0645151,32.2806732 32.0183257,32.2806732 32.0652344,33.0531128 C32.1434156,34.1093057 32.0339619,37.5774016 32.1746881,38.7281789 C32.2841417,39.626731 37.9131876,42.4012078 40.7746193,44.5451216 C41.5877037,45.1599205 41.087344,46.153057 41.4938862,46.4998666 C43.3389624,48.0605098 46.4662101,46.3895181 44.3084092,44.623942 C43.3076899,43.8042102 34.9579385,37.4039968 34.9579385,37.4039968 C34.9579385,37.4039968 35.5364793,30.3259283 35.6772055,28.4500036 C35.8335679,26.574079 34.0979454,25.707055 34.0979454,25.707055 L35.8961128,23.6104334 C36.3808362,23.9257148 36.9437408,24.1148837 37.5691904,24.1148837 C39.2422679,24.1148837 40.6026206,22.7591735 40.6026206,21.0881818 C40.6026206,19.401426 39.2532132,18.0457158 37.5848266,18.0457158 C36.1619289,18.0457158 34.9813929,19.0388524 34.6561591,20.3630345 C31.3803671,24.1621759 16.1272164,42.1647467 16.9872096,46.35799 C17.4562967,48.6280164 20.4115458,51.1660321 23.4699941,53.3619674 L19.9049317,53.3619674 C19.5765707,53.3619674 19.2794821,53.5511362 19.1309379,53.8427716 L15.3938768,61.2991778 C14.1117053,60.7899983 12.7200801,60.4952101 11.2580918,60.4952101 C5.04112331,60.4668348 0,65.5176436 0,71.7349938 C0,77.9460384 5.03486881,83 11.2268193,83 C16.5275041,83 20.9681959,79.2796789 22.1456047,74.3297601 L30.4265566,74.3297601 C30.8800075,74.5977494 31.3960034,74.7553901 31.958908,74.7553901 C32.5218126,74.7553901 33.0456265,74.5819853 33.4912593,74.3139961 L64.1226507,74.3139961 C64.5761016,74.5819853 65.0920974,74.7443552 65.6596929,74.7443552 C66.2225975,74.7443552 66.7432842,74.5709505 67.1920443,74.3029612 C67.1920443,74.3029612 69.6176172,74.3029612 70.8304036,74.3029612 L74.1538086,74.3029612 C76.0694959,74.3029612 77.8528317,74.3029612 77.8528317,74.3029612 C79.0255496,79.268644 83.4709322,82.9732011 88.7669262,82.9732011 C94.9588767,82.9732011 100,77.9160866 100,71.7050421 C100,65.4939975 94.9651312,60.4337303 88.7731807,60.4337303 L88.7606717,60.4589528 Z M82.7938831,64.3148449 L86.1353473,69.343584 L79.5681271,69.343584 C80.0997592,67.3336648 81.2412046,65.5806999 82.8048285,64.3148449 L82.7938831,64.3148449 Z M53.4446634,55.0424175 L62.7169528,69.3404312 L34.6592864,69.3404312 L43.8737217,55.0424175 L53.4430997,55.0424175 L53.4446634,55.0424175 Z M16.1397254,63.5818155 C18.2287269,64.8555526 19.7876599,66.9080348 20.414673,69.3420076 L13.268912,69.3420076 L16.1397254,63.5881212 L16.1397254,63.5818155 Z M11.223692,81.25807 C5.98555212,81.25807 1.72154986,76.9828535 1.72154986,71.7255354 C1.72154986,66.4682172 5.98555212,62.1914243 11.223692,62.1914243 C12.4089189,62.1914243 13.5409826,62.4215798 14.5854833,62.8219872 L11.639616,68.7335144 C11.5035807,68.7177503 11.3659818,68.6925278 11.223692,68.6925278 C9.5506145,68.6925278 8.19807987,70.0482381 8.19807987,71.7192297 C8.19807987,73.3902214 9.55217813,74.7459317 11.223692,74.7459317 C11.7865966,74.7459317 12.3057197,74.5725269 12.7591707,74.3045376 L20.3583826,74.3045376 C19.2263189,78.292848 15.5627482,81.2407295 11.2205648,81.2407295 L11.223692,81.25807 Z M20.5632173,73.4580069 L13.6989086,73.4580069 C14.0429058,72.9661679 14.2461769,72.3702859 14.2461769,71.723959 C14.2461769,71.1722164 14.0898146,70.6551549 13.8286894,70.210608 L20.5944898,70.210608 C20.672671,70.7040235 20.7273978,71.2084738 20.7273978,71.723959 C20.7273978,72.3166881 20.6648529,72.8952295 20.5632173,73.4580069 Z M16.9152829,62.0290544 L20.2098383,55.4176024 L29.231948,69.3404312 L22.1956406,69.3404312 C21.5232824,66.2349089 19.5531163,63.6023088 16.910592,62.0259016 L16.9152829,62.0290544 Z M22.3097852,73.4580069 C22.3973481,72.8905003 22.4552022,72.3151117 22.4552022,71.723959 C22.4552022,71.2100502 22.4082935,70.7055999 22.3410576,70.210608 L29.352347,70.210608 C29.0943491,70.6567313 28.9348594,71.1722164 28.9348594,71.723959 C28.9348594,72.3702859 29.1381305,72.9661679 29.4821278,73.4580069 L22.3050943,73.4580069 L22.3097852,73.4580069 Z M29.6228539,66.7535469 L22.023642,55.0408411 L25.9327016,55.0408411 C28.450136,56.7118328 30.545392,58.0202508 30.7486631,58.5719933 C31.1552053,59.6912425 30.0137599,64.9091504 29.5915814,66.7377828 L29.6228539,66.7535469 Z M30.6548457,53.3067931 C28.0748663,51.3835763 25.3228883,49.4761235 25.4636145,49.145078 C25.6043406,48.8140324 32.187197,48.9559091 32.187197,48.9559091 C32.187197,48.9559091 33.625731,48.4829869 32.0464709,51.761914 C31.8119273,52.2348362 32.3904681,52.8181069 33.0784626,53.275265 L30.6548457,53.275265 L30.6548457,53.3067931 Z M32.906464,68.8501686 L32.8751915,68.8344045 C33.8602746,65.3505445 35.4864434,59.1237358 34.9235388,57.1847549 C34.7828126,56.6960687 33.9697282,55.9078651 32.8751915,55.0093129 L41.7878475,55.0093129 L32.8908278,68.8344045 L32.906464,68.8501686 Z M34.4231792,73.4375136 C34.7671764,72.9488274 34.9704475,72.3497926 34.9704475,71.7034657 C34.9704475,71.1517231 34.8140851,70.6315087 34.5482691,70.1901147 L63.0374957,70.1901147 C62.7716796,70.6315087 62.6153173,71.1517231 62.6153173,71.7034657 C62.6153173,72.3497926 62.8185884,72.9488274 63.1625856,73.4375136 L34.4247428,73.4375136 L34.4231792,73.4375136 Z M62.8498608,66.3752092 L55.5008287,55.0408411 L59.0971636,55.0408411 C61.5989618,56.7118328 63.709854,58.0202508 63.9131251,58.5719933 C64.304031,59.6281862 63.318948,64.2943516 62.8498608,66.3752092 L62.8498608,66.3752092 Z M63.8036714,53.291029 C61.223692,51.3678122 58.471714,49.4603594 58.6124402,49.1293139 C58.7531663,48.7982684 65.3360228,48.940145 65.3360228,48.940145 C65.3360228,48.940145 66.7745567,48.4672229 65.1952966,51.7461499 C64.9763893,52.2190721 65.5549301,52.8023428 66.2272884,53.2595009 L63.8036714,53.2595009 L63.8036714,53.291029 Z M66.4149232,68.7871123 C66.2898333,68.7555841 66.1803796,68.724056 66.0552897,68.7082919 C67.056009,65.2086678 68.6352691,59.0922077 68.0723645,57.1847549 C67.9316384,56.6960687 67.118554,55.9078651 66.0240173,55.0093129 L75.2650342,55.0093129 L66.399287,68.7713482 L66.4149232,68.7871123 Z M68.6509053,71.7034657 C68.6509053,71.1517231 68.494543,70.6315087 68.2287269,70.1901147 L77.61047,70.1901147 C77.5479251,70.678801 77.5010164,71.1832513 77.5010164,71.7034657 C77.5010164,72.2867364 77.5479251,72.870007 77.6417425,73.4375136 L68.0880008,73.4375136 C68.4476342,72.9488274 68.6509053,72.3497926 68.6509053,71.7034657 Z M77.7668324,69.3230907 L68.1192732,69.3230907 L76.9693842,55.5610555 L81.800982,62.8440569 C79.7839072,64.4362283 78.3141008,66.7062547 77.7511962,69.3230907 L77.7668324,69.3230907 Z M79.2366388,71.7034657 C79.2366388,71.1832513 79.2835475,70.678801 79.3617287,70.1901147 L86.13222,70.1901147 C85.866404,70.6315087 85.7100416,71.1517231 85.7100416,71.7034657 C85.7100416,72.3497926 85.9133127,72.9488274 86.2573099,73.4375136 L79.3930012,73.4375136 C79.2835475,72.870007 79.2210026,72.2867364 79.2210026,71.7034657 L79.2366388,71.7034657 Z M88.7434719,81.2407295 C84.3965976,81.2407295 80.7377177,78.292848 79.5962723,74.3045376 L87.1954843,74.3045376 C87.6489352,74.5725269 88.164931,74.7301676 88.7278356,74.7301676 C90.3852769,74.7301676 91.7456297,73.3744574 91.7456297,71.7034657 C91.7456297,70.032474 90.3852769,68.6767638 88.7121994,68.6767638 C88.3994746,68.6767638 88.1023861,68.724056 87.8209338,68.8186404 L84.1776902,63.3169791 C85.5224067,62.5760677 87.059449,62.1662018 88.6996904,62.1662018 C93.9378303,62.1662018 98.1987053,66.4382655 98.1987053,71.7034657 C98.1987053,76.9686659 93.9456484,81.2407295 88.7075085,81.2407295 L88.7434719,81.2407295 Z"></path>
        </g>
    </g>
</svg>
