<?xml version="1.0" encoding="UTF-8"?>
<svg width="16" height="16" viewBox="0 0 16 16" fill="none" xmlns="http://www.w3.org/2000/svg">
  <path fill-rule="evenodd" clip-rule="evenodd" d="M2.70337 7.86409C2.70337 10.9017 5.1658 13.3641 8.20337 13.3641C10.0744 13.3641 11.7286 12.4294 12.7223 11.0005C12.6701 11.0016 12.6177 11.0021 12.5653 11.0021C8.42312 11.0021 5.06525 7.64426 5.06525 3.50212C5.06525 3.44969 5.06579 3.39738 5.06687 3.34519C3.63804 4.33896 2.70337 5.99311 2.70337 7.86409ZM5.19628 2.10001C3.12025 3.18528 1.70337 5.35922 1.70337 7.86409C1.70337 11.4539 4.61352 14.3641 8.20337 14.3641C10.7083 14.3641 12.8823 12.9472 13.9675 10.8711C14.1565 10.5095 14.3125 10.1278 14.4315 9.73023C14.0634 9.84037 13.6816 9.91876 13.2893 9.96224C13.0516 9.98859 12.81 10.0021 12.5653 10.0021C8.9754 10.0021 6.06525 7.09197 6.06525 3.50212C6.06525 3.25742 6.07878 3.01587 6.10511 2.77819C6.14859 2.38587 6.22698 2.00407 6.33711 1.63599C5.9395 1.75496 5.55789 1.91097 5.19628 2.10001Z" fill="currentColor"/>
</svg>
