<?xml version="1.0" encoding="UTF-8"?>
<svg width="16" height="16" viewBox="0 0 16 16" fill="none" xmlns="http://www.w3.org/2000/svg">
  <path fill-rule="evenodd" clip-rule="evenodd" d="M2.14319 8.70908C0.683064 7.24896 0.683065 4.88163 2.14319 3.42151C3.60331 1.96138 5.97064 1.96139 7.43076 3.42151L8.00009 3.99084L8.56942 3.42151C10.0296 1.96139 12.3969 1.96138 13.857 3.42151C15.3171 4.88163 15.3171 7.24896 13.857 8.70908L13.2877 9.27841L13.2891 9.27983L8.00151 14.5674L8.00009 14.566L7.99868 14.5674L2.7111 9.27983L2.71252 9.27841L2.14319 8.70908ZM7.70583 8.63388L5.93881 11.4723L7.25674 11.5L10.3626 7.57391H8.15685L10.5001 4.5H8.49943L5.50009 8.63388H7.70583Z" fill="currentColor"/>
</svg>
