<?xml version="1.0" encoding="UTF-8"?>
<svg width="16" height="16" viewBox="0 0 16 16" fill="none" xmlns="http://www.w3.org/2000/svg">
  <path fill-rule="evenodd" clip-rule="evenodd" d="M12.75 6.76422V12.2078H3.25V6.76422H3.2718H3.29421H3.31657H3.3389H3.36119H3.38345H3.40567H3.42785H3.45H3.4721H3.49418H3.51622H3.53822H3.56018H3.58211H3.60401H3.62587H3.6477H3.66949H3.69124H3.71296H3.73465H3.7563H3.77792H3.79951H3.82106H3.84258H3.86406H3.88551H3.90693H3.92831H3.94966H3.97098H3.99227H4.01352H4.03475H4.05594H4.0771H4.09822H4.11932H4.14038H4.16141H4.18241H4.20338H4.22432H4.24523H4.26611H4.28695H4.30777H4.32856H4.34932H4.37004H4.39074H4.41141H4.43205H4.45266H4.47324H4.49379H4.51432H4.53481H4.55528H4.57572H4.59613H4.61651H4.63686H4.65719H4.67749H4.69776H4.71801H4.73823H4.75842H4.77858H4.79872H4.81883H4.83892H4.85898H4.87901H4.89902H4.919H4.93896H4.95889H4.97879H4.99867H5.01853H5.03836H5.05817H5.07795H5.09771H5.11744H5.13715H5.15684H5.1765H5.19614H5.21576H5.23535H5.25492H5.27447H5.29399H5.3135H5.33298H5.35243H5.37187H5.39128H5.41067H5.43004H5.44939H5.46872H5.48802H5.50731H5.52657H5.54582H5.56504H5.58424H5.60342H5.62258H5.64173H5.66085H5.67995H5.69903H5.7181H5.73714H5.75617H5.77517H5.79416H5.81313H5.83208H5.85102H5.86993H5.88883H5.90771H5.92657H5.94541H5.96424H5.98305H6.00184H6.02061H6.03937H6.05812H6.07684H6.09555H6.11424H6.13292H6.15158H6.17023H6.18886H6.20747H6.22607H6.24466H6.26323H6.28178H6.30032H6.31885H6.33736H6.35586H6.37435H6.39281H6.41127H6.42971H6.44814H6.46656H6.48496H6.50335H6.52173H6.5401H6.55845H6.57679H6.59512H6.61344H6.63174H6.65003H6.66831H6.68658H6.70484H6.72309H6.74133H6.75955H6.77777H6.79598H6.81417H6.83235H6.85053H6.8687H6.88685H6.905H6.92313H6.94126H6.95938H6.97749H6.99559H7V8.14056L9 8.45777V6.76422H9.00441H9.02251H9.04062H9.05874H9.07687H9.095H9.11315H9.1313H9.14947H9.16764H9.18583H9.20402H9.22223H9.24044H9.25867H9.27691H9.29515H9.31341H9.33168H9.34996H9.36826H9.38656H9.40488H9.42321H9.44155H9.4599H9.47827H9.49664H9.51503H9.53344H9.55185H9.57028H9.58873H9.60718H9.62565H9.64414H9.66263H9.68115H9.69967H9.71821H9.73677H9.75534H9.77392H9.79252H9.81114H9.82977H9.84842H9.86708H9.88575H9.90445H9.92316H9.94188H9.96067H9.97937H9.99817H10.017H10.0358H10.0546H10.0735H10.0923H10.1112H10.1301H10.149H10.1679H10.1869H10.2059H10.2249H10.2439H10.2629H10.2819H10.301H10.3201H10.3392H10.3583H10.3774H10.3966H10.4158H10.435H10.4542H10.4735H10.4927H10.512H10.5313H10.5506H10.57H10.5894H10.6087H10.6282H10.6476H10.6671H10.6865H10.706H10.7256H10.7451H10.7647H10.7843H10.8039H10.8235H10.8432H10.8629H10.8826H10.9023H10.9221H10.9419H10.9617H10.9815H11.0014H11.0212H11.0411H11.0611H11.081H11.101H11.121H11.1411H11.1611H11.1812H11.2013H11.2214H11.2416H11.2618H11.282H11.3023H11.3225H11.3428H11.3632H11.3835H11.4039H11.4243H11.4448H11.4652H11.4857H11.5062H11.5268H11.5474H11.568H11.5886H11.6093H11.63H11.6507H11.6715H11.6923H11.7131H11.7339H11.7548H11.7757H11.7966H11.8176H11.8386H11.8596H11.8807H11.9018H11.9229H11.9441H11.9653H11.9865H12.0078H12.029H12.0504H12.0717H12.0931H12.1145H12.136H12.1575H12.179H12.2005H12.2221H12.2437H12.2654H12.2871H12.3088H12.3305H12.3523H12.3742H12.396H12.4179H12.4398H12.4618H12.4838H12.5059H12.5279H12.55H12.5722H12.5944H12.6166H12.6388H12.6611H12.6835H12.7058H12.7282H12.75ZM12.3812 5.51422L11.2962 3.25H8.8663L9 5.2857V5.51422H9.00441H9.02251H9.04062H9.05874H9.07687H9.095H9.11315H9.1313H9.14947H9.16764H9.18583H9.20402H9.22223H9.24044H9.25867H9.27691H9.29515H9.31341H9.33168H9.34996H9.36826H9.38656H9.40488H9.42321H9.44155H9.4599H9.47827H9.49664H9.51503H9.53344H9.55185H9.57028H9.58873H9.60718H9.62565H9.64414H9.66263H9.68115H9.69967H9.71821H9.73677H9.75534H9.77392H9.79252H9.81114H9.82977H9.84842H9.86708H9.88575H9.90445H9.92316H9.94188H9.96067H9.97937H9.99817H10.017H10.0358H10.0546H10.0735H10.0923H10.1112H10.1301H10.149H10.1679H10.1869H10.2059H10.2249H10.2439H10.2629H10.2819H10.301H10.3201H10.3392H10.3583H10.3774H10.3966H10.4158H10.435H10.4542H10.4735H10.4927H10.512H10.5313H10.5506H10.57H10.5894H10.6087H10.6282H10.6476H10.6671H10.6865H10.706H10.7256H10.7451H10.7647H10.7843H10.8039H10.8235H10.8432H10.8629H10.8826H10.9023H10.9221H10.9419H10.9617H10.9815H11.0014H11.0212H11.0411H11.0611H11.081H11.101H11.121H11.1411H11.1611H11.1812H11.2013H11.2214H11.2416H11.2618H11.282H11.3023H11.3225H11.3428H11.3632H11.3835H11.4039H11.4243H11.4448H11.4652H11.4857H11.5062H11.5268H11.5474H11.568H11.5886H11.6093H11.63H11.6507H11.6715H11.6923H11.7131H11.7339H11.7548H11.7757H11.7966H11.8176H11.8386H11.8596H11.8807H11.9018H11.9229H11.9441H11.9653H11.9865H12.0078H12.029H12.0504H12.0717H12.0931H12.1145H12.136H12.1575H12.179H12.2005H12.2221H12.2437H12.2654H12.2871H12.3088H12.3305H12.3523H12.3742H12.3812ZM7 5.51422V5.2857L7.1337 3.25H4.7038L3.61886 5.51422H3.62587H3.6477H3.66949H3.69124H3.71296H3.73465H3.7563H3.77792H3.79951H3.82106H3.84258H3.86406H3.88551H3.90693H3.92831H3.94966H3.97098H3.99227H4.01352H4.03475H4.05594H4.0771H4.09822H4.11932H4.14038H4.16141H4.18241H4.20338H4.22432H4.24523H4.26611H4.28696H4.30777H4.32856H4.34932H4.37004H4.39074H4.41141H4.43205H4.45266H4.47324H4.49379H4.51432H4.53481H4.55528H4.57572H4.59613H4.61651H4.63686H4.65719H4.67749H4.69776H4.71801H4.73823H4.75842H4.77858H4.79872H4.81883H4.83892H4.85898H4.87901H4.89902H4.919H4.93896H4.95889H4.97879H4.99867H5.01853H5.03836H5.05817H5.07795H5.09771H5.11744H5.13715H5.15684H5.1765H5.19614H5.21576H5.23535H5.25492H5.27447H5.29399H5.3135H5.33298H5.35243H5.37187H5.39128H5.41067H5.43004H5.44939H5.46872H5.48802H5.50731H5.52657H5.54582H5.56504H5.58424H5.60342H5.62258H5.64173H5.66085H5.67995H5.69903H5.7181H5.73714H5.75617H5.77517H5.79416H5.81313H5.83208H5.85102H5.86993H5.88883H5.90771H5.92657H5.94541H5.96424H5.98305H6.00184H6.02061H6.03937H6.05812H6.07684H6.09555H6.11424H6.13292H6.15158H6.17023H6.18886H6.20747H6.22607H6.24466H6.26323H6.28178H6.30033H6.31885H6.33736H6.35586H6.37435H6.39282H6.41127H6.42972H6.44814H6.46656H6.48496H6.50335H6.52173H6.5401H6.55845H6.57679H6.59512H6.61344H6.63174H6.65003H6.66831H6.68658H6.70484H6.72309H6.74133H6.75955H6.77777H6.79598H6.81417H6.83236H6.85053H6.8687H6.88685H6.905H6.92313H6.94126H6.95938H6.97749H6.99559H7ZM12.0834 2L13.991 5.98121H14V6V7.23121V12.2078V13.4578H12.75H3.25H2V12.2078V7.23121V6V5.98121H2.00901L3.91667 2H12.0834Z" fill="currentColor"/>
</svg>
