<svg id="Layer_1" data-name="Layer 1" xmlns="http://www.w3.org/2000/svg" viewBox="0 0 30 18"><defs><style>.cls-1{fill:#1d1e20;fill-rule:evenodd;}</style></defs><title>vam-delivery_</title><g id="Symbols"><g id="delivery"><g id="Group-3"><path id="Fill-1" class="cls-1" d="M20.1,1.86V14.11H13.29a2.79,2.79,0,0,0-5.37,0H7.5V1.86Zm8.12,8v4.25h-.57a2.78,2.78,0,0,0-5.36,0h-.41V5.59h2.78Zm1.56-1L25.73,4a.87.87,0,0,0-.67-.31H21.88V.93A.91.91,0,0,0,21,0H6.61a.91.91,0,0,0-.88.93v.78H3.32a.92.92,0,0,0-.89.94.91.91,0,0,0,.89.93H5.73V6.89H.89a.93.93,0,0,0,0,1.86H5.73v3.89H3.25a.93.93,0,0,0,0,1.86H5.73V15a.91.91,0,0,0,.88.93H7.92a2.79,2.79,0,0,0,5.37,0h9a2.78,2.78,0,0,0,5.36,0h1.46A.91.91,0,0,0,30,15V9.51a1,1,0,0,0-.22-.61Z" transform="translate(0 0)"/></g></g></g></svg>