<?xml version="1.0" encoding="UTF-8"?>
<svg width="16" height="16" viewBox="0 0 16 16" fill="none" xmlns="http://www.w3.org/2000/svg">
  <path fill-rule="evenodd" clip-rule="evenodd" d="M12.9248 7.62206V10.6006L8.02226 5.69818L8.17199 3.64055L11.4254 5.22444C12.3427 5.67103 12.9248 6.60183 12.9248 7.62206ZM5.4304 6.62736L0.791504 1.98846L1.67538 1.10457L14.9021 14.3312L14.0182 15.2151L12.3808 13.5777C12.3537 13.633 12.3257 13.6878 12.2967 13.7421L11.6743 14.9084H6.1537L4.24195 12.3647C3.54753 11.4408 3.17206 10.3162 3.17207 9.16042V6.81065C4.26326 6.81065 5.02234 7.64845 5.34859 9.68476L5.4304 6.62736ZM7.20613 1.78417L7.33316 5.00907L5.52217 3.19809L5.55973 1.79456C5.57167 1.3484 5.93678 0.992926 6.38309 0.99292C6.82538 0.992914 7.18873 1.34222 7.20613 1.78417Z" fill="currentColor"/>
</svg>
