<?xml version="1.0" encoding="UTF-8"?>
<svg width="16" height="16" viewBox="0 0 16 16" fill="none" xmlns="http://www.w3.org/2000/svg">
  <path fill-rule="evenodd" clip-rule="evenodd" d="M3.37037 5.875H12.6296L12.468 5.5288L12.1044 4.75L11.633 3.74041C11.4934 3.44122 11.193 3.25 10.8628 3.25H5.13716C4.80696 3.25 4.50665 3.44122 4.36696 3.74041L3.89561 4.75L3.532 5.5288L3.37037 5.875ZM13.2976 7.125H2.7024L2.37787 7.64768C2.29429 7.7823 2.25 7.93759 2.25 8.09604V8.25008L4 8.83341V10.0001L2.25 9.85425V10.25V11.5V11.75H2.5H3.75H12.25H13.5H13.75V11.5V10.25V9.85425L12 10.0001V8.83341L13.75 8.25008V8.09604C13.75 7.93759 13.7057 7.7823 13.6221 7.64768L13.2976 7.125ZM2.51608 4.75L2.39936 5H2.12346H1.77433H1V5.76923V6.25H1.48006H1.77433L1.61911 6.5L1.31591 6.98833C1.17083 7.222 1.07367 7.4809 1.02871 7.75C1.00968 7.8639 1 7.97963 1 8.09604V11.5V11.75V11.7842V13V14H3L3.16667 13H12.8333L13 14H15V13V11.75V11.5V8.09604C15 7.97963 14.9903 7.8639 14.9713 7.75C14.9263 7.4809 14.8292 7.222 14.6841 6.98833L14.3809 6.5L14.2257 6.25H14.5199H15V5.76923V5H14.2257H13.8765H13.6006L13.4839 4.75L12.7657 3.21161C12.4206 2.47243 11.6786 2 10.8628 2H5.13716C4.32139 2 3.57943 2.47243 3.23433 3.21161L2.51608 4.75ZM10.6666 9H5.33331V10H10.6666V9Z" fill="currentColor"/>
</svg>
