<?xml version="1.0" encoding="UTF-8"?>
<svg width="100px" height="100px" viewBox="0 0 100 100" version="1.1" xmlns="http://www.w3.org/2000/svg" xmlns:xlink="http://www.w3.org/1999/xlink">
    <!-- Generator: Sketch 42 (36781) - http://www.bohemiancoding.com/sketch -->
    <defs></defs>
    <g id="Page-1" stroke="none" stroke-width="1" fill="none" fill-rule="evenodd">
        <g id="drive" fill="currentColor">
            <path d="M53.4916944,30.3697409 C56.1250831,30.8759378 58.9302326,31.3595855 61.4003322,32.5865285 C62.4534884,33.1088083 63.1810631,34.0671503 63.7375415,35.0719171 C65.2259136,37.1743005 66.7641196,39.2402073 68.255814,41.3392746 C68.666113,41.9361658 69.3039867,42.320829 69.9136213,42.6872539 C70.4501661,42.8613472 71.0332226,42.7602073 71.589701,42.7850777 C72.9385382,42.8099482 74.2956811,42.692228 75.6345515,42.9011399 C77.0465116,43.0337824 78.4717608,42.8348187 79.8770764,43.0719171 C82.4966777,43.1531606 85.0930233,43.6240415 87.7159468,43.6323316 C89.3903654,43.811399 91.0830565,43.8843523 92.7325581,44.2557513 C92.8122924,44.6321244 92.8538206,45.0184456 92.9850498,45.3832124 C93.2674419,45.7479793 93.7043189,45.9568912 94.0265781,46.2851813 C94.4401993,46.6648705 94.6112957,47.226943 94.9933555,47.6298446 C95.6561462,48.0393782 96.6196013,47.8205181 97.1478405,48.4787565 C97.7990033,49.3691192 97.7624585,50.5463212 97.6561462,51.5908808 C97.5564784,52.3883938 96.9318937,52.9255959 96.4435216,53.5009326 C96.1262458,54.212228 96.7508306,54.7560622 97.0813953,55.3065285 C97.4069767,55.8702591 96.9518272,56.4207254 96.6179402,56.8468394 C96.3089701,57.2049741 96.3222591,57.7272539 96.4451827,58.1566839 C96.6561462,58.6325389 97.3837209,58.6043523 97.6362126,58.1815544 C98.1710963,57.3260104 97.9983389,56.2582383 98.3023256,55.333057 C98.9950166,55.173886 99.1594684,56.0609326 99.1013289,56.5649741 C98.9916944,57.3442487 99.2607973,58.1367876 99.8787375,58.639171 C99.910299,58.5214508 99.9700997,58.2860104 100,58.1682902 L100,60.8708808 C99.3986711,61.1709845 98.8355482,61.5606218 98.1727575,61.5573057 C97.7674419,61.5888083 97.3504983,61.5440415 96.9568106,61.6567876 C96.5,61.9718135 96.3122924,62.5736788 95.8056478,62.8373057 C95.5215947,63.0047668 95.179402,62.9699482 94.8654485,62.9832124 C94.6262458,62.7063212 94.4468439,62.2503627 94.0182724,62.2553368 C92.6893688,62.1392746 91.3272425,62.4078756 90.0249169,62.0364767 C89.7109635,61.9005181 89.141417,62.2747563 89.1646729,62.579834 C89.141417,64.4373057 87.9312744,66.5119629 87.0440674,67.5717773 C86.1568604,68.6315918 84.7772993,69.743042 82.0698242,69.743042 C79.362183,69.743042 77.4385382,69.0764767 76.6162791,68.3121244 C75.7641196,67.5378238 74.9951433,66.2417992 74.3215332,65.2060547 C74.0307617,64.7589637 72.461794,64.7622798 71.9252492,64.7589637 L33.8903654,64.7589637 C33.2508306,64.7705699 32.60299,64.7092228 31.9684385,64.8136788 C31.5598007,64.9231088 31.4352159,65.3790674 31.2508306,65.7073575 C30.7109635,66.9525389 29.6943522,67.9125389 28.6578073,68.7531606 C27.9368771,69.3533679 25.7066445,70 23.938206,70 C22.1699336,70 20.7342193,69.6136788 20.2325581,69.3301554 C18.2840532,68.3436269 16.7790698,66.531399 16.1744186,64.4373057 C16.0548173,64.1156477 15.9435216,63.651399 15.5215947,63.6315026 C14.2358804,63.4889119 12.8853821,63.8039378 11.6445183,63.334715 C11.0664452,63.1241451 11.1511628,62.4178238 10.8887043,61.9701554 C10.6445183,61.734715 10.2774086,61.7960622 9.97009967,61.7728497 C9.25913621,61.784456 8.54651163,61.784456 7.84385382,61.6650777 C6.7807309,61.5108808 5.6910299,61.7413472 4.64119601,61.4810363 C4.17940199,61.3798964 3.80066445,61.0615544 3.33887043,60.9670466 C2.98671096,60.9255959 2.61960133,60.9156477 2.27242525,61.0051813 C1.95847176,61.2041451 1.80232558,61.7794819 1.34883721,61.6319171 C0.898671096,61.4312953 0.518272425,61.1063212 0.096345515,60.8576166 C0.0714285714,60.9703627 0,58.7071503 0,58.7071503 C0.023255814,58.6773057 0.0681063123,58.6192746 0.0913621262,58.5910881 C1.11295681,57.997513 1.33388704,56.6246632 1.23754153,55.5369948 C1.3986711,55.4540933 1.55980066,55.3711917 1.72259136,55.2882902 C2.06810631,56.3593782 1.76578073,57.4984456 1.94518272,58.5910881 C2.09302326,59.0304663 2.62126246,59.0055959 2.99667774,58.9906736 C3.29401993,59.0072539 3.66445183,58.8679793 3.70265781,58.533057 C3.90863787,57.4487047 4.14950166,56.3676684 4.3820598,55.2899482 C5.2192691,53.6899482 6.04318937,52.0567876 7.2076412,50.6607254 C7.97840532,49.7720207 8.69601329,48.825285 9.63953488,48.1073575 C12.1312292,45.840829 15.1910299,44.2889119 18.3920266,43.2841451 C19.1378738,43.1100518 19.1860465,42.2694301 19.4933555,41.7090155 C20.7541528,39.8967876 21.9385382,38.0099482 23.448505,36.3883938 C24.1910299,35.7500518 24.8255814,34.9757513 25.6760797,34.4717098 C29.2990033,32.1803109 33.5149502,31.0429016 37.7059801,30.3266321 C38.0986711,30.2594819 45.6807309,30 45.6807309,30 C45.6807309,30 52.7325581,30.2238342 53.4916944,30.3697409 Z M42.0847176,35.12 C43.1162791,35.0354404 44.1561462,35.1001036 45.1910299,35.0785492 C45.4933555,35.1083938 45.8654485,35.0238342 46.0963455,35.2725389 C46.3355482,35.5063212 46.2508306,35.8727461 46.282392,36.1711917 C46.2674419,38.4758549 46.3023256,40.7821762 46.2657807,43.0851813 C46.307309,43.5063212 45.8903654,43.7832124 45.5033223,43.7318135 C41.9136213,43.7434197 38.3222591,43.7434197 34.7325581,43.7318135 C34.3405316,43.7848705 33.9202658,43.5030052 33.9651163,43.0768912 C33.9401993,41.2364767 33.9435216,39.3944041 33.9634551,37.5539896 C33.9335548,36.985285 34.5299003,36.7465285 34.9717608,36.5823834 C37.230897,35.6605181 39.6744186,35.3521244 42.0847176,35.12 L42.0847176,35.12 Z M49.5631229,35.2592746 C50.7524917,35.2344041 51.9468439,35.2377202 53.1378738,35.2592746 C54.5830565,35.4582383 56.0548173,35.4632124 57.4883721,35.7483938 C57.8754153,35.7749223 58.1112957,36.1496373 58.0681063,36.5160622 C58.0747508,38.7030052 58.089701,40.8932642 58.0598007,43.0802073 C58.10299,43.5013472 57.6893688,43.7832124 57.3023256,43.7318135 C54.7192691,43.7384456 52.1362126,43.7533679 49.5548173,43.7235233 C49.1295681,43.7649741 48.8554817,43.3454922 48.9086379,42.959171 C48.89701,40.6429016 48.89701,38.3282902 48.9086379,36.0136788 C48.8571429,35.6256995 49.141196,35.2161658 49.5631229,35.2592746 L49.5631229,35.2592746 Z M58.755814,36.0518135 C59.5016611,36.0650777 60.0033223,36.6503627 60.4916944,37.1328497 C61.7126246,38.2768912 62.589701,39.7160622 63.576412,41.0540933 C64.0465116,41.735544 64.6146179,42.3689119 64.8953488,43.1614508 C64.7159468,43.5709845 64.3621262,43.8976166 63.8903654,43.8876684 C62.2259136,43.9241451 60.5598007,43.9042487 58.8953488,43.8893264 C58.4435216,43.5510881 58.5465116,42.9658031 58.5332226,42.4733679 C58.5448505,40.5915026 58.5265781,38.7096373 58.5415282,36.827772 C58.5282392,36.5508808 58.6495017,36.2988601 58.755814,36.0518135 L58.755814,36.0518135 Z M31.5348837,39.1274611 C31.8372093,38.853886 32.1445183,38.477513 32.6046512,38.5570984 C32.923588,38.8953368 32.7923588,39.3960622 32.8272425,39.815544 C32.7923588,40.8849741 32.8920266,41.9610363 32.7724252,43.0254922 C32.5282392,43.5544041 31.8554817,43.3670466 31.3920266,43.4084974 C30.5249169,43.3388601 29.5946844,43.5842487 28.7807309,43.1962694 C28.7641196,42.481658 29.1976744,41.8963731 29.5647841,41.3243523 C30.1013289,40.4920207 30.8388704,39.8238342 31.5348837,39.1274611 L31.5348837,39.1274611 Z M23.9202658,67.015544 C26.3973422,67.015544 28.4053156,65.0113161 28.4053156,62.5388601 C28.4053156,60.0664041 26.3973422,58.0621762 23.9202658,58.0621762 C21.4431894,58.0621762 19.4352159,60.0664041 19.4352159,62.5388601 C19.4352159,65.0113161 21.4431894,67.015544 23.9202658,67.015544 Z M81.7275748,67.015544 C84.2046512,67.015544 86.2126246,65.0113161 86.2126246,62.5388601 C86.2126246,60.0664041 84.2046512,58.0621762 81.7275748,58.0621762 C79.2504983,58.0621762 77.2425249,60.0664041 77.2425249,62.5388601 C77.2425249,65.0113161 79.2504983,67.015544 81.7275748,67.015544 Z"></path>
        </g>
    </g>
</svg>
