<?xml version="1.0" encoding="UTF-8"?>
<svg width="16" height="16" viewBox="0 0 16 16" fill="none" xmlns="http://www.w3.org/2000/svg">
  <path fill-rule="evenodd" clip-rule="evenodd" d="M1 5H2.39936L3.23433 3.21161C3.57943 2.47243 4.32139 2 5.13716 2H10.8628C11.6786 2 12.4206 2.47243 12.7657 3.21161L13.6006 5H15V6.5H14.3809L14.6841 6.98833C14.8906 7.3209 15 7.70458 15 8.09604V10.0001V11.5V13V14.0001H13L12.8333 13H3.16669L3 14.0001H1V13V11.5V10.0001V8.09604C1 7.70458 1.10942 7.3209 1.31591 6.98833L1.61911 6.5H1V5ZM12.4121 6.00006H3.58789L4.59349 3.84617C4.69209 3.63498 4.90408 3.5 5.13716 3.5H10.8628C11.0959 3.5 11.3079 3.63498 11.4065 3.84617L12.4121 6.00006ZM4 8.8334L2 8.16673V9.8334L4 10.0001V8.8334ZM12 8.8334L14 8.16673V9.8334L12 10.0001V8.8334ZM5.33334 8.81545H10.6667V10.0654H5.33334V8.81545Z" fill="currentColor"/>
</svg>
