<?xml version="1.0" encoding="UTF-8"?>
<svg width="32" height="32" viewBox="0 0 32 32" xmlns="http://www.w3.org/2000/svg">
    <path d="m22.305 21.82-1.12 1.509h10.49c.18 0 .325.15.325.336a.33.33 0 0 1-.326.335H7.23a.33.33 0 0 1-.326-.335c0-.11.051-.207.13-.269h-.271l-1.13-1.577h16.672zm8.076 0-1.21.93h-4.468l-.857-.93h6.535zm-6.855-2.014v.367l-.723.975H5.15l-.962-1.342h19.337zm7.871 0v1.231l-.145.111h-6.729l.144-.11.018-1.232h6.712zm-7.871-2.013v1.342H3.708l-.962-1.342h20.78zm4.889 0v.763h2.982v.58h-6.703l.008-.504h-.035v-.839h3.748zm-9.94-2.035 5.051.44v.924H2.428l-.4-1.342h16.446v-.022zm9.614.694c.18 0 .326.15.326.335v.335h-3.748v-.67h3.422zm-13.154-2.685 2.424.317v1.025H1.827l-.402-1.342h13.51zm-7.262-2.012v1.064l2.123.277H1.225l-.401-1.341h6.85zM0 9l7.17 2.084H.623L0 9z" fill="currentColor" fill-rule="nonzero"/>
</svg>
