<?xml version="1.0" encoding="UTF-8"?>
<svg width="16" height="16" viewBox="0 0 16 16" fill="none" xmlns="http://www.w3.org/2000/svg">
  <g clip-path="url(#clip0_1411_10011)">
    <path fill-rule="evenodd" clip-rule="evenodd" d="M14.7499 0H15.9166L15.7499 2.66667H14.9166L14.7499 0ZM15.9999 4C15.9999 4.36819 15.7015 4.66667 15.3333 4.66667C14.9651 4.66667 14.6666 4.36819 14.6666 4C14.6666 3.63181 14.9651 3.33333 15.3333 3.33333C15.7015 3.33333 15.9999 3.63181 15.9999 4ZM11.9999 11.3333V6.66667V6C11.9999 5.52593 11.901 5.07497 11.7226 4.66667H11.1672C10.6903 3.77404 9.74939 3.16667 8.66659 3.16667H7.33325C6.25048 3.16667 5.30957 3.77404 4.83262 4.66667H4.27728C4.09889 5.07497 3.99992 5.52593 3.99992 6V6.66667V11.3333V12L2.44073 11.732C1.80088 11.6221 1.33325 11.0672 1.33325 10.4179V8.24873C1.33325 7.59947 1.80088 7.0446 2.44073 6.93467L3.33325 6.78127V6C3.33325 5.53249 3.41346 5.08371 3.56086 4.66667C3.58759 4.59105 3.61653 4.51647 3.64759 4.44302C4.25483 3.00736 5.6764 2 7.33325 2H8.66659C10.4082 2 11.8899 3.11308 12.439 4.66667C12.5864 5.08371 12.6666 5.53249 12.6666 6V6.78127L13.5591 6.93467C14.199 7.0446 14.6666 7.59947 14.6666 8.24873V10.4179C14.6666 11.0672 14.199 11.6221 13.5591 11.732L11.9999 12V11.3333ZM4.75107 11.6033C4.85226 13.3235 6.27675 14.6667 7.99992 14.6667C9.72305 14.6667 11.1475 13.3235 11.2487 11.6033L11.442 8.3172C11.5585 6.33671 9.98385 4.66667 7.99992 4.66667C6.01597 4.66667 4.44127 6.33671 4.55777 8.3172L4.75107 11.6033Z" fill="currentColor"/>
  </g>
  <defs>
    <clipPath id="clip0_1411_10011">
      <rect width="16" height="16" fill="white"/>
    </clipPath>
  </defs>
</svg>
