<?xml version="1.0" encoding="UTF-8"?>
<svg width="16" height="16" viewBox="0 0 16 16" fill="none" xmlns="http://www.w3.org/2000/svg">
  <path fill-rule="evenodd" clip-rule="evenodd" d="M3.33325 3.68168C3.33325 3.48472 3.48423 3.32064 3.68051 3.30429C6.08266 3.10411 8.40519 2.34739 10.4643 1.09407L10.5713 1.02891C10.8323 0.87004 11.1666 1.05791 11.1666 1.36346V11.7536C11.1666 11.9066 11.0869 12.0484 10.9563 12.128L10.4158 12.4569C8.38859 13.6908 6.10202 14.4358 3.73706 14.6329C3.51969 14.651 3.33325 14.4795 3.33325 14.2614V3.68168ZM6.99812 4.89328V5.58694C7.07492 5.56551 7.15119 5.54345 7.22679 5.52077C8.11925 5.25303 9.08339 4.81051 9.81685 4.44015C9.88125 4.40763 9.94392 4.37563 10.0048 4.34427V3.59173C9.85792 3.66991 9.69365 3.75553 9.51632 3.84505C8.79472 4.20943 7.87159 4.63131 7.03525 4.88221L6.99812 4.89328ZM5.99992 4.66657L4.66657 5.00899V6.66657L5.99992 6.32414V4.66657ZM5.99992 12.1303L5.24992 10.7562L4.49992 12.4491L5.99992 12.1303ZM5.99992 8.6191C5.99992 9.03563 5.66413 9.40857 5.24992 9.4521C4.83571 9.49563 4.49992 9.1933 4.49992 8.77677C4.49992 8.3603 4.83571 7.98737 5.24992 7.94383C5.66413 7.9003 5.99992 8.20263 5.99992 8.6191ZM6.99812 8.6227V7.92903L7.03525 7.91797C7.87159 7.66703 8.79472 7.24517 9.51632 6.88077C9.69365 6.7913 9.85792 6.70563 10.0048 6.62747V7.38003C9.94392 7.41137 9.88125 7.44337 9.81685 7.4759C9.08339 7.84623 8.11925 8.28877 7.22679 8.5565C7.15119 8.57923 7.07492 8.60123 6.99812 8.6227ZM6.99812 10.9648V11.6584C7.07492 11.637 7.15119 11.6149 7.22679 11.5922C8.11925 11.3245 9.08339 10.882 9.81685 10.5116C9.88125 10.4791 9.94392 10.4471 10.0048 10.4158V9.66317C9.85792 9.74137 9.69365 9.82697 9.51632 9.9165C8.79472 10.2809 7.87159 10.7028 7.03525 10.9537L6.99812 10.9648ZM11.8333 11.7536V3.33323H11.9999C12.3681 3.33323 12.6666 3.63171 12.6666 3.9999V13.9999C12.6666 14.3681 12.3681 14.6666 11.9999 14.6666H7.02045C8.51599 14.2048 9.93818 13.5281 11.3029 12.6974C11.6323 12.4969 11.8333 12.1392 11.8333 11.7536Z" fill="currentColor"/>
</svg>
