<?xml version="1.0" encoding="UTF-8"?>
<svg width="16" height="16" viewBox="0 0 16 16" fill="none" xmlns="http://www.w3.org/2000/svg">
  <g clip-path="url(#clip0_1415_10153)">
    <path fill-rule="evenodd" clip-rule="evenodd" d="M2.81902 3.49999L0.648377 1.3557L1.35116 0.644287L3.49977 2.76682V1.15087H4.49977V4.49999H1.11563V3.49999H2.81902ZM7.99981 2.99994C6.89524 2.99994 5.99981 3.89537 5.99981 4.99994C5.99981 6.10451 6.89524 6.99994 7.99981 6.99994C9.10438 6.99994 9.99976 6.10451 9.99976 4.99994C9.99976 3.89537 9.10438 2.99994 7.99981 2.99994ZM4.8091 8.56838C4.41322 8.76536 4.14507 9.15055 4.09774 9.59018L3.99979 10.4999H11.9998L11.9019 9.59018C11.8546 9.15054 11.5864 8.76536 11.1905 8.56838L9.04327 7.49993H6.95631L4.8091 8.56838ZM15.3512 1.3557L13.1805 3.49999H14.8839V4.49999H11.4998V1.15087H12.4998V2.76682L14.6484 0.644287L15.3512 1.3557ZM3.49975 13.1806L1.35546 15.3513L0.644043 14.6485L2.76658 12.4999H1.15063V11.4999H4.49975V14.884H3.49975V13.1806ZM14.6441 15.3513L12.4998 13.1806V14.884H11.4998V11.4999H14.8489V12.4999H13.233L15.3555 14.6485L14.6441 15.3513Z" fill="currentColor"/>
  </g>
  <defs>
    <clipPath id="clip0_1415_10153">
      <rect width="16" height="16" fill="white"/>
    </clipPath>
  </defs>
</svg>
