<?xml version="1.0" encoding="UTF-8"?>
<svg width="100px" height="100px" viewBox="0 0 100 100" version="1.1" xmlns="http://www.w3.org/2000/svg" xmlns:xlink="http://www.w3.org/1999/xlink">
    <!-- Generator: Sketch 42 (36781) - http://www.bohemiancoding.com/sketch -->
    <defs></defs>
    <g id="Page-1" stroke="none" stroke-width="1" fill="none" fill-rule="evenodd">
        <g id="event-none" fill="currentColor" fill-rule="nonzero">
            <path d="M55.0951357,63.9898077 L63.79575,55.3011121 L58.4997238,50.0123408 L49.7991095,58.7010365 L41.0984952,50.0123408 L35.8024691,55.3011121 L44.5030835,63.9898077 L35.8024691,72.6785034 L41.0984952,77.9672746 L49.7991095,69.278579 L58.4997238,77.9672746 L63.79575,72.6785034 L55.0951357,63.9898077 Z M79.0123457,14.8630137 L95.058052,14.8630137 C97.7874146,14.8630137 100,17.0689642 100,19.7853467 L100,90.077667 C100,92.7961965 97.7948132,95 95.058052,95 L4.94194798,95 C2.21258547,95 0,92.7940495 0,90.077667 L0,19.7853467 C0,17.0668172 2.20518678,14.8630137 4.94194798,14.8630137 L20.9876543,14.8630137 L20.9876543,5 L27.1604938,5 L27.1604938,14.8630137 L72.8395062,14.8630137 L72.8395062,5 L79.0123457,5 L79.0123457,14.8630137 Z M4.9382716,40.7534247 L4.9382716,90.0684932 L95.0617284,90.0684932 L95.0617284,40.7534247 L4.9382716,40.7534247 Z M79.0123457,19.7945205 L79.0123457,29.6575342 L72.8395062,29.6575342 L72.8395062,19.7945205 L72.8395062,14.8630137 L70.3703704,14.8630137 L70.3703704,19.7945205 L29.6296296,19.7945205 L29.6296296,14.8630137 L27.1604938,14.8630137 L27.1604938,19.7945205 L27.1604938,29.6575342 L20.9876543,29.6575342 L20.9876543,19.7945205 L20.9876543,14.8630137 L18.5185185,14.8630137 L18.5185185,19.7945205 L4.9382716,19.7945205 L4.9382716,35.8219178 L95.0617284,35.8219178 L95.0617284,19.7945205 L81.4814815,19.7945205 L81.4814815,14.8630137 L79.0123457,14.8630137 L79.0123457,19.7945205 Z"></path>
        </g>
    </g>
</svg>
