<?xml version="1.0" encoding="UTF-8"?>
<svg width="16" height="16" viewBox="0 0 16 16" fill="none" xmlns="http://www.w3.org/2000/svg">
  <path fill-rule="evenodd" clip-rule="evenodd" d="M10.7795 12.5046L13.652 15.3771L14.5359 14.4932L1.30917 1.2666L0.425293 2.15048L3.14347 4.86866C1.46983 6.29131 0.666669 8.01237 0.666669 8.01237C0.666669 8.01237 2.66667 13.0124 8 13.0124C9.05299 13.0124 9.97605 12.8175 10.7795 12.5046ZM9.33139 11.0566L8.33165 10.0568C8.22364 10.0741 8.11287 10.0831 8 10.0831C6.84941 10.0831 5.91667 9.15035 5.91667 7.99976C5.91667 7.88689 5.92564 7.77611 5.94292 7.66811L4.94318 6.66837C4.76532 7.07617 4.66667 7.52644 4.66667 7.99976C4.66667 9.84071 6.15905 11.3331 8 11.3331C8.47332 11.3331 8.92359 11.2344 9.33139 11.0566ZM15.3334 8.01237C15.3334 8.01237 14.6274 9.77742 12.9357 11.2101L11.0568 9.33127C11.2347 8.92344 11.3334 8.47312 11.3334 7.99976C11.3334 6.15881 9.84095 4.66642 8 4.66642C7.52663 4.66642 7.07632 4.76509 6.66849 4.94299L5.27513 3.54963C6.07478 3.21958 6.98214 3.01237 8 3.01237C13.0001 3.01237 15.3334 8.01237 15.3334 8.01237ZM10.0834 7.99976C10.0834 8.11268 10.0744 8.22351 10.0571 8.33156L7.6682 5.9427C7.77625 5.92541 7.88708 5.91642 8 5.91642C9.15059 5.91642 10.0834 6.84916 10.0834 7.99976Z" fill="currentColor"/>
</svg>