<?xml version="1.0" encoding="UTF-8"?>
<svg width="22px" height="12px" viewBox="0 0 22 12" version="1.1" xmlns="http://www.w3.org/2000/svg" xmlns:xlink="http://www.w3.org/1999/xlink">
    <g id="VA-–-Login-and-Checkout" stroke="none" stroke-width="1" fill="currentColor" fill-rule="evenodd">
        <g id="2---VA---Sign-in" transform="translate(-840.000000, -507.000000)">
            <g id="Group-5" transform="translate(840.000000, 507.000000)">
                <g id="Group-5-Copy-2">
                    <g id="Group-7">
                        <path d="M0,5.98727577 C0.166638011,6.38936131 1.3141915,7.84346099 3.32213809,9.27720191 C5.06194048,10.5193346 7.80623432,12 11.0000259,12 C14.1938175,12 16.9381113,10.5193346 18.6778619,9.27720191 C20.6858603,7.84346099 21.833362,6.38936131 22,5.98727577 C21.8598914,5.58221091 20.7830658,4.1555459 18.7153244,2.69170132 C16.9806517,1.46378251 14.2340262,0 11.0000259,0 C7.76597383,0 5.0193483,1.46378251 3.28472744,2.69170132 C1.21693418,4.1555459 0.140108577,5.58221091 0,5.98727577 Z" id="Stroke-3-Copy-3" fill="#B7B8BD"></path>
                        <path d="M16,6 C16,8.76146979 13.7614124,11 11.000037,11 C8.23866147,11 6,8.76146979 6,6 C6,3.23860411 8.23866147,1 11.000037,1 C13.7614124,1 16,3.23860411 16,6 Z" id="Stroke-1-Copy-2" fill="#FFFFFF"></path>
                        <path d="M14,6 C14,7.65688187 12.6568475,9 11.0000222,9 C9.34319688,9 8,7.65688187 8,6 C8,4.34316247 9.34319688,3 11.0000222,3 C12.6568475,3 14,4.34316247 14,6 Z" id="Stroke-1-Copy-2" fill="#B7B8BD"></path>
                    </g>
                </g>
            </g>
        </g>
    </g>
</svg>