<?xml version="1.0" encoding="UTF-8"?>
<svg width="16" height="16" viewBox="0 0 16 16" fill="none" xmlns="http://www.w3.org/2000/svg">
  <path fill-rule="evenodd" clip-rule="evenodd" d="M15.3332 8.01245C15.3332 8.01245 13.3332 13.0125 7.99984 13.0125C2.66651 13.0125 0.666504 8.01245 0.666504 8.01245C0.666504 8.01245 2.99984 3.01245 7.99984 3.01245C12.9999 3.01245 15.3332 8.01245 15.3332 8.01245ZM10.0832 7.99984C10.0832 9.15043 9.15043 10.0832 7.99984 10.0832C6.84925 10.0832 5.91651 9.15043 5.91651 7.99984C5.91651 6.84924 6.84925 5.9165 7.99984 5.9165C9.15043 5.9165 10.0832 6.84924 10.0832 7.99984ZM11.3332 7.99984C11.3332 9.84079 9.84079 11.3332 7.99984 11.3332C6.15889 11.3332 4.66651 9.84079 4.66651 7.99984C4.66651 6.15889 6.15889 4.6665 7.99984 4.6665C9.84079 4.6665 11.3332 6.15889 11.3332 7.99984Z" fill="currentColor"/>
</svg>