<?xml version="1.0" encoding="UTF-8"?>
<svg width="16" height="16" viewBox="0 0 16 16" fill="none" xmlns="http://www.w3.org/2000/svg">
  <path fill-rule="evenodd" clip-rule="evenodd" d="M6.75 3.5C6.75 4.19036 6.19036 4.75 5.5 4.75C4.80964 4.75 4.25 4.19036 4.25 3.5C4.25 2.80964 4.80964 2.25 5.5 2.25C6.19036 2.25 6.75 2.80964 6.75 3.5ZM7.92124 4.125C7.64371 5.20327 6.6649 6 5.5 6C4.3351 6 3.35629 5.20327 3.07876 4.125H1V2.875H3.07876C3.35629 1.79673 4.3351 1 5.5 1C6.6649 1 7.64371 1.79673 7.92124 2.875H15V4.125H7.92124ZM6.75 12.5C6.75 13.1904 6.19036 13.75 5.5 13.75C4.80964 13.75 4.25 13.1904 4.25 12.5C4.25 11.8096 4.80964 11.25 5.5 11.25C6.19036 11.25 6.75 11.8096 6.75 12.5ZM7.92124 13.125C7.64371 14.2033 6.6649 15 5.5 15C4.3351 15 3.35629 14.2033 3.07876 13.125H1V11.875H3.07876C3.35629 10.7967 4.3351 10 5.5 10C6.6649 10 7.64371 10.7967 7.92124 11.875H15V13.125H7.92124ZM11.5 9.25C12.1904 9.25 12.75 8.69036 12.75 8C12.75 7.30964 12.1904 6.75 11.5 6.75C10.8096 6.75 10.25 7.30964 10.25 8C10.25 8.69036 10.8096 9.25 11.5 9.25ZM11.5 10.5C12.6649 10.5 13.6437 9.70327 13.9212 8.625H15V7.375H13.9212C13.6437 6.29673 12.6649 5.5 11.5 5.5C10.3351 5.5 9.35629 6.29673 9.07876 7.375H1V8.625H9.07876C9.35629 9.70327 10.3351 10.5 11.5 10.5Z" fill="currentColor"/>
</svg>
