<?xml version="1.0" encoding="UTF-8"?>
<svg width="16" height="16" viewBox="0 0 16 16" fill="none" xmlns="http://www.w3.org/2000/svg">
  <path fill-rule="evenodd" clip-rule="evenodd" d="M8.11519 1.41675C5.39308 1.41675 3.26727 3.68301 3.23413 6.36153C3.22565 7.04681 3.2044 7.71908 3.16362 8.30535C3.14127 8.62675 3.38368 8.90541 3.70507 8.92775C4.02646 8.95015 4.30512 8.70768 4.32747 8.38635C4.37036 7.76975 4.39207 7.07341 4.40071 6.37597C4.42649 4.29226 6.07475 2.58341 8.11519 2.58341C8.67139 2.58341 9.19652 2.70925 9.66519 2.93347C9.95585 3.0725 10.3041 2.94962 10.4432 2.659C10.5822 2.36839 10.4593 2.02008 10.1687 1.88104C9.54619 1.58323 8.84932 1.41675 8.11519 1.41675ZM11.9544 3.51481C11.7397 3.27469 11.3709 3.25415 11.1307 3.46893C10.8906 3.68371 10.8701 4.05249 11.0849 4.29261C11.2512 4.47855 11.4135 4.79723 11.5343 5.17873C11.6534 5.55461 11.7119 5.92709 11.7119 6.18005C11.7119 6.50222 11.9731 6.76341 12.2952 6.76341C12.6174 6.76341 12.8785 6.50222 12.8785 6.18005C12.8785 5.7826 12.7933 5.28976 12.6466 4.82649C12.5017 4.36886 12.2762 3.87457 11.9544 3.51481ZM12.8785 8.34581C12.8785 8.02368 12.6174 7.76248 12.2952 7.76248C11.9731 7.76248 11.7119 8.02368 11.7119 8.34581C11.7119 9.81021 11.5901 11.0825 11.4311 12.1192C11.3823 12.4376 11.6009 12.7353 11.9193 12.7842C12.2378 12.833 12.5355 12.6144 12.5843 12.2959C12.7514 11.2063 12.8785 9.87481 12.8785 8.34581ZM4.11065 10.5939C4.15414 10.2747 3.93062 9.98061 3.6114 9.93715C3.29218 9.89361 2.99815 10.1171 2.95466 10.4364C2.90568 10.7959 2.83559 11.2211 2.76992 11.6197C2.74142 11.7926 2.71375 11.9605 2.689 12.1157C2.63829 12.4339 2.85509 12.7329 3.17323 12.7837C3.49139 12.8343 3.79041 12.6175 3.84112 12.2994C3.86377 12.1573 3.89006 11.9977 3.91773 11.8298C3.98452 11.4245 4.05937 10.9702 4.11065 10.5939ZM8.02039 3.49739C6.48895 3.49739 5.24747 4.73882 5.24747 6.27027V6.27098V6.27169V6.2724V6.27311V6.27383V6.27453V6.27525V6.27596V6.27667V6.27738V6.27809V6.2788V6.27951V6.28023V6.28093V6.28165V6.28236V6.28307V6.28378V6.28449V6.2852V6.28591V6.28663V6.28733V6.28805V6.28876V6.28947V6.29018V6.29089V6.29161V6.29231V6.29303V6.29374V6.29445V6.29516V6.29587V6.29659V6.29729V6.29801V6.29872V6.29943V6.30014V6.30085V6.30157V6.30228V6.30299V6.3037V6.30441V6.30513V6.30583V6.30655V6.30726V6.30797V6.30868V6.30939V6.31011V6.31082V6.31153V6.31224V6.31295V6.31367V6.31438V6.31509V6.3158V6.31651V6.31723V6.31794V6.31865V6.31936V6.32007V6.32079V6.3215V6.32221V6.32292V6.32363V6.32435V6.32506V6.32577V6.32649V6.32719V6.32791V6.32862V6.32933V6.33005V6.33076V6.33147V6.33218V6.33289V6.33361V6.33432V6.33503V6.33575V6.33645V6.33717V6.33788V6.33859V6.33931V6.34002V6.34073V6.34144V6.34215V6.34287V6.34358V6.34429V6.34501V6.34572V6.34643V6.34715V6.34785V6.34857V6.34928V6.34999V6.35071V6.35142V6.35213V6.35285V6.35356V6.35427V6.35498V6.35569V6.35641V6.35712V6.35783V6.35855V6.35926V6.35997V6.36069V6.3614C5.24747 6.68355 5.50864 6.94475 5.83081 6.94475C6.15297 6.94475 6.41414 6.68355 6.41414 6.3614V6.36069V6.35997V6.35926V6.35855V6.35783V6.35712V6.35641V6.35569V6.35498V6.35427V6.35356V6.35285V6.35213V6.35142V6.35071V6.34999V6.34928V6.34857V6.34785V6.34715V6.34643V6.34572V6.34501V6.34429V6.34358V6.34287V6.34215V6.34144V6.34073V6.34002V6.33931V6.33859V6.33788V6.33717V6.33645V6.33575V6.33503V6.33432V6.33361V6.33289V6.33218V6.33147V6.33076V6.33005V6.32933V6.32862V6.32791V6.32719V6.32649V6.32577V6.32506V6.32435V6.32363V6.32292V6.32221V6.3215V6.32079V6.32007V6.31936V6.31865V6.31794V6.31723V6.31651V6.3158V6.31509V6.31438V6.31367V6.31295V6.31224V6.31153V6.31082V6.31011V6.30939V6.30868V6.30797V6.30726V6.30655V6.30583V6.30513V6.30441V6.3037V6.30299V6.30228V6.30157V6.30085V6.30014V6.29943V6.29872V6.29801V6.29729V6.29659V6.29587V6.29516V6.29445V6.29374V6.29303V6.29231V6.29161V6.29089V6.29018V6.28947V6.28876V6.28805V6.28733V6.28663V6.28591V6.2852V6.28449V6.28378V6.28307V6.28236V6.28165V6.28093V6.28023V6.27951V6.2788V6.27809V6.27738V6.27667V6.27596V6.27525V6.27453V6.27383V6.27311V6.2724V6.27169V6.27098V6.27027C6.41414 5.38317 7.13325 4.66405 8.02039 4.66405C8.90752 4.66405 9.62665 5.38316 9.62665 6.27025V6.27434V6.27843V6.28252V6.28661V6.2907V6.29479V6.29889V6.30299V6.30709V6.31118V6.31528V6.31939V6.32349V6.32759V6.33169V6.3358V6.33991V6.34401V6.34812V6.35223V6.35634V6.36045V6.36457V6.36868V6.37279V6.37691V6.38103V6.38515V6.38927V6.39339V6.39751V6.40163V6.40575V6.40987V6.414V6.41813V6.42225V6.42638V6.43051V6.43464V6.43877V6.4429V6.44703V6.45117V6.4553V6.45943V6.46357V6.46771V6.47185V6.47598V6.48012V6.48426V6.4884V6.49254V6.49669V6.50083V6.50497V6.50911V6.51326V6.51741V6.52155V6.5257V6.52985V6.534V6.53815V6.5423V6.54645V6.5506V6.55475V6.55891V6.56306V6.56721V6.57137V6.57553V6.57968V6.58384V6.58799V6.59215V6.59631V6.60047V6.60463V6.60879V6.61295V6.61711V6.62127V6.62543V6.6296V6.63376V6.63793V6.64209V6.64625V6.65042V6.65459V6.65875V6.66292V6.66708V6.67128V6.67541V6.67961V6.68375V6.68795V6.69208V6.69628V6.70041V6.70461V6.70881V6.71295V6.71715V6.72128V6.72548V6.72961V6.73381V6.73801V6.74215V6.74635V6.75055V6.75468V6.75888V6.76301V6.76721V6.77141V6.77555V6.77975V6.78395V6.78808V6.79228V6.79648V6.80061V6.80481V6.80901V6.81315V6.81735V6.82155V6.82568V6.82988V6.83408V6.83821V6.84241V6.84661V6.85075V6.85495V6.85915V6.86328V6.86748V6.87168V6.87581V6.88001V6.88421V6.88841V6.89255V6.89675V6.90095V6.90508V6.90928V6.91348V6.91761V6.92181V6.92601V6.93015V6.93435V6.93855V6.94268V6.94688V6.95108V6.95521V6.95941V6.96361V6.96775V6.97195V6.97615V6.98028V6.98448V6.98868V6.99281V6.99701V7.00121V7.00535V7.00955V7.01375V7.01788V7.02208V7.02628V7.03041V7.03461V7.03875V7.04295V7.04715V7.05128V7.05548V7.05961V7.06381V7.06801V7.07215V7.07635V7.08048V7.08468V7.08881V7.09301V7.09721V7.10135V7.10555V7.10968V7.11388V7.11801V7.12221V7.12635V7.13055V7.13468V7.13888V7.14301V7.14721V7.15135V7.15548V7.15968V7.16381V7.16801V7.17215V7.17635V7.18048V7.18461V7.18881V7.19295V7.19708V7.20128V7.20541V7.20955V7.21375V7.21788V7.22201V7.22621V7.23035V7.23448V7.23868V7.24281V7.24695V7.25108V7.25528V7.25941V7.26355V7.26768V7.27181V7.27595V7.28015V7.28428V7.28841V7.29255V7.29668V7.30081V7.30495V7.30908V7.31321V7.31741V7.32155V7.32568V7.32981V7.33395V7.33808V7.34221V7.34635V7.35041V7.35455V7.35868V7.36281V7.36695V7.37108V7.37521V7.37935V7.38348V7.38755V7.39168V7.39581V7.39995V7.40401V7.40815V7.41228V7.41641V7.42048V7.42461V7.42875V7.43281V7.43695V7.44108V7.44515V7.44928V7.45335V7.45748V7.46155V7.46568V7.46981V7.47388V7.47795V7.48208V7.48615V7.49028V7.49435V7.49848V7.50255V7.50661V7.51075V7.51481V7.51888V7.52295V7.52708V7.53115V7.53521V7.53928V7.54335V7.54748V7.55155V7.55561V7.55968V7.56375V7.56781V7.57188V7.57595V7.58001V7.58408V7.58815V7.59221V7.59628V7.60035V7.60441V7.60848V7.61248V7.61655V7.62061V7.62468V7.62868V7.63275V7.63681V7.64088V7.64488V7.64895V7.65295V7.65701V7.66108V7.66508V7.66915V7.67315V7.67721V7.68121V7.68521V7.68928V7.69328V7.69735V7.70135V7.70535V7.70935V7.71341V7.71741V7.72141V7.72541V7.72948V7.73348V7.73748V7.74148V7.74548V7.74948V7.75348V7.75748V7.76148V7.76548V7.76948V7.77348V7.77741V7.78141V7.78541V7.78941V7.79335V7.79735V7.80135V7.80535V7.80928V7.81328V7.81721V7.82121V7.82515V7.82915V7.83308V7.83708V7.84101V7.84501V7.84895V7.85288V7.85688V7.86081V7.86475V7.86868V7.87261V7.87661V7.88055V7.88448V7.88841V7.89235V7.89628V7.90021V7.90415V7.90808V7.91201V7.91588V7.91981V7.92375V7.92768V7.93155V7.93548V7.93941V7.94328V7.94721V7.95115V7.95501V7.95895V7.96281V7.96668V7.97061V7.97448V7.97841V7.98228V7.98615V7.99001V7.99395V7.99781V8.00168V8.00555V8.00941V8.01328V8.01715V8.02101V8.02488V8.02875V8.03261V8.03648V8.04028V8.04415V8.04801V8.05188V8.05568V8.05955V8.06335V8.06721V8.07101V8.07488V8.07868V8.08255V8.08635V8.09021V8.09401V8.09781V8.10161V8.10541V8.10928V8.11308V8.11688V8.12068V8.12448V8.12828V8.13208V8.13588V8.13961V8.14341V8.14721V8.15101V8.15475V8.15855V8.16235V8.16608V8.16988V8.17361V8.17741V8.18115V8.18495V8.18868V8.19241V8.19621V8.19995V8.20368V8.20741V8.21115V8.21488V8.21861V8.22235V8.22608V8.22981V8.23355V8.23728V8.24101V8.24468V8.24841V8.25215V8.25581V8.25955V8.26321V8.26695V8.27061V8.27435V8.27801V8.28168V8.28541V8.28908V8.29275V8.29641V8.30008V8.30381V8.30748V8.31108V8.31475V8.31841V8.32208V8.32575V8.32941V8.33301V8.33668V8.34035C9.62665 8.87875 9.60799 9.41088 9.57559 9.92868C9.55552 10.2502 9.79985 10.5272 10.1214 10.5473C10.4429 10.5674 10.7199 10.323 10.74 10.0015C10.7737 9.46201 10.7933 8.90555 10.7933 8.34035V8.33668V8.33301V8.32941V8.32575V8.32208V8.31841V8.31475V8.31108V8.30748V8.30381V8.30008V8.29641V8.29275V8.28908V8.28541V8.28168V8.27801V8.27435V8.27061V8.26695V8.26321V8.25955V8.25581V8.25215V8.24841V8.24468V8.24101V8.23728V8.23355V8.22981V8.22608V8.22235V8.21861V8.21488V8.21115V8.20741V8.20368V8.19995V8.19621V8.19241V8.18868V8.18495V8.18115V8.17741V8.17361V8.16988V8.16608V8.16235V8.15855V8.15475V8.15101V8.14721V8.14341V8.13961V8.13588V8.13208V8.12828V8.12448V8.12068V8.11688V8.11308V8.10928V8.10541V8.10161V8.09781V8.09401V8.09021V8.08635V8.08255V8.07868V8.07488V8.07101V8.06721V8.06335V8.05955V8.05568V8.05188V8.04801V8.04415V8.04028V8.03648V8.03261V8.02875V8.02488V8.02101V8.01715V8.01328V8.00941V8.00555V8.00168V7.99781V7.99395V7.99001V7.98615V7.98228V7.97841V7.97448V7.97061V7.96668V7.96281V7.95895V7.95501V7.95115V7.94721V7.94328V7.93941V7.93548V7.93155V7.92768V7.92375V7.91981V7.91588V7.91201V7.90808V7.90415V7.90021V7.89628V7.89235V7.88841V7.88448V7.88055V7.87661V7.87261V7.86868V7.86475V7.86081V7.85688V7.85288V7.84895V7.84501V7.84101V7.83708V7.83308V7.82915V7.82515V7.82121V7.81721V7.81328V7.80928V7.80535V7.80135V7.79735V7.79335V7.78941V7.78541V7.78141V7.77741V7.77348V7.76948V7.76548V7.76148V7.75748V7.75348V7.74948V7.74548V7.74148V7.73748V7.73348V7.72948V7.72541V7.72141V7.71741V7.71341V7.70935V7.70535V7.70135V7.69735V7.69328V7.68928V7.68521V7.68121V7.67721V7.67315V7.66915V7.66508V7.66108V7.65701V7.65295V7.64895V7.64488V7.64088V7.63681V7.63275V7.62868V7.62468V7.62061V7.61655V7.61248V7.60848V7.60441V7.60035V7.59628V7.59221V7.58815V7.58408V7.58001V7.57595V7.57188V7.56781V7.56375V7.55968V7.55561V7.55155V7.54748V7.54335V7.53928V7.53521V7.53115V7.52708V7.52295V7.51888V7.51481V7.51075V7.50661V7.50255V7.49848V7.49435V7.49028V7.48615V7.48208V7.47795V7.47388V7.46981V7.46568V7.46155V7.45748V7.45335V7.44928V7.44515V7.44108V7.43695V7.43281V7.42875V7.42461V7.42048V7.41641V7.41228V7.40815V7.40401V7.39995V7.39581V7.39168V7.38755V7.38348V7.37935V7.37521V7.37108V7.36695V7.36281V7.35868V7.35455V7.35041V7.34635V7.34221V7.33808V7.33395V7.32981V7.32568V7.32155V7.31741V7.31321V7.30908V7.30495V7.30081V7.29668V7.29255V7.28841V7.28428V7.28015V7.27595V7.27181V7.26768V7.26355V7.25941V7.25528V7.25108V7.24695V7.24281V7.23868V7.23448V7.23035V7.22621V7.22201V7.21788V7.21375V7.20955V7.20541V7.20128V7.19708V7.19295V7.18881V7.18461V7.18048V7.17635V7.17215V7.16801V7.16381V7.15968V7.15548V7.15135V7.14721V7.14301V7.13888V7.13468V7.13055V7.12635V7.12221V7.11801V7.11388V7.10968V7.10555V7.10135V7.09721V7.09301V7.08881V7.08468V7.08048V7.07635V7.07215V7.06801V7.06381V7.05961V7.05548V7.05128V7.04715V7.04295V7.03875V7.03461V7.03041V7.02628V7.02208V7.01788V7.01375V7.00955V7.00535V7.00121V6.99701V6.99281V6.98868V6.98448V6.98028V6.97615V6.97195V6.96775V6.96361V6.95941V6.95521V6.95108V6.94688V6.94268V6.93855V6.93435V6.93015V6.92601V6.92181V6.91761V6.91348V6.90928V6.90508V6.90095V6.89675V6.89255V6.88841V6.88421V6.88001V6.87581V6.87168V6.86748V6.86328V6.85915V6.85495V6.85075V6.84661V6.84241V6.83821V6.83408V6.82988V6.82568V6.82155V6.81735V6.81315V6.80901V6.80481V6.80061V6.79648V6.79228V6.78808V6.78395V6.77975V6.77555V6.77141V6.76721V6.76301V6.75888V6.75468V6.75055V6.74635V6.74215V6.73801V6.73381V6.72961V6.72548V6.72128V6.71715V6.71295V6.70881V6.70461V6.70041V6.69628V6.69208V6.68795V6.68375V6.67961V6.67541V6.67128V6.66708V6.66292V6.65875V6.65459V6.65042V6.64625V6.64209V6.63793V6.63376V6.6296V6.62543V6.62127V6.61711V6.61295V6.60879V6.60463V6.60047V6.59631V6.59215V6.58799V6.58384V6.57968V6.57553V6.57137V6.56721V6.56306V6.55891V6.55475V6.5506V6.54645V6.5423V6.53815V6.534V6.52985V6.5257V6.52155V6.51741V6.51326V6.50911V6.50497V6.50083V6.49669V6.49254V6.4884V6.48426V6.48012V6.47598V6.47185V6.46771V6.46357V6.45943V6.4553V6.45117V6.44703V6.4429V6.43877V6.43464V6.43051V6.42638V6.42225V6.41813V6.414V6.40987V6.40575V6.40163V6.39751V6.39339V6.38927V6.38515V6.38103V6.37691V6.37279V6.36868V6.36457V6.36045V6.35634V6.35223V6.34812V6.34401V6.33991V6.3358V6.33169V6.32759V6.32349V6.31939V6.31528V6.31118V6.30709V6.30299V6.29889V6.29479V6.2907V6.28661V6.28252V6.27843V6.27434V6.27025C10.7933 4.73879 9.55179 3.49739 8.02039 3.49739ZM6.41414 8.61855C6.41414 8.29641 6.15297 8.03521 5.83081 8.03521C5.50864 8.03521 5.24747 8.29641 5.24747 8.61855C5.24747 10.5342 4.99769 12.1372 4.74082 13.5623C4.68367 13.8794 4.89437 14.1827 5.21143 14.2399C5.52848 14.297 5.83183 14.0863 5.88898 13.7693C6.14997 12.3213 6.41414 10.6381 6.41414 8.61855ZM10.5521 12.1277C10.5925 11.8081 10.3661 11.5162 10.0465 11.4758C9.72692 11.4354 9.43505 11.6617 9.39465 11.9814C9.33479 12.4552 9.26932 12.8033 9.19812 13.1823C9.17525 13.3039 9.15179 13.4288 9.12772 13.5621C9.07045 13.8791 9.28099 14.1825 9.59805 14.2398C9.91505 14.2971 10.2185 14.0865 10.2758 13.7695C10.2974 13.6501 10.3193 13.5335 10.3413 13.4165C10.4139 13.0304 10.4875 12.6394 10.5521 12.1277ZM7.95265 9.88875C8.27385 9.91401 8.51372 10.1948 8.48852 10.516C8.40012 11.6415 8.28319 12.5491 8.18792 13.1774C8.14025 13.4915 8.09799 13.7361 8.06745 13.9032C8.05212 13.9868 8.03972 14.0511 8.03105 14.095C8.02672 14.117 8.02325 14.1339 8.02085 14.1457L8.01805 14.1593L8.01725 14.1633L8.01699 14.1645C8.01699 14.1645 8.01685 14.1652 7.44612 14.0445L8.01685 14.1652C7.95012 14.4804 7.64059 14.6818 7.32539 14.6151C7.01025 14.5485 6.80879 14.2389 6.87539 13.9238L6.87585 13.9216L6.87792 13.9117L6.88652 13.8688C6.89419 13.8301 6.90552 13.7712 6.91979 13.6931C6.94839 13.5371 6.98865 13.3043 7.03445 13.0025C7.12599 12.3987 7.23945 11.5192 7.32545 10.4246C7.35065 10.1035 7.63145 9.86355 7.95265 9.88875ZM8.60785 6.26079C8.60785 5.93862 8.34672 5.67745 8.02452 5.67745C7.70239 5.67745 7.44119 5.93862 7.44119 6.26079V6.26556V6.27033V6.27509V6.27983V6.28457V6.28931V6.29403V6.29875V6.30346V6.30816V6.31285V6.31754V6.32222V6.32689V6.33155V6.33621V6.34085V6.34549V6.35013V6.35475V6.35937V6.36397V6.36857V6.37317V6.37776V6.38233V6.38691V6.39147V6.39603V6.40058V6.40512V6.40966V6.41419V6.41871V6.42322V6.42773V6.43223V6.43672V6.44121V6.44569V6.45016V6.45463V6.45909V6.46353V6.46798V6.47242V6.47685V6.48127V6.48569V6.49011V6.49451V6.49891V6.5033V6.50768V6.51206V6.51643V6.5208V6.52516V6.52951V6.53386V6.5382V6.54253V6.54686V6.55119V6.5555V6.55981V6.56411V6.56841V6.5727V6.57699V6.58127V6.58554V6.58981V6.59407V6.59833V6.60257V6.60682V6.61106V6.61529V6.61952V6.62374V6.62796V6.63217V6.63637V6.64057V6.64477V6.64895V6.65314V6.65731V6.66149V6.66565V6.66981V6.67395V6.67815V6.68228V6.68641V6.69055V6.69468V6.69881V6.70295V6.70701V6.71115V6.71528V6.71935V6.72348V6.72755V6.73161V6.73568V6.73981V6.74388V6.74795V6.75201V6.75608V6.76008V6.76415V6.76821V6.77221V6.77628V6.78028V6.78435V6.78835V6.79235V6.79641V6.80041V6.80441V6.80841V6.81241V6.81641V6.82041V6.82435V6.82835V6.83235V6.83628V6.84028V6.84421V6.84821V6.85215V6.85608V6.86008V6.86401V6.86795V6.87188V6.87581V6.87975V6.88368V6.88761V6.89155V6.89541V6.89935V6.90328V6.90715V6.91108V6.91495V6.91888V6.92275V6.92661V6.93055V6.93441V6.93828V6.94215V6.94608V6.94995V6.95381V6.95768V6.96155V6.96535V6.96921V6.97308V6.97695V6.98081V6.98461V6.98848V6.99235V6.99615V7.00001V7.00381V7.00768V7.01148V7.01528V7.01915V7.02295V7.02675V7.03055V7.03441V7.03821V7.04201V7.04581V7.04961V7.05341V7.05721V7.06101V7.06481V7.06861V7.07241V7.07621V7.07995V7.08375V7.08755V7.09135V7.09508V7.09888V7.10268V7.10641V7.11021V7.11395V7.11775V7.12148V7.12528V7.12901V7.13281V7.13655V7.14035V7.14408V7.14781V7.15161V7.15535V7.15908V7.16288V7.16661V7.17035V7.17408V7.17788V7.18161V7.18535V7.18908V7.19281V7.19655V7.20028V7.20408V7.20781V7.21155V7.21528V7.21901V7.22275V7.22648V7.23021V7.23395V7.23768V7.24141V7.24515V7.24888V7.25261V7.25635V7.26008V7.26381V7.26755V7.27128V7.27501V7.27875V7.28248V7.28621V7.28988V7.29361V7.29735V7.30108V7.30481V7.30855V7.31228V7.31601V7.31975V7.32348V7.32721V7.33095V7.33468V7.33841V7.34215V7.34581V7.34955V7.35328V7.35701V7.36075V7.36448V7.36821V7.37195V7.37568V7.37941V7.38315V7.38688V7.39061V7.39441V7.39815V7.40188V7.40561V7.40935V7.41308V7.41681V7.42055V7.42428V7.42808V7.43181V7.43555V7.43928V7.44308V7.44681V7.45055V7.45428V7.45808V7.46181V7.46555V7.46935V7.47308V7.47688V7.48061V7.48435V7.48815V7.49195V7.49568V7.49948V7.50321V7.50701V7.51075V7.51455V7.51835V7.52215V7.52588V7.52968V7.53348V7.53728V7.54108V7.54481V7.54861V7.55241V7.55621V7.56001V7.56381V7.56761V7.57148V7.57528V7.57908V7.58288V7.58668V7.59055V7.59435V7.59815V7.60201V7.60581V7.60968V7.61348V7.61735V7.62115V7.62501V7.62888V7.63268V7.63655V7.64041V7.64428V7.64815V7.65201V7.65588V7.65975V7.66361V7.66748V7.67135V7.67521V7.67915V7.68301V7.68688V7.69081V7.69468V7.69861V7.70248V7.70641V7.71028V7.71421V7.71815V7.72208V7.72601V7.72988V7.73381V7.73775V7.74168V7.74568V7.74961V7.75355V7.75748V7.76148V7.76541V7.76941V7.77335V7.77735V7.78128V7.78528V7.78928V7.79328V7.79728V7.80128V7.80528V7.80928V7.81328V7.81728V7.82128V7.82535V7.82935V7.83335V7.83741V7.84148V7.84548V7.84955V7.85361V7.85768V7.86175V7.86581V7.86988V7.87395V7.87801V7.88208V7.88621V7.89028V7.89441V7.89848V7.90261V7.90675V7.91081V7.91495V7.91908V7.92321V7.92735V7.93155V7.93568V7.93981V7.94401V7.94815V7.95235V7.95648V7.96068V7.96488V7.96908V7.97328V7.97748V7.98168V7.98588V7.99015V7.99435V7.99861V8.00281V8.00708V8.01135V8.01561V8.01981V8.02408V8.02841V8.03268V8.03695V8.04121V8.04555V8.04981V8.05415V8.05848V8.06281V8.06715V8.07148V8.07581V8.08015V8.08448V8.08888V8.09321V8.09761V8.10195V8.10635V8.11075V8.11515V8.11955V8.12395V8.12835V8.13281V8.13721V8.14168V8.14615V8.15055V8.15501V8.15948V8.16395V8.16841V8.17295V8.17741V8.18195V8.18641V8.19095V8.19548V8.20001V8.20455V8.20908V8.21361V8.21815V8.22275V8.22735V8.23188V8.23648V8.24108V8.24568V8.25028V8.25488V8.25955V8.26415V8.26881V8.27341V8.27808V8.28275V8.28741V8.29208V8.29681V8.30148V8.30621V8.31088V8.31561V8.32035V8.32508V8.32981V8.33455V8.33935V8.34408V8.34888C7.44119 8.67101 7.70239 8.93221 8.02452 8.93221C8.34672 8.93221 8.60785 8.67101 8.60785 8.34888V8.34408V8.33935V8.33455V8.32981V8.32508V8.32035V8.31561V8.31088V8.30621V8.30148V8.29681V8.29208V8.28741V8.28275V8.27808V8.27341V8.26881V8.26415V8.25955V8.25488V8.25028V8.24568V8.24108V8.23648V8.23188V8.22735V8.22275V8.21815V8.21361V8.20908V8.20455V8.20001V8.19548V8.19095V8.18641V8.18195V8.17741V8.17295V8.16841V8.16395V8.15948V8.15501V8.15055V8.14615V8.14168V8.13721V8.13281V8.12835V8.12395V8.11955V8.11515V8.11075V8.10635V8.10195V8.09761V8.09321V8.08888V8.08448V8.08015V8.07581V8.07148V8.06715V8.06281V8.05848V8.05415V8.04981V8.04555V8.04121V8.03695V8.03268V8.02841V8.02408V8.01981V8.01561V8.01135V8.00708V8.00281V7.99861V7.99435V7.99015V7.98588V7.98168V7.97748V7.97328V7.96908V7.96488V7.96068V7.95648V7.95235V7.94815V7.94401V7.93981V7.93568V7.93155V7.92735V7.92321V7.91908V7.91495V7.91081V7.90675V7.90261V7.89848V7.89441V7.89028V7.88621V7.88208V7.87801V7.87395V7.86988V7.86581V7.86175V7.85768V7.85361V7.84955V7.84548V7.84148V7.83741V7.83335V7.82935V7.82535V7.82128V7.81728V7.81328V7.80928V7.80528V7.80128V7.79728V7.79328V7.78928V7.78528V7.78128V7.77735V7.77335V7.76941V7.76541V7.76148V7.75748V7.75355V7.74961V7.74568V7.74168V7.73775V7.73381V7.72988V7.72601V7.72208V7.71815V7.71421V7.71028V7.70641V7.70248V7.69861V7.69468V7.69081V7.68688V7.68301V7.67915V7.67521V7.67135V7.66748V7.66361V7.65975V7.65588V7.65201V7.64815V7.64428V7.64041V7.63655V7.63268V7.62888V7.62501V7.62115V7.61735V7.61348V7.60968V7.60581V7.60201V7.59815V7.59435V7.59055V7.58668V7.58288V7.57908V7.57528V7.57148V7.56761V7.56381V7.56001V7.55621V7.55241V7.54861V7.54481V7.54108V7.53728V7.53348V7.52968V7.52588V7.52215V7.51835V7.51455V7.51075V7.50701V7.50321V7.49948V7.49568V7.49195V7.48815V7.48435V7.48061V7.47688V7.47308V7.46935V7.46555V7.46181V7.45808V7.45428V7.45055V7.44681V7.44308V7.43928V7.43555V7.43181V7.42808V7.42428V7.42055V7.41681V7.41308V7.40935V7.40561V7.40188V7.39815V7.39441V7.39061V7.38688V7.38315V7.37941V7.37568V7.37195V7.36821V7.36448V7.36075V7.35701V7.35328V7.34955V7.34581V7.34215V7.33841V7.33468V7.33095V7.32721V7.32348V7.31975V7.31601V7.31228V7.30855V7.30481V7.30108V7.29735V7.29361V7.28988V7.28621V7.28248V7.27875V7.27501V7.27128V7.26755V7.26381V7.26008V7.25635V7.25261V7.24888V7.24515V7.24141V7.23768V7.23395V7.23021V7.22648V7.22275V7.21901V7.21528V7.21155V7.20781V7.20408V7.20028V7.19655V7.19281V7.18908V7.18535V7.18161V7.17788V7.17408V7.17035V7.16661V7.16288V7.15908V7.15535V7.15161V7.14781V7.14408V7.14035V7.13655V7.13281V7.12901V7.12528V7.12148V7.11775V7.11395V7.11021V7.10641V7.10268V7.09888V7.09508V7.09135V7.08755V7.08375V7.07995V7.07621V7.07241V7.06861V7.06481V7.06101V7.05721V7.05341V7.04961V7.04581V7.04201V7.03821V7.03441V7.03055V7.02675V7.02295V7.01915V7.01528V7.01148V7.00768V7.00381V7.00001V6.99615V6.99235V6.98848V6.98461V6.98081V6.97695V6.97308V6.96921V6.96535V6.96155V6.95768V6.95381V6.94995V6.94608V6.94215V6.93828V6.93441V6.93055V6.92661V6.92275V6.91888V6.91495V6.91108V6.90715V6.90328V6.89935V6.89541V6.89155V6.88761V6.88368V6.87975V6.87581V6.87188V6.86795V6.86401V6.86008V6.85608V6.85215V6.84821V6.84421V6.84028V6.83628V6.83235V6.82835V6.82435V6.82041V6.81641V6.81241V6.80841V6.80441V6.80041V6.79641V6.79235V6.78835V6.78435V6.78028V6.77628V6.77221V6.76821V6.76415V6.76008V6.75608V6.75201V6.74795V6.74388V6.73981V6.73568V6.73161V6.72755V6.72348V6.71935V6.71528V6.71115V6.70701V6.70295V6.69881V6.69468V6.69055V6.68641V6.68228V6.67815V6.67395V6.66981V6.66565V6.66149V6.65731V6.65314V6.64895V6.64477V6.64057V6.63637V6.63217V6.62796V6.62374V6.61952V6.61529V6.61106V6.60682V6.60257V6.59833V6.59407V6.58981V6.58554V6.58127V6.57699V6.5727V6.56841V6.56411V6.55981V6.5555V6.55119V6.54686V6.54253V6.5382V6.53386V6.52951V6.52516V6.5208V6.51643V6.51206V6.50768V6.5033V6.49891V6.49451V6.49011V6.48569V6.48127V6.47685V6.47242V6.46798V6.46353V6.45909V6.45463V6.45016V6.44569V6.44121V6.43672V6.43223V6.42773V6.42322V6.41871V6.41419V6.40966V6.40512V6.40058V6.39603V6.39147V6.38691V6.38233V6.37776V6.37317V6.36857V6.36397V6.35937V6.35475V6.35013V6.34549V6.34085V6.33621V6.33155V6.32689V6.32222V6.31754V6.31285V6.30816V6.30346V6.29875V6.29403V6.28931V6.28457V6.27983V6.27509V6.27033V6.26556V6.26079Z" fill="currentColor"/>
</svg>
