<?xml version="1.0" encoding="UTF-8"?>
<svg width="16" height="16" viewBox="0 0 16 16" fill="none" xmlns="http://www.w3.org/2000/svg">
  <path fill-rule="evenodd" clip-rule="evenodd" d="M8.3402 2.88853L7.27651 1.92752L8.11448 1L10.419 3.08203L10.9323 3.54579L10.419 4.00955L8.11448 6.09157L7.27651 5.16405L8.40341 4.14594C8.27043 4.13475 8.13588 4.12905 8 4.12905C5.37665 4.12905 3.25 6.25569 3.25 8.87905C3.25 11.5024 5.37665 13.629 8 13.629C10.6234 13.629 12.75 11.5024 12.75 8.87905C12.75 7.6716 12.2995 6.56939 11.5574 5.73132L12.5949 5.02042C13.4718 6.06357 14 7.40962 14 8.87905C14 12.1927 11.3137 14.879 8 14.879C4.68629 14.879 2 12.1927 2 8.87905C2 5.56534 4.68629 2.87905 8 2.87905C8.11417 2.87905 8.2276 2.88224 8.3402 2.88853Z" fill="currentColor"/>
</svg>
