<?xml version="1.0" encoding="UTF-8"?>
<svg width="15" height="16" viewBox="0 0 15 16" fill="none" xmlns="http://www.w3.org/2000/svg">
  <path fill-rule="evenodd" clip-rule="evenodd" d="M7.84208 3.38976L7.14809 2.71848L7.82192 1.91992L9.55141 3.59292L9.96414 3.9922L9.55141 4.39148L7.82192 6.06447L7.14809 5.26592L7.9593 4.48124C7.80572 4.46286 7.64961 4.45342 7.49144 4.45342C5.19169 4.45342 3.32738 6.44957 3.32738 8.91194C3.32738 11.3743 5.19169 13.3705 7.49144 13.3705C9.7912 13.3705 11.6555 11.3743 11.6555 8.91194C11.6555 7.63996 11.158 6.49239 10.36 5.68011L11.2041 5.06085C12.1057 6.05711 12.6606 7.41513 12.6606 8.91194C12.6606 11.9687 10.3463 14.4467 7.49144 14.4467C4.63658 14.4467 2.32227 11.9687 2.32227 8.91194C2.32227 5.8552 4.63658 3.37722 7.49144 3.37722C7.60929 3.37722 7.72617 3.38145 7.84208 3.38976ZM5.64609 10.7568V8.11986H4.97066V7.67708C5.09319 7.6738 5.21878 7.66232 5.34743 7.64264C5.54348 7.61968 5.69051 7.57049 5.78853 7.49505C5.88962 7.41962 5.96007 7.31466 5.99989 7.18019H6.46398V10.7568H5.64609ZM7.09019 8.9759V8.96606C7.09019 8.61842 7.14688 8.30515 7.2602 8.02639C7.37352 7.7443 7.53589 7.52129 7.74725 7.3573C7.95861 7.19331 8.21437 7.11131 8.51459 7.11131C8.8148 7.11131 9.07056 7.19331 9.28192 7.3573C9.49633 7.52129 9.6587 7.7443 9.76897 8.02639C9.88229 8.30515 9.93898 8.61842 9.93898 8.96606V8.9759C9.93898 9.32354 9.88229 9.6384 9.76897 9.92049C9.6587 10.1993 9.49633 10.4206 9.28192 10.5847C9.07056 10.7487 8.8148 10.8306 8.51459 10.8306C8.21437 10.8306 7.95861 10.7487 7.74725 10.5847C7.53589 10.4206 7.37352 10.1993 7.2602 9.92049C7.14688 9.6384 7.09019 9.32354 7.09019 8.9759ZM7.98159 9.0005C7.98159 9.34162 8.00152 9.61055 8.04132 9.80733C8.08112 10.0041 8.14085 10.1435 8.22052 10.2255C8.30018 10.3075 8.39816 10.3485 8.51459 10.3485C8.63405 10.3485 8.73209 10.3075 8.80865 10.2255C8.88832 10.1435 8.94805 10.0041 8.98785 9.80733C9.02765 9.61055 9.04758 9.34162 9.04758 9.0005V8.94146C9.04758 8.59708 9.02765 8.32649 8.98785 8.1297C8.94805 7.93291 8.88832 7.79516 8.80865 7.71644C8.72899 7.63444 8.63101 7.59344 8.51459 7.59344C8.40127 7.59344 8.30478 7.63444 8.22511 7.71644C8.14545 7.79516 8.08422 7.93291 8.04132 8.1297C8.00152 8.32649 7.98159 8.59708 7.98159 8.94146V9.0005Z" fill="currentColor"/>
</svg>
