<?xml version="1.0" encoding="UTF-8"?>
<svg width="16" height="16" viewBox="0 0 16 16" fill="none" xmlns="http://www.w3.org/2000/svg">
  <path fill-rule="evenodd" clip-rule="evenodd" d="M8.3402 2.00962L7.27651 1.04861L8.11448 0.121094L10.419 2.20312L10.9323 2.66688L10.419 3.13064L8.11448 5.21266L7.27651 4.28514L8.40341 3.26703C8.27043 3.25584 8.13588 3.25014 8 3.25014C5.37665 3.25014 3.25 5.37678 3.25 8.00014C3.25 10.6235 5.37665 12.7501 8 12.7501C10.6234 12.7501 12.75 10.6235 12.75 8.00014C12.75 6.79269 12.2995 5.69048 11.5574 4.85241L12.5949 4.14151C13.4718 5.18466 14 6.53071 14 8.00014C14 11.3138 11.3137 14.0001 8 14.0001C4.68629 14.0001 2 11.3138 2 8.00014C2 4.68643 4.68629 2.00014 8 2.00014C8.11417 2.00014 8.2276 2.00333 8.3402 2.00962Z" fill="currentColor"/>
</svg>
