<?xml version="1.0" encoding="UTF-8"?>
<svg width="16" height="16" viewBox="0 0 16 16" fill="none" xmlns="http://www.w3.org/2000/svg">
  <path fill-rule="evenodd" clip-rule="evenodd" d="M9.00612 3.28334L8.20059 2.55563L8.98272 1.68994L10.9902 3.50359L11.4693 3.93643L10.9902 4.36927L8.98272 6.18291L8.20059 5.31723L9.14219 4.46659C8.96392 4.44666 8.78272 4.43642 8.59912 4.43642C5.92975 4.43642 3.76579 6.60038 3.76579 9.26976C3.76579 11.9392 5.92975 14.1031 8.59912 14.1031C11.2685 14.1031 13.4325 11.9392 13.4325 9.26976C13.4325 7.89085 12.8551 6.64681 11.9288 5.76624L12.9085 5.09492C13.955 6.17493 14.5991 7.64712 14.5991 9.26976C14.5991 12.5835 11.9129 15.2698 8.59912 15.2698C5.28541 15.2698 2.59912 12.5835 2.59912 9.26976C2.59912 5.95605 5.28541 3.26975 8.59912 3.26975C8.73592 3.26975 8.87159 3.27433 9.00612 3.28334ZM6.45718 11.2698V8.41109H5.67318V7.93109C5.81541 7.92753 5.96118 7.91509 6.11051 7.89375C6.33807 7.86887 6.50874 7.81553 6.62251 7.73375C6.73985 7.65198 6.82163 7.5382 6.86785 7.39242H7.40652V11.2698H6.45718ZM8.13339 9.33909V9.32843C8.13339 8.95156 8.19919 8.61196 8.33072 8.30976C8.46225 8.00396 8.65072 7.7622 8.89605 7.58442C9.14139 7.40665 9.43825 7.31775 9.78672 7.31775C10.1352 7.31775 10.4321 7.40665 10.6774 7.58442C10.9263 7.7622 11.1147 8.00396 11.2427 8.30976C11.3743 8.61196 11.4401 8.95156 11.4401 9.32843V9.33909C11.4401 9.71596 11.3743 10.0573 11.2427 10.3631C11.1147 10.6653 10.9263 10.9053 10.6774 11.0831C10.4321 11.2609 10.1352 11.3498 9.78672 11.3498C9.43825 11.3498 9.14139 11.2609 8.89605 11.0831C8.65072 10.9053 8.46225 10.6653 8.33072 10.3631C8.19919 10.0573 8.13339 9.71596 8.13339 9.33909ZM9.16805 9.36576C9.16805 9.73556 9.19119 10.0271 9.23739 10.2404C9.28359 10.4538 9.35292 10.6049 9.44539 10.6938C9.53785 10.7826 9.65159 10.8271 9.78672 10.8271C9.92539 10.8271 10.0392 10.7826 10.1281 10.6938C10.2205 10.6049 10.2899 10.4538 10.3361 10.2404C10.3823 10.0271 10.4054 9.73556 10.4054 9.36576V9.30176C10.4054 8.92843 10.3823 8.63509 10.3361 8.42176C10.2899 8.20843 10.2205 8.05909 10.1281 7.97376C10.0356 7.88487 9.92185 7.84042 9.78672 7.84042C9.65519 7.84042 9.54319 7.88487 9.45072 7.97376C9.35825 8.05909 9.28719 8.20843 9.23739 8.42176C9.19119 8.63509 9.16805 8.92843 9.16805 9.30176V9.36576Z" fill="currentColor"/>
</svg>
