<?xml version="1.0" encoding="UTF-8"?>
<svg width="16" height="16" viewBox="0 0 16 16" fill="none" xmlns="http://www.w3.org/2000/svg">
  <path fill-rule="evenodd" clip-rule="evenodd" d="M7.78205 2.31985C7.91243 2.22672 8.08759 2.22672 8.21797 2.31985L11.1249 4.3962H4.87516L7.78205 2.31985ZM2.72458 4.3962L7.0555 1.30268C7.62051 0.899106 8.37951 0.899105 8.94452 1.30268L13.2754 4.3962H15V14.3962H1V4.3962H2.72458ZM7.50001 10.6463C8.46651 10.6463 9.25001 9.86275 9.25001 8.89625C9.25001 7.92975 8.46651 7.14625 7.50001 7.14625C6.53351 7.14625 5.75001 7.92975 5.75001 8.89625C5.75001 9.86275 6.53351 10.6463 7.50001 10.6463ZM10.017 10.5293C10.3225 10.0593 10.5 9.49852 10.5 8.89625C10.5 7.2394 9.15686 5.89625 7.50001 5.89625C5.84316 5.89625 4.50001 7.2394 4.50001 8.89625C4.50001 10.5531 5.84316 11.8963 7.50001 11.8963C8.10235 11.8963 8.66323 11.7187 9.13318 11.4132L11.0581 13.338L11.9419 12.4542L10.017 10.5293Z" fill="currentColor"/>
</svg>
