<?xml version="1.0" encoding="UTF-8"?>
<svg width="69px" height="46px" viewBox="0 0 69 46" version="1.1" xmlns="http://www.w3.org/2000/svg" xmlns:xlink="http://www.w3.org/1999/xlink">
    <!-- Generator: Sketch 55 (78076) - https://sketchapp.com -->
    <title>gift</title>
    <desc>Created with Sketch.</desc>
    <defs>
        <rect id="path-1" x="0" y="0" width="65" height="42" rx="3"></rect>
        <filter x="-3.1%" y="-4.8%" width="112.3%" height="119.0%" filterUnits="objectBoundingBox" id="filter-2">
            <feOffset dx="2" dy="2" in="SourceAlpha" result="shadowOffsetOuter1"></feOffset>
            <feGaussianBlur stdDeviation="1" in="shadowOffsetOuter1" result="shadowBlurOuter1"></feGaussianBlur>
            <feColorMatrix values="0 0 0 0 1   0 0 0 0 1   0 0 0 0 1  0 0 0 0.5 0" type="matrix" in="shadowBlurOuter1"></feColorMatrix>
        </filter>
    </defs>
    <g id="Symbols" stroke="none" stroke-width="1" fill="none" fill-rule="evenodd">
        <g id="Shop-header-/-Desktop-/-Minibag-arrows" transform="translate(-914.000000, -397.000000)">
            <g id="Mini-bag-Copy" transform="translate(902.000000, 113.000000)">
                <g id="Item-Copy" transform="translate(12.000000, 278.000000)">
                    <g id="gift" transform="translate(0.000000, 6.000000)">
                        <g id="Rectangle-2">
                            <use fill="black" fill-opacity="1" filter="url(#filter-2)" xlink:href="#path-1"></use>
                            <use fill="#1D1E20" fill-rule="evenodd" xlink:href="#path-1"></use>
                        </g>
                        <rect id="Rectangle-4" fill="#FFFFFF" fill-rule="evenodd" x="19" y="19" width="3" height="23"></rect>
                        <rect id="Rectangle-4" fill="#FFFFFF" fill-rule="evenodd" x="19" y="0" width="3" height="31"></rect>
                        <rect id="Rectangle-7" fill="#FFFFFF" fill-rule="evenodd" x="0" y="11" width="65" height="3"></rect>
                        <g id="noun_bow_290583_000000" stroke-width="1" fill-rule="evenodd" transform="translate(6.000000, 6.000000)" fill="#FFFFFF" stroke="#1D1E20">
                            <path d="M11.0062214,3.5591439 C10.7006038,4.1325258 10.5384615,4.77389603 10.5384615,5.43994779 C10.5384615,6.10599954 10.7006038,6.74736977 11.0062214,7.32075167 L11.2029879,7.68991342 L10.561622,8.19502965 C10.4099867,8.31445246 10.1660631,8.49330849 9.88131929,8.69132803 C9.32074031,9.08117264 8.73495367,9.45048421 8.14172122,9.78481593 C7.02544252,10.413923 5.97050303,10.8696269 5.00502546,11.1284691 C1.37060133,12.1028488 -0.5,10.2519104 -0.5,5.43994779 C-0.5,0.627985191 1.37060133,-1.22295324 5.00502556,-0.248573537 C5.97050303,0.0102686793 7.02544252,0.465972582 8.14172154,1.09507983 C8.73495367,1.42941136 9.32074031,1.79872293 9.88131886,2.18856724 C10.1660631,2.38658709 10.4099867,2.56544311 10.5616214,2.68486547 L11.2029879,3.18998215 L11.0062214,3.5591439 Z M11.5807203,8.13447281 C12.0790747,8.68074131 12.7188587,9.07867608 13.4296243,9.2788387 L14.0471515,9.45274393 L6.1842722,23.1461842 L5.21793043,20.7206183 C5.18748068,20.6441876 5.07239742,20.5769127 4.99248443,20.5884484 L2.42302446,20.9593601 L9.08056983,9.36504654 L9.18437037,9.29896096 C9.44214278,9.13484774 9.69618949,8.96563264 9.94485521,8.7927028 C10.2333307,8.59208759 10.4785284,8.41214337 10.6306859,8.29231009 L11.2673088,7.79092851 L11.5807203,8.13447281 Z M17.9937786,3.5591439 L17.7970121,3.18998215 L18.438378,2.68486592 C18.5900133,2.56544311 18.8339369,2.38658709 19.1186807,2.18856754 C19.6792597,1.79872293 20.2650463,1.42941136 20.8582788,1.09507965 C21.9745575,0.465972582 23.029497,0.0102686793 23.9949745,-0.248573564 C27.6293987,-1.22295324 29.5,0.627985191 29.5,5.43994779 C29.5,10.2519104 27.6293987,12.1028488 23.9949744,11.1284691 C23.029497,10.8696269 21.9745575,10.413923 20.8582785,9.78481574 C20.2650463,9.45048421 19.6792597,9.08117264 19.1186811,8.69132833 C18.8339369,8.49330849 18.5900133,8.31445246 18.4383786,8.19503011 L17.7970121,7.68991342 L17.9937786,7.32075167 C18.2993962,6.74736977 18.4615385,6.10599954 18.4615385,5.43994779 C18.4615385,4.77389603 18.2993962,4.1325258 17.9937786,3.5591439 Z M17.41928,8.13447253 L17.7326915,7.79092873 L18.3693131,8.29230936 C18.5214716,8.41214337 18.7666693,8.59208759 19.0551444,8.79270251 C19.3035415,8.96544552 19.5573007,9.13447722 19.814776,9.29841719 L19.9185638,9.36450109 L26.5764212,20.9593602 L24.0069626,20.5884485 C23.9270488,20.5769126 23.8119663,20.6441872 23.7815161,20.7206189 L22.8151746,23.1461841 L14.9523353,9.45281387 L15.5699533,9.27895776 C16.2808858,9.07883414 16.920824,8.68085152 17.41928,8.13447253 Z M14.5,9.30441441 C12.3752154,9.30441441 10.6538462,7.5736246 10.6538462,5.43994779 C10.6538462,3.30627097 12.3752154,1.57548116 14.5,1.57548116 C16.6247846,1.57548116 18.3461538,3.30627097 18.3461538,5.43994779 C18.3461538,7.5736246 16.6247846,9.30441441 14.5,9.30441441 Z" id="Shape" fill-rule="nonzero"></path>
                        </g>
                    </g>
                </g>
            </g>
        </g>
    </g>
</svg>