<svg xmlns="http://www.w3.org/2000/svg" xmlns:xlink="http://www.w3.org/1999/xlink" width="65" height="65" viewBox="0 0 65 65">
  <g fill="none" fill-rule="evenodd">
    <rect width="65" height="42" rx="3" fill="#1d1e20" transform="translate(0 11.5)" />
    <path fill="#fff" d="M19 30.5h3v23h-3z"/>
    <path fill="#fff" d="M19 11.5h3v31h-3z"/>
    <path fill="#fff" d="M0 22.5h65v3H0z"/>
    <path fill="#fff" fill-rule="nonzero" stroke="#1d1e20" d="M17.006 21.06a3.985 3.985 0 0 0-.468 1.88c0 .666.163 1.307.468 1.88l.197.37-.641.505a21.873 21.873 0 0 1-2.42 1.59c-1.117.629-2.171 1.085-3.137 1.343-3.634.975-5.505-.876-5.505-5.688 0-4.812 1.87-6.663 5.505-5.689.966.26 2.02.715 3.137 1.344a21.873 21.873 0 0 1 2.42 1.59l.641.505-.197.37zm.575 4.574a3.957 3.957 0 0 0 1.849 1.145l.617.174-7.863 13.693-.966-2.425c-.03-.077-.146-.144-.226-.133l-2.569.371 6.658-11.594.103-.066c.258-.164.512-.333.76-.506.29-.2.535-.38.687-.5l.636-.502.314.343zm6.413-4.575l-.197-.369.641-.505a21.873 21.873 0 0 1 2.42-1.59c1.117-.629 2.171-1.085 3.137-1.344 3.634-.974 5.505.877 5.505 5.689s-1.87 6.663-5.505 5.688c-.966-.258-2.02-.714-3.137-1.343a21.873 21.873 0 0 1-2.42-1.59l-.641-.505.197-.37a3.985 3.985 0 0 0 .468-1.88c0-.666-.163-1.307-.468-1.88zm-.575 4.575l.314-.343.636.501c.152.12.398.3.686.5.249.173.502.342.76.506l.104.067 6.657 11.594-2.569-.37c-.08-.012-.195.055-.225.132l-.967 2.425-7.863-13.693.618-.174c.71-.2 1.35-.598 1.85-1.145zm-2.919 1.17c-2.125 0-3.846-1.73-3.846-3.864s1.721-3.865 3.846-3.865 3.846 1.731 3.846 3.865c0 2.134-1.721 3.864-3.846 3.864z"/>
  </g>
</svg>