<?xml version="1.0" encoding="UTF-8"?>
<svg width="100px" height="100px" viewBox="0 0 100 100" version="1.1" xmlns="http://www.w3.org/2000/svg" xmlns:xlink="http://www.w3.org/1999/xlink">
    <!-- Generator: Sketch 42 (36781) - http://www.bohemiancoding.com/sketch -->
    <desc>Created with Sketch.</desc>
    <defs></defs>
    <g id="Page-1" stroke="none" stroke-width="1" fill="none" fill-rule="evenodd">
        <g id="googleplus" fill-rule="nonzero" fill="currentColor">
            <path d="M98.9222839,45.8847059 L88.8191911,45.8847059 L88.8191911,35.7905882 L80.7367169,35.7905882 L80.7367169,45.8847059 L70.6336241,45.8847059 L70.6336241,53.96 L80.7367169,53.96 L80.7367169,64.0541176 L88.8191911,64.0541176 L88.8191911,53.96 L98.9222839,53.96 L98.9222839,45.8847059 Z M34.2624901,43.8658824 L34.2624901,56.4633412 L51.8822839,56.4633412 C50.5284695,64.0541176 43.941253,69.5856941 34.2624901,69.5856941 C23.5936241,69.5856941 14.9251705,60.5615529 14.9251705,49.9021647 C14.9251705,39.2427765 23.5936241,30.2388235 34.2624901,30.2388235 C39.0715623,30.2388235 43.3754798,31.8942588 46.770119,35.1243765 L46.770119,35.1445647 L55.8831086,26.0396706 C50.2859952,20.8311059 42.9915623,17.6211765 34.2624901,17.6211765 C16.400222,17.6211765 1.93259318,32.0759529 1.93259318,49.9223529 C1.93259318,67.7687529 16.400222,82.2235294 34.2624901,82.2235294 C52.9330056,82.2235294 65.2991911,69.1011765 65.2991911,50.6491294 C65.2991911,48.2871059 65.0769231,46.0260235 64.6727994,43.8658824 L34.2624901,43.8658824 Z" id="Google-Plus"></path>
        </g>
    </g>
</svg>
