<?xml version="1.0" encoding="UTF-8"?>
<svg width="16" height="16" viewBox="0 0 16 16" fill="none" xmlns="http://www.w3.org/2000/svg">
  <path fill-rule="evenodd" clip-rule="evenodd" d="M8.35712 3.73595C8.55312 3.42669 8.66659 3.05997 8.66659 2.66675C8.66659 1.56218 7.77119 0.666748 6.66659 0.666748C5.56202 0.666748 4.66659 1.56218 4.66659 2.66675C4.66659 3.29271 4.95416 3.85151 5.4044 4.21824L5.47831 2.49095C5.506 1.84381 6.0387 1.33341 6.68645 1.33341C7.31272 1.33341 7.83532 1.81157 7.89092 2.43537L7.94879 3.08522L7.97405 3.54606L8.35712 3.73595ZM9.33325 2.66681C9.33325 2.16759 9.19605 1.7004 8.95732 1.3009L9.55505 1.00203C9.83799 1.49189 9.99992 2.06045 9.99992 2.66681C9.99992 3.27317 9.83799 3.84171 9.55512 4.33156L8.95739 4.0327C9.19605 3.6332 9.33325 3.16603 9.33325 2.66681ZM3.99992 2.66655C3.99992 2.19745 4.12105 1.75665 4.33372 1.3737L3.73687 1.07527C3.47949 1.54815 3.33325 2.09027 3.33325 2.66655C3.33325 3.2429 3.47953 3.78509 3.73699 4.25801L4.33383 3.95959C4.12109 3.57659 3.99992 3.13572 3.99992 2.66655ZM12.3333 11.2854V8.10541C12.3333 7.18781 11.8623 6.34207 11.0993 5.85624V8.08175L10.6331 7.97321L10.4999 5.54216L9.52092 5.05691V7.73035L9.05465 7.62181L8.89725 4.74777L7.97412 4.29019V7.33495L7.50792 7.22635L7.28372 3.13303L7.22685 2.49451C7.20192 2.21462 6.96745 2.00008 6.68645 2.00008C6.39581 2.00008 6.15679 2.22909 6.14436 2.51945L5.83325 9.79015L5.63276 9.87375C5.63276 8.24148 4.87367 7.49235 3.66659 7.49235L3.81007 9.26975C3.76177 10.4023 4.1261 11.514 4.83542 12.3983L6.65497 14.6667H11.2847L11.7935 13.6234C12.1487 12.8952 12.3333 12.0957 12.3333 11.2854Z" fill="currentColor"/>
</svg>
