<?xml version="1.0" encoding="UTF-8"?>
<svg width="16" height="16" viewBox="0 0 16 16" fill="none" xmlns="http://www.w3.org/2000/svg">
  <path fill-rule="evenodd" clip-rule="evenodd" d="M10.0002 1H8.62521H7.37521H5.87549L3.63764 2.07081L4.20856 2.67207L6.12495 2.16667H7.37521V3H7.00021V5H9.00021V3H8.62521V2.16667H10.0002V1ZM3.64614 3.33337L4.41875 4.60812C4.63441 4.96394 4.57918 5.42103 4.28497 5.71523C3.93215 6.06805 3.36012 6.06805 3.0073 5.71523C2.7131 5.42103 2.65787 4.96394 2.87352 4.60812L3.64614 3.33337ZM6.80021 5.86242L6.25807 6.19975C5.4758 6.68649 5.00021 7.54256 5.00021 8.4639V14.3333C5.00021 14.7015 5.29869 15 5.66688 15H10.3335C10.7017 15 11.0002 14.7015 11.0002 14.3333V8.4639C11.0002 7.54256 10.5246 6.68649 9.74235 6.19975L9.20021 5.86242H6.80021ZM8.62522 10.0417H10.0002V11.2917H8.62522V12.6667H7.37522V11.2917H6.00022V10.0417H7.37522V8.66671H8.62522V10.0417Z" fill="currentColor"/>
</svg>
