<?xml version="1.0" encoding="UTF-8"?>
<svg width="16" height="16" viewBox="0 0 16 16" fill="none" xmlns="http://www.w3.org/2000/svg">
  <path fill-rule="evenodd" clip-rule="evenodd" d="M14.8917 8.98243L14.5653 12.6801L13.2955 12.8494L13.6465 8.87254C13.9346 5.6079 11.3621 2.79834 8.0848 2.79834H7.83718C4.53365 2.79834 1.95247 5.6509 2.28163 8.93799L2.67288 12.8452L1.39963 12.6754L1.03785 9.06254C0.634995 5.03954 3.79406 1.54834 7.83718 1.54834H8.0848C12.0959 1.54834 15.2443 4.9869 14.8917 8.98243ZM12.3975 9.76248L10.4341 9.25611L9.96933 14.5691L11.9908 14.4114L12.3975 9.76248ZM3.60812 9.80563L5.56232 9.26506L6.1198 14.5692L4.09592 14.4467L3.60812 9.80563Z" fill="currentColor"/>
</svg>
