<?xml version="1.0" encoding="UTF-8"?>
<svg width="16" height="16" viewBox="0 0 16 16" fill="none" xmlns="http://www.w3.org/2000/svg">
  <path fill-rule="evenodd" clip-rule="evenodd" d="M3.25 3.25H5.75V5.75H3.25V3.25ZM2 2H3.25H5.75H7V3.25V5.75V7H5.75H3.25H2V5.75V3.25V2ZM3.25 10.25H5.75V12.75H3.25V10.25ZM2 9H3.25H5.75H7V10.25V12.75V14H5.75H3.25H2V12.75V10.25V9ZM12.75 3.25H10.25V5.75H12.75V3.25ZM10.25 2H9V3.25V5.75V7H10.25H12.75H14V5.75V3.25V2H12.75H10.25ZM10.25 10.25H12.7501V12.7501H10.25V10.25ZM9 9H10.25H12.7501H14.0001V10.25V12.7501V14.0001H12.7501H10.25H9V12.7501V10.25V9Z" fill="currentColor"/>
</svg>
