<?xml version="1.0" encoding="UTF-8"?>
<svg width="20" height="20" viewBox="0 0 20 20" fill="none" xmlns="http://www.w3.org/2000/svg">
  <path fill-rule="evenodd" clip-rule="evenodd" d="M16.8182 1.66675H18.3334V3.1819L16.0473 5.46796C15.7752 4.77543 15.3687 4.15042 14.86 3.62502L16.8182 1.66675ZM1.66675 18.3334H3.1819L8.92133 12.5939L7.40621 11.0788L1.66675 16.8182V17.7128V18.3334ZM18.1672 14.7555V14.1302H14.3172V14.7497H15.7125V18.3334H16.772V14.7555H18.1672ZM7.05006 15.4501L6.01887 16.4813C6.64833 17.1107 7.51792 17.5001 8.47841 17.5001C9.90075 17.5001 11.1798 16.6342 11.708 15.3136L12.0637 14.4246C12.3505 13.7073 12.8032 13.0682 13.3845 12.5596L13.9737 12.0439C15.1556 11.0099 15.8334 9.50691 15.8334 7.93663C15.8334 4.94509 13.4083 2.50008 10.4167 2.50008C7.42521 2.50008 5.00008 4.92521 5.00008 7.91675H6.45841C6.45841 5.73062 8.23062 3.95841 10.4167 3.95841C12.5959 3.95841 14.3751 5.74354 14.3751 7.93663C14.3751 9.089 13.8767 10.191 13.0134 10.9464L12.4242 11.4621C11.6696 12.1223 11.082 12.9519 10.7096 13.8829L10.354 14.7719C10.0472 15.5388 9.30441 16.0417 8.47841 16.0417C7.92063 16.0417 7.41562 15.8157 7.05006 15.4501ZM11.2501 10.7127C12.4548 10.3541 13.3334 9.238 13.3334 7.91675C13.3334 6.30591 12.0276 5.00008 10.4167 5.00008C8.80591 5.00008 7.50008 6.30591 7.50008 7.91675H8.95841C8.95841 7.11133 9.61133 6.45841 10.4167 6.45841C11.2222 6.45841 11.8751 7.11133 11.8751 7.91675C11.8751 8.41233 11.6279 8.85016 11.2501 9.11366V10.7127Z" fill="currentColor"/>
</svg>
