<?xml version="1.0" encoding="UTF-8"?>
<svg width="16" height="16" viewBox="0 0 16 16" fill="none" xmlns="http://www.w3.org/2000/svg">
  <path fill-rule="evenodd" clip-rule="evenodd" d="M13.4545 1.33325H14.6666V2.54537L12.8377 4.37422C12.6201 3.8202 12.2949 3.32019 11.8879 2.89987L13.4545 1.33325ZM1.33325 14.6666H2.54537L7.13692 10.075L5.92482 8.86292L1.33325 13.4545V14.1701V14.6666ZM14.5337 11.8043V11.3041H11.4537V11.7997H12.5699V14.6666H13.4175V11.8043H14.5337ZM5.6399 12.3599L4.81495 13.1849C5.31852 13.6885 6.01419 13.9999 6.78258 13.9999C7.92045 13.9999 8.94372 13.3072 9.36625 12.2507L9.65078 11.5395C9.88025 10.9657 10.2424 10.4545 10.7075 10.0475L11.1789 9.63498C12.1243 8.80778 12.6666 7.60538 12.6666 6.34916C12.6666 3.95593 10.7265 1.99992 8.33325 1.99992C5.94002 1.99992 3.99992 3.94002 3.99992 6.33325H5.16658C5.16658 4.58435 6.58435 3.16659 8.33325 3.16659C10.0766 3.16659 11.4999 4.59469 11.4999 6.34916C11.4999 7.27105 11.1013 8.15265 10.4106 8.75698L9.93919 9.16952C9.33552 9.69772 8.86545 10.3614 8.56752 11.1062L8.28305 11.8174C8.03765 12.4309 7.44338 12.8333 6.78258 12.8333C6.33636 12.8333 5.93235 12.6524 5.6399 12.3599ZM8.99992 8.56998C9.96372 8.28312 10.6666 7.39025 10.6666 6.33325C10.6666 5.04458 9.62192 3.99992 8.33325 3.99992C7.04458 3.99992 5.99992 5.04458 5.99992 6.33325H7.16658C7.16658 5.68892 7.68892 5.16658 8.33325 5.16658C8.97758 5.16658 9.49992 5.68892 9.49992 6.33325C9.49992 6.72972 9.30218 7.07999 8.99992 7.29079V8.56998Z" fill="currentColor"/>
</svg>
