<?xml version="1.0" encoding="UTF-8"?>
<svg width="16" height="16" viewBox="0 0 16 16" fill="none" xmlns="http://www.w3.org/2000/svg">
  <path fill-rule="evenodd" clip-rule="evenodd" d="M14 8C14 11.3137 11.3137 14 8 14C4.68629 14 2 11.3137 2 8C2 4.68629 4.68629 2 8 2C11.3137 2 14 4.68629 14 8ZM8.875 7V12.5H7.125V7H8.875ZM8 5.88623C8.62132 5.88623 9.125 5.38255 9.125 4.76123C9.125 4.13991 8.62132 3.63623 8 3.63623C7.37868 3.63623 6.875 4.13991 6.875 4.76123C6.875 5.38255 7.37868 5.88623 8 5.88623Z" fill="currentColor"/>
</svg>
