<?xml version="1.0" encoding="UTF-8"?>
<svg width="16" height="16" viewBox="0 0 16 16" fill="none" xmlns="http://www.w3.org/2000/svg">
  <path fill-rule="evenodd" clip-rule="evenodd" d="M4.66667 2.3335H11.3333C12.806 2.3335 14 3.5275 14 5.00016V11.6668C14 13.1395 12.806 14.3335 11.3333 14.3335H4.66667C3.194 14.3335 2 13.1395 2 11.6668V5.00016C2 3.5275 3.194 2.3335 4.66667 2.3335ZM12 5.00016C12.3682 5.00016 12.6667 4.70169 12.6667 4.3335C12.6667 3.96531 12.3682 3.66683 12 3.66683C11.6318 3.66683 11.3333 3.96531 11.3333 4.3335C11.3333 4.70169 11.6318 5.00016 12 5.00016ZM8 11.6668C9.84095 11.6668 11.3333 10.1744 11.3333 8.3335C11.3333 6.49255 9.84095 5.00016 8 5.00016C6.15905 5.00016 4.66667 6.49255 4.66667 8.3335C4.66667 10.1744 6.15905 11.6668 8 11.6668ZM8 10.3335C9.10457 10.3335 10 9.43807 10 8.3335C10 7.22893 9.10457 6.3335 8 6.3335C6.89543 6.3335 6 7.22893 6 8.3335C6 9.43807 6.89543 10.3335 8 10.3335Z" fill="currentColor"/>
</svg>
