<?xml version="1.0" encoding="UTF-8"?>
<svg width="100px" height="100px" viewBox="0 0 100 100" version="1.1" xmlns="http://www.w3.org/2000/svg" xmlns:xlink="http://www.w3.org/1999/xlink">
    <!-- Generator: Sketch 43.1 (39012) - http://www.bohemiancoding.com/sketch -->
    <title>Instagram</title>
    <desc>Created with Sketch.</desc>
    <defs></defs>
    <g id="Page-1" stroke="none" stroke-width="1" fill="none" fill-rule="evenodd">
        <g id="Instagram" fill-rule="nonzero" fill="currentColor">
            <path d="M49.9843254,0.031547619 C36.4093254,0.031547619 34.7071429,0.0890873016 29.3757937,0.33234127 C24.0555556,0.575 20.4220238,1.42003968 17.2426587,2.65575397 C13.955754,3.93293651 11.168254,5.64206349 8.38928571,8.42083333 C5.61051587,11.1998016 3.90138889,13.9873016 2.62420635,17.2742063 C1.38849206,20.4535714 0.543452381,24.0871032 0.300793651,29.4073413 C0.0575396825,34.7386905 0,36.440873 0,50.015873 C0,63.5906746 0.0575396825,65.2928571 0.300793651,70.6242063 C0.543452381,75.9444444 1.38849206,79.5779762 2.62420635,82.7573413 C3.90138889,86.044246 5.61051587,88.831746 8.38928571,91.6107143 C11.168254,94.3894841 13.955754,96.0986111 17.2426587,97.3759921 C20.4220238,98.6115079 24.0555556,99.4565476 29.3757937,99.6992063 C34.7071429,99.9424603 36.4093254,100 49.9843254,100 C63.559127,100 65.2613095,99.9424603 70.5926587,99.6992063 C75.9128968,99.4565476 79.5464286,98.6115079 82.7257937,97.3759921 C86.0126984,96.0986111 88.8001984,94.3894841 91.5791667,91.6107143 C94.3579365,88.831746 96.0670635,86.044246 97.3444444,82.7573413 C98.5799603,79.5779762 99.425,75.9444444 99.6676587,70.6242063 C99.9109127,65.2928571 99.9684524,63.5906746 99.9684524,50.015873 C99.9684524,36.440873 99.9109127,34.7386905 99.6676587,29.4073413 C99.425,24.0871032 98.5799603,20.4535714 97.3444444,17.2742063 C96.0670635,13.9873016 94.3579365,11.1998016 91.5791667,8.42083333 C88.8001984,5.64206349 86.0126984,3.93293651 82.7257937,2.65575397 C79.5464286,1.42003968 75.9128968,0.575 70.5926587,0.33234127 C65.2613095,0.0890873016 63.559127,0.031547619 49.9843254,0.031547619 Z M49.9843254,9.03769841 C63.3305556,9.03769841 64.9115079,9.08869048 70.1821429,9.32916667 C75.0555556,9.55138889 77.7021825,10.3656746 79.4634921,11.0501984 C81.796627,11.9569444 83.4617063,13.0400794 85.2107143,14.7892857 C86.9599206,16.5382937 88.0430556,18.203373 88.9498016,20.5365079 C89.6343254,22.2978175 90.4486111,24.9444444 90.6708333,29.8178571 C90.9113095,35.0884921 90.9623016,36.6694444 90.9623016,50.015873 C90.9623016,63.3621032 90.9113095,64.9430556 90.6708333,70.2136905 C90.4486111,75.0871032 89.6343254,77.7337302 88.9498016,79.4950397 C88.0430556,81.8281746 86.9599206,83.493254 85.2107143,85.2422619 C83.4617063,86.9914683 81.796627,88.0746032 79.4634921,88.9813492 C77.7021825,89.665873 75.0555556,90.4801587 70.1821429,90.702381 C64.9123016,90.9428571 63.3315476,90.9938492 49.9843254,90.9938492 C36.6369048,90.9938492 35.0563492,90.9428571 29.7863095,90.702381 C24.9128968,90.4801587 22.2662698,89.665873 20.5049603,88.9813492 C18.1718254,88.0746032 16.506746,86.9914683 14.7577381,85.2422619 C13.0087302,83.493254 11.9253968,81.8281746 11.0186508,79.4950397 C10.334127,77.7337302 9.51984127,75.0871032 9.29761905,70.2136905 C9.05714286,64.9430556 9.00615079,63.3621032 9.00615079,50.015873 C9.00615079,36.6694444 9.05714286,35.0884921 9.29761905,29.8178571 C9.51984127,24.9444444 10.334127,22.2978175 11.0186508,20.5365079 C11.9253968,18.203373 13.0085317,16.5382937 14.7577381,14.7892857 C16.506746,13.0400794 18.1718254,11.9569444 20.5049603,11.0501984 C22.2662698,10.3656746 24.9128968,9.55138889 29.7863095,9.32916667 C35.0569444,9.08869048 36.6378968,9.03769841 49.9843254,9.03769841 Z M49.9855794,65.3430079 C41.519754,65.3430079 34.6569921,58.480246 34.6569921,50.0146032 C34.6569921,41.5487778 41.519754,34.6860159 49.9855794,34.6860159 C58.4512222,34.6860159 65.3139841,41.5487778 65.3139841,50.0146032 C65.3139841,58.480246 58.4512222,65.3430079 49.9855794,65.3430079 Z M49.9855794,26.4003571 C36.9436667,26.4003571 26.3713333,36.9726905 26.3713333,50.0146032 C26.3713333,63.0563333 36.9436667,73.6286667 49.9855794,73.6286667 C63.0273095,73.6286667 73.5996429,63.0563333 73.5996429,50.0146032 C73.5996429,36.9726905 63.0273095,26.4003571 49.9855794,26.4003571 Z M80.0509603,25.4673968 C80.0509603,22.4197143 77.5802857,19.9490397 74.5326032,19.9490397 C71.4851032,19.9490397 69.0144286,22.4197143 69.0144286,25.4673968 C69.0144286,28.5150794 71.4851032,30.9855714 74.5326032,30.9855714 C77.5802857,30.9855714 80.0509603,28.5150794 80.0509603,25.4673968 Z" id="instagram"></path>
        </g>
    </g>
</svg>
