<?xml version="1.0" encoding="UTF-8"?>
<svg width="16" height="16" viewBox="0 0 16 16" fill="none" xmlns="http://www.w3.org/2000/svg">
  <path fill-rule="evenodd" clip-rule="evenodd" d="M8.66675 3.33341V4.26378L9.09535 4.43637C9.24822 4.10023 9.33342 3.72677 9.33342 3.33341C9.33342 1.86065 8.13948 0.666748 6.66675 0.666748C5.19399 0.666748 4.00008 1.86065 4.00008 3.33341C4.00008 4.00971 4.25184 4.62721 4.66675 5.09729V3.33341C4.66683 2.22891 5.56223 1.33341 6.66675 1.33341C7.77128 1.33341 8.66668 2.22891 8.66675 3.33341ZM10.3333 4.93486C10.5477 4.44452 10.6667 3.90287 10.6667 3.33344C10.6667 2.67631 10.5083 2.05618 10.2275 1.50919L9.63101 1.80742C9.86688 2.26466 10.0001 2.78349 10.0001 3.33344C10.0001 3.81483 9.89802 4.27238 9.71441 4.68565L10.3333 4.93486ZM3.33341 3.33344C3.33341 2.81335 3.45253 2.32108 3.66495 1.88243L3.06849 1.58419C2.81113 2.1126 2.66675 2.70616 2.66675 3.33344C2.66675 4.07335 2.86765 4.76635 3.21787 5.36085L3.81594 5.06181C3.50974 4.55784 3.33341 3.96623 3.33341 3.33344ZM6.77341 3.15389C6.60221 3.15389 6.46341 3.29268 6.46341 3.46389V9.19882C6.46341 9.45802 6.3095 9.62261 6.20731 9.69655C6.10659 9.76941 6.00214 9.80048 5.92351 9.81301C5.84401 9.82568 5.73893 9.82775 5.62565 9.79335C5.51461 9.75961 5.32293 9.66401 5.23048 9.43341C5.11715 9.15068 4.89733 8.77695 4.44913 8.59801V9.92641C4.44913 10.4867 4.6582 11.0269 5.03543 11.4412L6.92695 13.5187C7.20755 13.8269 7.36308 14.2287 7.36308 14.6455H6.19641C6.19641 14.5193 6.14929 14.3975 6.06427 14.3041L4.17276 12.2267C3.59994 11.5975 3.28247 10.7773 3.28247 9.92641V7.91061V7.32728H3.8658C4.46768 7.32728 4.93567 7.49088 5.29675 7.72542V3.46389C5.29675 2.64835 5.95787 1.98722 6.77341 1.98722C7.58895 1.98722 8.25008 2.64835 8.25008 3.46389V4.88163L10.4317 5.78056C11.6491 6.28218 12.4436 7.46875 12.4436 8.78548V11.3841C12.4436 11.9467 12.34 12.5045 12.1381 13.0295L11.7498 14.039C11.6753 14.2325 11.6371 14.4381 11.6371 14.6455H10.4705C10.4705 14.2949 10.5351 13.9473 10.6609 13.6201L11.0492 12.6107C11.1997 12.2193 11.2769 11.8035 11.2769 11.3841V8.78548C11.2769 8.16061 10.9978 7.58148 10.5363 7.19235L10.4166 9.21755L9.74995 9.05161V6.76142L9.24301 6.55258L9.12355 8.88775L8.45688 8.72981V6.22865L7.97568 6.0304L7.75008 8.55395L7.08342 8.38801V5.66274V5.27219V4.8256V3.46389C7.08342 3.29268 6.94461 3.15389 6.77341 3.15389Z" fill="currentColor"/>
</svg>
