<?xml version="1.0" encoding="UTF-8"?>
<svg width="16" height="16" viewBox="0 0 16 16" fill="none" xmlns="http://www.w3.org/2000/svg">
  <path fill-rule="evenodd" clip-rule="evenodd" d="M7.38748 3.357L6.97355 1.33325H5.95282L6.39618 3.50081C3.95721 4.02287 2.32692 5.65379 1.44842 6.80105C1.21417 7.10699 1.03337 7.37852 0.904955 7.58545C0.745461 7.84252 0.666748 7.99992 0.666748 7.99992C0.666748 7.99992 0.826175 8.37192 1.17503 8.90585C1.47694 9.36792 1.92073 9.95132 2.52586 10.5198L2.01043 7.99992H2.02514C2.04111 7.97585 2.05767 7.95112 2.07485 7.92585C2.27133 7.63625 2.54319 7.27385 2.891 6.89398L3.83833 11.5253C4.18549 11.7383 4.56435 11.9331 4.97639 12.0991L3.74513 6.0796C4.03794 5.83742 4.36016 5.60608 4.71261 5.39877L6.15841 12.4671C6.49241 12.5423 6.84368 12.5985 7.21275 12.6317L6.54632 9.37345C6.85075 9.69558 7.26108 9.91652 7.72161 9.98072L8.68008 14.6666H9.70082L9.27268 12.5736C13.6549 11.9165 15.3334 7.99992 15.3334 7.99992C15.3334 7.99992 13.2826 3.89836 8.90641 3.38566C8.61468 3.35148 8.31255 3.33325 8.00008 3.33325C7.79121 3.33325 7.58702 3.34139 7.38748 3.357ZM8.71902 9.86678C9.46841 9.57805 10.0001 8.85105 10.0001 7.99992C10.0001 6.89532 9.10468 5.99992 8.00008 5.99992C7.97608 5.99992 7.95215 6.00035 7.92835 6.00118L7.62528 4.51975C7.74841 4.50664 7.87348 4.49992 8.00008 4.49992C9.93308 4.49992 11.5001 6.06692 11.5001 7.99992C11.5001 9.57738 10.4565 10.9111 9.02208 11.3484L8.71902 9.86678ZM6.96621 6.28753C6.58151 6.5203 6.28156 6.87905 6.12354 7.30652L5.64044 4.94473C5.95171 4.82171 6.28146 4.71951 6.63006 4.64422L6.96621 6.28753ZM12.7314 6.50589C13.265 7.02112 13.6625 7.53865 13.9253 7.92585C13.9502 7.96252 13.9738 7.99799 13.9962 8.03199C13.9801 8.05885 13.9632 8.08652 13.9456 8.11498C13.711 8.49398 13.3481 9.00192 12.8418 9.50832C12.6393 9.71085 12.4143 9.91278 12.1655 10.1061C12.4861 9.47338 12.6667 8.75772 12.6667 7.99992C12.6667 7.31519 12.5193 6.66486 12.2543 6.07903C12.4231 6.21855 12.582 6.36168 12.7314 6.50589Z" fill="currentColor"/>
</svg>
