<?xml version="1.0" encoding="UTF-8"?>
<svg width="100px" height="100px" viewBox="0 0 100 100" version="1.1" xmlns="http://www.w3.org/2000/svg" xmlns:xlink="http://www.w3.org/1999/xlink">
    <!-- Generator: Sketch 42 (36781) - http://www.bohemiancoding.com/sketch -->
    <defs></defs>
    <g id="Page-1" stroke="none" stroke-width="1" fill="none" fill-rule="evenodd">
        <g id="link" fill-rule="nonzero" fill="currentColor">
            <path d="M90.7312593,46.6306241 C100.996303,36.3655805 100.996303,19.8522497 90.7312593,9.69878269 C80.5777923,-0.566260897 64.0644615,-0.566260897 53.7994179,9.69878269 L38.8481588,24.6500418 C28.6946918,34.8035088 28.6946918,51.3168396 38.8481588,61.5818832 C41.1912668,63.9249907 44.9848699,63.9249907 47.3279774,61.5818832 C49.7826621,59.2387752 49.7826621,55.4451721 47.3279774,53.1020646 C41.860726,47.5232365 41.860726,38.708688 47.3279774,33.12986 L62.3908132,18.1786008 C67.8580646,12.7113494 76.7841892,12.7113494 82.2514412,18.1786008 C87.7186926,23.6458528 87.7186926,32.5719774 82.2514412,38.0392288 L75.1105409,45.2917051 C76.8957659,50.0894973 77.5652256,55.1104427 77.1189191,60.2429643 L90.7312593,46.6306241 Z M61.6097774,75.752106 C71.7632443,65.598639 71.7632443,49.0853082 61.6097774,38.8202646 C59.2666693,36.4771571 55.3614901,36.4771571 53.0183821,38.8202646 C50.6752746,41.1633727 50.6752746,45.0685519 53.0183821,47.4116599 C58.5972101,52.8789113 58.5972101,61.8050359 53.0183821,67.2722879 L38.0671229,82.2235465 C32.5998715,87.6907984 23.6737469,87.6907984 18.2064955,82.2235465 C12.7392436,76.7562951 12.7392436,67.8301705 18.2064955,62.3629191 L25.3473952,55.2220194 C23.5621703,50.4242272 22.8927111,45.2917051 23.339017,40.1591836 L9.61510022,53.8831004 C-0.538366741,64.0365674 -0.538366741,80.5498982 9.61510022,90.8149418 C19.8801438,100.968409 36.3934746,100.968409 46.5469416,90.8149418 L61.6097774,75.752106 Z" id="Shape"></path>
        </g>
    </g>
</svg>
