<?xml version="1.0" encoding="UTF-8"?>
<svg width="16" height="16" viewBox="0 0 16 16" fill="none" xmlns="http://www.w3.org/2000/svg">
  <path fill-rule="evenodd" clip-rule="evenodd" d="M7.83377 9.80355L7.64797 9.61774C6.97346 8.94323 6.85815 7.92128 7.30204 7.12798C6.96285 6.82207 6.44647 6.84298 6.14332 7.14613L5.86637 7.42307C5.6293 8.4973 5.92853 9.66607 6.76408 10.5016L6.94989 10.6874C8.25164 11.9892 10.3622 11.9892 11.6639 10.6874L14.2997 8.0517C15.6014 6.74995 15.6014 4.6394 14.2997 3.33766L14.1139 3.15185C12.8121 1.8501 10.7016 1.8501 9.39982 3.15185L8.78912 3.76255C9.15555 3.95678 9.50119 4.2042 9.81462 4.50481L10.2837 4.03573C11.0973 3.22214 12.4164 3.22214 13.23 4.03573L13.4158 4.22154C14.2294 5.03513 14.2294 6.35422 13.4158 7.16782L10.7801 9.80355C9.96646 10.6171 8.64737 10.6171 7.83377 9.80355ZM6.00677 11.3796L5.79154 11.5949C4.98136 12.4051 3.66781 12.4051 2.85763 11.5949C2.04746 10.7847 2.04746 9.47115 2.85763 8.66097L5.20847 6.31014C6.01864 5.49996 7.3322 5.49996 8.14237 6.31014C8.7177 6.88547 8.88447 7.71464 8.64269 8.43713L8.65884 8.45361C8.9842 8.77897 9.45501 8.87022 9.86196 8.72739C10.1984 7.59555 9.91984 6.31984 9.02626 5.42625C7.72792 4.12792 5.62292 4.12792 4.32459 5.42625L1.97375 7.77709C0.675418 9.07542 0.675418 11.1804 1.97375 12.4788C3.27208 13.7771 5.37709 13.7771 6.67542 12.4788L6.97643 12.1777C6.68286 11.9964 6.4055 11.7784 6.1509 11.5238L6.00677 11.3796Z" fill="currentColor"/>
</svg>
