<?xml version="1.0" encoding="UTF-8"?>
<svg width="16" height="16" viewBox="0 0 16 16" fill="none" xmlns="http://www.w3.org/2000/svg">
  <path fill-rule="evenodd" clip-rule="evenodd" d="M14.6666 8.00003C14.6666 10.2145 13.8954 12.2488 12.6069 13.8491L11.6927 13.1241C12.8231 11.7229 13.4999 9.9405 13.4999 8.00003C13.4999 6.01602 12.7925 4.19725 11.616 2.78226L12.5497 2.08069C13.8725 3.69148 14.6666 5.75302 14.6666 8.00003ZM11.9999 8.00003C11.9999 9.58823 11.4445 11.0468 10.5174 12.192L9.60318 11.4669C10.3723 10.5209 10.8333 9.31429 10.8333 8.00003C10.8333 6.61709 10.3229 5.35338 9.48018 4.38698L10.415 3.68464C11.4035 4.84755 11.9999 6.35414 11.9999 8.00003ZM9.33325 8.00003C9.33325 8.96203 8.99365 9.8447 8.42778 10.5348L7.51352 9.80963C7.92132 9.31883 8.16658 8.68803 8.16658 8.00003C8.16658 7.2179 7.84965 6.50973 7.33719 5.99704L8.27652 5.29129C8.93258 6.00379 9.33325 6.95509 9.33325 8.00003ZM3.33325 6.00002L6.66658 3.33336V12.6667L3.33325 10H1.33325V6.00002H3.33325Z" fill="currentColor"/>
</svg>
