<?xml version="1.0" encoding="UTF-8"?>
<svg width="100px" height="100px" viewBox="0 0 100 100" version="1.1" xmlns="http://www.w3.org/2000/svg" xmlns:xlink="http://www.w3.org/1999/xlink">
    <!-- Generator: Sketch 42 (36781) - http://www.bohemiancoding.com/sketch -->
    <desc>Created with Sketch.</desc>
    <defs></defs>
    <g id="Page-1" stroke="none" stroke-width="1" fill="none" fill-rule="evenodd">
        <g id="listen" fill="currentColor" fill-rule="nonzero">
            <path d="M50,6 C29.3625,6 12.5,22.8625 12.5,43.5 L12.5,56 L6.25,56 C2.79822031,56 4.22721094e-16,58.7982203 0,62.25 L0,87.25 C4.22721094e-16,90.7017797 2.79822031,93.5 6.25,93.5 L18.75,93.5 C22.2017797,93.5 25,90.7017797 25,87.25 L25,43.5 C25,29.6375 36.1375,18.5 50,18.5 C63.8625,18.5 75,29.6375 75,43.5 L75,87.25 C75,90.7017797 77.7982203,93.5 81.25,93.5 L93.75,93.5 C97.2017797,93.5 100,90.7017797 100,87.25 L100,62.25 C100,58.7982203 97.2017797,56 93.75,56 L87.5,56 L87.5,43.5 C87.5,22.8625 70.6375,6 50,6 Z"></path>
        </g>
    </g>
</svg>
