<?xml version="1.0" encoding="UTF-8"?>
<svg width="16" height="16" viewBox="0 0 16 16" fill="none" xmlns="http://www.w3.org/2000/svg">
  <path fill-rule="evenodd" clip-rule="evenodd" d="M14.9999 5.00012C14.9999 7.20926 13.209 9.00012 10.9999 9.00012C10.4979 9.00012 10.0176 8.90766 9.57489 8.73883L8.86521 9.44852L7.99992 8.58323L7.11604 9.46712L7.98132 10.3324L7.25663 11.0571L6.47221 10.2727L5.58833 11.1566L6.37274 11.941L5.51033 12.8034L4.70697 12L3.82309 12.8839L4.62645 13.6873L3.82835 14.4854L1.70703 13.7783V12.364L7.37581 6.69527C7.13465 6.18058 6.99991 5.60609 6.99991 5.00012C6.99991 2.79098 8.79077 1.00012 10.9999 1.00012C13.209 1.00012 14.9999 2.79098 14.9999 5.00012ZM12.9999 4.00003C12.9999 4.55231 12.5522 5.00003 11.9999 5.00003C11.4476 5.00003 10.9999 4.55231 10.9999 4.00003C10.9999 3.44775 11.4476 3.00003 11.9999 3.00003C12.5522 3.00003 12.9999 3.44775 12.9999 4.00003Z" fill="currentColor"/>
</svg>
