<?xml version="1.0" encoding="UTF-8"?>
<svg width="16" height="16" viewBox="0 0 16 16" fill="none" xmlns="http://www.w3.org/2000/svg">
  <path fill-rule="evenodd" clip-rule="evenodd" d="M7.375 1H1V15H7.375V1ZM15 1H8.62V15H15V1ZM5.75 11C5.75 11.4142 5.41421 11.75 5 11.75C4.58579 11.75 4.25 11.4142 4.25 11C4.25 10.5858 4.58579 10.25 5 10.25C5.41421 10.25 5.75 10.5858 5.75 11ZM13 11.75C13.4142 11.75 13.75 11.4142 13.75 11C13.75 10.5858 13.4142 10.25 13 10.25C12.5858 10.25 12.25 10.5858 12.25 11C12.25 11.4142 12.5858 11.75 13 11.75ZM2.25 2.25H6.1V3.5H2.25V2.25ZM13.7561 2.25H10.0799V3.5H13.7561V2.25ZM2.25 4.5H6.1V5.75H2.25V4.5ZM13.7561 4.5H10.0799V5.75H13.7561V4.5ZM2.25 6.75H6.1V8H2.25V6.75ZM13.7561 6.75H10.0799V8H13.7561V6.75Z" fill="currentColor"/>
</svg>
