<?xml version="1.0" encoding="UTF-8"?>
<svg width="16" height="16" viewBox="0 0 16 16" fill="none" xmlns="http://www.w3.org/2000/svg">
  <path fill-rule="evenodd" clip-rule="evenodd" d="M12.6069 13.8492C13.8954 12.249 14.6666 10.2146 14.6666 8.00015C14.6666 5.75314 13.8725 3.6916 12.5497 2.08081L11.616 2.78238C12.7925 4.19738 13.4999 6.01614 13.4999 8.00015C13.4999 9.94062 12.8231 11.723 11.6927 13.1242L12.6069 13.8492ZM10.5174 12.1921C11.4445 11.0469 11.9999 9.58835 11.9999 8.00015C11.9999 6.35426 11.4035 4.84768 10.415 3.68476L9.48019 4.3871C10.3229 5.3535 10.8333 6.61722 10.8333 8.00015C10.8333 9.31442 10.3723 10.521 9.60319 11.467L10.5174 12.1921ZM6.66659 3.33348L3.33325 6.00014H1.33325V10.0002H3.33325L6.66659 12.6668V3.33348ZM8.08325 5.66675H9.24992L9.08325 8.33342H8.24992L8.08325 5.66675ZM9.33325 9.66675C9.33325 10.035 9.03479 10.3334 8.66659 10.3334C8.29839 10.3334 7.99992 10.035 7.99992 9.66675C7.99992 9.29855 8.29839 9.00008 8.66659 9.00008C9.03479 9.00008 9.33325 9.29855 9.33325 9.66675Z" fill="currentColor"/>
</svg>
