<?xml version="1.0" encoding="UTF-8"?>
<svg width="20" height="20" viewBox="0 0 20 20" fill="none" xmlns="http://www.w3.org/2000/svg">
  <path fill-rule="evenodd" clip-rule="evenodd" d="M15.7588 17.3113C17.3694 15.311 18.3334 12.7681 18.3334 10C18.3334 7.19125 17.3408 4.61432 15.6873 2.60083L14.5202 3.47779C15.9907 5.24654 16.8751 7.51999 16.8751 10C16.8751 12.4256 16.0291 14.6536 14.6161 16.4051L15.7588 17.3113ZM13.1469 15.2399C14.3058 13.8084 15.0001 11.9853 15.0001 10C15.0001 7.94264 14.2545 6.05941 13.0189 4.60576L11.8504 5.48369C12.9037 6.6917 13.5417 8.27134 13.5417 10C13.5417 11.6428 12.9655 13.1511 12.0042 14.3336L13.1469 15.2399ZM8.33341 4.16666L4.16675 7.5H1.66675V12.5H4.16675L8.33341 15.8333V4.16666ZM10.1042 7.08326H11.5626L11.3542 10.4166H10.3126L10.1042 7.08326ZM11.6667 12.0833C11.6667 12.5435 11.2937 12.9166 10.8334 12.9166C10.3732 12.9166 10.0001 12.5435 10.0001 12.0833C10.0001 11.623 10.3732 11.2499 10.8334 11.2499C11.2937 11.2499 11.6667 11.623 11.6667 12.0833Z" fill="currentColor"/>
</svg>
