<?xml version="1.0" encoding="UTF-8"?>
<svg width="16" height="16" viewBox="0 0 16 16" fill="none" xmlns="http://www.w3.org/2000/svg">
  <path fill-rule="evenodd" clip-rule="evenodd" d="M3.63945 2.93237L2.93234 3.63948L4.2287 5.17155L5.1715 4.22873L3.63945 2.93237ZM5.99643 5.99653L10.0034 10.0034C9.49065 10.5162 8.78232 10.8333 7.99992 10.8333C6.43511 10.8333 5.16658 9.56478 5.16658 7.99998C5.16658 7.21758 5.48371 6.50926 5.99643 5.99653ZM5.17147 5.17157C4.44763 5.89543 3.99992 6.89545 3.99992 7.99998C3.99992 10.2091 5.79078 12 7.99992 12C9.12352 12 10.1389 11.5367 10.8655 10.7908C11.2258 10.421 11.5003 9.99865 11.689 9.54891C11.8893 9.07251 11.9999 8.54918 11.9999 7.99998C11.9999 7.44485 11.8869 6.91611 11.6825 6.43557C11.5041 6.01527 11.2505 5.61927 10.9217 5.26809C10.8607 5.20289 10.7976 5.13972 10.7324 5.07871C10.3799 4.74862 9.98225 4.49429 9.56018 4.31571C9.08078 4.11242 8.55345 3.99998 7.99992 3.99998C7.45432 3.99998 6.93425 4.10921 6.46033 4.30701C5.99172 4.50216 5.5527 4.79035 5.17147 5.17157ZM7.49992 14.6666L7.33325 12.6666H8.66658L8.49992 14.6666H7.49992ZM1.33325 7.49998V8.49998L3.33325 8.66665V7.33331L1.33325 7.49998ZM13.0675 12.3604L12.3605 13.0676L10.8284 11.7712L11.7712 10.8284L13.0675 12.3604ZM2.93231 12.3604L3.63941 13.0676L5.17148 11.7712L4.22867 10.8284L2.93231 12.3604Z" fill="currentColor"/>
</svg>
