<?xml version="1.0" encoding="UTF-8"?>
<svg width="20" height="20" viewBox="0 0 20 20" fill="none" xmlns="http://www.w3.org/2000/svg">
  <path fill-rule="evenodd" clip-rule="evenodd" d="M4.54949 3.66553L3.66561 4.54941L5.28606 6.46449L6.46456 5.28598L4.54949 3.66553ZM7.49572 7.49572L12.5044 12.5044C11.8635 13.1453 10.9781 13.5417 10.0001 13.5417C8.04407 13.5417 6.45841 11.956 6.45841 10C6.45841 9.02204 6.85482 8.13664 7.49572 7.49572ZM6.46452 6.46453C5.55971 7.36934 5.00008 8.61937 5.00008 10C5.00008 12.7615 7.23866 15 10.0001 15C11.4046 15 12.6737 14.421 13.582 13.4885C14.0324 13.0263 14.3756 12.4984 14.6114 11.9362C14.8617 11.3407 15.0001 10.6865 15.0001 10C15.0001 9.30612 14.8587 8.6452 14.6032 8.04453C14.3802 7.51914 14.0632 7.02415 13.6523 6.58518C13.5761 6.50367 13.4972 6.42471 13.4157 6.34845C12.9751 5.93584 12.478 5.61793 11.9504 5.3947C11.3512 5.14059 10.692 5.00004 10.0001 5.00004C9.31808 5.00004 8.668 5.13658 8.0756 5.38382C7.48983 5.62776 6.94106 5.988 6.46452 6.46453ZM9.37508 18.3334L9.16675 15.8334H10.8334L10.6251 18.3334H9.37508ZM1.66675 9.37504V10.625L4.16675 10.8334V9.1667L1.66675 9.37504ZM16.3346 15.4506L15.4507 16.3345L13.5357 14.714L14.7142 13.5355L16.3346 15.4506ZM3.66556 15.4506L4.54945 16.3345L6.46453 14.714L5.28601 13.5355L3.66556 15.4506Z" fill="currentColor"/>
</svg>
