<?xml version="1.0" encoding="UTF-8"?>
<svg width="20" height="20" viewBox="0 0 20 20" fill="none" xmlns="http://www.w3.org/2000/svg">
  <path fill-rule="evenodd" clip-rule="evenodd" d="M17.5 10C17.5 14.1421 14.1421 17.5 10 17.5C5.85786 17.5 2.5 14.1421 2.5 10C2.5 5.85786 5.85786 2.5 10 2.5C14.1421 2.5 17.5 5.85786 17.5 10ZM11.0938 8.75V15.625H8.90625V8.75H11.0938ZM10 7.35779C10.7767 7.35779 11.4062 6.72819 11.4062 5.95154C11.4062 5.17489 10.7767 4.54529 10 4.54529C9.22335 4.54529 8.59375 5.17489 8.59375 5.95154C8.59375 6.72819 9.22335 7.35779 10 7.35779Z" fill="currentColor"/>
</svg>
