<?xml version="1.0" encoding="UTF-8"?>
<svg width="15px" height="19px" viewBox="0 0 15 19" version="1.1" xmlns="http://www.w3.org/2000/svg" xmlns:xlink="http://www.w3.org/1999/xlink">
    <g id="make" fill="currentColor">
        <path d="M14.1519259,15.1264815 C13.9104074,13.9687037 13.0083704,13.0327407 11.8532222,12.7418519 C11.0630741,12.5435556 10.269037,12.6434815 9.57303704,13.0234815 L8.68148148,11.0077037 L12.0932222,2.82014815 C12.1958519,2.57362963 12.2475556,2.31396296 12.2475556,2.04814815 C12.2475556,1.3757037 11.9134444,0.751481481 11.354,0.378407407 L10.8863704,0.0666666667 C10.7891481,0.00148148148 10.668,-0.017037037 10.5568889,0.0161111111 C10.445,0.0485185185 10.3531852,0.128777778 10.3061111,0.23562963 L7.11159259,7.45833333 L3.91696296,0.235666667 C3.86988889,0.128814815 3.77807407,0.0485555556 3.66618519,0.0161481481 C3.5542963,-0.017037037 3.43314815,0.00148148148 3.3367037,0.0667037037 L2.86911111,0.378444444 C2.30966667,0.751481481 1.97555556,1.3757037 1.97555556,2.04814815 C1.97555556,2.31396296 2.02725926,2.57359259 2.12988889,2.82014815 L5.54151852,11.0084074 L4.64925926,13.0238519 C4.19014815,12.7730741 3.68318519,12.6422963 3.16077778,12.6422963 C1.41766667,12.6422963 0.000148148148,14.0601111 0.000148148148,15.8027778 C0.000148148148,17.5454444 1.41762963,18.9632593 3.16077778,18.9632593 C4.90388889,18.9632593 5.80246045,17.4021858 6.32140741,15.8027778 C6.59274055,14.966522 6.85595042,14.0974973 7.11103704,13.1957037 C7.37034568,14.1671588 7.63089554,15.0361834 7.89268663,15.8027778 C8.436083,17.3939877 9.25285185,18.8733704 10.8941111,18.959 C10.9512222,18.9617037 11.0075556,18.9632593 11.0631111,18.9632593 C11.9898519,18.9632593 12.8571481,18.5658889 13.4636667,17.8579259 C14.1071852,17.1068148 14.357963,16.111037 14.1519259,15.1264815 Z M3.16066667,16.8027778 C2.60939754,16.8027778 2.16066667,16.3543047 2.16066667,15.8027778 C2.16066667,15.2512508 2.60939754,14.8027778 3.16066667,14.8027778 C3.7119358,14.8027778 4.16066667,15.2512508 4.16066667,15.8027778 C4.16066667,16.3543047 3.7119358,16.8027778 3.16066667,16.8027778 Z M11.0618889,16.8027778 C10.5106198,16.8027778 10.0618889,16.3543047 10.0618889,15.8027778 C10.0618889,15.2512508 10.5106198,14.8027778 11.0618889,14.8027778 C11.613158,14.8027778 12.0618889,15.2512508 12.0618889,15.8027778 C12.0618889,16.3543047 11.613158,16.8027778 11.0618889,16.8027778 Z" id="Shape"></path>
    </g>
</svg>