<?xml version="1.0" encoding="UTF-8"?>
<svg width="16" height="16" viewBox="0 0 16 16" fill="none" xmlns="http://www.w3.org/2000/svg">
  <path fill-rule="evenodd" clip-rule="evenodd" d="M13.3261 1.2351C12.8373 0.765358 12.0582 0.788278 11.5978 1.28594C10.0542 2.9546 7.93721 5.435 7.52435 6.36768C7.18361 7.13745 7.09535 7.76539 7.04328 8.31038C7.03548 8.39225 7.02848 8.47039 7.02175 8.54552C6.98308 8.97865 6.95328 9.31225 6.82295 9.68465C6.69421 10.0526 6.45543 10.4803 5.95227 11.0259C5.84975 11.1186 5.75252 11.2209 5.66203 11.3325C4.8507 12.3337 4.88867 13.7091 5.74683 14.4045C6.605 15.0999 7.95841 14.8521 8.76975 13.8509C9.58108 12.8497 9.54308 11.4743 8.68495 10.7789C8.42328 10.5669 8.11561 10.4425 7.79128 10.4005C7.84181 10.2895 7.88581 10.1795 7.92415 10.0701C8.02175 9.79118 8.07855 9.50305 8.13548 9.21465C8.18208 8.97832 8.22875 8.74179 8.29795 8.50992C8.59701 7.50725 9.08995 6.57299 9.74868 5.76007L13.3261 1.2351ZM6.48136 13.4981C6.25079 13.3113 6.0541 12.7087 6.56213 12.0749C6.90228 11.7339 7.47775 11.3023 7.95041 11.6853C8.18195 11.8729 8.37928 12.4797 7.86335 13.1163C7.34735 13.7531 6.71288 13.6857 6.48136 13.4981ZM5.92976 8.07565C6.08829 8.02018 6.24979 7.97785 6.41262 7.94125C6.3996 8.04698 6.38899 8.14892 6.37962 8.24712C6.37099 8.33745 6.36345 8.42045 6.35645 8.49745C6.32961 8.79265 6.31078 8.99998 6.26969 9.19318C5.91207 9.32552 5.49715 9.56492 4.9739 10.0475C4.88125 10.1501 4.77896 10.2473 4.66731 10.3377C3.66611 11.1491 2.29072 11.1111 1.59529 10.2529C0.899859 9.39478 1.14773 8.04138 2.14893 7.23005C3.15013 6.41871 4.52551 6.45668 5.22094 7.31485C5.43297 7.57652 5.55732 7.88418 5.59935 8.20852C5.71033 8.15798 5.8203 8.11398 5.92976 8.07565ZM8.93675 8.70058L8.92688 8.73438C9.14841 8.66965 9.38281 8.58578 9.63215 8.47545C10.5648 8.06258 13.0452 5.94555 14.7139 4.40195C15.2115 3.94159 15.2344 3.16242 14.7647 2.67361L10.2397 6.2511C10.2131 6.27263 10.1865 6.29399 10.1596 6.31518C9.60921 7.02805 9.19448 7.83658 8.93675 8.70058ZM3.92493 9.43765C3.29108 9.94565 2.68855 9.74898 2.50171 9.51845C2.31409 9.28692 2.24674 8.65245 2.88345 8.13645C3.52017 7.62045 4.12691 7.81785 4.31453 8.04938C4.69755 8.52205 4.26599 9.09752 3.92493 9.43765Z" fill="currentColor"/>
</svg>