<?xml version="1.0" encoding="UTF-8"?>
<svg width="16" height="16" viewBox="0 0 16 16" fill="none" xmlns="http://www.w3.org/2000/svg">
  <path fill-rule="evenodd" clip-rule="evenodd" d="M4.9967 0.833374C5.59499 0.833394 6.08 1.31841 6.08 1.91671V2.08337C6.08 2.68168 5.59497 3.16671 4.99667 3.16671C4.39835 3.16671 3.91333 2.68168 3.91333 2.08337V1.91671C3.91333 1.3184 4.39839 0.833374 4.9967 0.833374C4.99671 0.833374 4.99669 0.833374 4.9967 0.833374ZM2.2602 9.60451L3.33585 6.50174L3.50262 7.65784L3.17033 15.333L4.11255 15.23L4.99573 9.64557H5.22136L5.94192 15.2306L6.88105 15.3333H6.88412L6.55396 7.65784L6.72092 6.55191L6.91345 5.76695L8.25978 6.40595C8.52985 6.53413 8.83512 6.56783 9.12665 6.50165L10.9999 6.33337L11.3333 5.33337H8.91378C8.75432 5.33337 8.60005 5.27617 8.47912 5.17216L7.74945 4.54461C7.45765 4.29367 7.11505 4.10886 6.74505 4.00287L5.57168 3.66671H4.48475L3.30013 3.98805C2.95662 4.08123 2.68858 4.34975 2.59639 4.69353C2.26723 5.921 1.49424 8.80857 1.33325 9.45451L2.2602 9.60451ZM11.3333 0.932741L11.5182 1.05601L12.9342 2.00002H13.4999H14.6666V3.16669V8.83337V10H13.4999H9.16658H7.99992V8.83337V7.02031C8.36525 7.18731 8.77178 7.24024 9.16658 7.17311V8.83337H13.4999V3.16669H9.16658V4.66669H8.91378L7.99992 3.88071V3.16669V2.00002H9.16658H9.73232L11.1484 1.05601L11.3333 0.932741ZM11.3333 1.73397L11.7323 2.00002H10.9342L11.3333 1.73397Z" fill="currentColor"/>
</svg>
