<?xml version="1.0" encoding="UTF-8"?>
<svg width="100px" height="100px" viewBox="0 0 100 100" version="1.1" xmlns="http://www.w3.org/2000/svg" xmlns:xlink="http://www.w3.org/1999/xlink">
    <!-- Generator: Sketch 42 (36781) - http://www.bohemiancoding.com/sketch -->
    <title>menu-hamburger</title>
    <desc>Created with Sketch.</desc>
    <defs></defs>
    <g id="Page-1" stroke="none" stroke-width="1" fill="none" fill-rule="evenodd">
        <g id="menu-hamburger" fill="currentColor" fill-rule="nonzero">
            <path d="M5,14.1666667 L95,14.1666667 C96.35418,14.1666667 97.52604,13.6718867 98.51562,12.6822867 C99.50522,11.6927067 100,10.5208467 100,9.16666667 C100,7.81248667 99.50522,6.64062667 98.51562,5.65104667 C97.52604,4.66144667 96.35418,4.16666667 95,4.16666667 L5,4.16666667 C3.645826,4.16666667 2.473964,4.66144667 1.484375,5.65104667 C0.4947868,6.64062667 0,7.81248667 0,9.16666667 C0,10.5208467 0.4947868,11.6927067 1.484375,12.6822867 C2.473964,13.6718867 3.645826,14.1666667 5,14.1666667 L5,14.1666667 Z M95,84.1666667 L5,84.1666667 C3.645826,84.1666667 2.473964,84.6614525 1.484375,85.6510425 C0.4947868,86.6406308 0,87.8124925 0,89.1666667 C0,90.5208408 0.4947868,91.6927025 1.484375,92.6822917 C2.473964,93.67188 3.645826,94.1666667 5,94.1666667 L95,94.1666667 C96.35418,94.1666667 97.52604,93.67188 98.51562,92.6822917 C99.50522,91.6927025 100,90.5208408 100,89.1666667 C100,87.8124925 99.50522,86.6406308 98.51562,85.6510425 C97.52604,84.6614525 96.35418,84.1666667 95,84.1666667 L95,84.1666667 Z M95,44.1666667 L5,44.1666667 C3.645826,44.1666667 2.473964,44.6614467 1.484375,45.6510467 C0.4947868,46.6406267 0,47.8124867 0,49.1666667 C0,50.5208467 0.4947868,51.6927067 1.484375,52.6822867 C2.473964,53.6718867 3.645826,54.1666667 5,54.1666667 L95,54.1666667 C96.35418,54.1666667 97.52604,53.6718867 98.51562,52.6822867 C99.50522,51.6927067 100,50.5208467 100,49.1666667 C100,47.8124867 99.50522,46.6406267 98.51562,45.6510467 C97.52604,44.6614467 96.35418,44.1666667 95,44.1666667 L95,44.1666667 Z"></path>
        </g>
    </g>
</svg>
