<?xml version="1.0" encoding="UTF-8"?>
<svg width="16" height="16" viewBox="0 0 16 16" fill="none" xmlns="http://www.w3.org/2000/svg">
  <path fill-rule="evenodd" clip-rule="evenodd" d="M8.2488 1.37806C7.43193 1.08076 6.52877 1.50192 6.23147 2.31876L6.15969 2.51597C5.86239 3.3328 6.28355 4.23599 7.1004 4.5333C7.9172 4.83061 8.8204 4.40944 9.11773 3.5926L9.18953 3.3954C9.4868 2.57856 9.06567 1.67537 8.2488 1.37806ZM4.81757 12.0769C3.94289 11.8289 3.42679 10.9234 3.66289 10.0422L4.69245 6.19987C4.93068 5.31077 5.84458 4.78313 6.73367 5.02136L6.84513 5.05123C7.39227 5.19783 7.7652 5.66231 7.82527 6.18869L8.2584 8.56335C8.31087 8.85075 8.4562 9.11295 8.67213 9.30968L10.167 10.6717V11.9748L7.23033 9.90655C7.08153 9.80175 6.95713 9.66861 6.86313 9.51628L6.58553 10.3646L10.6203 12.9877C10.9434 13.223 11.0783 13.6396 10.9546 14.0197C10.8308 14.3998 10.4765 14.6571 10.0767 14.6571H3L3.55267 13.2304L7.26993 12.9877L4.81757 12.0769Z" fill="currentColor"/>
</svg>
