<?xml version="1.0" encoding="UTF-8"?>
<svg width="20" height="20" viewBox="0 0 20 20" fill="none" xmlns="http://www.w3.org/2000/svg">
  <path fill-rule="evenodd" clip-rule="evenodd" d="M9.37508 1.66675H10.6251L10.8334 4.16675H9.16675L9.37508 1.66675ZM10.0001 13.5417C11.9561 13.5417 13.5417 11.9561 13.5417 10.0001C13.5417 8.04407 11.9561 6.45841 10.0001 6.45841C8.04407 6.45841 6.45841 8.04407 6.45841 10.0001C6.45841 11.9561 8.04407 13.5417 10.0001 13.5417ZM10.0001 15.0001C12.7615 15.0001 15.0001 12.7615 15.0001 10.0001C15.0001 7.23866 12.7615 5.00008 10.0001 5.00008C7.23866 5.00008 5.00008 7.23866 5.00008 10.0001C5.00008 12.7615 7.23866 15.0001 10.0001 15.0001ZM9.16675 15.8334L9.37508 18.3334H10.6251L10.8334 15.8334H9.16675ZM18.3334 10.6251L15.8334 10.8334V9.16675L18.3334 9.37508V10.6251ZM1.66675 9.37508V10.6251L4.16675 10.8334V9.16675L1.66675 9.37508ZM16.3346 15.4507L15.4507 16.3346L13.5357 14.7141L14.7142 13.5356L16.3346 15.4507ZM4.54949 3.66557L3.66561 4.54946L5.28606 6.46454L6.46456 5.28603L4.54949 3.66557ZM3.66556 15.4507L4.54945 16.3346L6.46453 14.7141L5.28601 13.5356L3.66556 15.4507ZM15.4507 3.66557L16.3346 4.54946L14.7141 6.46454L13.5356 5.28603L15.4507 3.66557Z" fill="currentColor"/>
</svg>
