<?xml version="1.0" encoding="UTF-8"?>
<svg width="16" height="16" viewBox="0 0 16 16" fill="none" xmlns="http://www.w3.org/2000/svg">
  <path fill-rule="evenodd" clip-rule="evenodd" d="M7.49992 1.33325H8.49992L8.66658 3.33325H7.33325L7.49992 1.33325ZM7.99992 10.8333C9.56472 10.8333 10.8333 9.56472 10.8333 7.99992C10.8333 6.43511 9.56472 5.16658 7.99992 5.16658C6.43511 5.16658 5.16658 6.43511 5.16658 7.99992C5.16658 9.56472 6.43511 10.8333 7.99992 10.8333ZM7.99992 11.9999C10.2091 11.9999 11.9999 10.2091 11.9999 7.99992C11.9999 5.79078 10.2091 3.99992 7.99992 3.99992C5.79078 3.99992 3.99992 5.79078 3.99992 7.99992C3.99992 10.2091 5.79078 11.9999 7.99992 11.9999ZM7.33325 12.6666L7.49992 14.6666H8.49992L8.66658 12.6666H7.33325ZM14.6666 8.49992L12.6666 8.66658V7.33325L14.6666 7.49992V8.49992ZM1.33325 7.49992V8.49992L3.33325 8.66658V7.33325L1.33325 7.49992ZM13.0675 12.3604L12.3605 13.0675L10.8284 11.7711L11.7712 10.8283L13.0675 12.3604ZM3.63945 2.93231L2.93234 3.63942L4.2287 5.17148L5.1715 4.22868L3.63945 2.93231ZM2.93231 12.3604L3.63941 13.0675L5.17148 11.7711L4.22867 10.8283L2.93231 12.3604ZM12.3604 2.93231L13.0675 3.63942L11.7711 5.17148L10.8283 4.22868L12.3604 2.93231Z" fill="currentColor"/>
</svg>
