<?xml version="1.0" encoding="UTF-8"?>
<svg width="16" height="16" viewBox="0 0 16 16" fill="none" xmlns="http://www.w3.org/2000/svg">
  <path fill-rule="evenodd" clip-rule="evenodd" d="M5.33051 5.33337L1.38845 1.39131L0.570801 2.20895L3.35485 4.993C3.34065 5.10445 3.33333 5.21806 3.33333 5.33337V8.17844C2.9348 8.40897 2.66667 8.83984 2.66667 9.33337V12C2.66667 12.4936 2.9348 12.9244 3.33333 13.155V13.3334C3.33333 14.0698 3.93029 14.6667 4.66667 14.6667H11.3333C11.794 14.6667 12.2001 14.433 12.4397 14.0778L13.7975 15.4356L14.6224 14.6106L14.6193 14.6075L14.6119 14.6148L5.33333 5.33619V5.33337H5.33051ZM6.94 6.00004L4.66667 3.72671V3.02346C5.05889 2.79657 5.51428 2.66671 6 2.66671C6 1.93033 6.59695 1.33337 7.33333 1.33337H8.66667C9.40307 1.33337 10 1.93033 10 2.66671C10.4857 2.66671 10.9411 2.79657 11.3333 3.02346V5.33337C11.3333 5.70156 11.0349 6.00004 10.6667 6.00004H6.94ZM13.2876 12.3476L7.60667 6.66671H10.6667C11.4031 6.66671 12 6.06975 12 5.33337V3.56949C12.4149 4.03958 12.6667 4.65707 12.6667 5.33337V8.17844C13.0652 8.40897 13.3333 8.83984 13.3333 9.33337V12C13.3333 12.1203 13.3174 12.2368 13.2876 12.3476ZM8.36187 10L9.02853 10.6667H5.33333V10H8.36187ZM8.66667 2.00004H7.33333C6.96513 2.00004 6.66667 2.29852 6.66667 2.66671H9.33333C9.33333 2.29852 9.03487 2.00004 8.66667 2.00004Z" fill="currentColor"/>
</svg>
