<?xml version="1.0" encoding="UTF-8"?>
<svg width="16" height="16" viewBox="0 0 16 16" fill="none" xmlns="http://www.w3.org/2000/svg">
  <path fill-rule="evenodd" clip-rule="evenodd" d="M10.7709 1.17061L10.4687 1.20865L10.3639 1.49457L9.68967 3.33337H5.17471H4.27335L5.44003 4.50004H9.26187L8.71187 6.00003H6.94L11.1867 10.2467L11.8627 4.50004H12.6667V3.33337H12L10.8253 3.33337H10.7547L11.1979 2.12474L13.5435 1.82945L13.4185 0.83728L10.7709 1.17061ZM10.9153 12.5534L13.7975 15.4356L14.6224 14.6106L1.39576 1.38399L0.570801 2.20895L4.3073 5.94545L5.22943 13.7835C5.28868 14.2872 5.71549 14.6667 6.22258 14.6667H9.7774C10.2845 14.6667 10.7113 14.2872 10.7705 13.7835L10.9153 12.5534ZM9.777 6.00003L10.327 4.50004H10.688L10.5115 6.00003H9.777Z" fill="currentColor"/>
</svg>
