<?xml version="1.0" encoding="UTF-8"?>
<svg width="16" height="16" viewBox="0 0 16 16" fill="none" xmlns="http://www.w3.org/2000/svg">
  <path fill-rule="evenodd" clip-rule="evenodd" d="M11.0328 11.9755C10.1916 12.6182 9.14041 13 8.00008 13C5.23865 13 3.00008 10.7614 3.00008 7.99996C3.00008 6.85963 3.38184 5.80841 4.02452 4.96721L11.0328 11.9755ZM11.9756 11.0327L4.96733 4.0244C5.80854 3.38172 6.85975 2.99996 8.00008 2.99996C10.7615 2.99996 13.0001 5.23853 13.0001 7.99996C13.0001 9.14029 12.6183 10.1915 11.9756 11.0327ZM14.3334 7.99996C14.3334 11.4978 11.4979 14.3333 8.00008 14.3333C4.50227 14.3333 1.66675 11.4978 1.66675 7.99996C1.66675 4.50215 4.50227 1.66663 8.00008 1.66663C11.4979 1.66663 14.3334 4.50215 14.3334 7.99996Z" fill="currentColor"/>
</svg>
