<?xml version="1.0" encoding="UTF-8"?>
<svg width="16" height="16" viewBox="0 0 16 16" fill="none" xmlns="http://www.w3.org/2000/svg">
  <path fill-rule="evenodd" clip-rule="evenodd" d="M1.38845 1.39124L14.6119 14.6147L14.6193 14.6074L14.6224 14.6106L13.7975 15.4355L11.4289 13.067C10.7821 13.7198 10.0457 14.0514 9.34353 13.8358C9.31187 13.826 9.28053 13.8155 9.24953 13.8042C8.53047 13.5428 7.46953 13.5428 6.75047 13.8042C6.71947 13.8155 6.68813 13.826 6.65649 13.8358C5.11593 14.309 3.41074 12.1478 2.84785 9.73969C2.38711 7.76869 2.83445 6.24315 3.85677 5.49485L0.570801 2.20888L1.38845 1.39124ZM6.2532 5.31318C6.64587 5.47044 7.1202 5.5654 7.61153 5.59804C8.0188 3.8307 9.32247 2.95701 10.6667 2.95701V3.5496C9.95353 3.5496 9.03273 4.22941 8.67253 5.57194C9.12433 5.51868 9.55013 5.41074 9.89687 5.24813C10.3803 5.02142 10.8895 4.96405 11.3819 5.1153C12.9225 5.58848 13.7151 7.33163 13.1521 9.73969C13.0035 10.3755 12.7753 10.994 12.4915 11.5515L6.2532 5.31318ZM7.80173 4.06068C7.75527 3.34849 7.36533 2.67195 6.70087 2.28831C6.14407 1.96685 5.50557 1.91515 4.93668 2.09266C4.98315 2.80486 5.3731 3.4814 6.03758 3.86504C6.59437 4.1865 7.23287 4.2382 7.80173 4.06068Z" fill="currentColor"/>
</svg>
