<?xml version="1.0" encoding="UTF-8"?>
<svg width="16" height="16" viewBox="0 0 16 16" fill="none" xmlns="http://www.w3.org/2000/svg">
  <path fill-rule="evenodd" clip-rule="evenodd" d="M12.1042 1.17061L11.8021 1.20865L11.6972 1.49457L11.023 3.33337H6.50805H5.33333L4.66667 3.33337V3.72669L5.44001 4.50004H5.47059L5.47467 4.53469L6.806 5.86603L6.6453 4.50004H10.5952L10.0452 6.00003H6.94L12.3797 11.4397L13.1961 4.50004H14V3.33337H13.3333L12.1586 3.33337H12.0881L12.5313 2.12474L14.8768 1.82945L14.7519 0.83728L12.1042 1.17061ZM12.1083 13.7464L13.7975 15.4356L14.6224 14.6106L1.39576 1.38399L0.570801 2.20895L8.225 9.86311C8.46453 10.6238 8.48613 11.5232 8.3008 12.316C8.10987 13.133 7.723 13.9275 7.2218 14.4963C7.1974 14.524 7.1722 14.5516 7.14633 14.5791C7.27173 14.6355 7.41053 14.6667 7.55593 14.6667H11.1107C11.6179 14.6667 12.0447 14.2872 12.1039 13.7835L12.1083 13.7464ZM5.95925 8.65364C6.01129 8.64291 6.06565 8.63764 6.12215 8.63764V8.09444C5.26887 8.09444 4.44282 8.68257 4.25512 9.87317C4.04533 9.83931 3.84874 9.76537 3.69659 9.65144C3.3225 9.37124 2.90264 9.26317 2.50144 9.38637C1.57926 9.66964 1.10483 10.713 1.44179 12.1546C1.77874 13.596 2.79947 14.8897 3.72165 14.6064C3.80828 14.5798 3.89097 14.5434 3.96939 14.498C4.28387 14.316 4.76789 14.316 5.08236 14.498C5.16079 14.5434 5.24347 14.5798 5.33011 14.6064C6.25229 14.8897 7.273 13.596 7.61 12.1546C7.94693 10.713 7.47247 9.66964 6.55032 9.38637C6.14911 9.26317 5.72926 9.37124 5.35517 9.65144C5.33095 9.66957 5.3056 9.68671 5.27925 9.70277C5.37381 9.03851 5.61623 8.72477 5.95925 8.65364ZM11.1103 6.00003L11.6603 4.50004H12.0213L11.8449 6.00003H11.1103ZM3.7482 7.69411C4.14595 7.92377 4.37937 8.32877 4.4072 8.75504C4.06667 8.86131 3.68445 8.83037 3.35116 8.63797C2.95341 8.40831 2.71999 8.00331 2.69216 7.57704C3.03269 7.47077 3.41491 7.50171 3.7482 7.69411Z" fill="currentColor"/>
</svg>
