<?xml version="1.0" encoding="UTF-8"?>
<svg width="16" height="16" viewBox="0 0 16 16" fill="none" xmlns="http://www.w3.org/2000/svg">
  <path fill-rule="evenodd" clip-rule="evenodd" d="M1.38843 1.39124L14.6119 14.6148L14.6193 14.6074L14.6224 14.6106L13.7975 15.4355L9.6662 11.3043L6.79493 14.1756C6.27423 14.6963 5.43001 14.6963 4.90931 14.1756L1.60947 10.8758C1.08877 10.3551 1.08877 9.51083 1.60947 8.99016L4.48078 6.11885L0.570801 2.20888L1.38843 1.39124ZM5.76982 4.82981L6.32352 4.27611C6.8442 3.75541 7.68847 3.75541 8.20913 4.27611L11.509 7.57596C12.0297 8.09663 12.0297 8.94083 11.509 9.46156L10.9553 10.0152L5.76982 4.82981ZM8.5588 10.1969L5.73038 7.36843L3.49509 9.60376L6.32352 12.4322L8.5588 10.1969ZM13.8049 2.58568C14.0132 2.28126 13.646 1.91406 13.3416 2.12234L11.1379 3.63012L10.3056 2.79777L8.8914 4.21198L11.7198 7.04043L13.134 5.62619L12.2971 4.78934L13.8049 2.58568ZM15.2412 8.33916L14.1694 6.25688L13.0976 8.33916C12.8578 8.80516 12.9465 9.37269 13.317 9.74323C13.7878 10.214 14.5511 10.214 15.0218 9.74323C15.3923 9.37269 15.4811 8.80516 15.2412 8.33916Z" fill="currentColor"/>
</svg>
