<?xml version="1.0" encoding="UTF-8"?>
<svg width="16" height="16" viewBox="0 0 16 16" fill="none" xmlns="http://www.w3.org/2000/svg">
  <path fill-rule="evenodd" clip-rule="evenodd" d="M1.38843 1.39124L14.6119 14.6148L14.6193 14.6074L14.6224 14.6106L13.7975 15.4355L8.183 9.82103L4.04119 13.9628L2.10082 14.552L1.33333 14.7851L1.56638 14.0176L2.15558 12.0772L6.29735 7.93543L0.570801 2.20888L1.38843 1.39124ZM6.86533 5.92535L6.75447 5.59269L10.0543 2.29286C10.4448 1.90234 11.078 1.90234 11.4685 2.29286L11.7042 2.52856L11.8221 2.4107C12.2777 1.9551 13.0164 1.9551 13.472 2.4107L13.7077 2.64641C13.9639 2.90269 14.0761 3.24854 14.0441 3.5832C14.0191 3.84348 13.9071 4.097 13.7077 4.29634L9.472 8.53203L7.5864 6.64639L11.2328 2.99997L10.9971 2.76426C10.8669 2.63409 10.6559 2.63409 10.5257 2.76426L7.115 6.17498L6.86533 5.92535ZM3.50676 13.4284L2.69002 12.6116L2.33387 13.7846L3.50676 13.4284Z" fill="currentColor"/>
</svg>
