<?xml version="1.0" encoding="UTF-8"?>
<svg width="16" height="16" viewBox="0 0 16 16" fill="none" xmlns="http://www.w3.org/2000/svg">
  <path fill-rule="evenodd" clip-rule="evenodd" d="M12.0002 2.5V9.67128L4.15812 1.82924C4.40435 1.33755 4.91283 1 5.50016 1H10.5002C11.3286 1 12.0002 1.67157 12.0002 2.5ZM4.00016 5.19712V13.5C4.00016 14.3284 4.67173 15 5.50016 15H10.5002C11.3286 15 12.0002 14.3284 12.0002 13.5V13.1971L14.0182 15.2151L14.9021 14.3312L1.67538 1.10457L0.791504 1.98846L4.00016 5.19712ZM7.16682 11.875C6.82164 11.875 6.54182 12.1548 6.54182 12.5C6.54182 12.8452 6.82164 13.125 7.16682 13.125H8.83348C9.17866 13.125 9.45848 12.8452 9.45848 12.5C9.45848 12.1548 9.17866 11.875 8.83348 11.875H7.16682Z" fill="currentColor"/>
</svg>
