<?xml version="1.0" encoding="UTF-8"?>
<svg width="16" height="16" viewBox="0 0 16 16" fill="none" xmlns="http://www.w3.org/2000/svg">
  <path fill-rule="evenodd" clip-rule="evenodd" d="M13.3031 13.9999L14.0182 14.715L14.9021 13.8311L1.67538 0.604492L0.791504 1.48838L3.30305 3.99992H1.66683C1.29864 3.99992 1.00016 4.2984 1.00016 4.66659V13.3333C1.00016 13.7015 1.29864 13.9999 1.66683 13.9999H13.3031ZM11.4586 12.1555L10.5649 11.2617C10.1207 11.5696 9.58149 11.7499 9.00016 11.7499C7.48138 11.7499 6.25016 10.5187 6.25016 8.99992C6.25016 8.4186 6.43054 7.8794 6.73838 7.43525L5.84461 6.54148C5.31544 7.21973 5.00016 8.07301 5.00016 8.99992C5.00016 11.2091 6.79102 12.9999 9.00016 12.9999C9.92707 12.9999 10.7804 12.6847 11.4586 12.1555ZM15.0002 4.66659V12.1712L12.8648 10.0358C12.9531 9.7054 13.0002 9.35816 13.0002 8.99992C13.0002 6.79078 11.2093 4.99992 9.00016 4.99992C8.64192 4.99992 8.29468 5.04701 7.9643 5.13535L6.36145 3.5325L6.6073 2.49992H11.393L11.7502 3.99992H14.3335C14.7017 3.99992 15.0002 4.2984 15.0002 4.66659ZM9.08001 6.25106C10.5354 6.29255 11.7076 7.46474 11.7491 8.92008L9.08001 6.25106Z" fill="currentColor"/>
</svg>
