<?xml version="1.0" encoding="UTF-8"?>
<svg width="16" height="16" viewBox="0 0 16 16" fill="none" xmlns="http://www.w3.org/2000/svg">
  <path fill-rule="evenodd" clip-rule="evenodd" d="M14.0182 14.7151L8.30296 8.99996H1.00016V6.99996H6.30296L0.791504 1.4885L1.67538 0.604614L14.9021 13.8313L14.0182 14.7151ZM11.8288 8.99996H12.5002V6.99996H9.82879L11.8288 8.99996ZM10.3734 1.95672V2.84564C10.3734 3.90705 11.2339 4.76748 12.2953 4.76748H12.5178C13.1957 4.76748 13.7452 5.31699 13.7452 5.99486L14.9952 5.99485C14.9952 4.62663 13.8861 3.51748 12.5178 3.51748H12.2953C11.9242 3.51748 11.6234 3.21668 11.6234 2.84564V1.95671L10.3734 1.95672ZM15.0002 7H13.7502V9H15.0002V7Z" fill="currentColor"/>
</svg>
