<?xml version="1.0" encoding="UTF-8"?>
<svg width="16" height="16" viewBox="0 0 16 16" fill="none" xmlns="http://www.w3.org/2000/svg">
  <g clip-path="url(#clip0_1430_3007)">
    <path fill-rule="evenodd" clip-rule="evenodd" d="M13.3263 0.99206C12.8375 0.522319 12.0583 0.545235 11.5979 1.04289C10.0543 2.71155 7.93733 5.19196 7.52447 6.12464C7.475 6.23645 7.4308 6.34527 7.39133 6.45127L8.53247 7.59243C8.83047 6.84456 9.2402 6.14463 9.7488 5.51703L13.3263 0.99206ZM7.98773 9.62576L13.7975 15.4355L14.6224 14.6106L1.39576 1.38389L0.570801 2.20885L6.13107 7.76909C6.06357 7.78836 5.99646 7.80929 5.92988 7.83263C5.82042 7.87089 5.71045 7.91489 5.59947 7.96549C5.55744 7.64116 5.43309 7.33343 5.22106 7.07183C4.52563 6.21363 3.15025 6.17567 2.14905 6.98703C1.14785 7.79836 0.89998 9.15176 1.59541 10.0099C2.29084 10.8681 3.66623 10.906 4.66742 10.0947C4.77908 10.0042 4.88137 9.90703 4.97402 9.80449C5.49727 9.32189 5.91218 9.08249 6.26981 8.95016C6.3109 8.75689 6.32973 8.54969 6.35657 8.25443C6.36324 8.18103 6.37042 8.10203 6.37855 8.01663L6.99093 8.62896C6.96027 8.91543 6.9188 9.16809 6.82307 9.44163C6.69433 9.80949 6.45555 10.2373 5.95239 10.7829C5.84986 10.8755 5.75264 10.9778 5.66215 11.0894C4.85082 12.0906 4.88879 13.466 5.74695 14.1615C6.60512 14.8569 7.95853 14.609 8.76987 13.6078C9.5812 12.6066 9.5432 11.2312 8.68507 10.5358C8.4234 10.3238 8.11573 10.1994 7.7914 10.1574C7.84193 10.0464 7.88593 9.93649 7.92427 9.82703C7.94753 9.76043 7.96853 9.69329 7.98773 9.62576ZM9.63227 8.23236C9.5204 8.28189 9.4116 8.32603 9.3056 8.36556L9.05007 8.11003C9.30933 7.37656 9.6838 6.68856 10.1597 6.07213C10.1866 6.05095 10.2133 6.02959 10.2399 6.00805L14.7648 2.43057C15.2345 2.91938 15.2117 3.69855 14.714 4.15891C13.0453 5.70251 10.5649 7.81956 9.63227 8.23236ZM6.48148 13.255C6.25091 13.0682 6.05421 12.4657 6.56225 11.8318C6.9024 11.4908 7.47787 11.0592 7.95053 11.4422C8.18207 11.6298 8.3794 12.2366 7.86347 12.8733C7.34747 13.51 6.713 13.4427 6.48148 13.255ZM3.92505 9.19463C3.2912 9.70263 2.68867 9.50596 2.50182 9.27536C2.31421 9.04389 2.24685 8.40936 2.88357 7.89343C3.52029 7.37743 4.12703 7.57483 4.31465 7.80636C4.69767 8.27896 4.2661 8.85443 3.92505 9.19463Z" fill="currentColor"/>
  </g>
  <defs>
    <clipPath id="clip0_1430_3007">
      <rect width="16" height="16" fill="white"/>
    </clipPath>
  </defs>
</svg>
