<?xml version="1.0" encoding="UTF-8"?>
<svg width="16" height="16" viewBox="0 0 16 16" fill="none" xmlns="http://www.w3.org/2000/svg">
  <path fill-rule="evenodd" clip-rule="evenodd" d="M12.0002 12.6972L14.0182 14.7151L14.9021 13.8313L1.67538 0.604614L0.791504 1.4885L4.10867 4.80566C4.03885 4.9675 4.00016 5.14592 4.00016 5.33338V13.6667C4.00016 14.4031 4.59712 15 5.3335 15H10.6669C11.4033 15 12.0002 14.4031 12.0002 13.6667V12.6972ZM9.37696 10.074L9.63337 10.3304L6.3516 14L5.43888 13.9724L7.20591 11.1339H5.00016L7.28619 7.98318L8.40094 9.09794L7.65693 10.074H9.37696ZM12.0002 5.33337V9.17134L6.82887 4.00004H8.00016V2.25004H8.75016V1.00004H10.2502V2.25004H11.0002V4.04205C11.5753 4.19006 12.0002 4.7121 12.0002 5.33337Z" fill="currentColor"/>
</svg>
