<?xml version="1.0" encoding="UTF-8"?>
<svg width="16" height="16" viewBox="0 0 16 16" fill="none" xmlns="http://www.w3.org/2000/svg">
  <path fill-rule="evenodd" clip-rule="evenodd" d="M9 2C9 2.08844 8.98852 2.1742 8.96697 2.25587L12.8087 5H15V14H1V5H3.19127L7.03304 2.25588C7.01148 2.17421 7 2.08845 7 2C7 1.44772 7.44772 1 8 1C8.55228 1 9 1.44772 9 2ZM10.6582 5L8.00001 3.10132L5.34185 5H10.6582ZM5.15803 11.458L7.11612 9.49994L5.15807 7.54189L6.04195 6.658L8.00001 8.61606L9.95806 6.658L10.8419 7.54189L8.88389 9.49994L10.842 11.458L9.9581 12.3419L8.00001 10.3838L6.04192 12.3419L5.15803 11.458Z" fill="currentColor"/>
</svg>
