<?xml version="1.0" encoding="UTF-8"?>
<svg width="16" height="16" viewBox="0 0 16 16" fill="none" xmlns="http://www.w3.org/2000/svg">
  <path fill-rule="evenodd" clip-rule="evenodd" d="M5.20446 1.03076H4.99987V2H5.78101L5.94209 2.27079L5.94799 2.28076C6.18033 2.6757 6.29251 3.12574 6.27678 3.57676L4.95376 2.88648C3.38177 2.06632 1.59903 3.54572 2.11528 5.24198L3.06334 8.35705C3.07509 8.39564 3.09017 8.43267 3.10825 8.46784C3.12584 10.4625 3.81259 12.3944 5.05964 13.9532L5.90331 15.0078H10.0965L10.9401 13.9532C12.1872 12.3944 12.8739 10.4625 12.8915 8.46792C12.9096 8.43273 12.9247 8.39567 12.9365 8.35705L13.8845 5.24198C14.4008 3.54572 12.618 2.06632 11.0461 2.88648L9.72296 3.57678C9.70723 3.12575 9.81941 2.6757 10.0518 2.28076L10.0577 2.27079L10.2188 2H10.9999V1.03076H10.7953H9.34085H6.65889H5.20446ZM10.0309 4.82604C10.372 5.63063 10.9801 6.30081 11.7612 6.71739L11.9488 6.81747C11.9924 6.8407 12.0347 6.86559 12.0757 6.89204L12.6887 4.87803C12.8823 4.24193 12.2138 3.68715 11.6243 3.99471L10.0309 4.82604ZM3.92407 6.89201C3.9651 6.86557 4.00742 6.84069 4.05097 6.81747L4.23862 6.71739C5.0197 6.30081 5.62774 5.63062 5.96889 4.82602L4.37555 3.99471C3.78606 3.68715 3.11752 4.24193 3.31112 4.87803L3.92407 6.89201ZM7.41222 4.40518C7.59499 3.6985 7.55991 2.95895 7.32041 2.28076H8.67933C8.43983 2.95895 8.40476 3.6985 8.58752 4.40518L8.63813 4.60087C8.99521 5.98149 9.91462 7.14925 11.1729 7.82033L11.3606 7.92041C11.4016 7.94231 11.4391 7.96916 11.4722 8H4.52754C4.56072 7.96916 4.59813 7.94231 4.6392 7.92041L4.82685 7.82033C6.08513 7.14925 7.00453 5.98149 7.36161 4.60087L7.41222 4.40518ZM4.38229 9H11.6175C11.4959 10.52 10.9224 11.9744 9.96401 13.1724L9.49565 13.7578H6.50409L6.03573 13.1724C5.07734 11.9744 4.5039 10.52 4.38229 9Z" fill="currentColor"/>
</svg>
