<?xml version="1.0" encoding="UTF-8"?>
<svg width="16" height="16" viewBox="0 0 16 16" fill="none" xmlns="http://www.w3.org/2000/svg">
  <path fill-rule="evenodd" clip-rule="evenodd" d="M5.20445 1.03076H10.7953L10.6206 1.72961H10.2129L10.0194 1.96191C9.60645 2.45735 9.41415 3.08926 9.45946 3.71422L11.046 2.88645C12.618 2.06628 14.4008 3.54569 13.8845 5.24194L13.0832 7.875H2.91664L2.11528 5.24194C1.59903 3.54569 3.38177 2.06628 4.95376 2.88645L6.54028 3.7142C6.58558 3.08925 6.39328 2.45735 5.98041 1.96191L5.78683 1.72961H5.37916L5.20445 1.03076ZM3.13833 9.125C3.28411 10.884 3.95011 12.5663 5.05964 13.9532L5.90331 15.0078H10.0965L10.9401 13.9532C12.0497 12.5663 12.7157 10.884 12.8614 9.125H3.13833ZM12.0757 6.89203C12.0347 6.86558 11.9924 6.8407 11.9488 6.81747L11.6083 6.63586C10.8714 6.24285 10.2628 5.64201 9.8553 4.9176L11.6243 3.99468C12.2137 3.68712 12.8823 4.24189 12.6887 4.87799L12.0757 6.89203ZM6.14445 4.91758C5.73697 5.642 5.12838 6.24285 4.39147 6.63586L4.05096 6.81747C4.00742 6.84069 3.96511 6.86557 3.92408 6.89201L3.31112 4.87799C3.11752 4.24189 3.78606 3.68712 4.37555 3.99468L6.14445 4.91758Z" fill="currentColor"/>
</svg>
