<?xml version="1.0" encoding="UTF-8"?>
<svg width="96px" height="96px" viewBox="0 0 96 96" version="1.1" xmlns="http://www.w3.org/2000/svg" xmlns:xlink="http://www.w3.org/1999/xlink">
    <!-- Generator: Sketch 55.2 (78181) - https://sketchapp.com -->
    <title>on display</title>
    <desc>Created with Sketch.</desc>
    <g id="on-display" stroke="none" stroke-width="1" fill="none" fill-rule="evenodd">
        <path d="M73.5900901,47.3481481 C67.1486486,37.5703704 57.8378378,32 48,32 C38.1621622,32 28.8513514,37.5703704 22.4099099,47.3481481 L22,48 L22.4099099,48.6518519 C28.8513514,58.4296296 38.1621622,64 48,64 C57.8378378,64 67.1486486,58.4296296 73.5900901,48.6518519 L74,48 L73.5900901,47.3481481 Z M47.5,57 C42.275,57 38,52.725 38,47.5 C38,42.275 42.275,38 47.5,38 C52.725,38 57,42.275 57,47.5 C57,52.725 52.725,57 47.5,57 Z" id="Shape" fill="#1D1E20" fill-rule="nonzero"></path>
    </g>
</svg>