<?xml version="1.0" encoding="UTF-8"?>
<svg width="16" height="16" viewBox="0 0 16 16" fill="none" xmlns="http://www.w3.org/2000/svg">
  <path fill-rule="evenodd" clip-rule="evenodd" d="M9 2C9 2.08844 8.98852 2.1742 8.96697 2.25587L12.8087 5H15V14H1V5H3.19127L7.03304 2.25588C7.01148 2.17421 7 2.08845 7 2C7 1.44772 7.44772 1 8 1C8.55228 1 9 1.44772 9 2ZM10.6582 5L8.00001 3.10132L5.34185 5H10.6582ZM6.92902 11.7292L4.86289 10.2111L5.60304 9.20378L7.14863 10.3394L9.57566 6.79726L10.6068 7.5038L7.81468 11.5789L7.44957 12.1117L6.92902 11.7292Z" fill="currentColor"/>
</svg>
