<?xml version="1.0" encoding="UTF-8"?>
<svg width="52px" height="52px" viewBox="0 0 52 52" version="1.1" xmlns="http://www.w3.org/2000/svg" xmlns:xlink="http://www.w3.org/1999/xlink">
  <title>on display</title>
  <desc>Created with Sketch.</desc>
  <g
     stroke="none" stroke-width="1" fill="currentColor"
     transform="translate(-22,-22)">
    <path
       d="M 73.59009,47.348148 C 67.148649,37.57037 57.837838,32 48,32 38.162162,32 28.851351,37.57037 22.40991,47.348148 L 22,48 22.40991,48.651852 C 28.851351,58.42963 38.162162,64 48,64 57.837838,64 67.148649,58.42963 73.59009,48.651852 L 74,48 73.59009,47.348148 Z M 47.5,57 C 42.275,57 38,52.725 38,47.5 38,42.275 42.275,38 47.5,38 c 5.225,0 9.5,4.275 9.5,9.5 0,5.225 -4.275,9.5 -9.5,9.5 z"/>
  </g>
</svg>
