<?xml version="1.0" encoding="UTF-8"?>
<svg width="16" height="16" viewBox="0 0 16 16" fill="none" xmlns="http://www.w3.org/2000/svg">
  <path fill-rule="evenodd" clip-rule="evenodd" d="M12.6666 6H12.75H14V7.25V12.75V14H12.75H3.25H2V12.75V7.25V6H3.25H3.33331V5.83342C3.33331 3.25609 5.42265 1.16675 7.99998 1.16675C10.5773 1.16675 12.6666 3.25609 12.6666 5.83341V6ZM11.4166 6V5.83341C11.4166 3.94644 9.88695 2.41675 7.99998 2.41675C6.11301 2.41675 4.58331 3.94644 4.58331 5.83342V6H11.4166ZM3.25 7.25H12.75V12.75H3.25V7.25ZM8.625 10.2765C8.85253 10.0935 8.99815 9.81284 8.99815 9.49816C8.99815 8.94689 8.55126 8.5 7.99999 8.5C7.44872 8.5 7.00183 8.94689 7.00183 9.49816C7.00183 9.81285 7.14746 10.0935 7.375 10.2765V11.5H8.625V10.2765Z" fill="currentColor"/>
</svg>
