<?xml version="1.0" encoding="UTF-8"?>
<svg width="16" height="16" viewBox="0 0 16 16" fill="none" xmlns="http://www.w3.org/2000/svg">
  <path fill-rule="evenodd" clip-rule="evenodd" d="M3.33334 7H4.58334H11.4167H12.6667H14V14H2V7H3.33334ZM8.00001 1.16675C10.5495 1.16675 12.6214 3.21116 12.6659 5.75H11.4157C11.3714 3.90157 9.8591 2.41675 8.00001 2.41675C6.14092 2.41675 4.62863 3.90157 4.58434 5.75H3.33407C3.37857 3.21116 5.45054 1.16675 8.00001 1.16675ZM8.625 10.5265C8.85253 10.3435 8.99815 10.0628 8.99815 9.74816C8.99815 9.19689 8.55126 8.75 7.99999 8.75C7.44872 8.75 7.00183 9.19689 7.00183 9.74816C7.00183 10.0628 7.14746 10.3435 7.375 10.5265V12.25H8.625V10.5265Z" fill="currentColor"/>
</svg>
