<?xml version="1.0" encoding="UTF-8"?>
<svg width="16px" height="20px" viewBox="0 0 16 20" version="1.1" xmlns="http://www.w3.org/2000/svg" xmlns:xlink="http://www.w3.org/1999/xlink">
    <g id="Symbols" stroke="none" stroke-width="1" fill="none" fill-rule="evenodd">
        <g id="Shop-header-/-Desktop-/-Secure-Checkout" transform="translate(-644.000000, -32.000000)" fill="currentColor" fill-rule="nonzero">
            <g id="Group-5">
                <g id="Group" transform="translate(645.000000, 29.000000)">
                    <g id="Group-2">
                        <g id="Group-3">
                            <g id="Group-4">
                                <path d="M7.25,3 C9.735281,3 11.75,4.9500486 11.75,7.3555556 L11.75,7.3555556 L11.75,9 L13.494855,9 C14.188052,9 14.75,9.6117119 14.75,10.3714356 L14.75,21.6285644 C14.75,22.3859874 14.189185,23 13.494855,23 L1.005145,23 C0.311948,23 -0.25,22.3882881 -0.25,21.6285644 L-0.25,10.3714356 C-0.25,9.6140126 0.310815,9 1.005145,9 L2.75,9 L2.75,7.3555556 C2.75,4.9500486 4.764719,3 7.25,3 Z M7.25,13 C6.421573,13 5.75,13.6715729 5.75,14.5 C5.75,15.1532187 6.167544,15.7089149 6.750292,15.9147505 L6.75,17.5294118 C6.75,17.7893105 6.839543,18 6.95,18 L6.95,18 L7.55,18 C7.660457,18 7.75,17.7893105 7.75,17.5294118 L7.75,17.5294118 L7.750703,15.9143985 C8.332932,15.7082819 8.75,15.1528467 8.75,14.5 C8.75,13.6715729 8.078427,13 7.25,13 Z M7.25,5 C5.869288,5 4.75,6.0636629 4.75,7.3757576 L4.75,9 L9.75,9 L9.75,7.3757576 C9.75,6.0636629 8.630712,5 7.25,5 Z" id="Bag"></path>
                            </g>
                        </g>
                    </g>
                </g>
            </g>
        </g>
    </g>
</svg>
