<?xml version="1.0" encoding="UTF-8"?>
<svg width="20" height="21" viewBox="0 0 20 21" fill="none" xmlns="http://www.w3.org/2000/svg">
  <path fill-rule="evenodd" clip-rule="evenodd" d="M9.88083 3.80294H10.119C11.0313 3.80294 11.7708 4.54247 11.7708 5.45472V6.52615C11.7708 7.4384 11.0313 8.17794 10.119 8.17794H9.88083C8.96859 8.17794 8.22908 7.4384 8.22908 6.52615V5.45472C8.22908 4.54247 8.96859 3.80294 9.88083 3.80294ZM6.77075 5.45472C6.77075 3.73705 8.1632 2.3446 9.88083 2.3446H10.119C11.8367 2.3446 13.2291 3.73705 13.2291 5.45472V6.52615C13.2291 8.24382 11.8367 9.63627 10.119 9.63627H11.5178L14.6526 11.0497C15.4118 11.392 15.9256 12.1193 15.9945 12.9493L16.3074 16.7196L16.4285 18.1779H14.9652H4.7966H3.33325L3.4543 16.7196L3.76725 12.9493C3.83614 12.1193 4.34989 11.392 5.10914 11.0497L8.24396 9.63627H9.88083C8.1632 9.63627 6.77075 8.24382 6.77075 6.52615V5.45472ZM14.5412 13.0699L14.8441 16.7196H4.91764L5.22059 13.0699C5.24564 12.768 5.43246 12.5036 5.70854 12.3791L8.5575 11.0946H11.2042L14.0532 12.3791C14.3293 12.5036 14.5161 12.768 14.5412 13.0699Z" fill="currentColor"/>
</svg>
