<?xml version="1.0" encoding="UTF-8"?>
<svg width="16" height="16" viewBox="0 0 16 16" fill="none" xmlns="http://www.w3.org/2000/svg">
  <path fill-rule="evenodd" clip-rule="evenodd" d="M9.50005 4.67674V5.12769C9.50005 5.87742 8.82848 6.48519 8.00005 6.48519C7.17163 6.48519 6.50005 5.87742 6.50005 5.12769V4.67674C6.50005 3.92701 7.17163 3.31924 8.00005 3.31924C8.82848 3.31924 9.50005 3.92701 9.50005 4.67674ZM5.25005 4.67674C5.25005 3.30224 6.48127 2.18799 8.00005 2.18799C9.51884 2.18799 10.7501 3.30224 10.7501 4.67674V5.12769C10.7501 6.14831 10.0712 7.02545 9.09983 7.40945L11.8458 8.61711C12.437 8.8771 12.8291 9.40359 12.8736 9.99704L13.1533 13.7267L13.2381 14.858H11.9853H4.01483H2.76196L2.84679 13.7267L3.1265 9.99705C3.171 9.40359 3.56314 8.8771 4.1543 8.61711L6.90027 7.40944C5.92891 7.02544 5.25005 6.14831 5.25005 5.12769V4.67674ZM11.6265 10.0737L11.9004 13.7267H4.09967L4.37363 10.0737C4.38779 9.88482 4.51256 9.7173 4.70066 9.63458L7.22817 8.52299H8.77193L11.2994 9.63458C11.4875 9.7173 11.6123 9.88482 11.6265 10.0737Z" fill="currentColor"/>
</svg>
