<?xml version="1.0" encoding="UTF-8"?>
<svg width="16" height="16" viewBox="0 0 16 16" fill="none" xmlns="http://www.w3.org/2000/svg">
  <path fill-rule="evenodd" clip-rule="evenodd" d="M8.05646 4.24829V3.75C8.05646 2.92157 7.38489 2.25 6.55646 2.25C5.72803 2.25 5.05646 2.92157 5.05646 3.75V4.24829C5.05646 5.07672 5.72803 5.74829 6.55646 5.74829C7.38489 5.74829 8.05646 5.07672 8.05646 4.24829ZM6.55646 1C5.03768 1 3.80646 2.23122 3.80646 3.75V4.24829C3.80646 5.37605 4.48531 6.34525 5.45667 6.76956L2.71071 8.104C2.11955 8.39128 1.72741 8.97304 1.6829 9.6288L1.4032 13.75L1.31836 15H2.57124H8.99994H10.4732H10.5416H11.7261H11.7945L11.7097 13.75L11.43 9.62879C11.3855 8.97304 10.9933 8.39128 10.4022 8.104L7.65623 6.76957C8.6276 6.34526 9.30646 5.37605 9.30646 4.24829V3.75C9.30646 2.23122 8.07524 1 6.55646 1ZM10.4568 13.75L10.1828 9.71344C10.1687 9.50479 10.0439 9.31968 9.85584 9.22828L7.32833 8H5.78457L3.25706 9.22828C3.06897 9.31968 2.94419 9.50479 2.93003 9.71344L2.65607 13.75H8.99994H10.4568ZM14.1384 13.75H12.8941L12.9732 14.9154L12.979 15H14.2232H15.4761L15.3913 13.75L15.1115 9.62879C15.067 8.97304 14.6749 8.39128 14.0837 8.104L11.3378 6.76957C12.3091 6.34526 12.988 5.37605 12.988 4.24829V3.75C12.988 2.23122 11.7568 1 10.238 1C9.97786 1 9.72613 1.03613 9.48757 1.10365C9.78484 1.44034 10.0263 1.82746 10.1975 2.25054C10.2109 2.25018 10.2244 2.25 10.238 2.25C11.0664 2.25 11.738 2.92157 11.738 3.75V4.24829C11.738 5.07672 11.0664 5.74829 10.238 5.74829C10.2244 5.74829 10.2109 5.74811 10.1974 5.74775C10.0952 6.00037 9.96792 6.24011 9.81871 6.46391L10.8801 6.97973C11.6068 7.33289 12.1547 7.95068 12.4262 8.68827L13.5374 9.22828C13.7255 9.31968 13.8502 9.50479 13.8644 9.71344L14.1384 13.75Z" fill="currentColor"/>
</svg>
