<?xml version="1.0" encoding="UTF-8"?>
<svg width="20" height="20" viewBox="0 0 20 20" fill="none" xmlns="http://www.w3.org/2000/svg">
  <path fill-rule="evenodd" clip-rule="evenodd" d="M4.43444 4.61304C4.43444 2.98579 5.75361 1.66663 7.38088 1.66663C9.00813 1.66663 10.3273 2.98579 10.3273 4.61306V5.26781C10.3273 6.89508 9.00813 8.21425 7.38088 8.21425C5.75361 8.21425 4.43444 6.89508 4.43444 5.26781V4.61304ZM11.3746 4.59813V5.28277C11.3746 6.10486 11.1262 6.86892 10.7003 7.50402C11.2158 7.94673 11.8862 8.21425 12.619 8.21425C14.2462 8.21425 15.5654 6.89508 15.5654 5.26781V4.61306C15.5654 2.98579 14.2462 1.66663 12.619 1.66663C11.8862 1.66663 11.2158 1.93415 10.7003 2.37686C11.1262 3.01196 11.3746 3.77604 11.3746 4.59813ZM1.26995 12.3934C1.34295 11.5396 1.8861 10.798 2.67796 10.4707L5.83325 9.16663H9.16659L10.0825 9.54517L12.3219 10.4707C13.0642 10.7775 13.588 11.4485 13.7107 12.2347C13.7189 12.2871 13.7253 12.34 13.7299 12.3933L14.0775 16.4583L14.1666 17.5H13.1211H6.07136H0.833252L1.26995 12.3934ZM11.8937 9.16663L12.7198 9.508C13.8715 9.98404 14.6616 11.0628 14.7678 12.3046L15.2045 17.4112L15.212 17.5H19.1666L18.7371 12.3859C18.6657 11.5361 18.1284 10.7962 17.3423 10.4654L14.2559 9.16663H11.8937Z" fill="currentColor"/>
</svg>
