<?xml version="1.0" encoding="UTF-8"?>
<svg width="13px" height="16px" viewBox="0 0 13 16" version="1.1" xmlns="http://www.w3.org/2000/svg" xmlns:xlink="http://www.w3.org/1999/xlink">
    <defs>
        <polygon id="path-1" points="8.84353741e-06 0.00506977731 12.9828878 0.00506977731 12.9828878 8.30710498 8.84353741e-06 8.30710498"></polygon>
    </defs>
    <g id="Symbols" stroke="none" stroke-width="1" fill="currentColor" fill-rule="evenodd">
        <g id="2020-/-Membership-/-Member" transform="translate(-161.000000, -347.000000)">
            <g id="Group-8">
                <g id="Group-4-Copy-4" transform="translate(161.000000, 347.000000)">
                    <g id="Account-Copy-7">
                        <g id="Group-6" transform="translate(6.500000, 8.000000) scale(-1, 1) translate(-6.500000, -8.000000) ">
                            <path d="M6.5,6.95652174 C4.50882404,6.95652174 2.88888889,5.39618287 2.88888889,3.47826087 C2.88888889,1.56033887 4.50882404,0 6.5,0 C8.49113052,0 10.1111111,1.56033887 10.1111111,3.47826087 C10.1111111,5.39618287 8.49113052,6.95652174 6.5,6.95652174"></path>
                            <g id="Group-5" transform="translate(0.000000, 7.652174)">
                                <mask id="mask-2" fill="white">
                                    <use href="#path-1"></use>
                                </mask>
                                <g id="Clip-4"></g>
                                <path d="M0.283223129,6.30833001 L8.84353741e-06,6.0968246 L0.0128319728,5.76124199 C0.0721721088,4.21172259 0.772314966,2.76368017 1.98423333,1.68383796 C3.19929116,0.601267444 4.79970612,0.00506977731 6.49072313,0.00506977731 C9.92334218,0.00506977731 12.7659204,2.47529332 12.9620259,5.62873552 L12.9828966,5.96395164 L12.7048558,6.18111729 C10.9496789,7.55211538 8.71438639,8.30712534 6.41077755,8.30712534 C4.18552245,8.30712534 2.00934898,7.59727508 0.283223129,6.30833001 Z" mask="url(#mask-2)"></path>
                            </g>
                        </g>
                    </g>
                </g>
            </g>
        </g>
    </g>
</svg>
