<?xml version="1.0" encoding="UTF-8"?>
<svg width="19px" height="16px" viewBox="0 0 19 16" version="1.1" xmlns="http://www.w3.org/2000/svg" xmlns:xlink="http://www.w3.org/1999/xlink">
    <defs>
        <polygon id="path-1" points="8.61678005e-06 0.00506977731 12.6499932 0.00506977731 12.6499932 8.30710498 8.61678005e-06 8.30710498"></polygon>
        <polygon id="path-3" points="8.61678005e-06 0.00506977731 12.6499932 0.00506977731 12.6499932 8.30710498 8.61678005e-06 8.30710498"></polygon>
    </defs>
    <g id="Symbols" stroke="none" stroke-width="1" fill="currentColor" fill-rule="evenodd">
        <g id="2020-/-Membership-/-Member-Plus-Guest" transform="translate(-158.000000, -347.000000)">
            <g id="Group-9">
                <g id="Group-4-Copy-4" transform="translate(158.000000, 347.000000)">
                    <g id="Account-Copy-16" transform="translate(6.333333, 0.000000)">
                        <g id="Group-6" transform="translate(6.333333, 8.000000) scale(-1, 1) translate(-6.333333, -8.000000) ">
                            <path d="M6.33333333,6.95652174 C4.39321316,6.95652174 2.81481481,5.39618287 2.81481481,3.47826087 C2.81481481,1.56033887 4.39321316,0 6.33333333,0 C8.27340922,0 9.85185185,1.56033887 9.85185185,3.47826087 C9.85185185,5.39618287 8.27340922,6.95652174 6.33333333,6.95652174" fill-opacity="30%"></path>
                            <g id="Group-5" transform="translate(0.000000, 7.652174)">
                                <mask id="mask-2" fill="white">
                                    <use href="#path-1"></use>
                                </mask>
                                <g id="Clip-4"></g>
                                <path d="M0.275960998,6.30833001 L8.61678005e-06,6.0968246 L0.0125029478,5.76124199 C0.070321542,4.21172259 0.752512018,2.76368017 1.93335556,1.68383796 C3.11725805,0.601267444 4.67663673,0.00506977731 6.32429433,0.00506977731 C9.66889751,0.00506977731 12.4385891,2.47529332 12.6296662,5.62873552 L12.6500018,5.96395164 L12.3790902,6.18111729 C10.6689179,7.55211538 8.49094059,8.30712534 6.24639864,8.30712534 C4.07820136,8.30712534 1.95782721,7.59727508 0.275960998,6.30833001 Z" fill-opacity="30%" mask="url(#mask-2)"></path>
                            </g>
                        </g>
                    </g>
                    <g id="Account-Copy-7">
                        <g id="Group-6" transform="translate(6.333333, 8.000000) scale(-1, 1) translate(-6.333333, -8.000000) ">
                            <path d="M6.33333333,6.95652174 C4.39321316,6.95652174 2.81481481,5.39618287 2.81481481,3.47826087 C2.81481481,1.56033887 4.39321316,0 6.33333333,0 C8.27340922,0 9.85185185,1.56033887 9.85185185,3.47826087 C9.85185185,5.39618287 8.27340922,6.95652174 6.33333333,6.95652174"></path>
                            <g id="Group-5" transform="translate(0.000000, 7.652174)">
                                <mask id="mask-4" fill="white">
                                    <use href="#path-3"></use>
                                </mask>
                                <g id="Clip-4"></g>
                                <path d="M0.275960998,6.30833001 L8.61678005e-06,6.0968246 L0.0125029478,5.76124199 C0.070321542,4.21172259 0.752512018,2.76368017 1.93335556,1.68383796 C3.11725805,0.601267444 4.67663673,0.00506977731 6.32429433,0.00506977731 C9.66889751,0.00506977731 12.4385891,2.47529332 12.6296662,5.62873552 L12.6500018,5.96395164 L12.3790902,6.18111729 C10.6689179,7.55211538 8.49094059,8.30712534 6.24639864,8.30712534 C4.07820136,8.30712534 1.95782721,7.59727508 0.275960998,6.30833001 Z" mask="url(#mask-4)"></path>
                            </g>
                        </g>
                    </g>
                </g>
            </g>
        </g>
    </g>
</svg>
