<?xml version="1.0" encoding="UTF-8"?>
<svg width="16" height="16" viewBox="0 0 16 16" fill="none" xmlns="http://www.w3.org/2000/svg">
  <path fill-rule="evenodd" clip-rule="evenodd" d="M3.52984 3.375C3.52984 2.06332 4.59317 1 5.90484 1C6.86938 1 7.69962 1.57497 8.07152 2.40086C8.07893 2.41732 8.08616 2.43388 8.09321 2.45054C8.21339 2.73468 8.27984 3.04708 8.27984 3.375V3.875C8.27984 4.22214 8.20537 4.55189 8.07152 4.84914C7.69962 5.67503 6.86938 6.25 5.90484 6.25C4.59317 6.25 3.52984 5.18668 3.52984 3.875V3.375ZM1.02728 10.0098C1.07432 9.35876 1.46392 8.78185 2.05023 8.49504L4.59531 7.25H7.21436L8.07151 7.66931L9.75945 8.49504C10.3458 8.78185 10.7354 9.35876 10.7824 10.0098L11.0526 13.75L11.1429 15H9.88968H5.00009H0.666748L1.02728 10.0098ZM15.4763 15H12.3962L12.3897 14.9099L12.0292 9.91969C11.95 8.82482 11.2948 7.85457 10.3087 7.37219L10.059 7.25H11.5477L14.0928 8.49504C14.6791 8.78185 15.0687 9.35876 15.1157 10.0098L15.4763 15ZM10.2382 6.25C9.75784 6.25 9.3108 6.1074 8.93709 5.86222C9.31185 5.29155 9.52984 4.60873 9.52984 3.875V3.375C9.52984 2.64127 9.31185 1.95845 8.93709 1.38778C9.3108 1.1426 9.75784 1 10.2382 1C11.5499 1 12.6132 2.06332 12.6132 3.375V3.875C12.6132 5.18668 11.5499 6.25 10.2382 6.25Z" fill="currentColor"/>
</svg>
