<?xml version="1.0" encoding="UTF-8"?>
<svg width="20" height="20" viewBox="0 0 20 20" fill="none" xmlns="http://www.w3.org/2000/svg">
  <path fill-rule="evenodd" clip-rule="evenodd" d="M7.61912 3.12496H7.38104C6.46877 3.12496 5.72925 3.86448 5.72925 4.77675V5.84817C5.72925 6.76044 6.46877 7.49996 7.38104 7.49996H7.61912C8.53139 7.49996 9.27091 6.76044 9.27091 5.84817V4.77675C9.27091 3.86448 8.53139 3.12496 7.61912 3.12496ZM7.38104 1.66663C5.66337 1.66663 4.27091 3.05908 4.27091 4.77675V5.84817C4.27091 7.56583 5.66337 8.95829 7.38104 8.95829H5.74412L3.2796 10.3316C2.61256 10.7034 2.17448 11.3829 2.11131 12.1439L1.78779 16.0416L1.66675 17.5H3.1301H11.632H13.0953L12.9743 16.0416L12.6507 12.1439C12.5876 11.3829 12.1495 10.7034 11.4825 10.3317L9.01794 8.95829H7.61912C9.33679 8.95829 10.7292 7.56583 10.7292 5.84817V4.77675C10.7292 3.05908 9.33679 1.66663 7.61912 1.66663H7.38104ZM11.5109 16.0416L11.1974 12.2646C11.1744 11.9878 11.0151 11.7407 10.7726 11.6055L8.63904 10.4166H6.12302L3.98948 11.6055C3.74691 11.7407 3.58762 11.9878 3.56464 12.2646L3.25114 16.0416H11.5109ZM16.8701 17.5H14.1399L14.0189 16.0416H16.749L16.4395 12.3129C16.4157 12.0265 16.2461 11.7726 15.9907 11.641L13.8117 10.5185C13.7939 10.508 13.7752 10.4973 13.7557 10.4863L10.5228 8.72677C10.9023 8.37129 11.2115 7.94163 11.4272 7.46092C11.5426 7.48648 11.6626 7.49996 11.7858 7.49996H12.0239C12.9361 7.49996 13.6757 6.76044 13.6757 5.84817V4.77675C13.6757 3.86448 12.9361 3.12496 12.0239 3.12496H11.7858C11.6626 3.12496 11.5426 3.13844 11.4272 3.164C11.2164 2.69419 10.9163 2.27315 10.5485 1.92246C10.9277 1.75787 11.3461 1.66663 11.7858 1.66663H12.0239C13.7416 1.66663 15.134 3.05908 15.134 4.77675V5.84817C15.134 7.08273 14.4147 8.14929 13.3723 8.65158L16.6586 10.3446C17.361 10.7065 17.8275 11.4048 17.8929 12.1923L18.2124 16.0416L18.3334 17.5H16.8701Z" fill="currentColor"/>
</svg>
