<?xml version="1.0" encoding="UTF-8"?>
<svg width="16" height="16" viewBox="0 0 16 16" fill="none" xmlns="http://www.w3.org/2000/svg">
  <path d="M11.7361 9.71468L10.4183 10.7853C10.1687 10.9882 9.82312 11.0317 9.53985 10.8792C7.6307 9.85171 6.06515 8.26815 5.05997 6.34532C4.92306 6.08343 4.95121 5.76827 5.11862 5.52475L6.16678 4.00016L4.96678 1.3335H3.67862C3.45761 1.3335 3.24565 1.42129 3.08937 1.57757L2.48231 2.18464C1.93337 2.73358 1.6559 3.5103 1.82816 4.26726C2.94688 9.18343 6.81684 13.0534 11.733 14.1721C12.49 14.3444 13.2667 14.0669 13.8156 13.518L14.4227 12.9109C14.579 12.7546 14.6668 12.5427 14.6668 12.3217V11.0335L11.7361 9.71468Z" fill="currentColor"/>
</svg>
