<?xml version="1.0" encoding="UTF-8"?>
<svg width="100px" height="100px" viewBox="0 0 100 100" version="1.1" xmlns="http://www.w3.org/2000/svg" xmlns:xlink="http://www.w3.org/1999/xlink">
    <!-- Generator: Sketch 42 (36781) - http://www.bohemiancoding.com/sketch -->
    <defs></defs>
    <g id="Page-1" stroke="none" stroke-width="1" fill="none" fill-rule="evenodd">
        <g id="phone" fill="currentColor">
            <path d="M56.3977143,78.8 L68.1234286,67.0742857 C69.7348571,65.4697143 71.8674286,64.9348571 73.472,65.9977143 C79.3348571,68.1234286 85.7325714,69.2 92.672,69.2 C95.8674286,69.2 98,71.3257143 98,74.5348571 L98,92.6651429 C98,95.8674286 95.8742857,98 92.6651429,98 C42.5394286,98 2,57.4742857 2,7.33485714 C2,4.12571429 4.12571429,2 7.33485714,2 L26,2 C29.2022857,2 31.3348571,4.12571429 31.3348571,7.33485714 C31.3348571,13.7325714 32.3977143,20.1302857 34.5302857,26.5348571 C35.0651429,28.1325714 34.5302857,30.2651429 33.4674286,31.8697143 L21.2,43.5954286 C28.6742857,58.5302857 41.4697143,70.7977143 56.3977143,78.8 Z"></path>
        </g>
    </g>
</svg>
