<?xml version="1.0" encoding="UTF-8"?>
<svg width="16" height="16" viewBox="0 0 16 16" fill="none" xmlns="http://www.w3.org/2000/svg">
  <path fill-rule="evenodd" clip-rule="evenodd" d="M6.60714 2.5H11.3929L11.75 4H14.3333C14.7015 4 15 4.29848 15 4.66667V13.3333C15 13.7015 14.7015 14 14.3333 14H1.66667C1.29848 14 1 13.7015 1 13.3333V4.66667C1 4.29848 1.29848 4 1.66667 4H6.25L6.60714 2.5ZM11.75 9C11.75 10.5188 10.5188 11.75 9 11.75C7.48122 11.75 6.25 10.5188 6.25 9C6.25 7.48122 7.48122 6.25 9 6.25C10.5188 6.25 11.75 7.48122 11.75 9ZM13 9C13 11.2091 11.2091 13 9 13C6.79086 13 5 11.2091 5 9C5 6.79086 6.79086 5 9 5C11.2091 5 13 6.79086 13 9Z" fill="currentColor"/>
</svg>
