<?xml version="1.0" encoding="UTF-8"?>
<svg width="16" height="16" viewBox="0 0 16 16" fill="none" xmlns="http://www.w3.org/2000/svg">
  <path fill-rule="evenodd" clip-rule="evenodd" d="M11.0389 7.85004L7.99989 12.7877L4.96093 7.85004C4.09451 6.4423 4.30783 4.62371 5.47648 3.45479C6.87009 2.06082 9.12969 2.06082 10.5233 3.45479C11.692 4.62371 11.9052 6.4423 11.0389 7.85004ZM12.032 8.46156L8.68465 13.9002L7.99989 15.0128L7.31513 13.9002L3.96778 8.46156C2.81822 6.59378 3.10124 4.18086 4.65181 2.62994C6.5009 0.780418 9.49889 0.780418 11.348 2.62994C12.8985 4.18086 13.1816 6.59378 12.032 8.46156ZM8.06693 8.01368C9.17107 8.01368 10.0662 7.1184 10.0662 6.01396C10.0662 4.90953 9.17107 4.01422 8.06693 4.01422C6.96273 4.01422 6.06763 4.90953 6.06763 6.01396C6.06763 7.1184 6.96273 8.01368 8.06693 8.01368Z" fill="currentColor"/>
</svg>
