<?xml version="1.0" encoding="UTF-8"?>
<svg width="20" height="21" viewBox="0 0 20 21" fill="none" xmlns="http://www.w3.org/2000/svg">
  <path fill-rule="evenodd" clip-rule="evenodd" d="M13.7994 9.93583L9.99983 16.107L6.20033 9.93583C5.11707 8.17641 5.38378 5.9035 6.8449 4.44256C8.58729 2.70036 11.4124 2.70036 13.1548 4.44256C14.6159 5.9035 14.8825 8.17641 13.7994 9.93583ZM15.041 10.7001L10.856 17.4974L9.99983 18.888L9.1437 17.4974L4.95863 10.7001C3.52137 8.36573 3.87523 5.35002 5.81385 3.41165C8.1257 1.10009 11.874 1.10009 14.1858 3.41165C16.1244 5.35002 16.4783 8.36573 15.041 10.7001ZM10.0837 10.1404C11.4641 10.1404 12.5833 9.02141 12.5833 7.64107C12.5833 6.26073 11.4641 5.14175 10.0837 5.14175C8.7031 5.14175 7.584 6.26073 7.584 7.64107C7.584 9.02141 8.7031 10.1404 10.0837 10.1404Z" fill="currentColor"/>
</svg>
