<?xml version="1.0" encoding="UTF-8"?>
<svg width="100px" height="100px" viewBox="0 0 100 100" version="1.1" xmlns="http://www.w3.org/2000/svg" xmlns:xlink="http://www.w3.org/1999/xlink">
    <!-- Generator: Sketch 42 (36781) - http://www.bohemiancoding.com/sketch -->
    <desc>Created with Sketch.</desc>
    <defs></defs>
    <g id="Page-1" stroke="none" stroke-width="1" fill="none" fill-rule="evenodd">
        <g id="pin" fill="currentColor">
            <path d="M50.3357411,0 C59.5093903,0 67.3683906,3.25050563 73.8838486,9.78041029 C80.4065299,16.3030916 83.6642589,24.1548685 83.6642589,33.3285178 C83.6642589,39.1216411 82.2195897,44.5608206 79.3591448,49.6532794 L52.1776943,98.9598382 C51.8020803,99.6532794 51.1808726,100 50.3357411,100 C49.4833863,100 48.8694019,99.6532794 48.4793412,98.9598382 L21.2834441,49.6532794 C18.4302225,44.7847443 17,39.3527882 17,33.3285178 C17,24.1548685 20.2505056,16.3030916 26.7804103,9.78041029 C33.3030916,3.25050563 41.1548685,0 50.3285178,0 L50.3357411,0 Z M50.3357411,45.8321294 C53.8029471,45.8321294 56.7645189,44.6186073 59.1843398,42.1843398 C61.6186073,39.7572956 62.8321294,36.8029471 62.8321294,33.3357411 C62.8321294,29.8685351 61.6186073,26.9069633 59.1843398,24.4799191 C56.7572956,22.0239815 53.8029471,20.8104594 50.3357411,20.8104594 C46.8685351,20.8104594 43.9069633,22.0239815 41.4799191,24.4582491 C39.0239815,26.8780699 37.8104594,29.8324184 37.8104594,33.3068477 C37.8104594,36.7740537 39.0239815,39.7356255 41.4582491,42.1554464 C43.8780699,44.589714 46.8324184,45.8032361 50.3068477,45.8032361 L50.3357411,45.8321294 Z"></path>
        </g>
    </g>
</svg>
