<?xml version="1.0" encoding="UTF-8"?>
<svg width="100px" height="100px" viewBox="0 0 100 100" version="1.1" xmlns="http://www.w3.org/2000/svg" xmlns:xlink="http://www.w3.org/1999/xlink">
    <!-- Generator: Sketch 42 (36781) - http://www.bohemiancoding.com/sketch -->
    <desc>Created with Sketch.</desc>
    <defs></defs>
    <g id="Page-1" stroke="none" stroke-width="1" fill="none" fill-rule="evenodd">
        <g id="Pinterest" fill-rule="nonzero" fill="currentColor">
            <path d="M15,62.9986733 C15,66.9794877 15.6947648,70.734973 17.0749056,74.2463517 C18.4550464,77.7577304 20.3609552,80.8372283 22.8020206,83.4566793 C25.243086,86.0761302 28.0409225,88.3388101 31.2049189,90.2541076 C34.3783039,92.169405 37.7864068,93.6058782 41.4386162,94.5635269 C45.0908256,95.5211756 48.808756,96 52.6111848,96 C58.432187,96 63.8588631,94.7700786 68.872436,92.3196245 C73.8860088,89.8691703 77.9607103,86.3014593 81.0965405,81.6164915 C84.2323707,76.9315236 85.8002857,71.6456781 85.8002857,65.7495663 C85.8002857,62.2100214 85.4529034,58.7455863 84.7487499,55.3562608 C84.0445964,51.9669354 82.946117,48.6996632 81.4345341,45.5732218 C79.9229513,42.4467803 78.0827635,39.6864986 75.9045821,37.3111542 C73.7264007,34.9358098 71.0600061,33.0392897 67.8866211,31.6122053 C64.713236,30.1945096 61.2300235,29.4809674 57.4369834,29.4809674 C54.930197,29.4809674 52.442188,30.0724564 49.9729564,31.2460455 C47.5037249,32.4290234 45.7292581,34.043882 44.6683335,36.1093989 C44.3021737,34.6729258 43.7857945,32.5980202 43.1191958,29.8846821 C42.4525972,27.171344 42.0207164,25.4250434 41.8235534,24.6363915 C41.6170017,23.8477396 41.2414532,22.5333197 40.6875191,20.7119094 C40.1335851,18.890499 39.6547607,17.5760792 39.251046,16.7874273 C38.8473314,15.9987754 38.2558424,14.8439637 37.485968,13.3323809 C36.7160935,11.820798 35.8617206,10.3937136 34.9416267,9.05112767 C34.0215328,7.70854169 32.8761098,6.11246046 31.5147464,4.27227268 L30.7448719,4 L30.2472701,4.55393407 C29.6933361,10.3373814 29.4210634,13.8112052 29.4210634,14.9472395 C29.4210634,18.336565 29.8153893,22.1483825 30.6134299,26.3639147 C31.4020818,30.5888356 32.6320033,35.8840698 34.2938055,42.259006 C35.9556077,48.6339422 36.9132565,52.3800388 37.1667517,53.4879069 C35.9837739,55.8820288 35.4016736,58.9990815 35.4016736,62.8296765 C35.4016736,65.890397 36.3593224,68.7633432 38.2746199,71.4579039 C40.1899173,74.1524645 42.621594,75.4950505 45.56965,75.4950505 C47.8229411,75.4950505 49.5692418,74.7439535 50.8179406,73.2511481 C52.0760282,71.7583427 52.6956832,69.8712113 52.6956832,67.5803653 C52.6956832,65.1486886 51.8882539,61.6279212 50.2640065,57.0180631 C48.6397592,52.4082049 47.8323298,48.9625472 47.8323298,46.6810899 C47.8323298,44.3620778 48.6585366,42.4280029 50.3203388,40.9070313 C51.982141,39.3766711 53.9913256,38.6161853 56.3478926,38.6161853 C58.3758547,38.6161853 60.2535973,39.0762323 61.9905092,39.9963262 C63.7274212,40.91642 65.173283,42.1745076 66.3280947,43.7518114 C67.4829064,45.3291152 68.5250536,47.0848046 69.42637,49.0094908 C70.3276865,50.9247882 71.03184,52.962139 71.5294418,55.121543 C72.0270436,57.280947 72.3932034,59.3276865 72.6373099,61.2617614 C72.8814165,63.1958363 72.994081,65.0266354 72.994081,66.7635473 C72.994081,73.1384835 70.9755077,78.1051128 66.9383611,81.663435 C62.9012144,85.2217573 57.6435351,86.9962241 51.1559343,86.9962241 C43.7857945,86.9962241 37.6267987,84.611491 32.6883355,79.832636 C27.7498724,75.0631697 25.2806409,69.0074497 25.2806409,61.6654761 C25.2806409,60.0412287 25.5153587,58.4733136 25.9754057,56.9617308 C26.4354526,55.450148 26.9330544,54.2483927 27.468211,53.3658537 C28.0033677,52.4833146 28.5009695,51.6383304 28.9610164,50.8496785 C29.4210634,50.0610266 29.6557812,49.4977038 29.6557812,49.1597102 C29.6557812,48.1269517 29.3835085,46.7843658 28.8295744,45.1225635 C28.2756404,43.4607613 27.5902643,42.6345545 26.782835,42.6345545 C26.7077253,42.6345545 26.3978977,42.6908868 25.8439637,42.8035514 C23.966221,43.3574855 22.2950301,44.3902439 20.8397796,45.9018267 C19.384529,47.4134095 18.2578835,49.1597102 17.4692316,51.1313399 C16.6805797,53.1029697 16.079702,55.0933769 15.6759873,57.1025615 C15.197163,59.1211348 15,61.0833759 15,62.9986733 Z" id="Shape" transform="translate(50.400143, 50.000000) scale(1, -1) translate(-50.400143, -50.000000) "></path>
        </g>
    </g>
</svg>
