<?xml version="1.0" encoding="UTF-8"?>
<svg width="16" height="16" viewBox="0 0 16 16" fill="none" xmlns="http://www.w3.org/2000/svg">
  <path d="M8.00002 1.05811C4.12999 1.05811 0.992676 4.19542 0.992676 8.06545C0.992676 11.0341 2.83969 13.5719 5.44637 14.5929C5.38513 14.0385 5.32976 13.1858 5.47066 12.5806C5.59801 12.0337 6.29236 9.0975 6.29236 9.0975C6.29236 9.0975 6.08275 8.67772 6.08275 8.05713C6.08275 7.08276 6.64751 6.35532 7.35071 6.35532C7.94855 6.35532 8.23731 6.80417 8.23731 7.34239C8.23731 7.94362 7.85452 8.84252 7.65698 9.67553C7.4919 10.3729 8.00674 10.9417 8.69466 10.9417C9.94009 10.9417 10.8975 9.62854 10.8975 7.73293C10.8975 6.05514 9.69189 4.88207 7.97044 4.88207C5.9766 4.88207 4.8063 6.37755 4.8063 7.92306C4.8063 8.52533 5.0383 9.17114 5.32781 9.52222C5.38508 9.59161 5.39346 9.65238 5.3764 9.72321C5.32321 9.94453 5.205 10.4204 5.18179 10.5179C5.15123 10.6461 5.08024 10.6733 4.94743 10.6115C4.07226 10.2042 3.52508 8.92466 3.52508 7.89692C3.52508 5.68648 5.13113 3.65645 8.15511 3.65645C10.586 3.65645 12.4751 5.38865 12.4751 7.70358C12.4751 10.1185 10.9524 12.0621 8.83883 12.0621C8.12875 12.0621 7.46122 11.6932 7.23272 11.2575C7.23272 11.2575 6.88136 12.5954 6.79617 12.9233C6.63798 13.5319 6.21091 14.2948 5.92525 14.7603C6.58088 14.9633 7.27764 15.0728 8.00002 15.0728C11.8702 15.0728 15.0075 11.9354 15.0075 8.06545C15.0075 4.19542 11.8702 1.05811 8.00002 1.05811Z" fill="currentColor"/>
</svg>
