<?xml version="1.0" encoding="UTF-8"?>
<svg width="16" height="16" viewBox="0 0 16 16" fill="none" xmlns="http://www.w3.org/2000/svg">
  <path fill-rule="evenodd" clip-rule="evenodd" d="M8 14C11.3137 14 14 11.3137 14 8C14 4.68629 11.3137 2 8 2C4.68629 2 2 4.68629 2 8C2 11.3137 4.68629 14 8 14ZM7.51553 8.38573H9.2738V7.71347H7.38107C7.3328 7.45833 7.29147 7.217 7.257 6.98947C7.2294 6.75507 7.2156 6.54132 7.2156 6.34826C7.2156 5.84492 7.3156 5.45535 7.51553 5.17955C7.71547 4.90375 8.05333 4.76585 8.52913 4.76585C8.94973 4.76585 9.25307 4.88307 9.43927 5.11749C9.6254 5.35193 9.72887 5.70013 9.74953 6.16209V6.18278H10.8251V6.16209C10.8251 5.76218 10.7355 5.40019 10.5563 5.07613C10.377 4.74517 10.1149 4.47971 9.7702 4.27975C9.42547 4.07979 9.00487 3.97982 8.5084 3.97982C7.9706 3.97982 7.50867 4.08669 7.12253 4.30043C6.7364 4.50729 6.43991 4.79688 6.23306 5.16921C6.02621 5.53465 5.92279 5.95179 5.92279 6.42065C5.92279 6.62061 5.93657 6.82747 5.96415 7.0412C5.99863 7.25493 6.05379 7.47907 6.12964 7.71347H5.01265V8.38573H6.3882C6.50541 8.65467 6.58471 8.8856 6.62608 9.07867C6.67433 9.27173 6.69847 9.46133 6.69847 9.64753C6.69847 9.7096 6.695 9.7682 6.68813 9.82333C6.51576 9.7544 6.33304 9.6958 6.13998 9.64753C5.95381 9.59927 5.75386 9.57513 5.54011 9.57513C5.05057 9.57513 4.67479 9.68547 4.41277 9.90607C4.15077 10.1199 4.01976 10.3887 4.01976 10.7128C4.01976 11.0369 4.13697 11.2989 4.37141 11.4989C4.61273 11.6988 4.94714 11.7988 5.37463 11.7988C5.74007 11.7988 6.06413 11.7126 6.34683 11.5402C6.63642 11.3609 6.87427 11.1472 7.06047 10.899L7.09147 10.9093C7.42247 11.1437 7.75687 11.3506 8.09473 11.5299C8.43947 11.7091 8.798 11.7988 9.17033 11.7988C9.6392 11.7988 10.0081 11.7057 10.277 11.5195C10.5528 11.3333 10.7527 11.0679 10.8769 10.7231C11.001 10.3784 11.0734 9.96813 11.0941 9.4924H10.3701C10.3425 9.913 10.2563 10.2301 10.1115 10.4439C9.96673 10.6577 9.70473 10.7645 9.32547 10.7645C9.0152 10.7645 8.70147 10.7093 8.38433 10.5991C8.07407 10.4887 7.77407 10.3646 7.48453 10.2267L7.44313 10.206C7.55347 9.90953 7.6086 9.59233 7.6086 9.25453C7.6086 9.10973 7.59827 8.9684 7.5776 8.83047C7.5638 8.68567 7.54313 8.5374 7.51553 8.38573ZM5.38497 11.1782C4.97817 11.1782 4.77477 11.0197 4.77477 10.7025C4.77477 10.537 4.83337 10.4129 4.95059 10.3301C5.06781 10.2474 5.21605 10.206 5.39532 10.206C5.60217 10.206 5.79523 10.2371 5.9745 10.2991C6.15377 10.3611 6.32615 10.4405 6.49163 10.537C6.38131 10.7301 6.23306 10.8852 6.04689 11.0024C5.86073 11.1196 5.64009 11.1782 5.38497 11.1782Z" fill="currentColor"/>
</svg>
