<?xml version="1.0" encoding="UTF-8"?>
<svg width="100px" height="100px" viewBox="0 0 100 100" version="1.1" xmlns="http://www.w3.org/2000/svg" xmlns:xlink="http://www.w3.org/1999/xlink">
    <!-- Generator: Sketch 42 (36781) - http://www.bohemiancoding.com/sketch -->
    <title>price</title>
    <desc>Created with Sketch.</desc>
    <defs></defs>
    <g id="Page-1" stroke="none" stroke-width="1" fill="none" fill-rule="evenodd">
        <g id="price" fill="currentColor">
            <path d="M55.8214286,0 C65.25,0 74.3357143,1.84285714 83.0928571,5.52142857 L75.6857143,24.9857143 C69.0428571,22.5142857 63.3857143,21.2714286 58.7142857,21.2714286 C56.1071429,21.2714286 54.1928571,22.0214286 52.9571429,23.5 C51.7214286,24.9857143 51.1,27.3142857 51.1,30.5 L51.1,37.6428571 L74.2714286,37.6428571 L74.2714286,56.2857143 L51.1071429,56.2857143 L51.1071429,62.7642857 C51.1071429,69.4928571 47.5357143,74.5928571 40.3928571,78.05 L85.5857143,78.05 L85.5857143,100 L14.1428571,100 L14.1428571,78.9285714 C17.7714286,76.8142857 20.2285714,75.0928571 21.5,73.7714286 C22.7857143,72.45 23.7142857,70.9285714 24.3,69.2285714 C24.8857143,67.5142857 25.1785714,65.4071429 25.1785714,62.8928571 L25.1785714,56.2928571 L14,56.2928571 L14,37.65 L25.1785714,37.65 L25.1785714,29.7071429 C25.1785714,20.05 27.8071429,12.6928571 33.0571429,7.61428571 C38.3071429,2.53571429 45.9,0 55.8214286,0 Z"></path>
        </g>
    </g>
</svg>
