<?xml version="1.0" encoding="UTF-8"?>
<svg width="54" height="54" viewBox="0 0 54 54" xmlns="http://www.w3.org/2000/svg">
    <g transform="translate(2.5 3)" stroke="currentColor" stroke-width="5" fill="none" fill-rule="evenodd">
        <path d="M11.8701787,38 L3.37849783,38 C1.512605,38 0,36.5289356 0,34.7142857 L0,18.2857143 C0,16.4710644 1.512605,15 3.37849783,15 C7.64292964,15 10.8412535,15 12.9734694,15 M11.9755102,15 C13.7258795,15 41.6288685,15 45.4337156,15 C47.3480916,15 48.9,16.4710644 48.9,18.2857143 L48.9,34.7142857 C48.9,36.5289356 47.3480916,38 45.4337156,38 L36.8043696,38" stroke-linejoin="round"></path>
        <path d="M35.7142857,30.2894737 L35.7142857,44.5894737 C35.7142857,44.8409086 35.6123716,45.0685402 35.4475987,45.233313 C35.2828259,45.3980859 35.0551943,45.5 34.8037594,45.5 L34.8037594,45.5 L14.1962406,45.5 C13.9448057,45.5 13.7171741,45.3980859 13.5524013,45.233313 C13.3876284,45.0685402 13.2857143,44.8409086 13.2857143,44.5894737 L13.2857143,44.5894737 L13.2857143,30.2894737 L35.7142857,30.2894737 Z"></path>
        <rect x="13.2857143" y="2.5" width="22.4285714" height="11.8421053" rx="3.41052632"></rect>
    </g>
</svg>