<?xml version="1.0" encoding="UTF-8"?>
<svg width="16" height="16" viewBox="0 0 16 16" fill="none" xmlns="http://www.w3.org/2000/svg">
  <path fill-rule="evenodd" clip-rule="evenodd" d="M12 4V3.25V2H10.75H5.25001H4.00001V3.25V4H5.25001V3.25H10.75V4H12ZM10.75 9.24992H5.25001V13.7499H10.75V9.24992ZM12 13.7499V11.0001H14V6.33342C14 5.59704 13.403 5.00008 12.6667 5.00008H3.33333C2.59695 5.00008 2 5.59704 2 6.33342V11.0001H4.00001V13.7499V14.9999H5.25001H10.75H12V13.7499ZM13 6.75008C13 7.1643 12.6642 7.50008 12.25 7.50008C11.8358 7.50008 11.5 7.1643 11.5 6.75008C11.5 6.33587 11.8358 6.00008 12.25 6.00008C12.6642 6.00008 13 6.33587 13 6.75008Z" fill="currentColor"/>
</svg>