<?xml version="1.0" encoding="UTF-8"?>
<svg width="96px" height="96px" viewBox="0 0 96 96" version="1.1" xmlns="http://www.w3.org/2000/svg" xmlns:xlink="http://www.w3.org/1999/xlink">
    <g id="baseStyles/icons/print" stroke="none" stroke-width="1" fill="none" fill-rule="evenodd">
        <g id="Icon/Print" transform="translate(24.000000, 24.000000)" stroke="#1D1E20" stroke-width="5">
            <path d="M12.0461097,37.8947368 L3.42857143,37.8947368 C1.53502371,37.8947368 0,36.3866434 0,34.5263158 L0,17.6842105 C0,15.8238829 1.53502371,14.3157895 3.42857143,14.3157895 C7.75620748,14.3157895 11.0019345,14.3157895 13.1657526,14.3157895 M11.4772465,14.3157895 C13.2085719,14.3157895 40.807978,14.3157895 44.5714286,14.3157895 C46.4649763,14.3157895 48,15.8238829 48,17.6842105 L48,34.5263158 C48,36.3866434 46.4649763,37.8947368 44.5714286,37.8947368 L36.0359694,37.8947368" id="Shape" stroke-linejoin="round"></path>
            <path d="M35.2142857,30.2894737 L35.2142857,44.5894737 C35.2142857,44.8409086 35.1123716,45.0685402 34.9475987,45.233313 C34.7828259,45.3980859 34.5551943,45.5 34.3037594,45.5 L34.3037594,45.5 L13.6962406,45.5 C13.4448057,45.5 13.2171741,45.3980859 13.0524013,45.233313 C12.8876284,45.0685402 12.7857143,44.8409086 12.7857143,44.5894737 L12.7857143,44.5894737 L12.7857143,30.2894737 L35.2142857,30.2894737 Z" id="Rectangle"></path>
            <rect id="Rectangle-Copy" x="12.7857143" y="2.5" width="22.4285714" height="11.8421053" rx="3.41052632"></rect>
        </g>
    </g>
</svg>