<?xml version="1.0" encoding="UTF-8"?>
<svg width="16" height="16" viewBox="0 0 16 16" fill="none" xmlns="http://www.w3.org/2000/svg">
  <path fill-rule="evenodd" clip-rule="evenodd" d="M12 4V3.25V2H10.75H5.25001H4.00001V3.25V4H5.25001V3.25H10.75V4H12ZM10.75 9.24992H5.25001V13.7499H10.75V9.24992ZM5.25001 7.99992H4.00001V9.24992V9.75008H3.25V6.33342C3.25 6.28739 3.28731 6.25008 3.33333 6.25008H12.6667C12.7127 6.25008 12.75 6.28739 12.75 6.33342V9.75008H12V9.24992V7.99992H10.75H5.25001ZM12 11.0001H12.75H14V9.75008V6.33342C14 5.59704 13.403 5.00008 12.6667 5.00008H3.33333C2.59695 5.00008 2 5.59704 2 6.33342V9.75008V11.0001H3.25H4.00001V13.7499V14.9999H5.25001H10.75H12V13.7499V11.0001Z" fill="currentColor"/>
</svg>
