<?xml version="1.0" encoding="UTF-8"?>
<svg width="16" height="16" viewBox="0 0 16 16" fill="none" xmlns="http://www.w3.org/2000/svg">
  <path d="M1.96194 5.83148C1.96194 5.24736 2.16512 4.72672 2.57147 4.26958C3.00322 3.81244 3.58734 3.58386 4.32385 3.58386C5.11115 3.58386 5.77147 3.85053 6.3048 4.38386C6.83811 4.8918 7.10478 5.64101 7.10478 6.63148C7.10478 8.02831 6.68578 9.27278 5.84766 10.3648C5.03496 11.4569 3.98099 12.3966 2.68576 13.1838L1.84766 11.7743C2.58417 11.2918 3.26988 10.7204 3.9048 10.06C4.53972 9.37431 4.94607 8.54898 5.12385 7.58384C4.81909 7.81244 4.43814 7.92671 3.98099 7.92671C3.39686 7.92671 2.91432 7.74891 2.53337 7.39338C2.15242 7.01244 1.96194 6.4918 1.96194 5.83148ZM9.00958 5.83148C9.00958 5.24736 9.21271 4.72672 9.61911 4.26958C10.0508 3.81244 10.635 3.58386 11.3714 3.58386C12.1588 3.58386 12.8191 3.85053 13.3524 4.38386C13.8858 4.8918 14.1524 5.64101 14.1524 6.63148C14.1524 8.02831 13.7334 9.27278 12.8953 10.3648C12.0826 11.4569 11.0286 12.3966 9.73338 13.1838L8.89531 11.7743C9.63178 11.2918 10.3175 10.7204 10.9524 10.06C11.5873 9.37431 11.9937 8.54898 12.1714 7.58384C11.8667 7.81244 11.4858 7.92671 11.0286 7.92671C10.4445 7.92671 9.96198 7.74891 9.58098 7.39338C9.20004 7.01244 9.00958 6.4918 9.00958 5.83148Z" fill="currentColor"/>
</svg>
