<?xml version="1.0" encoding="UTF-8"?>
<svg width="16" height="16" viewBox="0 0 16 16" fill="none" xmlns="http://www.w3.org/2000/svg">
  <path fill-rule="evenodd" clip-rule="evenodd" d="M6.25063 2.44744C7.01215 1.0735 8.98768 1.07351 9.74921 2.44744L11.9452 6.40962L12.2288 5.29638L13.5209 5.62552L12.8212 8.37218L12.6391 9.08725L11.9461 8.83365L9.28435 7.85972L9.74255 6.60756L10.731 6.96925L8.58301 3.09381C8.32915 2.63583 7.67068 2.63583 7.41681 3.0938L6.56514 4.63041L5.41027 3.96364L6.25063 2.44744ZM12.6159 10.3701L13.7707 9.70325L14.4139 10.8637C15.1527 12.1967 14.1887 13.8333 12.6647 13.8333H8.56288L9.46688 14.6529L8.57121 15.6407L6.31243 13.5925L5.76578 13.0969L6.31421 12.6031L8.58035 10.5632L9.47241 11.5541L8.42181 12.4999H12.6647C13.1727 12.4999 13.494 11.9544 13.2477 11.5101L12.6159 10.3701ZM4.66653 12.4999V13.8333H3.33515C1.81106 13.8333 0.847027 12.1967 1.58587 10.8637L3.51946 7.37505L2.53833 7.73405L2.08016 6.48193L4.74193 5.50796L5.43489 5.25439L5.61705 5.96946L6.31671 8.71612L5.02464 9.04525L4.73922 7.92478L2.75205 11.5101C2.50577 11.9544 2.82712 12.4999 3.33515 12.4999H4.66653Z" fill="currentColor"/>
</svg>
