<?xml version="1.0" encoding="UTF-8"?>
<svg width="16" height="16" viewBox="0 0 16 16" fill="none" xmlns="http://www.w3.org/2000/svg">
  <path d="M6.25733 13.3633H3.58301V2.63647H8.04512C9.51279 2.63647 10.6505 2.85318 11.4583 3.28659C12.2659 3.71999 12.6698 4.43413 12.6698 5.429V5.45855C12.6698 6.17761 12.4137 6.75384 11.9015 7.18723C11.3893 7.61084 10.6801 7.90137 9.77385 8.05897V8.1181C10.3255 8.24617 10.7835 8.4333 11.1479 8.67957C11.5124 8.93563 11.7587 9.26564 11.8867 9.6695C12.0148 10.0734 12.1083 10.5068 12.1675 10.9697C12.197 11.1963 12.2561 11.4721 12.3447 11.7972C12.4433 12.1124 12.5565 12.4128 12.6846 12.6984C12.8225 12.9742 12.9555 13.1614 13.0835 13.2599V13.3633H10.2319C10.0645 13.2353 9.92159 13.0776 9.80339 12.8905C9.69505 12.7034 9.60639 12.4571 9.53745 12.1518C9.47832 11.8464 9.42912 11.4474 9.38972 10.955C9.36999 10.5412 9.33059 10.2014 9.27152 9.93544C9.22225 9.6695 9.15325 9.46264 9.06465 9.3149C8.93659 9.08837 8.73959 8.93564 8.47365 8.85684C8.21752 8.76824 7.89245 8.7239 7.49845 8.7239H6.25733V13.3633ZM8.05992 4.14355H6.25733V7.30543H8.07472C8.69525 7.30543 9.13852 7.17743 9.40445 6.9213C9.68025 6.65535 9.81819 6.23671 9.81819 5.66541V5.63585C9.81819 5.09409 9.67532 4.70994 9.38972 4.48339C9.10405 4.25683 8.66079 4.14355 8.05992 4.14355Z" fill="currentColor"/>
</svg>
