<?xml version="1.0" encoding="UTF-8"?>
<svg width="16" height="16" viewBox="0 0 16 16" fill="none" xmlns="http://www.w3.org/2000/svg">
  <path fill-rule="evenodd" clip-rule="evenodd" d="M1.99927 1H3.24927V5.16335L4.50098 5.12227V1H5.75098V5.08125L7.00269 5.04018V1H8.25269V6.30774H8.22578C8.20861 6.82896 7.8884 7.29417 7.40424 7.4951L6.57732 7.83826C6.07953 8.04485 5.75506 8.5308 5.75506 9.06976V15H4.50279H4.50098V9.00753C4.47414 8.49302 4.15216 8.03718 3.6709 7.84185L2.80772 7.49151C2.30482 7.28739 1.97583 6.79881 1.97583 6.25606V5.20514L1.99927 5.20437V1ZM12.9999 1C12.9999 1 9.99993 1.58333 9.99993 8L11.7555 8.525V15H12.9999V1Z" fill="currentColor"/>
</svg>
