<?xml version="1.0" encoding="UTF-8"?>
<svg width="16" height="16" viewBox="0 0 16 16" fill="none" xmlns="http://www.w3.org/2000/svg">
  <path fill-rule="evenodd" clip-rule="evenodd" d="M7.6598 2.90499L8.72349 1.9356L7.88552 1L5.581 3.10018L5.0677 3.56798L5.581 4.03578L7.88552 6.13595L8.72349 5.20034L7.59659 4.17336C7.72957 4.16207 7.86412 4.15632 8 4.15632C10.6233 4.15632 12.75 6.3015 12.75 8.94772C12.75 11.594 10.6233 13.7391 8 13.7391C5.3766 13.7391 3.25 11.594 3.25 8.94772C3.25 7.72975 3.7005 6.61793 4.4426 5.77256L3.4051 5.05546C2.5282 6.1077 2 7.46549 2 8.94772C2 12.2903 4.6863 15 8 15C11.3137 15 14 12.2903 14 8.94772C14 5.60513 11.3137 2.89543 8 2.89543C7.88583 2.89543 7.7724 2.89864 7.6598 2.90499Z" fill="currentColor"/>
</svg>
