<?xml version="1.0" encoding="UTF-8"?>
<svg width="15" height="16" viewBox="0 0 15 16" fill="none" xmlns="http://www.w3.org/2000/svg">
  <path fill-rule="evenodd" clip-rule="evenodd" d="M7.14079 3.65099L7.83478 2.97971L7.16095 2.18115L5.43147 3.85415L5.01872 4.25343L5.43147 4.65271L7.16095 6.3257L7.83478 5.52715L7.02357 4.74248C7.17715 4.72409 7.33326 4.71465 7.49144 4.71465C9.7912 4.71465 11.6555 6.7108 11.6555 9.17317C11.6555 11.6356 9.7912 13.6317 7.49144 13.6317C5.19169 13.6317 3.32738 11.6356 3.32738 9.17317C3.32738 7.90119 3.82486 6.75362 4.62284 5.94134L3.77878 5.32208C2.87719 6.31834 2.32227 7.67636 2.32227 9.17317C2.32227 12.2299 4.63658 14.7079 7.49144 14.7079C10.3463 14.7079 12.6606 12.2299 12.6606 9.17317C12.6606 6.11643 10.3463 3.63845 7.49144 3.63845C7.37358 3.63845 7.2567 3.64268 7.14079 3.65099ZM5.64609 11.0181V8.38109H4.97066V7.93831C5.09319 7.93503 5.21878 7.92355 5.34743 7.90387C5.54348 7.88092 5.69051 7.83172 5.78853 7.75628C5.88962 7.68085 5.96007 7.57589 5.99989 7.44142H6.46398V11.0181H5.64609ZM7.09019 9.23713V9.22729C7.09019 8.87965 7.14688 8.56638 7.2602 8.28762C7.37352 8.00553 7.53589 7.78252 7.74725 7.61853C7.95861 7.45454 8.21437 7.37254 8.51459 7.37254C8.8148 7.37254 9.07056 7.45454 9.28192 7.61853C9.49633 7.78252 9.6587 8.00553 9.76897 8.28762C9.88229 8.56638 9.93898 8.87965 9.93898 9.22729V9.23713C9.93898 9.58477 9.88229 9.89963 9.76897 10.1817C9.6587 10.4605 9.49633 10.6819 9.28192 10.8459C9.07056 11.0099 8.8148 11.0919 8.51459 11.0919C8.21437 11.0919 7.95861 11.0099 7.74725 10.8459C7.53589 10.6819 7.37352 10.4605 7.2602 10.1817C7.14688 9.89963 7.09019 9.58477 7.09019 9.23713ZM7.98159 9.26173C7.98159 9.60285 8.00152 9.87178 8.04132 10.0686C8.08112 10.2654 8.14085 10.4048 8.22052 10.4867C8.30018 10.5687 8.39816 10.6097 8.51459 10.6097C8.63405 10.6097 8.73209 10.5687 8.80865 10.4867C8.88832 10.4048 8.94805 10.2654 8.98785 10.0686C9.02765 9.87178 9.04758 9.60285 9.04758 9.26173V9.20269C9.04758 8.85831 9.02765 8.58772 8.98785 8.39093C8.94805 8.19414 8.88832 8.05639 8.80865 7.97767C8.72899 7.89567 8.63101 7.85467 8.51459 7.85467C8.40127 7.85467 8.30478 7.89567 8.22511 7.97767C8.14545 8.05639 8.08422 8.19414 8.04132 8.39093C8.00152 8.58772 7.98159 8.85831 7.98159 9.20269V9.26173Z" fill="currentColor"/>
</svg>
