<?xml version="1.0" encoding="UTF-8"?>
<svg width="16" height="16" viewBox="0 0 16 16" fill="none" xmlns="http://www.w3.org/2000/svg">
  <path fill-rule="evenodd" clip-rule="evenodd" d="M8.19212 3.75478L8.99765 3.02706L8.21552 2.16138L6.20807 3.97502L5.72897 4.40786L6.20807 4.84071L8.21552 6.65435L8.99765 5.78866L8.05605 4.93802C8.23432 4.9181 8.41552 4.90786 8.59912 4.90786C11.2685 4.90786 13.4325 7.07182 13.4325 9.7412C13.4325 12.4106 11.2685 14.5745 8.59912 14.5745C5.92975 14.5745 3.76579 12.4106 3.76579 9.7412C3.76579 8.36228 4.34322 7.11824 5.26947 6.23768L4.28973 5.56636C3.24324 6.64637 2.59912 8.11856 2.59912 9.7412C2.59912 13.0549 5.28541 15.7412 8.59912 15.7412C11.9129 15.7412 14.5991 13.0549 14.5991 9.7412C14.5991 6.42748 11.9129 3.74119 8.59912 3.74119C8.46232 3.74119 8.32665 3.74577 8.19212 3.75478ZM6.45718 11.7412V8.88253H5.67318V8.40252C5.81541 8.39897 5.96118 8.38652 6.11051 8.36519C6.33807 8.3403 6.50874 8.28697 6.62251 8.20519C6.73985 8.12342 6.82163 8.00964 6.86785 7.86386H7.40652V11.7412H6.45718ZM8.13339 9.81053V9.79986C8.13339 9.423 8.19919 9.0834 8.33072 8.7812C8.46225 8.4754 8.65072 8.23364 8.89605 8.05586C9.14139 7.87808 9.43825 7.78919 9.78672 7.78919C10.1352 7.78919 10.4321 7.87808 10.6774 8.05586C10.9263 8.23364 11.1147 8.4754 11.2427 8.7812C11.3743 9.0834 11.4401 9.423 11.4401 9.79986V9.81053C11.4401 10.1874 11.3743 10.5287 11.2427 10.8345C11.1147 11.1367 10.9263 11.3767 10.6774 11.5545C10.4321 11.7323 10.1352 11.8212 9.78672 11.8212C9.43825 11.8212 9.14139 11.7323 8.89605 11.5545C8.65072 11.3767 8.46225 11.1367 8.33072 10.8345C8.19919 10.5287 8.13339 10.1874 8.13339 9.81053ZM9.16805 9.8372C9.16805 10.207 9.19119 10.4985 9.23739 10.7119C9.28359 10.9252 9.35292 11.0763 9.44539 11.1652C9.53785 11.2541 9.65159 11.2985 9.78672 11.2985C9.92539 11.2985 10.0392 11.2541 10.1281 11.1652C10.2205 11.0763 10.2899 10.9252 10.3361 10.7119C10.3823 10.4985 10.4054 10.207 10.4054 9.8372V9.7732C10.4054 9.39986 10.3823 9.10653 10.3361 8.8932C10.2899 8.67986 10.2205 8.53053 10.1281 8.4452C10.0356 8.3563 9.92185 8.31186 9.78672 8.31186C9.65519 8.31186 9.54319 8.3563 9.45072 8.4452C9.35825 8.53053 9.28719 8.67986 9.23739 8.8932C9.19119 9.10653 9.16805 9.39986 9.16805 9.7732V9.8372Z" fill="currentColor"/>
</svg>
