<?xml version="1.0" encoding="utf-8"?>
<!-- Generator: Adobe Illustrator 22.1.0, SVG Export Plug-In . SVG Version: 6.00 Build 0)  -->
<svg version="1.1" id="Layer_1" xmlns="http://www.w3.org/2000/svg" xmlns:xlink="http://www.w3.org/1999/xlink" x="0px" y="0px"
	 viewBox="0 0 42 42" style="enable-background:new 0 0 42 42;" xml:space="preserve">
<style type="text/css">
	.st0{fill:#2A2A2A;}
</style>
<title>Search</title>
<desc>Created with Sketch.</desc>
<g>
	<path class="st0" d="M21,0C9.4,0,0,9.4,0,21c0,11.6,9.4,21,21,21c11.6,0,21-9.4,21-21C42,9.4,32.6,0,21,0z M21,40
		C10.5,40,2,31.5,2,21S10.5,2,21,2s19,8.5,19,19S31.5,40,21,40z"/>
	<path class="st0" d="M26.3,18.7c0-4.2-3.4-7.7-7.7-7.7S11,14.4,11,18.7s3.4,7.7,7.7,7.7c1.8,0,3.4-0.6,4.7-1.6l6.2,6.2l1.4-1.4
		l-6.2-6.2C25.8,22,26.3,20.4,26.3,18.7z M18.7,24.3c-3.1,0-5.6-2.5-5.6-5.6s2.5-5.6,5.6-5.6s5.6,2.5,5.6,5.6S21.8,24.3,18.7,24.3z"
		/>
</g>
</svg>
