<?xml version="1.0" encoding="UTF-8"?>
<svg width="16" height="16" viewBox="0 0 16 16" fill="none" xmlns="http://www.w3.org/2000/svg">
  <path fill-rule="evenodd" clip-rule="evenodd" d="M11.3335 6.99992C11.3335 9.39318 9.39343 11.3333 7.00016 11.3333C4.60693 11.3333 2.66683 9.39318 2.66683 6.99992C2.66683 4.60669 4.60693 2.66659 7.00016 2.66659C9.39343 2.66659 11.3335 4.60669 11.3335 6.99992ZM12.6668 6.99992C12.6668 10.1295 10.1298 12.6666 7.00016 12.6666C3.87055 12.6666 1.3335 10.1295 1.3335 6.99992C1.3335 3.87031 3.87055 1.33325 7.00016 1.33325C10.1298 1.33325 12.6668 3.87031 12.6668 6.99992ZM10.9824 11.925L14.1676 15.1102L14.9757 14.0327L11.9252 10.9822C11.6448 11.3285 11.3287 11.6447 10.9824 11.925Z" fill="currentColor"/>
</svg>
