<?xml version="1.0" encoding="UTF-8"?>
<svg width="16" height="16" viewBox="0 0 16 16" fill="none" xmlns="http://www.w3.org/2000/svg">
  <path fill-rule="evenodd" clip-rule="evenodd" d="M6.75 1C6.05964 1 5.5 1.55964 5.5 2.25C5.5 2.94036 6.05964 3.5 6.75 3.5C7.44036 3.5 8 2.94036 8 2.25C8 1.55964 7.44036 1 6.75 1ZM5 5.5C5 4.67157 5.67157 4 6.5 4C7.08834 4 7.59757 4.33872 7.84332 4.8318L9.03598 6.36838L11.0525 6.84483L10.7651 8.06134L8.53383 7.53415L8.3191 7.48342L8.18381 7.30912L8 7.0723V8.41507L10.4479 9.00668C10.8382 9.10102 11.1343 9.41973 11.1996 9.81598L11.9999 14.6691L10.7821 14.9778L9.83035 10.4525L6.47724 9.99983C5.65931 9.98767 5 9.32083 5 8.5V5.5ZM3 15V11H7.66667C8.40305 11 9 11.597 9 12.3333V15H3Z" fill="currentColor"/>
</svg>
