<?xml version="1.0" encoding="UTF-8"?>
<svg width="24" height="24" viewBox="0 0 24 24" fill="none" xmlns="http://www.w3.org/2000/svg">
  <path fill-rule="evenodd" clip-rule="evenodd" d="M20.25 5.5C20.25 6.4665 19.4665 7.25 18.5 7.25C17.5335 7.25 16.75 6.4665 16.75 5.5C16.75 4.5335 17.5335 3.75 18.5 3.75C19.4665 3.75 20.25 4.5335 20.25 5.5ZM22 5.5C22 7.433 20.433 9 18.5 9C17.4404 9 16.4908 8.52917 15.849 7.78531L8.90977 11.207C8.9688 11.4618 9 11.7272 9 12C9 12.2904 8.96464 12.5724 8.898 12.8422L15.7973 16.276C16.4393 15.4968 17.4116 15 18.5 15C20.433 15 22 16.567 22 18.5C22 20.433 20.433 22 18.5 22C16.567 22 15 20.433 15 18.5C15 18.2824 15.0199 18.0694 15.0579 17.8627L8.06435 14.3821C7.42524 15.0698 6.51287 15.5 5.5 15.5C3.567 15.5 2 13.933 2 12C2 10.067 3.567 8.5 5.5 8.5C6.53124 8.5 7.45832 8.94599 8.09886 9.65562L15.0734 6.21656C15.0253 5.98526 15 5.74558 15 5.5C15 3.567 16.567 2 18.5 2C20.433 2 22 3.567 22 5.5ZM7.25 12C7.25 12.9665 6.4665 13.75 5.5 13.75C4.5335 13.75 3.75 12.9665 3.75 12C3.75 11.0335 4.5335 10.25 5.5 10.25C6.4665 10.25 7.25 11.0335 7.25 12ZM18.5 20.25C19.4665 20.25 20.25 19.4665 20.25 18.5C20.25 17.5335 19.4665 16.75 18.5 16.75C17.5335 16.75 16.75 17.5335 16.75 18.5C16.75 19.4665 17.5335 20.25 18.5 20.25Z" fill="currentColor"/>
</svg>
