<svg xmlns="http://www.w3.org/2000/svg" width="39" height="39" viewBox="0 0 39 39">
  <path fill="currentColor" d="M37.631 36.95l-3.1-27.1c-.1-.9-.8-1.5-1.7-1.5h-6.1c-.2-4.6-3.4-8.2-7.2-8.2-3.8 0-7 3.6-7.2 8.2h-6.2c-.9 0-1.7.6-1.8 1.5l-3 27.1v.2c0 .9.8 1.7 1.7 1.7h33.1c.5-.1.9-.3 1.2-.6.3-.5.4-.9.3-1.3zm-18.1-34.6c2.8 0 5.1 2.7 5.4 6h-10.8c.2-3.4 2.6-6 5.4-6zm-16.3 34.6l3-26.7h6v5c-.5.3-.7.9-.7 1.4 0 1 .8 1.7 1.7 1.7 1 0 1.7-.8 1.7-1.7 0-.6-.3-1.2-.9-1.5v-5h10.7v4.9c-.5.3-.9.9-.9 1.5 0 1 .8 1.7 1.7 1.7 1 0 1.7-.8 1.7-1.7 0-.6-.3-1.1-.7-1.4v-5h5.9l3.1 26.7h-32.3z"/>
</svg>