<?xml version="1.0" encoding="utf-8"?>
<!-- Generator: Adobe Illustrator 22.1.0, SVG Export Plug-In . SVG Version: 6.00 Build 0)  -->
<svg version="1.1" id="Layer_1" xmlns="http://www.w3.org/2000/svg" xmlns:xlink="http://www.w3.org/1999/xlink" x="0px" y="0px"
	 viewBox="0 0 37 39" style="enable-background:new 0 0 37 39;" xml:space="preserve">
<style type="text/css">
	.st0{fill:#2A2A2A;}
</style>
<title>shopping-bag</title>
<desc>Created with Sketch.</desc>
<g id="path-1_1_">
</g>
<path class="st0" d="M36.3,36.8L33.2,9.7c-0.1-0.9-0.8-1.5-1.7-1.5h-6.1C25.2,3.6,22,0,18.2,0c-3.8,0-7,3.6-7.2,8.2H4.8
	C3.9,8.2,3.1,8.8,3,9.7L0,36.8c0,0.1,0,0.1,0,0.2c0,0.9,0.8,1.7,1.7,1.7h32.9c0.1,0,0.1,0,0.2,0c0.5-0.1,0.9-0.3,1.2-0.6
	C36.3,37.6,36.4,37.2,36.3,36.8z M18.2,2.2c2.8,0,5.1,2.7,5.4,6H12.8C13,4.8,15.4,2.2,18.2,2.2z M1.9,36.8l3-26.7h6v5
	c-0.5,0.3-0.7,0.9-0.7,1.4c0,1,0.8,1.7,1.7,1.7c1,0,1.7-0.8,1.7-1.7c0-0.6-0.3-1.2-0.9-1.5V10h10.7v4.9c-0.5,0.3-0.9,0.9-0.9,1.5
	c0,1,0.8,1.7,1.7,1.7c1,0,1.7-0.8,1.7-1.7c0-0.6-0.3-1.1-0.7-1.4v-5h5.9l3.1,26.7H1.9z"/>
</svg>
