<?xml version="1.0" encoding="UTF-8"?>
<svg width="16" height="16" viewBox="0 0 16 16" fill="none" xmlns="http://www.w3.org/2000/svg">
  <path fill-rule="evenodd" clip-rule="evenodd" d="M8.33341 2.33325H7.66675C6.56218 2.33325 5.66675 3.22869 5.66675 4.33325V4.66658H10.3334V4.33325C10.3334 3.22869 9.43801 2.33325 8.33341 2.33325ZM11.3334 4.66658V4.33325C11.3334 2.6764 9.99028 1.33325 8.33341 1.33325H7.66675C6.00989 1.33325 4.66675 2.6764 4.66675 4.33325V4.66658H3.00008L2.70563 13.4999L2.66675 14.6666H3.83406H12.1661H13.3334L13.2945 13.4999L13.0001 4.66658H11.3334ZM10.3334 5.83325V6.66658H11.3334V5.83325H11.8717L12.1272 13.4999H3.87295L4.12851 5.83325H4.66675V6.66658H5.66675V5.83325H10.3334Z" fill="currentColor"/>
</svg>
