<?xml version="1.0" encoding="UTF-8"?>
<svg width="16" height="16" viewBox="0 0 16 16" fill="none" xmlns="http://www.w3.org/2000/svg">
  <path fill-rule="evenodd" clip-rule="evenodd" d="M9.33331 2.375C8.9421 2.375 8.62497 2.69213 8.62497 3.08333V4H12.1667L13 5.25H2.99997L3.83331 4H7.37497V3.08333C7.37497 2.00178 8.25175 1.125 9.33331 1.125H14.25H14.875V2.375H14.25H9.33331ZM3.76278 6.5L3.18928 8.5H4.48966L5.06315 6.5H3.76278ZM2.83085 9.75L2.25736 11.75H3.55774L4.13123 9.75H2.83085ZM1.89893 13L1.32544 15H2.62581L3.1993 13H1.89893ZM4.68058 15H5.93747L6.14768 13H4.89079L4.68058 15ZM7.37497 15H8.62497V13H7.37497V15ZM10.0945 15H11.3514L11.1412 13H9.88426L10.0945 15ZM13.4062 15H14.7065L14.133 13H12.8327L13.4062 15ZM13.7746 11.75L13.2011 9.75H11.9007L12.4742 11.75H13.7746ZM12.8427 8.5L12.2692 6.5H10.9688L11.5423 8.5H12.8427ZM10.458 6.5H9.20109L9.4113 8.5H10.6682L10.458 6.5ZM8.62496 6.5H7.37496V8.5H8.62496V6.5ZM5.57397 6.5H6.83086L6.62065 8.5H5.36376L5.57397 6.5ZM5.23238 9.75H6.48927L6.27906 11.75H5.02217L5.23238 9.75ZM8.62497 11.75H7.37497L7.37496 9.75H8.62496L8.62497 11.75ZM9.75288 11.75L9.54268 9.75H10.7996L11.0098 11.75H9.75288Z" fill="currentColor"/>
</svg>
