<svg xmlns="http://www.w3.org/2000/svg" width="30" height="19" viewBox="0 0 30 19">
      <g fill="currentColor">
        <path d="M27.052 16.806l-2.922 2.092v-2.992h-3.904c-5.553 0-10.71-10.178-14.878-10.178H.025V3.313h5.323c6.473 0 10.38 10.209 14.879 10.209h3.903V10.53l2.922 2.093 2.924 2.091-2.924 2.092z" transform="translate(-710 -957) translate(693 937) translate(17 20)"/>
        <path d="M15.221 8.078l.401.439c1.552-1.608 3.043-2.84 4.605-2.84h3.904V8.67l2.921-2.093 2.924-2.092-2.924-2.092L24.131.302v2.991h-3.904c-2.16 0-4.26 1.54-6.264 3.423.43.454.848.912 1.258 1.362zM10.71 11.342c-.227-.23-.456-.465-.688-.699-1.66 1.601-3.227 2.829-4.674 2.829H.025v2.415h5.323c2.493 0 4.603-1.515 6.516-3.377-.392-.39-.777-.782-1.155-1.168z" transform="translate(-710 -957) translate(693 937) translate(17 20)"/>
      </g>
</svg>
