<?xml version="1.0" encoding="UTF-8"?>
<svg width="16" height="16" viewBox="0 0 16 16" fill="none" xmlns="http://www.w3.org/2000/svg">
  <path fill-rule="evenodd" clip-rule="evenodd" d="M12.392 3.99992L11.0196 2.75997L11.8016 1.89429L14.3912 4.23385L14.8703 4.66669L14.3912 5.09953L11.8016 7.43912L11.0196 6.57341L12.3922 5.33325H11.2649C10.094 5.33325 9.00903 5.94759 8.40663 6.95159L8.16636 7.35205L7.3925 6.06229C8.2563 4.7775 9.7063 3.99992 11.2649 3.99992H12.392ZM1.3335 5.33331H2.7354C3.90628 5.33331 4.9913 5.94765 5.59371 6.95165L7.2633 9.73432C8.1067 11.1399 9.6257 12 11.2649 12H12.3922L11.0196 13.2401L11.8016 14.1058L14.3912 11.7662L14.8703 11.3334L14.3912 10.9005L11.8016 8.56099L11.0196 9.42665L12.392 10.6667H11.2649C10.094 10.6667 9.00903 10.0523 8.40663 9.04832L6.73703 6.26567C5.89366 4.86005 4.37463 3.99998 2.7354 3.99998H1.3335V5.33331ZM5.59371 9.04825L5.83397 8.64779L6.60782 9.93752C5.74402 11.2223 4.29404 11.9999 2.7354 11.9999H1.3335V10.6666H2.7354C3.90628 10.6666 4.9913 10.0523 5.59371 9.04825Z" fill="currentColor"/>
</svg>
