<?xml version="1.0" encoding="UTF-8"?>
<svg width="100px" height="100px" viewBox="0 0 100 100" version="1.1" xmlns="http://www.w3.org/2000/svg" xmlns:xlink="http://www.w3.org/1999/xlink">
    <!-- Generator: Sketch 42 (36781) - http://www.bohemiancoding.com/sketch -->
    <title>signpost</title>
    <desc>Created with Sketch.</desc>
    <defs></defs>
    <g id="Page-1" stroke="none" stroke-width="1" fill="none" fill-rule="evenodd">
        <g id="signpost" fill="currentColor" fill-rule="nonzero">
            <path d="M38.6821667,20.6 L38.6821667,36.9613333 L9.18066667,36.9613333 L1,28.7806667 L9.18066667,20.6 L38.6821667,20.6 Z M90.2045,25.5408333 L57.6918333,25.5408333 L57.6918333,33.7215 L79.8328333,33.7215 L88.0146666,41.9045 L79.8328333,50.0828334 L57.6918333,50.0828334 L57.6918333,95.5174998 L88.8278336,95.5174998 L88.8278336,98.1611668 L57.6918333,98.1611668 L57.6918333,98.2288331 L41.9371667,98.2288331 L41.9371667,98.1611668 L10.8,98.1611668 L10.8,95.5174998 L41.9371667,95.5174998 L41.9371667,1 L57.6918333,1 L57.6918333,9.18066667 L90.2045,9.18066667 L98.3851665,17.3613333 L90.2045,25.5408333 Z"></path>
        </g>
    </g>
</svg>
