<?xml version="1.0" encoding="UTF-8"?>
<svg width="16" height="16" viewBox="0 0 16 16" fill="none" xmlns="http://www.w3.org/2000/svg">
  <path fill-rule="evenodd" clip-rule="evenodd" d="M2.83521 2.25C2.83521 1.55964 3.39485 1 4.08521 1C4.77556 1 5.33521 1.55964 5.33521 2.25C5.33521 2.94036 4.77556 3.5 4.08521 3.5C3.39485 3.5 2.83521 2.94036 2.83521 2.25ZM1.42041 8.83945L2.3934 6.24481L2.70378 8.62439L2.11172 15H3.37474L4.08521 9.62074L4.79568 15H6.05871L5.46665 8.62439L5.77702 6.24484L6.75 8.83945L7.92041 8.40054L6.66374 5.04942C6.4259 4.41518 5.81958 3.995 5.1422 3.995H4.08521H3.02821C2.35083 3.995 1.74451 4.41518 1.50667 5.04942L0.25 8.40054L1.42041 8.83945ZM12.0447 1C11.3544 1 10.7947 1.55964 10.7947 2.25C10.7947 2.94036 11.3544 3.5 12.0447 3.5C12.7351 3.5 13.2947 2.94036 13.2947 2.25C13.2947 1.55964 12.7351 1 12.0447 1ZM11.6296 3.995C11.0425 3.995 10.5011 4.31165 10.2133 4.82332L8.25 8.31358L9.33947 8.92641L10.6617 6.57586C10.6647 6.58583 10.6679 6.59579 10.6712 6.60576L10.971 7.50531L9.79473 11.74H10.4308L9.94985 15H11.2134L11.6944 11.74H12.3951L12.8761 15H14.1396L13.6586 11.74H14.2947L13.1184 7.50532L13.4183 6.60576C13.4216 6.59579 13.4248 6.58582 13.4278 6.57585L14.75 8.92641L15.8395 8.31358L13.8762 4.82332C13.5884 4.31165 13.047 3.995 12.4599 3.995H11.6296Z" fill="currentColor"/>
</svg>
