<?xml version="1.0" encoding="UTF-8"?>
<svg width="16" height="16" viewBox="0 0 16 16" fill="none" xmlns="http://www.w3.org/2000/svg">
  <path fill-rule="evenodd" clip-rule="evenodd" d="M11 1H1V15H11V11.0774L10.304 11.7734L10.0606 12.0168L9.72686 12.1013L8.07 12.5207L6.03678 13.0354L6.55147 11.0022L6.97089 9.34529L7.05537 9.01158L7.29879 8.76816L11 5.06695V1ZM11 6.83481L8.18267 9.65205L8.11201 9.93119L7.76325 11.3089L9.42013 10.8896L15.1299 5.17979L13.8925 3.94235L11 6.83481ZM3.69065 3.375C3.43568 3.375 3.20627 3.52988 3.11096 3.76637C3.01565 4.00286 3.07355 4.27353 3.25726 4.45034C3.42385 4.61065 3.76229 5.05228 3.92798 5.59522C4.08629 6.11396 4.07646 6.67249 3.6635 7.20251C2.1858 9.09905 2.84667 12.0476 5.25161 12.6087L5.53562 11.3913C4.22245 11.085 3.59854 9.31967 4.64953 7.97078C5.37652 7.03772 5.36669 6.0271 5.12355 5.23036C5.05797 5.0155 4.97471 4.81242 4.88223 4.625H8.5V3.375H3.69065Z" fill="currentColor"/>
</svg>
