<?xml version="1.0" encoding="UTF-8"?>
<svg width="16" height="16" viewBox="0 0 16 16" fill="none" xmlns="http://www.w3.org/2000/svg">
  <path fill-rule="evenodd" clip-rule="evenodd" d="M10.75 2.25H2.25V13.75H10.75V11.3275L12 10.0775V13.75V15H10.75H2.25H1V13.75V2.25V1H2.25H10.75H12V2.25V4.06708L10.75 5.31708V2.25ZM10.75 9.55972V7.08485L12 5.83485V8.30972L10.75 9.55972ZM3.92524 4.44931C4.01608 4.20419 4.24987 4.0415 4.51128 4.0415H9.00001V5.2915H5.73823C5.79184 5.40306 5.84056 5.52007 5.88213 5.64169C6.12369 6.3484 6.12896 7.25045 5.417 8.06631C4.60181 9.00046 4.93623 10.2251 5.90418 10.6228L5.42917 11.779C3.61041 11.0318 3.13938 8.77518 4.47518 7.24443C4.82717 6.84107 4.83245 6.43549 4.69932 6.04598C4.5544 5.62198 4.25324 5.26881 4.10396 5.14055C3.90569 4.97018 3.83439 4.69442 3.92524 4.44931Z" fill="currentColor"/>
  <path d="M8.1826 9.65215L13.8924 3.94238L15.1298 5.17982L9.42003 10.8896L7.76318 11.309L8.1826 9.65215Z" fill="currentColor"/>
</svg>
