<?xml version="1.0" encoding="UTF-8"?>
<svg width="16" height="16" viewBox="0 0 16 16" fill="none" xmlns="http://www.w3.org/2000/svg">
  <path fill-rule="evenodd" clip-rule="evenodd" d="M12 2.83325C12 2.00483 11.3284 1.33325 10.5 1.33325H5.5C4.67157 1.33325 4 2.00483 4 2.83325V13.1666C4 13.995 4.67157 14.6666 5.5 14.6666H10.5C11.3284 14.6666 12 13.995 12 13.1666V2.83325ZM7.16667 11.9999C6.9826 11.9999 6.83333 12.1492 6.83333 12.3333C6.83333 12.5173 6.9826 12.6666 7.16667 12.6666H8.83333C9.0174 12.6666 9.16667 12.5173 9.16667 12.3333C9.16667 12.1492 9.0174 11.9999 8.83333 11.9999H7.16667Z" fill="currentColor"/>
</svg>
