<?xml version="1.0" encoding="UTF-8"?>
<svg width="16" height="16" viewBox="0 0 16 16" fill="none" xmlns="http://www.w3.org/2000/svg">
  <path fill-rule="evenodd" clip-rule="evenodd" d="M14.6666 8.00015C14.6666 10.2146 13.8954 12.249 12.6069 13.8492L11.6927 13.1242C12.8231 11.723 13.4999 9.94062 13.4999 8.00015C13.4999 6.01614 12.7925 4.19738 11.616 2.78238L12.5497 2.08081C13.8725 3.6916 14.6666 5.75314 14.6666 8.00015ZM11.9999 8.00015C11.9999 9.58835 11.4445 11.0469 10.5174 12.1921L9.60318 11.467C10.3723 10.521 10.8333 9.31442 10.8333 8.00015C10.8333 6.61722 10.3229 5.3535 9.48018 4.3871L10.415 3.68476C11.4035 4.84768 11.9999 6.35426 11.9999 8.00015ZM9.33325 8.00015C9.33325 8.96215 8.99365 9.84482 8.42778 10.5349L7.51352 9.80975C7.92132 9.31895 8.16658 8.68815 8.16658 8.00015C8.16658 7.21802 7.84965 6.50986 7.33719 5.99716L8.27652 5.29142C8.93258 6.00392 9.33325 6.95522 9.33325 8.00015ZM3.33325 6.00014L6.66658 3.33348V12.6668L3.33325 10.0002H1.33325V6.00014H3.33325Z" fill="currentColor"/>
</svg>
