<?xml version="1.0" encoding="UTF-8"?>
<svg width="16" height="16" viewBox="0 0 16 16" fill="none" xmlns="http://www.w3.org/2000/svg">
  <path fill-rule="evenodd" clip-rule="evenodd" d="M10.5337 12.1719L13.7975 15.4356L14.6224 14.6107L1.39576 1.38403L0.570801 2.20899L3.90479 5.54297L3.33333 6.00013H1.33333V10.0001H3.33333L6.66667 12.6668V8.30488L7.78433 9.42248C7.7048 9.55928 7.61413 9.68875 7.5136 9.80975L8.42787 10.5349C8.4986 10.4486 8.56573 10.3594 8.6292 10.2673L9.7028 11.3409C9.6702 11.3835 9.63707 11.4255 9.60327 11.467L10.5175 12.1921C10.5229 12.1853 10.5283 12.1786 10.5337 12.1719ZM14.6667 8.00015C14.6667 9.65075 14.2382 11.2012 13.4864 12.5465L12.6239 11.684C13.1843 10.5772 13.5 9.32555 13.5 8.00015C13.5 6.01613 12.7925 4.19737 11.6161 2.78237L12.5498 2.08081C13.8726 3.6916 14.6667 5.75314 14.6667 8.00015ZM12 8.00015C12 8.90468 11.8199 9.76715 11.4935 10.5536L10.5836 9.64368C10.7459 9.12468 10.8333 8.57261 10.8333 8.00015C10.8333 6.61721 10.3229 5.3535 9.48027 4.38709L10.415 3.68475C11.4035 4.84767 12 6.35425 12 8.00015ZM9.33333 8.00015C9.33333 8.12688 9.32747 8.25228 9.31593 8.37601L8.01073 7.07081C7.869 6.66243 7.63647 6.29649 7.33727 5.99716L8.2766 5.29141C8.93267 6.00391 9.33333 6.95521 9.33333 8.00015ZM6.66667 3.33347V5.72675L5.33706 4.39715L6.66667 3.33347Z" fill="currentColor"/>
</svg>
