<?xml version="1.0" encoding="UTF-8"?>
<svg width="32" height="32" viewBox="0 0 32 32" xmlns="http://www.w3.org/2000/svg">
    <g id="south-kensington" fill="currentColor" fill-rule="nonzero">
        <path d="M16.604 6v1.14h1.651c.14 0 .254.113.254.252v2.279h.89c.14 0 .253.113.253.253v2.279h.762c.14 0 .254.113.254.253v2.278H11.27v-2.278c0-.14.114-.253.254-.253h.762V9.924c0-.14.114-.253.254-.253h.889V7.392c0-.14.114-.253.254-.253h1.778V6h1.142zm-1.396 2.658H14.7v3.291h.508V8.66zm.762 0h-.508v3.291h.508V8.66zm.761 0h-.508v3.291h.508V8.66zm.762 0h-.508v3.291h.508V8.66zM10.763 17.266V26h-5.08v-8.734h5.08zm-.889 3.038h-1.27v2.658h1.27v-2.658zm-2.031 0h-1.27v2.658h1.27v-2.658zM26.255 17.266V26h-5.08v-8.734h5.08zm-.889 3.038h-1.27v2.658h1.27v-2.658zm-2.031 0h-1.27v2.658h1.27v-2.658zM31.843 17.266V26h-5.08v-8.734h5.08zm-.89 3.038h-1.27v2.658h1.27v-2.658zm-2.031 0h-1.27v2.658h1.27v-2.658zM5.176 17.266V26H.096v-8.734h5.08zm-.889 3.038h-1.27v2.658h1.27v-2.658zm-2.032 0H.985v2.658h1.27v-2.658zM20.795 15.24c.14 0 .254.114.254.254v.253c0 .14-.114.253-.254.253h-.127v10h-2.92v-4.557h-1.27V26h-.762v-4.557h-1.27V26H11.27V16h-.127a.254.254 0 0 1-.254-.253v-.253c0-.14.114-.253.254-.253h9.65zm-4.825 1.773c-1.403 0-2.54 1.246-2.54 2.784h5.08c0-1.538-1.138-2.784-2.54-2.784zM2.682 16.01h8.112v.76H0c.076-.426 1.254-.76 2.682-.76zM29.318 16.01h-8.112v.76H32c-.076-.426-1.254-.76-2.682-.76z"/>
    </g>
</svg>
