<?xml version="1.0" encoding="UTF-8"?>
<svg width="16" height="16" viewBox="0 0 16 16" fill="none" xmlns="http://www.w3.org/2000/svg">
  <path fill-rule="evenodd" clip-rule="evenodd" d="M6.69685 1.37303C6.1425 1.45093 5.75628 1.96347 5.83419 2.5178L5.85589 2.67221C5.93379 3.22655 6.44632 3.61277 7.00065 3.53486C7.55498 3.45695 7.94118 2.94442 7.86332 2.39009L7.84158 2.23567C7.76372 1.68134 7.25118 1.29512 6.69685 1.37303ZM5.82747 4.11363C5.97181 4.04003 6.13667 4.00315 6.30843 4.01352L6.62915 4.03289C6.99499 4.05499 7.26305 4.38625 7.20825 4.74865L6.73552 7.87859L8.58185 7.92732C9.01739 7.93885 9.38732 8.24945 9.47405 8.67645L10.2035 12.2689L9.37312 12.6609L8.31325 9.19299L7.49465 9.25765L7.50165 9.27132L7.28345 9.28652L6.40754 9.34745L5.63448 9.41412C5.01417 9.46759 4.51565 8.91152 4.63625 8.30072L5.14715 5.71323L4.53564 5.94045L4.08235 7.49712L3.35409 7.10792L3.4691 5.92461C3.51106 5.4929 3.77425 5.11397 4.16414 4.92393L5.82747 4.11363ZM2.01463 10.9928C1.80923 9.53125 2.72593 8.17079 4.10848 7.78225L3.95299 8.52292C3.91442 8.70665 3.90787 8.88152 3.92793 9.04512C3.34049 9.41612 2.99257 10.1082 3.09555 10.8409C3.23565 11.8377 4.15732 12.5323 5.15417 12.3921C6.15102 12.2521 6.84552 11.3304 6.70545 10.3335C6.68712 10.2029 6.65534 10.0775 6.61174 9.95852L7.72805 9.88079C7.75245 9.97892 7.77199 10.0793 7.78639 10.1816C8.01039 11.7754 6.89992 13.2491 5.30608 13.4731C3.71226 13.6971 2.23863 12.5866 2.01463 10.9928ZM14.6666 14.6666V12.6666L1.33325 14.6666H14.6666Z" fill="currentColor"/>
</svg>
