<?xml version="1.0" encoding="UTF-8"?>
<svg width="16" height="16" viewBox="0 0 16 16" fill="none" xmlns="http://www.w3.org/2000/svg">
  <path fill-rule="evenodd" clip-rule="evenodd" d="M6.16667 1.75008C6.16667 1.15177 6.65169 0.666748 7.25 0.666748C7.84833 0.666748 8.33333 1.15177 8.33333 1.75008V1.91675C8.33333 2.51505 7.84833 3.00008 7.25 3.00008C6.65169 3.00008 6.16667 2.51505 6.16667 1.91675V1.75008ZM6.96947 3.34083C6.23486 3.28946 5.59772 3.84331 5.54635 4.5779L5.31071 7.94775C5.29234 8.21048 5.36002 8.45935 5.48977 8.66675H7.83333C8.2636 8.66675 8.65893 8.90355 8.86193 9.28288C9.01267 9.56455 9.03927 9.89075 8.94527 10.1866L9.026 10.2171C9.21253 10.2877 9.33927 10.4624 9.34853 10.6617L9.5342 14.681H10.6839L11.0648 10.4793C11.1109 9.97028 10.8621 9.47968 10.4241 9.21628L7.76873 7.61941L7.83767 7.07575C7.90453 7.15348 7.98333 7.22088 8.07167 7.27521L10.3333 8.66675V7.59428L9.23393 6.87681C9.04173 6.75135 8.89853 6.56365 8.82833 6.34515L8.1732 4.30553C8.14813 3.81055 7.75673 3.39588 7.24413 3.36003L6.96947 3.34083ZM4.01019 14.6667H5.21204L6.16667 13.2348L7.12127 14.6667H8.32313L6.7676 12.3334L8.24933 10.1107C8.35167 9.95735 8.3612 9.76008 8.2742 9.59748C8.18713 9.43488 8.01773 9.33342 7.83333 9.33342H4.5C4.3156 9.33342 4.14617 9.43488 4.05917 9.59748C3.97215 9.76008 3.98169 9.95735 4.08397 10.1107L5.56574 12.3334L4.01019 14.6667ZM6.16667 11.432L6.89907 10.3334H5.43426L6.16667 11.432Z" fill="currentColor"/>
</svg>
