<?xml version="1.0" encoding="UTF-8"?>
<svg width="16" height="16" viewBox="0 0 16 16" fill="none" xmlns="http://www.w3.org/2000/svg">
  <path fill-rule="evenodd" clip-rule="evenodd" d="M14.0833 0H15.25L15.0833 2.66667H14.25L14.0833 0ZM15.3333 4C15.3333 4.36819 15.0349 4.66667 14.6667 4.66667C14.2985 4.66667 14 4.36819 14 4C14 3.63181 14.2985 3.33333 14.6667 3.33333C15.0349 3.33333 15.3333 3.63181 15.3333 4ZM4.96615 2.9012L5.24546 0.666667H6.42121L6.1238 3.04591C5.94136 4.50545 5.04154 5.77725 3.72592 6.43507L3.59554 6.50026C2.94965 6.8232 2.54167 7.48333 2.54167 8.20547C2.54167 9.4524 3.62829 10.3184 4.04233 10.4811L3.77387 11.2201L3.47633 11.1209C2.22143 10.7026 1.375 9.5282 1.375 8.20547C1.375 7.04147 2.03266 5.97733 3.07379 5.45676L3.20417 5.39157C4.17089 4.90821 4.83209 3.97368 4.96615 2.9012ZM11.6477 8.9478C11.804 8.97927 11.9351 9.05033 12.0194 9.17067L12.4779 8.9036C11.6126 7.66747 9.7552 7.7526 9.00667 9.06267L8.89593 9.2564C8.4998 9.94967 7.5002 9.94967 7.10407 9.2564L6.99333 9.06267C6.24477 7.7526 4.38737 7.66747 3.52211 8.9036L4.01471 9.17067C4.09311 9.05867 4.2106 8.98933 4.35036 8.95493C4.33917 8.99667 4.33333 9.03953 4.33333 9.08333C4.33333 9.49753 4.85567 9.83333 5.5 9.83333C5.69535 9.83333 5.87947 9.80247 6.04124 9.74793L6.09114 9.83527C6.93513 11.3123 9.06487 11.3123 9.90887 9.83527L9.95873 9.74793C10.1205 9.80247 10.3047 9.83333 10.5 9.83333C11.1443 9.83333 11.6667 9.49753 11.6667 9.08333C11.6667 9.03707 11.6601 8.9918 11.6477 8.9478ZM5.41973 12.2221L4.71523 11.5817L5.16367 11.0883L5.86818 11.7288C6.40466 12.2165 6.40467 13.0602 5.86819 13.5479C5.62835 13.7659 5.62191 14.141 5.85413 14.3672L6.60571 15.0991L6.14059 15.5767L5.38901 14.8448C4.88159 14.3507 4.89567 13.5311 5.41974 13.0546C5.66525 12.8314 5.66525 12.4453 5.41973 12.2221ZM7.77807 12.7918L7.12293 12.2585L7.54373 11.7415L8.19893 12.2748C8.71273 12.693 8.71273 13.4777 8.19893 13.8959C8.01693 14.0441 8.01227 14.3204 8.18913 14.4747L8.88573 15.0821L8.4476 15.5845L7.751 14.9771C7.26253 14.5512 7.27547 13.788 7.77807 13.3789C7.96413 13.2274 7.96413 12.9433 7.77807 12.7918ZM9.40273 11.5817L10.1072 12.2221C10.3527 12.4453 10.3527 12.8314 10.1073 13.0546C9.5832 13.5311 9.56907 14.3507 10.0765 14.8448L10.8281 15.5767L11.2932 15.0991L10.5416 14.3672C10.3094 14.141 10.3159 13.7659 10.5557 13.5479C11.0921 13.0602 11.0921 12.2165 10.5557 11.7288L9.8512 11.0883L9.40273 11.5817ZM10.7545 0.666667L11.0339 2.9012C11.1679 3.97368 11.8291 4.90821 12.7958 5.39157L12.9262 5.45676C13.9673 5.97733 14.625 7.04147 14.625 8.20547C14.625 9.5282 13.7785 10.7026 12.5237 11.1209L12.2261 11.2201L11.9577 10.4811C12.3717 10.3184 13.4583 9.4524 13.4583 8.20547C13.4583 7.48333 13.0503 6.8232 12.4045 6.50026L12.2741 6.43507C10.9585 5.77725 10.0587 4.50545 9.8762 3.04591L9.5788 0.666667H10.7545Z" fill="currentColor"/>
</svg>
