<?xml version="1.0" encoding="UTF-8"?>
<svg width="20" height="20" viewBox="0 0 20 20" fill="none" xmlns="http://www.w3.org/2000/svg">
  <path fill-rule="evenodd" clip-rule="evenodd" d="M17.6042 0H19.0625L18.8542 3.33333H17.8125L17.6042 0ZM19.1667 5C19.1667 5.46023 18.7936 5.83333 18.3333 5.83333C17.8731 5.83333 17.5 5.46023 17.5 5C17.5 4.53977 17.8731 4.16667 18.3333 4.16667C18.7936 4.16667 19.1667 4.53977 19.1667 5ZM6.20768 3.6265L6.55682 0.833333H8.02651L7.65475 3.80738C7.4267 5.63182 6.30193 7.22157 4.6574 8.04383L4.49443 8.12533C3.68707 8.529 3.17708 9.35417 3.17708 10.2568C3.17708 11.8155 4.53537 12.898 5.05291 13.1014L4.71733 14.0251L4.34541 13.9011C2.77679 13.3782 1.71875 11.9102 1.71875 10.2568C1.71875 8.80183 2.54083 7.47166 3.84223 6.82095L4.00522 6.73946C5.21362 6.13526 6.04011 4.9671 6.20768 3.6265ZM14.5596 11.1847C14.755 11.2241 14.9189 11.3129 15.0243 11.4633L15.5973 11.1295C14.5157 9.58433 12.194 9.69075 11.2583 11.3283L11.1199 11.5705C10.6247 12.4371 9.37525 12.4371 8.88008 11.5705L8.74167 11.3283C7.80597 9.69075 5.48421 9.58433 4.40264 11.1295L5.01839 11.4633C5.11638 11.3233 5.26325 11.2367 5.43795 11.1937C5.42396 11.2458 5.41667 11.2994 5.41667 11.3542C5.41667 11.8719 6.06958 12.2917 6.875 12.2917C7.11918 12.2917 7.34934 12.2531 7.55155 12.1849L7.61392 12.2941C8.66892 14.1403 11.3311 14.1403 12.3861 12.2941L12.4484 12.1849C12.6507 12.2531 12.8808 12.2917 13.125 12.2917C13.9304 12.2917 14.5833 11.8719 14.5833 11.3542C14.5833 11.2963 14.5752 11.2397 14.5596 11.1847ZM6.77467 15.2776L5.89404 14.4771L6.45459 13.8604L7.33522 14.661C8.00582 15.2706 8.00583 16.3253 7.33523 16.9348C7.03543 17.2074 7.02738 17.6763 7.31766 17.959L8.25714 18.8739L7.67574 19.4709L6.73626 18.556C6.10199 17.9383 6.11958 16.9138 6.77467 16.3182C7.08157 16.0392 7.08157 15.5566 6.77467 15.2776ZM9.72258 15.9897L8.90367 15.3232L9.42967 14.6768L10.2487 15.3435C10.8909 15.8663 10.8909 16.8471 10.2487 17.3698C10.0212 17.5551 10.0153 17.9005 10.2364 18.0933L11.1072 18.8527L10.5595 19.4807L9.68875 18.7214C9.07817 18.189 9.09433 17.235 9.72258 16.7236C9.95517 16.5343 9.95517 16.1791 9.72258 15.9897ZM11.7534 14.4771L12.634 15.2776C12.9409 15.5566 12.9409 16.0392 12.6341 16.3182C11.979 16.9138 11.9613 17.9383 12.5957 18.556L13.5351 19.4709L14.1165 18.8739L13.177 17.959C12.8867 17.6763 12.8948 17.2074 13.1946 16.9348C13.8652 16.3253 13.8652 15.2706 13.1946 14.661L12.314 13.8604L11.7534 14.4771ZM13.4432 0.833333L13.7923 3.6265C13.9599 4.9671 14.7864 6.13526 15.9948 6.73946L16.1577 6.82095C17.4592 7.47166 18.2812 8.80183 18.2812 10.2568C18.2812 11.9102 17.2232 13.3782 15.6546 13.9011L15.2827 14.0251L14.9471 13.1014C15.4647 12.898 16.8229 11.8155 16.8229 10.2568C16.8229 9.35417 16.3129 8.529 15.5056 8.12533L15.3426 8.04383C13.6981 7.22157 12.5733 5.63182 12.3452 3.80738L11.9735 0.833333H13.4432Z" fill="currentColor"/>
</svg>
