<?xml version="1.0" encoding="UTF-8"?>
<svg width="16" height="16" viewBox="0 0 16 16" fill="none" xmlns="http://www.w3.org/2000/svg">
  <path fill-rule="evenodd" clip-rule="evenodd" d="M1 1H11V3.14485C10.3833 2.89038 9.70748 2.75 8.99889 2.75C6.09939 2.75 3.74889 5.1005 3.74889 8C3.74889 10.8995 6.09939 13.25 8.99889 13.25C9.70748 13.25 10.3833 13.1096 11 12.8552V15H1V1ZM9 10.8064C10.5188 10.8064 11.75 9.57518 11.75 8.0564C11.75 6.53761 10.5188 5.3064 9 5.3064C7.48122 5.3064 6.25 6.53761 6.25 8.0564C6.25 9.57518 7.48122 10.8064 9 10.8064ZM9 12.0564C9.87906 12.0564 10.6919 11.7728 11.352 11.2922L14.0409 13.9811L14.9248 13.0972L12.2359 10.4083C12.7165 9.74819 13 8.93541 13 8.0564C13 5.84726 11.2091 4.0564 9 4.0564C6.79086 4.0564 5 5.84726 5 8.0564C5 10.2655 6.79086 12.0564 9 12.0564Z" fill="currentColor"/>
</svg>
