<?xml version="1.0" encoding="UTF-8"?>
<svg width="16" height="16" viewBox="0 0 16 16" fill="none" xmlns="http://www.w3.org/2000/svg">
  <path fill-rule="evenodd" clip-rule="evenodd" d="M2.49269 6.95532C3.01821 4.39163 5.28896 2.46143 8.01124 2.46143C10.7296 2.46143 12.9964 4.39163 13.521 6.95532H14.9278V9.2338H13.519C12.99 11.793 10.7219 13.7187 8.00674 13.7187C5.29157 13.7187 3.02343 11.793 2.49452 9.2338H1.07227V6.95532H2.49269ZM4.56068 9.2338C5.03935 10.681 6.4017 11.7239 8.00674 11.7239C9.61474 11.7239 10.9774 10.6789 11.4567 9.2338H4.56068ZM11.4595 6.95532H4.55845C5.0351 5.50693 6.3992 4.46072 8.00674 4.46072C9.61789 4.46072 10.9827 5.50693 11.4595 6.95532Z" fill="currentColor"/>
</svg>
