<?xml version="1.0" encoding="UTF-8"?>
<svg width="16px" height="16px" viewBox="0 0 16 16" version="1.1" xmlns="http://www.w3.org/2000/svg" xmlns:xlink="http://www.w3.org/1999/xlink">
    <!-- Generator: Sketch 55.2 (78181) - https://sketchapp.com -->
    <g id="Checkbox-ticked" stroke="none" stroke-width="1" fill="none" fill-rule="evenodd">
        <path d="M6.18614968,9.528026 L6.07953714,9.40399006 C5.62742608,8.87739496 5.14847727,8.31225998 4.67358975,7.74699891 C4.3886273,7.40780661 4.16862773,7.14428787 4.04417176,6.99450394 L1.73675272,8.91174606 C1.76929522,8.95091048 1.76929522,8.95091048 1.91288787,9.12308873 C2.05241032,9.29021079 2.20824878,9.47633444 2.37661167,9.67673767 C2.85787803,10.2495915 3.34347542,10.8225715 3.80335675,11.358217 L3.91218676,11.4848327 C4.48427121,12.1496397 4.96994899,12.7017853 5.34559891,13.1110779 C5.56861311,13.3540649 5.7529461,13.5468845 5.90208223,13.6913466 C5.99997064,13.7861671 6.08714401,13.8647922 6.17396689,13.9336196 C6.2620019,14.0021038 6.2620019,14.0021038 6.40542358,14.0927819 C6.63070786,14.2237867 6.8555524,14.309082 7.19384661,14.309082 C7.76079043,14.309082 7.99569691,14.1446485 8.30097089,13.8349917 C8.37025547,13.7647124 8.42928879,13.6942896 8.49090963,13.6136848 C8.56979263,13.5104998 8.65811118,13.3826303 8.76291763,13.2223264 C8.93988033,12.9516579 9.17275161,12.5741743 9.46058221,12.09322 C9.95920482,11.2600401 10.6166314,10.1265659 11.3956616,8.76172978 L11.5017999,8.57566588 C12.124275,7.48379449 12.7845085,6.31462425 13.4404819,5.14554986 C13.6700308,4.73644817 13.8826712,4.35654399 14.0731329,4.01554178 C14.1875048,3.81077057 14.2689979,3.66459645 14.312766,3.58596318 L11.6914658,2.12692745 C11.6486759,2.20380413 11.5676104,2.34921116 11.4539807,2.55265356 C11.2644397,2.89200738 11.0527494,3.2702142 10.824197,3.67753974 C10.1713095,4.84111458 9.5142899,6.00459357 8.89557946,7.08986146 L8.79021207,7.27457394 C8.06087898,8.55234224 7.44050124,9.62300502 6.96406771,10.4225126 C6.73013451,10.1570882 6.4694284,9.85721809 6.18614968,9.528026 Z" id="Path" fill="currentColor" fill-rule="nonzero"></path>
    </g>
</svg>
