<?xml version="1.0" encoding="UTF-8"?>
<svg width="16" height="16" viewBox="0 0 16 16" fill="none" xmlns="http://www.w3.org/2000/svg">
  <path fill-rule="evenodd" clip-rule="evenodd" d="M13.25 8.19287C13.25 11.0924 10.8995 13.4429 8 13.4429C5.10051 13.4429 2.75 11.0924 2.75 8.19287C2.75 5.29338 5.10051 2.94287 8 2.94287C10.8995 2.94287 13.25 5.29338 13.25 8.19287ZM14.5 8.19287C14.5 11.7827 11.5899 14.6929 8 14.6929C4.41015 14.6929 1.5 11.7827 1.5 8.19287C1.5 4.60302 4.41015 1.69287 8 1.69287C11.5899 1.69287 14.5 4.60302 14.5 8.19287ZM7.01815 10.8605L4.58186 9.07037L5.32201 8.06306L7.23776 9.4707L10.165 5.19846L11.1962 5.90499L7.90381 10.7101L7.5387 11.243L7.01815 10.8605Z" fill="currentColor"/>
</svg>
