<?xml version="1.0" encoding="UTF-8"?>
<svg width="100px" height="100px" viewBox="0 0 100 100" version="1.1" xmlns="http://www.w3.org/2000/svg" xmlns:xlink="http://www.w3.org/1999/xlink">
    <!-- Generator: Sketch 42 (36781) - http://www.bohemiancoding.com/sketch -->
    <defs></defs>
    <g id="Page-1" stroke="none" stroke-width="1" fill="none" fill-rule="evenodd">
        <g id="ticket" fill="currentColor" fill-rule="nonzero">
            <path d="M56.22986,28.3077 L52.70872,31.82786 L57.83706,36.95522 L61.35722,33.43506 L56.22986,28.3077 L56.22986,28.3077 Z M66.51496,38.59378 L62.99578,42.11296 L68.12314,47.24032 L71.6433,43.72016 L66.51496,38.59378 L66.51496,38.59378 Z M63.16042,1 L73.87868,11.71728 C70.40164,15.7294 70.5702,21.8054 74.38338,25.61858 C78.19558,29.43078 84.27158,29.59836 88.28468,26.1223 L99,36.83958 L81.88136,53.9592 L76.80104,48.8779 L73.2799,52.39806 L78.36022,57.47838 L36.83958,99 L26.02724,88.18668 C28.79378,84.20592 28.40374,78.69342 24.85614,75.1468 C21.30462,71.59626 15.79408,71.20622 11.81332,73.97374 L1,63.16042 L42.52162,21.63978 L47.55294,26.6711 L51.07212,23.15094 L46.0408,18.11962 L63.16042,1 L63.16042,1 Z"></path>
        </g>
    </g>
</svg>
