<?xml version="1.0" encoding="UTF-8"?>
<svg width="16" height="16" viewBox="0 0 16 16" fill="none" xmlns="http://www.w3.org/2000/svg">
  <path d="M13.9079 6.72593C13.7941 6.73657 13.6802 6.74296 13.5664 6.74296C12.3143 6.74296 11.1482 6.11727 10.4631 5.08083V10.7419C10.4631 13.0531 8.57317 14.9259 6.24083 14.9259C3.90848 14.9259 2.01855 13.0531 2.01855 10.7419C2.01855 8.43062 3.90848 6.5578 6.24083 6.5578C6.32888 6.5578 6.41478 6.56632 6.50284 6.57057V8.6328C6.41693 8.62216 6.33103 8.60726 6.24083 8.60726C5.05103 8.60726 4.08674 9.56283 4.08674 10.7419C4.08674 11.9209 5.05103 12.8764 6.24083 12.8764C7.43062 12.8764 8.48297 11.9464 8.48297 10.7674L8.50444 1.1543H10.4953C10.6821 2.92283 12.1232 4.30404 13.9122 4.43386L13.9079 6.72593Z" fill="currentColor"/>
</svg>
