<?xml version="1.0" encoding="UTF-8"?>
<svg width="16" height="16" viewBox="0 0 16 16" fill="none" xmlns="http://www.w3.org/2000/svg">
  <path fill-rule="evenodd" clip-rule="evenodd" d="M8 1C7.30964 1 6.75 1.55964 6.75 2.25C6.75 2.94036 7.30964 3.5 8 3.5C8.69036 3.5 9.25 2.94036 9.25 2.25C9.25 1.55964 8.69036 1 8 1ZM6.30819 6.24481L5.33521 8.83945L4.16479 8.40054L5.42147 5.04942C5.65931 4.41518 6.26563 3.995 6.943 3.995H8H9.057C9.73438 3.995 10.3407 4.41518 10.5785 5.04942L11.8352 8.40054L10.6648 8.83945L9.69182 6.24484L9.38144 8.62439L9.97351 15H8.71047L8.00001 9.62074L7.28954 15H6.02651L6.61857 8.62439L6.30819 6.24481Z" fill="currentColor"/>
</svg>
