<?xml version="1.0" encoding="UTF-8"?>
<svg width="16" height="16" viewBox="0 0 16 16" fill="none" xmlns="http://www.w3.org/2000/svg">
  <path fill-rule="evenodd" clip-rule="evenodd" d="M6.75005 2.25C6.75005 1.55964 7.3097 1 8.00005 1C8.69041 1 9.25005 1.55964 9.25005 2.25C9.25005 2.94036 8.69041 3.5 8.00005 3.5C7.3097 3.5 6.75005 2.94036 6.75005 2.25ZM6.16859 4.82332C6.45641 4.31165 6.99783 3.995 7.5849 3.995H8.41521C9.00228 3.995 9.5437 4.31165 9.83152 4.82332L11.7948 8.31358L10.7054 8.92641L9.38314 6.57586C9.38011 6.58583 9.37694 6.5958 9.37362 6.60576L9.07376 7.50533L10.2501 11.74H9.61396L10.095 15H8.83141L8.35043 11.74H7.6497L7.16871 15H5.90518L6.38617 11.74H5.75005L6.92635 7.5053L6.62651 6.60576C6.62318 6.59579 6.62001 6.58582 6.61698 6.57585L5.29479 8.92641L4.20532 8.31358L6.16859 4.82332Z" fill="currentColor"/>
</svg>
