<?xml version="1.0" encoding="UTF-8"?>
<svg width="100px" height="100px" viewBox="0 0 100 100" version="1.1" xmlns="http://www.w3.org/2000/svg" xmlns:xlink="http://www.w3.org/1999/xlink">
    <!-- Generator: Sketch 42 (36781) - http://www.bohemiancoding.com/sketch -->
    <title>Twitter</title>
    <desc>Created with Sketch.</desc>
    <defs></defs>
    <g id="Page-1" stroke="none" stroke-width="1" fill="none" fill-rule="evenodd">
        <g id="Twitter" fill-rule="nonzero" fill="currentColor">
            <path d="M32.3632,87.4354286 C67.2258,87.4354286 86.2908,58.5343347 86.2908,33.4723265 C86.2908,32.6514335 86.274091,31.8342629 86.237294,31.0207837 C89.938074,28.3436604 93.154634,25.0028245 95.691674,21.1997224 C92.295624,22.7102302 88.641034,23.7270792 84.807264,24.1855918 C88.720394,21.8375641 91.724604,18.1232735 93.141924,13.6954204 C89.479894,15.8678106 85.424474,17.4467184 81.106484,18.2991592 C77.647814,14.6126939 72.723774,12.3069469 67.271494,12.3069469 C56.804654,12.3069469 48.316854,20.8006449 48.316854,31.2703429 C48.316854,32.75864 48.483138,34.2063004 48.808328,35.594898 C33.055678,34.8017371 19.087388,27.254751 9.739028,15.7790612 C8.11128,18.5818792 7.172693,21.8376571 7.172693,25.3116327 C7.172693,31.8916816 10.518833,37.7005633 15.607173,41.098849 C12.497563,41.0027105 9.576433,40.1485388 7.023273,38.7267804 C7.020483,38.806354 7.020483,38.8839329 7.020483,38.9689784 C7.020483,48.1541213 13.553733,55.8229866 22.226293,57.5607499 C20.633637,57.9952217 18.957963,58.228185 17.228473,58.228185 C16.009057,58.228185 14.821013,58.1080864 13.666263,57.886154 C16.079241,65.4219417 23.076313,70.9057295 31.371913,71.0589703 C24.884853,76.1469376 16.712943,79.1773213 7.831443,79.1773213 C6.303453,79.1773213 4.79397,79.0903525 3.310403,78.9147832 C11.698693,84.2949628 21.658993,87.4342281 32.364223,87.4342281" id="twitter"></path>
        </g>
    </g>
</svg>
