<?xml version="1.0" encoding="UTF-8"?>
<svg width="16" height="16" viewBox="0 0 16 16" fill="none" xmlns="http://www.w3.org/2000/svg">
  <path fill-rule="evenodd" clip-rule="evenodd" d="M8.17057 2C10.9313 2 13.4471 3.0488 15.3411 4.76969L14.4351 5.97459C12.7962 4.43975 10.5931 3.5 8.17057 3.5C5.74802 3.5 3.54495 4.43975 1.90604 5.97459L1 4.76969C2.89409 3.0488 5.40985 2 8.17057 2ZM8.17057 5.33334C10.18 5.33334 12.0006 6.14153 13.3252 7.45059L12.4133 8.66328C11.3497 7.53654 9.84227 6.83334 8.17057 6.83334C6.49886 6.83334 4.99139 7.53654 3.92783 8.66328L3.01593 7.45058C4.3405 6.14153 6.16115 5.33334 8.17057 5.33334ZM8.17057 8.66667C9.43066 8.66667 10.5547 9.24934 11.2879 10.16L10.339 11.4217C9.9075 10.6717 9.09801 10.1667 8.17057 10.1667C7.24312 10.1667 6.43364 10.6717 6.0021 11.4217L5.05328 10.16C5.78647 9.24934 6.91047 8.66667 8.17057 8.66667ZM8.17057 14.3333C8.72285 14.3333 9.17057 13.8856 9.17057 13.3333C9.17057 12.7811 8.72285 12.3333 8.17057 12.3333C7.61828 12.3333 7.17057 12.7811 7.17057 13.3333C7.17057 13.8856 7.61828 14.3333 8.17057 14.3333Z" fill="currentColor"/>
</svg>
