<?xml version="1.0" encoding="UTF-8"?>
<svg width="500px" height="287px" viewBox="0 0 500 287" version="1.1" xmlns="http://www.w3.org/2000/svg" xmlns:xlink="http://www.w3.org/1999/xlink">
    <!-- Generator: Sketch 42 (36781) - http://www.bohemiancoding.com/sketch -->
    <title>valogo</title>
    <desc>Created with Sketch.</desc>
    <defs></defs>
    <g id="Page-1" stroke="none" stroke-width="1" fill="none" fill-rule="evenodd">
        <g id="valogo" fill="currentColor" fill-rule="nonzero">
            <path d="M496.858801,279.870418 C496.402321,279.796976 494.890716,279.631734 492.524178,279.440401 C480.938104,278.508859 468.276596,276.148114 460.747582,256.646609 C458.331721,250.39832 363.194391,3.99287542 362.5706,2.35011448 C361.854932,0.468670034 360.069632,0.518919192 359.443907,2.4119596 C358.909091,4.03249495 333.694391,78.723037 333.694391,78.723037 L399.320116,259.165832 C400.470986,262.517064 401.592843,265.833508 401.592843,268.381721 C401.592843,271.60733 399.414894,275.303542 395.741779,277.038104 C392.843327,278.404495 387.325919,279.131175 383.079304,279.485818 C381.741779,279.59598 380.599613,279.711939 379.391683,279.887811 C378.062863,280.081077 377.528046,281.221347 377.528046,282.22633 C377.528046,283.455502 378.450677,284.342593 379.800774,284.342593 L497.007737,284.342593 C497.991296,284.342593 499.033849,283.431343 499.033849,282.36838 C499.033849,280.557478 497.941006,280.049189 496.859768,279.870418 L496.858801,279.870418 Z M232.454545,13.1826734 C235.902321,11.1562795 240.419729,10.1870505 249.556093,9.69422222 C250.84913,9.62464646 251.855899,8.91149495 251.855899,7.60888215 C251.855899,6.23379461 250.794004,5.47619192 249.797872,5.47619192 L194.377176,5.45686532 C193.081238,5.45686532 191.582205,5.84726263 191.582205,7.58279125 C191.582205,8.46215152 191.94971,9.45263973 193.651838,9.67972727 C194.938104,9.84883502 197.884913,10.0314714 201.17118,10.2614579 C209.097679,10.815165 212.144101,11.6404108 214.420696,14.9143367 C216.558027,17.990165 215.409091,23.4537946 213.000967,29.95333 C210.60058,36.4277407 146.808511,199.83897 146.808511,199.83897 L146.551257,199.83897 C145.783366,197.450202 95.2485493,38.6947508 93.0560928,31.8405724 C90.8655706,24.9844613 89.9854932,20.1576431 91.1160542,17.5079663 C93.1798839,12.6724512 97.2901354,10.9736431 107.541586,10.2682222 C108.94971,10.1715892 109.601547,10.1194074 110.88588,10.0092458 C112.234043,9.8932862 113,8.71049832 112.709865,7.26486869 C112.408124,5.75739394 111.529981,5.44623569 109.878143,5.44623569 L3.14023211,5.453 C2.15860735,5.453 1.08027079,6.10720539 0.97582205,7.46296633 C0.891682785,8.53559259 1.39458414,9.13858249 2.03965184,9.4323468 C2.66827853,9.71741414 4.54255319,9.96092929 8.0589942,10.2102424 C15.8704062,10.7610505 18.3945841,11.4249192 21.2823985,12.8048384 C27.1411992,15.60333 31.1518375,23.1059158 33.1528046,29.09233 C35.1547389,35.0777778 118.06383,284.145461 118.326886,284.904997 C118.72824,286.070391 120.413926,286.112909 120.918762,284.930121 C121.4294,283.72704 224.200193,25.9865455 225.675048,22.394697 C226.941973,19.3121044 228.979691,15.2274276 232.454545,13.1855724 L232.454545,13.1826734 Z M358.779497,262.21267 C356.516441,261.507249 355.106383,262.915192 353.445841,266.839458 C351.519342,271.388939 347.365571,272.621976 343.371373,272.621976 C335.901354,272.621976 328.381044,264.072855 322.795938,255.372987 C322.490329,254.894653 319.319149,249.925785 314.556093,242.455088 C326.680851,225.616788 333.59381,205.905589 336.764023,192.892024 C337.856867,188.404387 339.471954,181.622684 341.88588,178.806798 C345.232108,174.90669 348.890716,173.781882 354.175048,173.2533 C356.467118,173.024279 357.485493,172.913152 358.345261,172.660939 C359.537718,172.309195 359.882979,171.179556 359.774662,170.35431 C359.610251,169.112576 358.730174,168.566599 357.79207,168.566599 L311.608317,168.558869 C310.0706,168.558869 309.374275,169.547424 309.374275,170.733111 C309.374275,171.846323 310.104449,172.472505 311.15764,172.725684 C311.887814,172.901556 313.192456,173.03201 314.078337,173.078394 C319.865571,173.377956 324.09381,174.032162 326.733075,175.787017 C330.988395,178.615465 330.575435,183.031593 329.769826,189.049896 C327.964217,202.491545 321.133462,222.306141 311.199226,237.19632 C293.126692,208.856761 260.330754,157.421916 260.330754,157.421916 C260.330754,157.421916 273.909091,150.375438 283.125725,145.079949 C292.119923,139.912983 305.882012,129.524936 305.882012,112.538788 C305.882012,102.466731 300.111219,94.6423569 292.212766,89.4241751 C284.092843,84.0610438 271.930368,79.7705387 258.123791,79.7705387 C240.912959,79.7705387 222.512573,86.0835724 212.54352,101.886933 C202.913926,117.147215 205.400387,139.431751 216.729207,158.069357 C219.790135,163.103936 223.148936,168.191663 223.148936,168.191663 C219.122824,169.631495 214.125725,171.798007 209.911025,173.71134 C187.011605,184.338071 167.578337,204.174892 167.578337,231.39834 C167.578337,261.681189 190.117988,286.034636 231.665377,286.034636 C254.320116,286.034636 272.990329,278.851906 287.871373,268.22904 C294.730174,277.525135 307.426499,284.502037 325.672147,284.502037 C342.983559,284.502037 356.692456,274.432879 360.239845,266.186219 C360.844294,264.778276 360.477756,262.742219 358.779497,262.214603 L358.779497,262.21267 Z M238.733075,92.2361953 C242.311412,87.0953199 247.66441,84.9722929 254.837524,84.9722929 C264.584139,84.9722929 276.502901,94.0635253 276.502901,117.009997 C276.502901,131.433438 269.206963,145.292542 257.475822,153.005788 C257.475822,153.005788 247.359768,137.389896 241.559961,126.489694 C236.482592,116.940421 231.814313,102.174899 238.733075,92.2361953 L238.733075,92.2361953 Z M203.294971,215.172694 C203.294971,201.493327 208.095745,183.668404 225.611219,172.437717 L225.632495,172.470572 L225.611219,172.437717 L225.66441,172.520822 C225.693424,172.564306 225.732108,172.627118 225.784333,172.704424 C263.983559,231.582909 266.111219,234.968929 284.681818,263.446673 C276.519342,268.864886 267.467118,272.119485 258.416828,272.119485 C227.475822,272.119485 203.294004,243.43398 203.294004,215.17366 L203.294971,215.172694 Z"></path>
        </g>
    </g>
</svg>
