<?xml version="1.0" encoding="UTF-8"?>
<svg width="500px" height="287px" viewBox="0 0 500 287" version="1.1" xmlns="http://www.w3.org/2000/svg" xmlns:xlink="http://www.w3.org/1999/xlink">
    <!-- Generator: Sketch 42 (36781) - http://www.bohemiancoding.com/sketch -->
    <title>valogo-clipped</title>
    <desc>Created with Sketch.</desc>
    <defs></defs>
    <g id="Page-1" stroke="none" stroke-width="1" fill="none" fill-rule="evenodd">
        <g id="valogo-clipped" fill="currentColor" fill-rule="nonzero">
            <path d="M497.821473,282.236184 C498.90789,282.416768 500.004015,282.931335 500.004015,284.763389 C500.004015,285.434268 499.597216,286.044952 499.052551,286.410004 L378.984603,286.410004 C378.385569,286.037185 378.025372,285.395432 378.025372,284.620669 C378.025372,283.603185 378.563241,282.450749 379.897232,282.254631 C381.109863,282.07793 382.256474,281.960454 383.600174,281.847831 C387.862344,281.489576 393.402194,280.753648 396.310955,279.371113 C399.999334,277.615759 402.184788,273.875923 402.184788,270.610849 C402.184788,268.032187 401.060508,264.67585 399.902246,261.287473 L334.021138,78.6860169 C334.021138,78.6860169 359.33299,3.10386077 359.870859,1.46404187 C360.498048,-0.45150739 362.291266,-0.502964112 363.008748,1.40190545 C363.637879,3.06405463 459.143495,252.412645 461.568757,258.735026 C469.12707,278.469164 481.837851,280.858503 493.469012,281.801229 C495.84573,281.995405 497.363217,282.162397 497.821473,282.236184 Z M359.206582,264.366915 C360.91145,264.901871 361.280384,266.963052 360.672613,268.387336 C357.580355,275.633025 346.790949,284.260278 332.626758,286.408839 L317.853825,286.408839 C303.8508,284.651543 293.837128,278.400037 288.020577,270.453372 C277.80302,277.804886 265.803895,283.52532 251.96592,286.408839 L212.001524,286.408839 C182.858573,279.899078 167.25942,258.615413 167.258449,233.18123 C167.258449,205.633437 186.768313,185.559491 209.755875,174.806007 C213.987948,172.869098 219.004493,170.677819 223.046272,169.219554 C223.046272,169.219554 219.675372,164.07097 216.601561,158.975783 C205.228655,140.11641 202.732518,117.565744 212.397644,102.122903 C222.407432,86.1305423 240.878453,79.741171 258.157232,79.741171 C272.017537,79.741171 284.227343,84.0839241 292.379835,89.5121227 C300.309024,94.7917765 306.102275,102.711257 306.102275,112.903571 C306.102275,130.093029 292.285659,140.604763 283.257432,145.833931 C274.002989,151.194168 260.372784,158.324322 260.372784,158.324322 C260.372784,158.324322 293.296347,210.374252 311.441152,239.05215 C321.414047,223.984069 328.270412,203.931482 330.082077,190.330402 C330.891793,184.241034 331.30733,179.771095 327.035451,176.908936 C324.385915,175.134165 320.13928,174.472994 314.329525,174.167167 C313.441168,174.120564 312.131449,173.987554 311.398433,173.810853 C310.340172,173.55357 309.608128,172.919584 309.608128,171.793361 C309.608128,170.593352 310.307162,169.593344 311.849893,169.593344 C313.14602,169.593344 357.272586,169.602082 358.21337,169.602082 C359.154154,169.602082 360.039598,170.155484 360.204648,171.410834 C360.313386,172.244821 359.966782,173.389491 358.767743,173.744833 C357.904629,174.000175 356.884233,174.112797 354.582273,174.344838 C349.277376,174.878823 345.604531,176.017667 342.24431,179.965271 C339.819048,182.813838 338.200589,189.676999 337.102522,194.217812 C333.919001,207.388791 326.97914,227.334581 314.806227,244.374523 C319.589761,251.933806 322.77134,256.962002 323.08008,257.445501 C328.688862,266.250425 336.237466,274.90098 343.736555,274.90098 C347.746296,274.90098 351.916232,273.654368 353.851199,269.049477 C355.518203,265.078571 356.932777,263.655259 359.206582,264.366915 Z M258.450438,274.391267 C267.535948,274.391267 276.623399,271.098037 284.81861,265.615469 C266.174772,236.797763 264.039803,233.370552 225.689983,173.789494 C225.638526,173.709882 225.59872,173.647745 225.570564,173.603085 C225.552118,173.574929 225.535613,173.547744 225.517166,173.519589 C207.93256,184.883757 203.114075,202.922736 203.114075,216.763623 C203.114075,245.361909 227.389025,274.391267 258.450438,274.391267 Z M238.688145,92.3597182 C231.742458,102.41708 236.428903,117.358947 241.527002,127.02116 C247.348408,138.053287 257.5048,153.856325 257.5048,153.856325 C269.282563,146.050438 276.605923,132.026054 276.605923,117.429821 C276.605923,94.2082767 264.64175,85.0091742 254.857206,85.0091742 C247.655206,85.0091742 242.281377,87.157735 238.688145,92.3597182 Z M232.389745,12.3605365 C228.899426,14.4285142 226.853778,18.5615569 225.582895,21.6809992 C224.149873,25.1975321 127.586967,269.311129 120.793709,286.409324 L117.510188,286.409324 C112.041212,269.876182 34.2512715,34.3141097 32.3104794,28.4596941 C30.3017255,22.4033351 26.2754798,14.8100706 20.3938795,11.9780092 C17.4948272,10.5818816 14.9617973,9.91100244 7.11998721,9.35274556 C3.58889109,9.10031636 1.70732268,8.85371245 1.07819145,8.56438975 C0.429642589,8.26730001 -0.0752158057,7.65564464 0.00925088732,6.57116998 C0.114106092,5.19931437 1.19566812,4.53717317 2.18111287,4.53717317 C2.65975746,4.53717317 108.576136,4.530377 109.335365,4.530377 C110.994602,4.530377 111.875192,4.84785526 112.178107,6.37213926 C112.4684,7.83622861 111.699462,9.03332553 110.346053,9.14983132 C109.058664,9.26051181 108.402348,9.31293941 106.988745,9.41099845 C96.6964297,10.1255673 92.5701832,11.8440276 90.4992929,16.7372705 C89.3633616,19.4169035 90.2458929,24.3033502 92.4468813,31.2393279 C94.6478697,38.1762764 145.378371,198.828043 146.150222,201.24748 L146.407506,201.24748 C146.407506,201.24748 210.447822,35.8859669 212.85755,29.3325165 C215.276016,22.756736 216.427482,17.2256239 214.281834,14.1139486 C211.99832,10.8003299 208.940043,9.96634268 200.982698,9.40420228 C197.683643,9.17119071 194.726338,8.98672322 193.433124,8.81390631 C191.724372,8.58574915 191.35835,7.58379941 191.35835,6.69253017 C191.35835,4.93717636 192.861274,4.54299846 194.162256,4.54299846 C195.464208,4.54299846 248.797643,4.56241609 249.799593,4.56241609 C250.7996,4.56241609 251.865628,5.3294125 251.865628,6.72068573 C251.865628,8.03817197 250.85397,8.76147871 249.556872,8.83138218 C240.385925,9.32750264 235.850938,10.3100347 232.389745,12.3605365 Z"></path>
        </g>
    </g>
</svg>
