<?xml version="1.0" encoding="UTF-8"?>
<svg width="16" height="16" viewBox="0 0 16 16" fill="none" xmlns="http://www.w3.org/2000/svg">
  <path fill-rule="evenodd" clip-rule="evenodd" d="M9.15655 3.8392C8.75738 4.15629 8.48849 4.60887 8.40091 5.11108L8.2625 5.90477C8.25698 5.93646 8.25178 5.96821 8.24691 6H8.33332H9.50171L9.32134 7.15438L9.15467 8.22104L9.15244 8.2353L9.14981 8.24948L8.63834 11L9.14981 13.7505L9.15244 13.7647L9.15467 13.779L9.18219 13.9551C9.29202 13.9844 9.40741 14 9.52646 14H12.3598C13.0961 14 13.6931 13.403 13.6931 12.6666V6.70648C13.6931 6.43775 13.6699 6.16951 13.6237 5.90477L13.4853 5.11108C13.3977 4.60887 13.1288 4.15629 12.7297 3.8392C12.2327 3.44444 11.9431 2.84448 11.9431 2.20983V1H11.6306H11.1931H10.6931H10.2556H9.94312V2.20983C9.94312 2.84448 9.65349 3.44444 9.15655 3.8392ZM8.33332 7L8.16667 8.06667L7.62122 11L8.16667 13.9333L8.33334 15H2L2.16667 13.9333L2.71213 11L2.16667 8.06667L2 7H8.19312H8.33332ZM10.9431 3.47591C10.7295 3.99571 10.3851 4.45965 9.93402 4.81797C9.77462 4.94458 9.6673 5.1253 9.63233 5.32582L9.51476 6H12.3715L12.2539 5.32582C12.2189 5.1253 12.1116 4.94458 11.9522 4.81797C11.5011 4.45965 11.1567 3.99571 10.9431 3.47591ZM6.66666 11C6.66666 11.8284 5.99509 12.5 5.16666 12.5C4.33823 12.5 3.66666 11.8284 3.66666 11C3.66666 10.1716 4.33823 9.50002 5.16666 9.50002C5.99509 9.50002 6.66666 10.1716 6.66666 11Z" fill="currentColor"/>
</svg>
