<?xml version="1.0" encoding="UTF-8"?>
<svg width="100px" height="100px" viewBox="0 0 100 100" version="1.1" xmlns="http://www.w3.org/2000/svg">
 <!-- Generator: Sketch 49.3 (51167) - http://www.bohemiancoding.com/sketch -->
  <title>View</title>
  <desc>Created with Sketch.</desc>
  <defs></defs>
  <g id="Page-1" stroke="none" stroke-width="1" fill="none" fill-rule="evenodd">
    <g id="view" fill="currentColor" fill-rule="nonzero">
      <path d="m53.930411,26.399778c1.820665,-3.771506 5.681496,-6.373479 10.150049,-6.373479c3.566112,0 6.745178,1.657138 8.80915,4.243367l17.141676,16.633213c5.429659,3.881863 8.968715,10.238773 8.968715,17.422271c0,11.820164 -9.582136,21.402299 -21.402299,21.402299c-11.7336,0 -21.261831,-9.442302 -21.400761,-21.142969l-1.753971,-13.024098c-0.86255,1.565903 -2.528862,2.626837 -4.442969,2.626837c-2.095816,0 -3.894558,-1.27193 -4.666413,-3.085977l-1.542892,14.002622c-0.409842,11.459444 -9.828919,20.623584 -21.388397,20.623584c-11.820162,0 -21.402299,-9.582135 -21.402299,-21.402299c0,-7.154855 3.510888,-13.489698 8.903853,-17.375716l17.093274,-16.53546c2.059887,-2.668732 5.290409,-4.387675 8.922414,-4.387675c4.468553,0 8.329384,2.601973 10.150049,6.373479c0.929494,-1.139837 2.344948,-1.867731 3.930411,-1.867731c1.585463,0 3.000917,0.727895 3.930411,1.867733l0,-0.000002zm-3.930411,18.40813c1.555285,0 2.816093,-1.260808 2.816093,-2.816091c0,-1.555285 -1.260808,-2.816093 -2.816093,-2.816093c-1.555285,0 -2.816093,1.260808 -2.816093,2.816093c0,1.555283 1.260808,2.816091 2.816093,2.816091zm28.16092,28.16092c7.776424,0 14.08046,-6.304036 14.08046,-14.08046c0,-7.776424 -6.304036,-14.08046 -14.08046,-14.08046c-7.776424,0 -14.08046,6.304036 -14.08046,14.08046c0,7.776424 6.304036,14.08046 14.08046,14.08046zm-56.321839,1.126437c7.776424,0 14.08046,-6.304036 14.08046,-14.08046c0,-7.776424 -6.304036,-14.08046 -14.08046,-14.08046c-7.776424,0 -14.08046,6.304036 -14.08046,14.08046c0,7.776424 6.304036,14.08046 14.08046,14.08046zm-8.327045,-10.484309c-3.177524,-3.407477 -2.99111,-8.745674 0.416366,-11.923196c3.407477,-3.177524 8.745674,-2.99111 11.923196,0.416366c0.207089,0.222076 -5.899931,0.036073 -8.898148,2.827601c-3.171185,2.95257 -3.254415,8.879762 -3.441414,8.679229zm57.448275,0c-3.177522,-3.407477 -2.991109,-8.745674 0.416368,-11.923196c3.407477,-3.177524 8.745672,-2.99111 11.923196,0.416366c0.207089,0.222076 -5.899931,0.036073 -8.898148,2.827601c-3.171185,2.95257 -3.254415,8.879762 -3.441416,8.679229z"/>
    </g>
  </g>
</svg>