<?xml version="1.0" encoding="UTF-8"?>
<svg width="587px" height="358px" viewBox="0 0 587 358" version="1.1" xmlns="http://www.w3.org/2000/svg" xmlns:xlink="http://www.w3.org/1999/xlink">
    <!-- Generator: Sketch 49.3 (51167) - http://www.bohemiancoding.com/sketch -->
    <title>Combined Shape</title>
    <desc>Created with Sketch.</desc>
    <defs></defs>
    <g id="Page-1" stroke="none" stroke-width="1" fill="none" fill-rule="evenodd">
      <g id="view" fill="currentColor">
        <path d="M317.042357,38.1758448 C327.947773,15.5852912 351.073357,-2.84217094e-14 377.83908,-2.84217094e-14 C399.199362,-2.84217094e-14 418.24132,9.92592269 430.60409,25.4169025 L533.279231,125.046451 C565.801777,148.298023 587,186.374606 587,229.402299 C587,300.202665 529.604963,357.597701 458.804598,357.597701 C388.522732,357.597701 331.45057,301.040242 330.618413,230.955626 L320.112477,152.943941 C314.945978,162.323378 304.965108,168.678161 293.5,168.678161 C280.946486,168.678161 270.172391,161.059563 265.549136,150.193789 L256.307527,234.066636 C253.852663,302.706369 197.434311,357.597701 128.195402,357.597701 C57.3950366,357.597701 0,300.202665 0,229.402299 C0,186.546179 21.0295041,148.601763 53.3322578,125.325305 L155.71748,26.2812793 C168.055775,10.2961243 187.405953,-2.84217094e-14 209.16092,-2.84217094e-14 C235.926643,-2.84217094e-14 259.052227,15.5852912 269.957643,38.1758448 C275.525121,31.348447 284.003401,26.9885057 293.5,26.9885057 C302.996599,26.9885057 311.474879,31.348447 317.042362,38.1758505 Z M293.5,148.436782 C302.815838,148.436782 310.367816,140.884803 310.367816,131.568966 C310.367816,122.253128 302.815838,114.701149 293.5,114.701149 C284.184162,114.701149 276.632184,122.253128 276.632184,131.568966 C276.632184,140.884803 284.184162,148.436782 293.5,148.436782 Z M462.178161,317.114943 C508.757349,317.114943 546.517241,279.35505 546.517241,232.775862 C546.517241,186.196674 508.757349,148.436782 462.178161,148.436782 C415.598973,148.436782 377.83908,186.196674 377.83908,232.775862 C377.83908,279.35505 415.598973,317.114943 462.178161,317.114943 Z M124.821839,323.862069 C171.401027,323.862069 209.16092,286.102176 209.16092,239.522989 C209.16092,192.943801 171.401027,155.183908 124.821839,155.183908 C78.2426511,155.183908 40.4827586,192.943801 40.4827586,239.522989 C40.4827586,286.102176 78.2426511,323.862069 124.821839,323.862069 Z M74.9445362,261.063195 C55.911822,240.653108 57.0284034,208.6784 77.4384906,189.645686 C97.8485777,170.612971 129.823286,171.729553 148.856,192.13964 C150.096422,193.469829 113.516621,192.355712 95.5579124,209.076387 C76.5631588,226.761684 76.0646328,262.264352 74.9445362,261.063195 Z M419.047984,261.063195 C400.01527,240.653108 401.131852,208.6784 421.541939,189.645686 C441.952026,170.612971 473.926734,171.729553 492.959448,192.13964 C494.19987,193.469829 457.620069,192.355712 439.661361,209.076387 C420.666607,226.761684 420.168081,262.264352 419.047984,261.063195 Z" id="Combined-Shape" fill="#000000"></path>
      </g>
    </g>
</svg>