<?xml version="1.0" encoding="UTF-8"?>
<svg width="16" height="16" viewBox="0 0 16 16" fill="none" xmlns="http://www.w3.org/2000/svg">
  <path fill-rule="evenodd" clip-rule="evenodd" d="M15.6667 8C15.6667 8 13.6667 13 8.33333 13C3 13 1 8 1 8C1 8 3.33333 3 8.33333 3C13.3334 3 15.6667 8 15.6667 8ZM10.4167 7.98739C10.4167 9.13798 9.48392 10.0708 8.33333 10.0708C7.18274 10.0708 6.25 9.13798 6.25 7.98739C6.25 6.83679 7.18274 5.90405 8.33333 5.90405C9.48392 5.90405 10.4167 6.83679 10.4167 7.98739ZM11.6667 7.98739C11.6667 9.82834 10.1743 11.3208 8.33333 11.3208C6.49238 11.3208 5 9.82834 5 7.98739C5 6.14644 6.49238 4.65405 8.33333 4.65405C10.1743 4.65405 11.6667 6.14644 11.6667 7.98739Z" fill="currentColor"/>
</svg>
