<?xml version="1.0" encoding="UTF-8"?>
<svg width="100px" height="100px" viewBox="0 0 100 100" version="1.1" xmlns="http://www.w3.org/2000/svg" xmlns:xlink="http://www.w3.org/1999/xlink">
    <!-- Generator: Sketch 42 (36781) - http://www.bohemiancoding.com/sketch -->
    <title>walk</title>
    <desc>Created with Sketch.</desc>
    <defs></defs>
    <g id="Page-1" stroke="none" stroke-width="1" fill="none" fill-rule="evenodd">
        <g id="walk" fill="currentColor">
            <path d="M55.0878812,6.05401609 C55.0878812,2.68398205 52.4038992,0 49.1071837,0 C45.724057,0 43.0322194,2.68398205 43.0322194,6.05401609 C43.0322194,7.61203493 43.6397159,9.25384639 44.3336234,10.7280726 C44.6818865,11.4167431 44.8573272,12.1106507 44.8573272,12.8857323 C44.8573272,15.2423995 43.2076602,18.2536964 40.7724375,18.6988447 C33.7495693,20.6103636 28.1066608,29.0943654 24.8178008,34.9598481 C23.6001894,37.1332189 22.992693,39.6469972 22.992693,42.1607755 L22.992693,53.6560742 C22.992693,54.7820374 23.9484525,55.7247043 25.0717972,55.7247043 C26.2841715,55.7247043 27.245168,54.7820374 27.245168,53.6560742 L27.245168,46.0361837 C27.245168,42.6582941 28.6329831,39.4637009 31.0603503,37.1253634 L36.4361699,31.9406956 C36.6980218,31.7652548 36.9598737,31.589814 37.3055182,31.589814 C37.9077776,31.589814 38.4314814,32.0349623 38.510037,32.6372217 C40.5001115,42.4226274 39.6360002,52.5379666 35.9962587,62.0431908 L21.2566149,92.8003158 C21.0811741,93.2376085 21,93.7534567 21,94.274542 C21,95.7409127 21.8641113,96.9559056 23.3461931,97.4743723 L31.0629688,99.8965025 C31.6704652,100.069325 32.3669913,99.5482394 32.3669913,98.9433615 C32.3669913,98.5950985 32.1967875,98.254691 31.9323171,98.0792502 L28.8031868,95.8377979 C28.279483,95.4005052 27.9390755,94.8872755 27.9390755,94.1959865 C27.9390755,93.7613123 28.0254867,93.5046974 28.28472,93.1564344 L41.5527562,72.0511707 C43.3071639,69.3750442 44.5116827,66.6098881 45.2972384,63.4938504 L67.1618727,98.870043 C67.6070209,99.556095 68.2878359,99.9960062 69.0733916,99.9960062 C69.7803917,99.9960062 70.3826511,99.7289172 70.8277994,99.2104505 L77.2431711,91.9440601 C77.4264674,91.7712378 77.505023,91.5120044 77.505023,91.2580081 C77.505023,90.7343042 77.0808229,90.3153412 76.4733265,90.3153412 C76.3869153,90.3153412 76.2114746,90.3153412 76.1250634,90.420082 L72.8257294,91.6246007 C72.4748479,91.8078971 72.3884367,91.8078971 72.0401737,91.8078971 C71.2624735,91.8078971 70.568566,91.383697 70.2203029,90.6950265 L68.1254877,86.9610183 L58.5888412,64.9968803 C54.7710404,55.9106192 54.163544,45.9707208 56.6773223,36.533578 C56.766352,36.1931706 57.0282039,35.9313187 57.3738484,35.9313187 C57.6357003,35.9313187 57.8085225,36.1067594 57.9761078,36.2795817 C63.359783,43.0222683 70.7282956,47.0024173 79.3170382,47.6963248 C80.2780347,47.6963248 81.1500015,46.9107691 81.1500015,46.0466578 C81.1500015,45.3553688 80.6446273,44.6588427 79.9454828,44.4912575 C70.6680697,41.8125125 63.5535534,34.4623295 61.2099788,25.1142164 L60.5186898,22.9617937 C60.2568379,21.9300972 59.3010784,21.2335711 58.1724967,21.2335711 C55.3130739,21.1550156 52.7966771,19.3220522 52.1891806,16.3893109 C51.833062,14.1373845 51.833062,13.9750363 51.833062,13.9750363 C51.833062,13.4513325 52.2703547,13.0245138 52.8804697,13.0245138 C52.8804697,13.0245138 53.0532919,13.0245138 53.4041735,13.1030694 L53.6581698,13.1030694 C54.4437255,13.1030694 55.1376331,12.4222545 55.1376331,11.6366987 L55.1376331,6.04877905 L55.0878812,6.05401609 Z"></path>
        </g>
    </g>
</svg>
