<?xml version="1.0" encoding="UTF-8"?>
<svg width="16" height="16" viewBox="0 0 16 16" fill="none" xmlns="http://www.w3.org/2000/svg">
  <path fill-rule="evenodd" clip-rule="evenodd" d="M7.92568 1C7.23532 1 6.67568 1.55964 6.67568 2.25C6.67568 2.94036 7.23532 3.5 7.92568 3.5C8.61603 3.5 9.17568 2.94036 9.17568 2.25C9.17568 1.55964 8.61603 1 7.92568 1ZM6.9904 4.34456L5.87103 5.4108C5.57781 5.6901 5.36087 6.03974 5.24084 6.4265L4.61827 8.43238L5.81209 8.80291L6.43466 6.79703C6.48336 6.6401 6.56575 6.49607 6.67568 6.37483V9.59493L6.19866 11.2043C6.09936 11.5394 5.93711 11.8524 5.72061 12.1267L4 14.3065L5.1774 15.2359L6.89801 13.0561C7.23261 12.6322 7.48335 12.1484 7.63682 11.6306L7.88579 10.7906L8.54089 11.4657L8.54159 11.4672C8.631 11.6588 8.69802 11.8601 8.74131 12.067L9.39809 15.2063L10.8663 14.8992L10.2095 11.7599C10.1426 11.44 10.039 11.129 9.90087 10.8329L8.92568 8.74321V7.34102C9.12773 7.56441 9.35957 7.76062 9.6156 7.9237L11.0453 8.83435L11.7169 7.78004L10.2871 6.86939C9.98682 6.67812 9.73939 6.41445 9.56756 6.10261L8.90215 4.895C8.79599 4.38399 8.34318 4 7.80068 4C7.52124 4 7.2656 4.10188 7.06887 4.27053L7.06078 4.27753C7.03637 4.29886 7.01289 4.32122 6.9904 4.34456Z" fill="currentColor"/>
</svg>
