<?xml version="1.0" encoding="UTF-8"?>
<svg width="45px" height="40px" viewBox="0 0 45 40" version="1.1" xmlns="http://www.w3.org/2000/svg" xmlns:xlink="http://www.w3.org/1999/xlink">
    <!-- Generator: Sketch 64 (93537) - https://sketch.com -->
<!--     <title>Warning</title>
    <desc>Created with Sketch.</desc> -->
    <g id="Object" stroke="none" stroke-width="1" fill="none" fill-rule="evenodd">
        <g id="Warning" transform="translate(2.000000, 1.000000)" fill="#FFFFFF">
            <g transform="translate(-2.000000, -1.000000)">
                <path d="M18.1550755,2.56752864 L1.09550042,32.5258069 C0.666179768,33.2797359 0.440424876,34.1324027 0.440424876,35 C0.440424876,37.7614237 2.67900113,40 5.44042488,40 L39.5595751,40 C40.4271724,40 41.2798393,39.7742451 42.0337682,39.3449245 C44.4334037,37.9784653 45.2709587,34.9254424 43.9044996,32.5258069 L26.8449245,2.56752864 C26.4006251,1.78729557 25.7544262,1.14109666 24.9741931,0.696797277 C22.5745576,-0.669661837 19.5215347,0.167893124 18.1550755,2.56752864 Z M23.4896772,3.30375195 C23.8017705,3.48147171 24.06025,3.73995127 24.2379698,4.0520445 L41.2975449,34.0103228 C41.8441286,34.970177 41.5091066,36.1913861 40.5492524,36.7379698 C40.2476808,36.909698 39.906614,37 39.5595751,37 L5.44042488,37 C4.33585538,37 3.44042488,36.1045695 3.44042488,35 C3.44042488,34.6529611 3.53072683,34.3118943 3.70245509,34.0103228 L20.7620302,4.0520445 C21.3086139,3.09219029 22.529823,2.75716831 23.4896772,3.30375195 Z" id="Rectangle" fill-rule="nonzero"></path>
                <path d="M23.76,27.672 L24.168,15 L21.144,15 L21.576,27.672 L23.76,27.672 Z M22.656,32.16 C23.568,32.16 24.288,31.464 24.288,30.552 C24.288,29.664 23.568,28.968 22.656,28.968 C21.72,28.968 21,29.664 21,30.552 C21,31.464 21.72,32.16 22.656,32.16 Z" id="!" fill-rule="nonzero"></path>
            </g>
        </g>
    </g>
</svg>
