<?xml version="1.0" encoding="UTF-8"?>
<svg width="16" height="16" viewBox="0 0 16 16" fill="none" xmlns="http://www.w3.org/2000/svg">
  <path fill-rule="evenodd" clip-rule="evenodd" d="M11.7273 7.63755L7.70429 1L3.68133 7.63755C2.55842 9.49026 2.84602 11.8703 4.37792 13.4022C6.21502 15.2393 9.19356 15.2393 11.0307 13.4022C12.5626 11.8703 12.8502 9.49026 11.7273 7.63755ZM8.23879 4.86733C8.4177 4.57214 8.32344 4.1878 8.02825 4.00889C7.73306 3.82998 7.34872 3.92424 7.16981 4.21943L6.57967 5.1931C6.40076 5.48829 6.49502 5.87263 6.79021 6.05154C7.0854 6.23046 7.46974 6.13619 7.64865 5.841L8.23879 4.86733ZM6.46838 7.78835C6.6473 7.49316 6.55304 7.10882 6.25784 6.92991C5.96265 6.75099 5.57832 6.84526 5.3994 7.14045L4.80927 8.11412C4.00119 9.44738 4.20816 11.1601 5.31056 12.2625C5.55463 12.5066 5.95036 12.5066 6.19444 12.2625C6.43852 12.0184 6.43852 11.6227 6.19444 11.3786C5.4991 10.6833 5.36855 9.60298 5.87825 8.76202L6.46838 7.78835Z" fill="currentColor"/>
</svg>
