<?xml version="1.0" encoding="UTF-8"?>
<svg width="16" height="16" viewBox="0 0 16 16" fill="none" xmlns="http://www.w3.org/2000/svg">
  <path fill-rule="evenodd" clip-rule="evenodd" d="M7.6867 1.48462C8.13963 0.974547 8.9203 0.928227 9.43036 1.38115C9.94043 1.83409 9.98676 2.61475 9.53383 3.12483L9.40763 3.26691C8.9547 3.77699 8.17403 3.82331 7.66396 3.37037C7.1539 2.91744 7.10756 2.13677 7.5605 1.62671L7.6867 1.48462ZM4.50444 8.86555C4.52072 8.65515 4.58062 8.45041 4.68035 8.26441L6.46934 6.24041L7.63696 7.66815C7.81816 7.88968 8.07916 8.03121 8.3637 8.06215L10.576 8.30295L11.2134 7.37328L9.13263 6.76048C8.8453 6.67588 8.60543 6.4769 8.4691 6.21017L7.55756 4.42619L7.5563 4.42716C7.5163 4.33563 7.4549 4.25168 7.37283 4.18317L6.83823 3.73683C6.31896 3.30329 5.55132 3.35149 5.09034 3.84657L2.81588 6.28928C2.10187 7.05615 1.77429 8.10548 1.92524 9.14235L2.82658 15.3332H3.9667L4.50444 8.86555ZM11.7267 3.82739C11.6972 3.82739 11.6683 3.82779 11.6398 3.82858C11.4558 3.83368 11.3025 3.68863 11.2974 3.50461C11.2923 3.32058 11.4374 3.16727 11.6214 3.16217C11.656 3.16121 11.6912 3.16073 11.7267 3.16073C11.7637 3.16073 11.8004 3.16122 11.8366 3.16219C12.0206 3.16713 12.1658 3.32031 12.1608 3.50435C12.1559 3.68837 12.0027 3.83355 11.8187 3.82861C11.7884 3.82781 11.7578 3.82739 11.7267 3.82739ZM12.6952 3.61315C12.776 3.44776 12.9757 3.37923 13.1411 3.46009C13.2126 3.49503 13.2805 3.53242 13.345 3.57191C13.502 3.66807 13.5513 3.87328 13.4552 4.03027C13.359 4.18726 13.1538 4.23657 12.9968 4.14042C12.9505 4.11205 12.901 4.0848 12.8482 4.05901C12.6829 3.97816 12.6144 3.77854 12.6952 3.61315ZM10.8206 3.60523C10.9086 3.76693 10.8488 3.96935 10.6872 4.05734C10.6397 4.08315 10.5956 4.1104 10.5547 4.13869C10.4033 4.24339 10.1956 4.20552 10.091 4.0541C9.98623 3.90267 10.0241 3.69505 10.1756 3.59035C10.236 3.54853 10.3003 3.50885 10.3685 3.47174C10.5302 3.38375 10.7326 3.44352 10.8206 3.60523ZM13.832 4.45697C14.0142 4.43051 14.1834 4.55675 14.2098 4.73893C14.217 4.78815 14.2208 4.83763 14.2208 4.88693H13.5541C13.5541 4.87175 13.5529 4.85433 13.5501 4.83475C13.5236 4.65256 13.6499 4.48342 13.832 4.45697ZM9.78876 4.46114C9.97136 4.48459 10.1004 4.65163 10.0769 4.83423C10.0743 4.8547 10.0732 4.87233 10.0732 4.88693H9.40656C9.40656 4.84169 9.4097 4.79561 9.4157 4.74928C9.4391 4.56669 9.60616 4.43768 9.78876 4.46114ZM10.7017 9.01728L10.8156 9.02968C10.8766 9.03628 10.9364 9.00888 10.9711 8.95821L12.2004 7.16548C12.2644 7.07208 12.2186 6.94335 12.11 6.91135L9.3693 6.10423C9.3571 6.10066 9.34516 6.09658 9.3335 6.09203V5.33341H14.6668V10.0001H11.3335L10.7017 9.01728Z" fill="currentColor"/>
</svg>
