<?xml version="1.0" encoding="UTF-8"?>
<svg width="32" height="32" viewBox="0 0 32 32" xmlns="http://www.w3.org/2000/svg">
    <g fill="currentColor" fill-rule="evenodd">
        <path d="M28.329 11.779V22.72H3.709V11.779C4.219 9.32 6.862 9.03 8.775 8.99c3.078-.064 9.596.865 19.554 2.788zm-22.03 6.525H4.48v3.84h1.819v-3.84zm2.304 0H6.784v3.84h1.819v-3.84zm2.304 0H9.088v3.84h1.82v-3.84zm7.525-4.48a2.048 2.048 0 1 0 0 4.096 2.048 2.048 0 0 0 0-4.096zm-12.133.128H4.48v3.84h1.819v-3.84zm2.304 0H6.784v3.84h1.819v-3.84zm2.304 0H9.088v3.84h1.82v-3.84zM6.3 10.353a4.827 4.827 0 0 0-1.821 1.391l.001 1.696h1.819zm2.302-.436a9.931 9.931 0 0 0-.908.061c-.318.04-.622.106-.911.196l.001 3.266h1.819zm.485-.008.001 3.531h1.82l-.002-3.467a24.634 24.634 0 0 0-1.82-.064z"/>
        <path d="M8.442 7.39c2.178-.079 5.196.168 9.005.741l.435.066.441.07.448.072.226.037.459.076.231.039.468.08.237.041.478.085.484.087.245.045.495.091.5.095.508.097.515.1.52.103.528.105.534.108.54.112.547.114.553.116.56.12.566.122.572.126c.288.063.578.127.87.193a.512.512 0 1 1-.223 1l-.583-.13-.576-.127-.57-.124-.283-.061-.56-.12-.554-.117-.274-.057-.544-.113-.27-.055-.533-.108-.527-.106-.521-.102-.514-.1-.507-.097-.5-.094-.248-.046-.49-.09-.244-.044-.48-.085-.237-.042-.47-.081a135.16 135.16 0 0 0-.233-.04l-.46-.077-.227-.038-.45-.072c-.148-.024-.296-.048-.442-.07l-.436-.068-.215-.032-.426-.063c-3.516-.513-6.309-.732-8.328-.66l-.12.005H8.34c-1.827 0-3.36.58-4.353 1.54-.874.845-1.212 1.886-.934 2.746a.512.512 0 1 1-.974.316c-.409-1.262.058-2.698 1.196-3.798 1.173-1.134 2.929-1.808 4.976-1.827h.08l.111-.005z" fill-rule="nonzero"/>
    </g>
</svg>
