<svg xmlns="http://www.w3.org/2000/svg" viewBox="0 0 508.19 96" preserveAspectRatio="xMinYMax meet"><path fill="currentColor" d="m56.6 2.8-21.28 56h-.56L13.8 2.8H0l27.7 72.6h8.9L64.4 2.8h-7.8zm38.11 61.43a28.69 28.69 0 0 0 2.14-3.13 41.17 41.17 0 0 0 3.35-7.3 65.4 65.4 0 0 0 2.3-8.4H97a59.93 59.93 0 0 1-1.85 7 34.21 34.21 0 0 1-2.8 6.3c-.32.55-.66 1.08-1 1.58-.07-.08-.14-.15-.2-.23q-3.66-4.39-7-8.5-2.31-3-4.57-5.86c.68-.33 1.37-.65 2-1a28.42 28.42 0 0 0 4.95-3.3 14.88 14.88 0 0 0 3.45-4.1 10.06 10.06 0 0 0 1.25-5v-.1a10.11 10.11 0 0 0-1.5-5.55 9.5 9.5 0 0 0-4.35-3.6 17.62 17.62 0 0 0-7-1.25 15.44 15.44 0 0 0-10.5 3.55 11.64 11.64 0 0 0-4.1 9.25v.2a15.73 15.73 0 0 0 1.5 6.45 37.56 37.56 0 0 0 2.39 4.45c-1 .44-2 .89-3 1.35a35.15 35.15 0 0 0-6 3.55 15.09 15.09 0 0 0-4.25 4.75 12.74 12.74 0 0 0-1.52 6.36v.3a13.51 13.51 0 0 0 2.25 7.8 14.77 14.77 0 0 0 6.1 5.1A20.43 20.43 0 0 0 70 76.7a26.56 26.56 0 0 0 12-2.6 25.82 25.82 0 0 0 5.29-3.53l1.91 2.08c.93 1 1.83 1.95 2.7 2.75h12.9q-2.91-3-6.45-7c-1.2-1.35-2.42-2.75-3.64-4.17ZM73.2 32.6a7.15 7.15 0 0 1 1.25-4.45 4.86 4.86 0 0 1 4.15-1.65 5.08 5.08 0 0 1 4.1 1.55A6.44 6.44 0 0 1 84 32.3v.4a10.34 10.34 0 0 1-.9 4.55A8.93 8.93 0 0 1 80 40.6a22.56 22.56 0 0 1-2.93 1.64 39.28 39.28 0 0 1-2.22-3.54A11.87 11.87 0 0 1 73.2 33Zm.4 38.3a9.62 9.62 0 0 1-7.6-3.05 11 11 0 0 1-2.7-7.55V60a12.85 12.85 0 0 1 .9-5.15 9.71 9.71 0 0 1 3.1-3.75 22.75 22.75 0 0 1 2.78-1.82c1.5 2.13 3.09 4.36 4.82 6.72q2.49 3.3 5.1 6.45c1.41 1.71 2.76 3.32 4.09 4.87-.57.42-1.16.83-1.79 1.23a15.87 15.87 0 0 1-8.7 2.35ZM99.1 2.8l-2.3 5.8 25.4 66.8h14.3L108.8 2.8h-9.7zm107.6 4.35q-8.91-4.35-22-4.35h-24v72.6h24q13.1 0 22-4.35a29.86 29.86 0 0 0 13.4-12.45q4.5-8.1 4.5-19.4V39q0-11.2-4.5-19.35a29.8 29.8 0 0 0-13.4-12.5Zm4.2 32.05a59.67 59.67 0 0 1-1.25 12.95 23 23 0 0 1-4.1 9.2 16.74 16.74 0 0 1-7.75 5.4 37.67 37.67 0 0 1-12.5 1.75h-11.7V9.7h11.7a36.79 36.79 0 0 1 12.5 1.8 17.57 17.57 0 0 1 7.8 5.4 21.63 21.63 0 0 1 4.1 9.1 61.68 61.68 0 0 1 1.2 13Zm57.1 7a50.27 50.27 0 0 1-1.4 12.8 15.23 15.23 0 0 1-4.6 8 12.61 12.61 0 0 1-8.4 2.7c-2.8 0-4.89-.82-6.25-2.45s-2-4.15-2-7.55v-37l-11.4.8v36.3q0 8.51 4.3 12.7t12.1 4.2q8.19 0 12.8-4.75a23.83 23.83 0 0 0 5.34-9.25h.39l.12 13.1 10.4-.3V22.6l-11.4.8Zm61.7-22.6a20 20 0 0 0-9-1.8 17.25 17.25 0 0 0-12.5 4.85 23.76 23.76 0 0 0-5.83 9.65H302l-.73-13.7-10.4.7v52.1h11.4V52.3a38.39 38.39 0 0 1 1.8-12.5 17.47 17.47 0 0 1 5.1-7.95A11.82 11.82 0 0 1 317 29.1q4.5 0 6.45 2.55t1.95 7.55v36.2h11.4v-37a21.76 21.76 0 0 0-1.75-9.35 11.5 11.5 0 0 0-5.35-5.45Zm55.7 8.8h-.48a16.16 16.16 0 0 0-4.52-6.4 18.77 18.77 0 0 0-12.4-4.2 20.31 20.31 0 0 0-11.2 3.35 24 24 0 0 0-8.35 9.5 31.31 31.31 0 0 0-3.15 14.45v.2a33 33 0 0 0 2.95 14.5 23.38 23.38 0 0 0 8 9.5 19.82 19.82 0 0 0 11.35 3.4q7.8 0 12.55-4.5a21 21 0 0 0 5.15-8.6h.5v12.1l10.6-.3V0l-11 .8Zm-7.5 36a12.47 12.47 0 0 1-16.75-3.3q-3.56-5.2-3.55-15.8v-.2q0-10.5 3.5-15.7a11.23 11.23 0 0 1 9.9-5.2 12.24 12.24 0 0 1 6.5 1.65 12.44 12.44 0 0 1 4.35 4.55 23.28 23.28 0 0 1 2.45 6.6 38.06 38.06 0 0 1 .8 8v.3a39.81 39.81 0 0 1-.7 7.3 26.13 26.13 0 0 1-2.25 6.8 13.29 13.29 0 0 1-4.25 5Zm63.9-43.7a26 26 0 0 0-12.3-2.9 23.7 23.7 0 0 0-12.85 3.6 26.09 26.09 0 0 0-9.15 9.8 28.39 28.39 0 0 0-3.4 13.9v.2a29.39 29.39 0 0 0 1.84 10.35 27.47 27.47 0 0 0 5.31 8.8 24.64 24.64 0 0 0 8.3 6 26.15 26.15 0 0 0 10.95 2.2 27.38 27.38 0 0 0 11.15-2.15 19.67 19.67 0 0 0 7.85-6.1 19.25 19.25 0 0 0 3.69-9.4h-6.59a12.88 12.88 0 0 1-4.75 8.85 16 16 0 0 1-10.05 3.05q-7.6 0-11.5-5.5-3.8-5.34-3.89-15.7h37.28v-.5q0-9.41-3.19-15.5a20.71 20.71 0 0 0-8.7-9Zm-23.7 11.35a13.33 13.33 0 0 1 4.7-6.6 11.9 11.9 0 0 1 6.89-2.05 10.46 10.46 0 0 1 10.75 7.75 30.35 30.35 0 0 1 1.44 9.35h-25.37a29.35 29.35 0 0 1 1.59-8.45Zm90.09 13.15q0-9.41-3.2-15.5a20.6 20.6 0 0 0-8.7-9A26 26 0 0 0 484 21.8a23.74 23.74 0 0 0-12.85 3.6 26.25 26.25 0 0 0-9.15 9.8 28.5 28.5 0 0 0-3.4 13.9v.2a29.4 29.4 0 0 0 1.85 10.35 27.62 27.62 0 0 0 5.3 8.8 24.74 24.74 0 0 0 8.3 6A26.21 26.21 0 0 0 485 76.7a27.31 27.31 0 0 0 11.15-2.15 19.6 19.6 0 0 0 7.85-6.1 19.26 19.26 0 0 0 3.7-9.45h-6.6a12.81 12.81 0 0 1-4.75 8.85 16 16 0 0 1-10 3.05q-7.59 0-11.5-5.5-3.78-5.34-3.88-15.7h37.28Zm-35.6-13.15a13.39 13.39 0 0 1 4.7-6.6 11.91 11.91 0 0 1 6.9-2.05 11.42 11.42 0 0 1 6.6 1.85 11.54 11.54 0 0 1 4.15 5.9 30.35 30.35 0 0 1 1.44 9.35H471a29.72 29.72 0 0 1 1.59-8.45Z"/></svg>
