<svg xmlns="http://www.w3.org/2000/svg" viewBox="0 0 731.19 96" preserveAspectRatio="xMinYMax meet"><path fill="currentColor" d="m56.6 2.8-21.28 56h-.56L13.8 2.8H0l27.7 72.6h8.9L64.4 2.8h-7.8zm38.11 61.43a28.69 28.69 0 0 0 2.14-3.13 41.17 41.17 0 0 0 3.35-7.3 65.4 65.4 0 0 0 2.3-8.4H97a59.93 59.93 0 0 1-1.85 7 34.21 34.21 0 0 1-2.8 6.3c-.32.55-.66 1.08-1 1.58-.07-.08-.14-.15-.2-.23q-3.66-4.39-7-8.5-2.31-3-4.57-5.86c.68-.33 1.37-.65 2-1a28.42 28.42 0 0 0 4.95-3.3 14.88 14.88 0 0 0 3.45-4.1 10.06 10.06 0 0 0 1.25-5v-.1a10.11 10.11 0 0 0-1.5-5.55 9.5 9.5 0 0 0-4.35-3.6 17.62 17.62 0 0 0-7-1.25 15.44 15.44 0 0 0-10.5 3.55 11.64 11.64 0 0 0-4.1 9.25v.2a15.73 15.73 0 0 0 1.5 6.45 37.56 37.56 0 0 0 2.39 4.45c-1 .44-2 .89-3 1.35a35.15 35.15 0 0 0-6 3.55 15.09 15.09 0 0 0-4.25 4.75 12.74 12.74 0 0 0-1.52 6.36v.3a13.51 13.51 0 0 0 2.25 7.8 14.77 14.77 0 0 0 6.1 5.1A20.43 20.43 0 0 0 70 76.7a26.56 26.56 0 0 0 12-2.6 25.82 25.82 0 0 0 5.29-3.53l1.91 2.08c.93 1 1.83 1.95 2.7 2.75h12.9q-2.91-3-6.45-7c-1.2-1.4-2.42-2.75-3.64-4.17ZM73.2 32.6a7.15 7.15 0 0 1 1.25-4.45 4.86 4.86 0 0 1 4.15-1.65 5.08 5.08 0 0 1 4.1 1.55A6.44 6.44 0 0 1 84 32.3v.4a10.34 10.34 0 0 1-.9 4.55A8.93 8.93 0 0 1 80 40.6a22.56 22.56 0 0 1-2.93 1.64 39.28 39.28 0 0 1-2.22-3.54A11.87 11.87 0 0 1 73.2 33Zm.4 38.3a9.62 9.62 0 0 1-7.6-3.05 11 11 0 0 1-2.7-7.55V60a12.85 12.85 0 0 1 .9-5.15 9.71 9.71 0 0 1 3.1-3.75 22.75 22.75 0 0 1 2.78-1.82c1.5 2.13 3.09 4.36 4.82 6.72q2.49 3.3 5.1 6.45c1.41 1.71 2.76 3.32 4.09 4.87-.57.42-1.16.83-1.79 1.23a15.87 15.87 0 0 1-8.7 2.35ZM99.1 2.8l-2.3 5.8 25.4 66.8h14.3L108.8 2.8h-9.7zm99.11 53.6h-.51L177.4 2.8h-16.8v72.6h7.8V13h.35L192 75.4h6.7L221.98 13h.42v62.4h11.9V2.8h-15.8l-20.29 53.6zm82.49-31.7a26 26 0 0 0-12.3-2.9 23.7 23.7 0 0 0-12.85 3.6 26.09 26.09 0 0 0-9.15 9.8 28.39 28.39 0 0 0-3.4 13.9v.2a29.17 29.17 0 0 0 1.85 10.35 27.44 27.44 0 0 0 5.3 8.8 24.64 24.64 0 0 0 8.3 6 26.31 26.31 0 0 0 10.95 2.2 27.35 27.35 0 0 0 11.15-2.15 19.67 19.67 0 0 0 7.85-6.1 19.35 19.35 0 0 0 3.7-9.4h-6.6a12.88 12.88 0 0 1-4.75 8.85 16 16 0 0 1-10.05 3.05q-7.6 0-11.5-5.5c-2.53-3.56-3.82-8.81-3.89-15.7h37.29v-.5q0-9.41-3.2-15.5a20.71 20.71 0 0 0-8.7-9ZM257 36.05a13.33 13.33 0 0 1 4.7-6.6 11.91 11.91 0 0 1 6.9-2.05 11.42 11.42 0 0 1 6.6 1.85 11.6 11.6 0 0 1 4.15 5.9 30.38 30.38 0 0 1 1.43 9.35h-25.37a29.69 29.69 0 0 1 1.59-8.45ZM362.2 21.8a15.9 15.9 0 0 0-11.95 4.8 22.83 22.83 0 0 0-5.25 9.5h-.45a21.49 21.49 0 0 0-1.46-6.9 11.13 11.13 0 0 0-4.8-5.55 17 17 0 0 0-8.45-1.85 16.06 16.06 0 0 0-12 4.8 22.8 22.8 0 0 0-5.39 9.7H312l-.82-13.7-10 .7v52.1h11.4V52.6a38.18 38.18 0 0 1 1.9-13 17.63 17.63 0 0 1 5.05-7.8 10.44 10.44 0 0 1 6.75-2.6q7.5 0 7.5 9.9v36.3h11.4V52.5A39.12 39.12 0 0 1 347 39.8a17.78 17.78 0 0 1 5-7.9 10.31 10.31 0 0 1 6.85-2.7c2.6 0 4.51.83 5.75 2.5s1.85 4.13 1.85 7.4v36.3h11.4v-37q0-8.51-3.9-12.55T362.2 21.8Zm66 3.3a20.89 20.89 0 0 0-11.6-3.3 17.9 17.9 0 0 0-11.1 3.7 18.56 18.56 0 0 0-6 8.2h-.41V0L387.9.8v74.9h4.5l3.87-11.7h.56a22.38 22.38 0 0 0 6.42 8.5 19.46 19.46 0 0 0 12.55 4.2 21.57 21.57 0 0 0 11.65-3.35A24.08 24.08 0 0 0 436 63.9a31.09 31.09 0 0 0 3.2-14.6v-.2a33.43 33.43 0 0 0-2.95-14.55 22.55 22.55 0 0 0-8.05-9.45Zm-1.4 24.3q0 10.1-3.15 15.5a10.51 10.51 0 0 1-9.75 5.4 12.18 12.18 0 0 1-6.6-1.7 13.62 13.62 0 0 1-4.45-4.6 20.46 20.46 0 0 1-2.5-6.65 40.49 40.49 0 0 1-.75-8v-.5a33 33 0 0 1 1.6-10.7 15.71 15.71 0 0 1 4.85-7.35 12.29 12.29 0 0 1 8.05-2.65 10.35 10.35 0 0 1 9.55 5.4Q426.8 39 426.8 49Zm55.1-24.7a26 26 0 0 0-12.3-2.9 23.7 23.7 0 0 0-12.85 3.6 26.09 26.09 0 0 0-9.15 9.8 28.39 28.39 0 0 0-3.4 13.9v.2a29.39 29.39 0 0 0 1.8 10.35 27.47 27.47 0 0 0 5.31 8.8 24.64 24.64 0 0 0 8.3 6 26.31 26.31 0 0 0 11 2.2 27.38 27.38 0 0 0 11.15-2.15 19.67 19.67 0 0 0 7.85-6.1 19.25 19.25 0 0 0 3.68-9.4h-6.59a12.88 12.88 0 0 1-4.7 8.85 16 16 0 0 1-10.1 3.05q-7.61 0-11.5-5.5c-2.53-3.56-3.82-8.81-3.89-15.7h37.28v-.5q0-9.41-3.19-15.5a20.71 20.71 0 0 0-8.7-9Zm-23.7 11.35a13.33 13.33 0 0 1 4.7-6.6 11.9 11.9 0 0 1 6.89-2.05 10.46 10.46 0 0 1 10.75 7.75A30.35 30.35 0 0 1 482 44.5h-25.39a29.35 29.35 0 0 1 1.59-8.45Zm70.89-14.25a14.45 14.45 0 0 0-7.5 2.15 17.82 17.82 0 0 0-6.15 6.5 27 27 0 0 0-2.81 7.35h-.5l-.64-15.2-10.1.8v52h11.4V55.2a50 50 0 0 1 1.75-14 24.26 24.26 0 0 1 4.6-9.2c1.9-2.17 4-3.25 6.25-3.25a5.05 5.05 0 0 1 2.9.75 4.53 4.53 0 0 1 1.65 2.6 19.72 19.72 0 0 1 .55 5.35v1.2h10.2V37.3q0-8.59-3-12t-8.6-3.5Zm50.7 25.2a34.4 34.4 0 0 0-4.95-1.9c-1.76-.53-3.6-1-5.5-1.5s-3.73-.93-5.5-1.4-3.35-1-4.75-1.5a11.89 11.89 0 0 1-3.55-2.2 5.52 5.52 0 0 1-1.54-4.3 5.58 5.58 0 0 1 2.4-4.75q2.4-1.75 7.5-1.75a18.5 18.5 0 0 1 9.7 2.3 16.13 16.13 0 0 1 5.9 6.1l5.2-3.9a17.89 17.89 0 0 0-7.7-7.7 27.15 27.15 0 0 0-12.8-2.7 25.15 25.15 0 0 0-10.2 1.9 15.4 15.4 0 0 0-6.7 5.3 13.61 13.61 0 0 0-2.3 7.9 12.92 12.92 0 0 0 2.45 8.15 16.65 16.65 0 0 0 5.65 4.75 39.19 39.19 0 0 0 5.65 2.3q2.85.9 5.6 1.5c1.84.4 3.6.82 5.3 1.25a35.27 35.27 0 0 1 4.75 1.55 9.82 9.82 0 0 1 3.6 2.7 6.38 6.38 0 0 1 1.15 4 6.84 6.84 0 0 1-2.6 5.55q-2.6 2.14-8.8 2.15a20.35 20.35 0 0 1-8.45-1.65 21.08 21.08 0 0 1-6.4-4.45 28.79 28.79 0 0 1-4.55-6l-5.1 4.1a29.18 29.18 0 0 0 5.45 6.85 26.47 26.47 0 0 0 8 5.1 31.58 31.58 0 0 0 21.85 0 15.89 15.89 0 0 0 7.15-5.55 14.5 14.5 0 0 0 2.5-8.5 15.22 15.22 0 0 0-2.2-8.6 14.12 14.12 0 0 0-6.21-5.1Zm56.4-23.4a20 20 0 0 0-9-1.8 17.68 17.68 0 0 0-12.6 4.8 22.81 22.81 0 0 0-5.59 8.8h-.28V0l-11.3.7v74.7h11.4V52.2a37 37 0 0 1 1.85-12.45 17.72 17.72 0 0 1 5.2-7.9 12 12 0 0 1 7.85-2.75q4.2 0 6.2 2.55c1.34 1.7 2 4.15 2 7.35v36.4h11.4v-37a21.61 21.61 0 0 0-1.75-9.35 11.46 11.46 0 0 0-5.38-5.45Zm25.2-20.3a7.14 7.14 0 0 0-4.85 1.7 5.79 5.79 0 0 0-1.95 4.6 6 6 0 0 0 1.95 4.65 7.87 7.87 0 0 0 9.9 0 6.09 6.09 0 0 0 1.85-4.65 5.92 5.92 0 0 0-1.85-4.6 7.18 7.18 0 0 0-5.05-1.7Zm-5.6 72.1h11.4V22.6l-11.4.8v52zm72.5-40.9a22.42 22.42 0 0 0-7.9-9.4A20.21 20.21 0 0 0 709 21.8a18.12 18.12 0 0 0-15.6 8.6 26.2 26.2 0 0 0-2.4 4.7h-.48l-.41-12.4-10.1.6v71.2h11V65h.37a24.36 24.36 0 0 0 1.58 3.15 17.16 17.16 0 0 0 6.65 6.45 19.53 19.53 0 0 0 9.2 2.1A19.74 19.74 0 0 0 720 73.3a24 24 0 0 0 8.15-9.55 32.08 32.08 0 0 0 3.05-14.45v-.2a33.65 33.65 0 0 0-2.91-14.6ZM719 49.4q0 10-3.2 15.4a10.62 10.62 0 0 1-9.8 5.4 11.94 11.94 0 0 1-8-2.7 16.19 16.19 0 0 1-4.7-7.35 33.4 33.4 0 0 1-1.55-10.55v-.7a32.52 32.52 0 0 1 1.6-10.55A16.86 16.86 0 0 1 698 31a11.67 11.67 0 0 1 8-2.75 10.67 10.67 0 0 1 9.7 5.4Q719 39 719 49Z"/></svg>
