<svg xmlns="http://www.w3.org/2000/svg" viewBox="0 0 896.29 96" preserveAspectRatio="xMinYMax meet"><path fill="currentColor" d="m56.6 2.8-21.28 56h-.56L13.8 2.8H0l27.7 72.6h8.9L64.4 2.8h-7.8zm38.11 61.43a28.69 28.69 0 0 0 2.14-3.13 41.17 41.17 0 0 0 3.35-7.3 65.4 65.4 0 0 0 2.3-8.4H97a59.93 59.93 0 0 1-1.85 7 34.21 34.21 0 0 1-2.8 6.3c-.32.55-.66 1.08-1 1.58-.07-.08-.14-.15-.2-.23q-3.66-4.39-7-8.5-2.31-3-4.57-5.86c.68-.33 1.37-.65 2-1a28.42 28.42 0 0 0 4.95-3.3 14.88 14.88 0 0 0 3.45-4.1 10.06 10.06 0 0 0 1.25-5v-.1a10.11 10.11 0 0 0-1.5-5.55 9.5 9.5 0 0 0-4.35-3.6 17.62 17.62 0 0 0-7-1.25 15.44 15.44 0 0 0-10.5 3.55 11.64 11.64 0 0 0-4.1 9.25v.2a15.73 15.73 0 0 0 1.5 6.45 37.56 37.56 0 0 0 2.39 4.45c-1 .44-2 .89-3 1.35a35.15 35.15 0 0 0-6 3.55 15.09 15.09 0 0 0-4.25 4.75 12.74 12.74 0 0 0-1.52 6.36v.3a13.51 13.51 0 0 0 2.25 7.8 14.77 14.77 0 0 0 6.1 5.1A20.43 20.43 0 0 0 70 76.7a26.56 26.56 0 0 0 12-2.6 25.82 25.82 0 0 0 5.29-3.53l1.91 2.08c.93 1 1.83 1.95 2.7 2.75h12.9q-2.91-3-6.45-7c-1.2-1.4-2.42-2.75-3.64-4.17ZM73.2 32.6a7.15 7.15 0 0 1 1.25-4.45 4.86 4.86 0 0 1 4.15-1.65 5.08 5.08 0 0 1 4.1 1.55A6.44 6.44 0 0 1 84 32.3v.4a10.34 10.34 0 0 1-.9 4.55A8.93 8.93 0 0 1 80 40.6a22.56 22.56 0 0 1-2.93 1.64 39.28 39.28 0 0 1-2.22-3.54A11.87 11.87 0 0 1 73.2 33Zm.4 38.3a9.62 9.62 0 0 1-7.6-3.05 11 11 0 0 1-2.7-7.55V60a12.85 12.85 0 0 1 .9-5.15 9.71 9.71 0 0 1 3.1-3.75 22.75 22.75 0 0 1 2.78-1.82c1.5 2.13 3.09 4.36 4.82 6.72q2.49 3.3 5.1 6.45c1.41 1.71 2.76 3.32 4.09 4.87-.57.42-1.16.83-1.79 1.23a15.87 15.87 0 0 1-8.7 2.35ZM99.1 2.8l-2.3 5.8 25.4 66.8h14.3L108.8 2.8h-9.7zm107.6 4.35q-8.91-4.35-22-4.35h-24v72.6h24q13.1 0 22-4.35a29.86 29.86 0 0 0 13.4-12.45q4.5-8.1 4.5-19.4V39q0-11.2-4.5-19.35a29.8 29.8 0 0 0-13.4-12.5Zm4.2 32.05a59.67 59.67 0 0 1-1.25 12.95 23 23 0 0 1-4.1 9.2 16.74 16.74 0 0 1-7.75 5.4 37.67 37.67 0 0 1-12.5 1.75h-11.7V9.7h11.7a36.79 36.79 0 0 1 12.5 1.8 17.57 17.57 0 0 1 7.8 5.4 21.63 21.63 0 0 1 4.1 9.1 61.68 61.68 0 0 1 1.2 13Zm28.2-35.9a7.12 7.12 0 0 0-4.85 1.7 5.79 5.79 0 0 0-1.95 4.6 6 6 0 0 0 1.95 4.65A7 7 0 0 0 239.1 16a7.05 7.05 0 0 0 5.05-1.75A6.12 6.12 0 0 0 246 9.6a6 6 0 0 0-1.85-4.6 7.21 7.21 0 0 0-5.05-1.7Zm-5.6 72.1h11.4V22.6l-11.4.8v52zm51.9-53.6a14.45 14.45 0 0 0-7.5 2.2 17.82 17.82 0 0 0-6.15 6.5 26.7 26.7 0 0 0-2.82 7.35h-.49l-.64-15.2-10.1.8v52h11.4V55.2a49.58 49.58 0 0 1 1.75-14 24.11 24.11 0 0 1 4.6-9.2q2.85-3.25 6.25-3.25a5.07 5.07 0 0 1 2.9.75 4.63 4.63 0 0 1 1.65 2.6 20.13 20.13 0 0 1 .55 5.35v1.2H297V37.3q0-8.59-2.95-12t-8.65-3.5Zm51.1 2.9a26 26 0 0 0-12.3-2.9 23.7 23.7 0 0 0-12.85 3.6 26.09 26.09 0 0 0-9.15 9.8 28.39 28.39 0 0 0-3.4 13.9v.2a29.17 29.17 0 0 0 1.85 10.35 27.44 27.44 0 0 0 5.3 8.8 24.64 24.64 0 0 0 8.3 6 26.31 26.31 0 0 0 10.95 2.2 27.35 27.35 0 0 0 11.15-2.15 19.67 19.67 0 0 0 7.85-6.1 19.35 19.35 0 0 0 3.7-9.4h-6.6a12.88 12.88 0 0 1-4.75 8.85 16 16 0 0 1-10.05 3.05q-7.61 0-11.5-5.5c-2.53-3.56-3.82-8.81-3.89-15.7h37.29v-.5q0-9.41-3.2-15.5a20.71 20.71 0 0 0-8.7-9Zm-23.7 11.35a13.33 13.33 0 0 1 4.7-6.6 11.91 11.91 0 0 1 6.9-2.05 11.42 11.42 0 0 1 6.6 1.85 11.6 11.6 0 0 1 4.15 5.9 30.38 30.38 0 0 1 1.43 9.35h-25.37a29.69 29.69 0 0 1 1.59-8.45Zm78.5-11.95a28 28 0 0 0-11.6-2.3 25.24 25.24 0 0 0-23.15 13.7A28.58 28.58 0 0 0 353.3 49v.4a30.43 30.43 0 0 0 1.7 10.1 25.82 25.82 0 0 0 5.1 8.75 25.13 25.13 0 0 0 8.25 6.15 25.77 25.77 0 0 0 11.15 2.3 23.07 23.07 0 0 0 11.85-2.9 21.47 21.47 0 0 0 7.8-7.75 22.25 22.25 0 0 0 3.05-10.65h-6.4a19.24 19.24 0 0 1-2.15 7.85 13.82 13.82 0 0 1-5.1 5.4 14.6 14.6 0 0 1-7.65 1.95 14.17 14.17 0 0 1-8.4-2.4 14.32 14.32 0 0 1-5.1-7.1 33.85 33.85 0 0 1-1.7-11.5v-.8a34.73 34.73 0 0 1 1.7-11.9 13.27 13.27 0 0 1 5.05-6.8 14.11 14.11 0 0 1 7.95-2.2 13 13 0 0 1 8.75 2.85q3.35 2.85 3.35 9.75v1.3h9.8v-.6a18.18 18.18 0 0 0-2.95-10.5 19 19 0 0 0-8.05-6.6Zm34.4-17.2h-6.3a32.84 32.84 0 0 1-1.8 9.4 10.47 10.47 0 0 1-4.45 5.4 18.38 18.38 0 0 1-8.25 2.1v5.7h9.4v30q0 8.4 4.25 12.15t11.85 3.75h11.1V69H434a11.61 11.61 0 0 1-4.3-.75 5.57 5.57 0 0 1-2.95-2.8 13.68 13.68 0 0 1-1.05-6.05V29.5h16v-6.4h-16Zm65.3 23a25.92 25.92 0 0 0-8.3-5.95 24.89 24.89 0 0 0-10.36-2.15 25.51 25.51 0 0 0-10.55 2.2 25.11 25.11 0 0 0-8.34 6A28 28 0 0 0 446 49.1v.2a28.24 28.24 0 0 0 2 10.45 27.31 27.31 0 0 0 5.5 8.75 26.3 26.3 0 0 0 8.34 6 25.07 25.07 0 0 0 10.5 2.2 24.46 24.46 0 0 0 10.36-2.2 26.7 26.7 0 0 0 8.3-6 28.33 28.33 0 0 0 5.55-8.75 27.68 27.68 0 0 0 2-10.45v-.2a27.68 27.68 0 0 0-2-10.45A28.33 28.33 0 0 0 491 29.9Zm-4.8 19.5a35.85 35.85 0 0 1-1.7 12 14.37 14.37 0 0 1-4.8 6.95 12.29 12.29 0 0 1-7.41 2.25 12.6 12.6 0 0 1-7.54-2.25A13.8 13.8 0 0 1 460 61.4a36.47 36.47 0 0 1-1.66-12v-.5A36 36 0 0 1 460 37a13.5 13.5 0 0 1 4.8-6.85 12.78 12.78 0 0 1 7.54-2.2 12.46 12.46 0 0 1 7.41 2.2A14.06 14.06 0 0 1 484.5 37a35.41 35.41 0 0 1 1.7 11.95ZM534 21.8a14.4 14.4 0 0 0-7.5 2.2 17.76 17.76 0 0 0-6.16 6.5 27 27 0 0 0-2.81 7.35H517l-.64-15.2-10.1.8v52h11.4V55.2a50 50 0 0 1 1.75-14 24.26 24.26 0 0 1 4.6-9.2c1.9-2.17 4-3.25 6.25-3.25a5 5 0 0 1 2.9.75 4.53 4.53 0 0 1 1.65 2.6 19.72 19.72 0 0 1 .55 5.35v1.2h10.2V37.3q0-8.59-3-12c-1.88-2.3-4.77-3.5-8.56-3.5Zm29.19-11.3c0-2.8-.71-4.95-2.15-6.45a7.32 7.32 0 0 0-5.54-2.25 6.33 6.33 0 0 0-6.71 6.3 6 6 0 0 0 1.55 4.25A5.45 5.45 0 0 0 554.5 14a6.16 6.16 0 0 0 2.79-.65 4 4 0 0 0 1-.72 12.12 12.12 0 0 1-1.42 4.12 17 17 0 0 1-3.55 4.35 25.81 25.81 0 0 1-4.45 3.2l2.13 3.6a28.62 28.62 0 0 0 8.79-7.35 15.84 15.84 0 0 0 3.4-10.05Zm31.4 36.5a34.4 34.4 0 0 0-5-1.9c-1.76-.53-3.6-1-5.5-1.5s-3.73-.93-5.5-1.4-3.35-1-4.75-1.5a11.89 11.89 0 0 1-3.55-2.2 5.52 5.52 0 0 1-1.55-4.3 5.58 5.58 0 0 1 2.4-4.75q2.4-1.75 7.5-1.75a18.5 18.5 0 0 1 9.7 2.3 16.13 16.13 0 0 1 5.9 6.1l5.2-3.9a17.89 17.89 0 0 0-7.7-7.7A27.15 27.15 0 0 0 579 21.8a25.15 25.15 0 0 0-10.15 1.9 15.4 15.4 0 0 0-6.7 5.3 13.61 13.61 0 0 0-2.35 7.9 12.92 12.92 0 0 0 2.45 8.15 16.65 16.65 0 0 0 5.65 4.75 39.19 39.19 0 0 0 5.65 2.3q2.85.9 5.6 1.5c1.84.4 3.6.82 5.3 1.25a35.27 35.27 0 0 1 4.75 1.55 9.82 9.82 0 0 1 3.65 2.7 6.38 6.38 0 0 1 1.15 4 6.84 6.84 0 0 1-2.6 5.55q-2.6 2.14-8.8 2.15a20.35 20.35 0 0 1-8.45-1.65 21.08 21.08 0 0 1-6.4-4.45 28.79 28.79 0 0 1-4.55-6l-5.1 4.1a29.18 29.18 0 0 0 5.45 6.85 26.47 26.47 0 0 0 8.05 5.1 31.58 31.58 0 0 0 21.85 0 15.89 15.89 0 0 0 7.15-5.55 14.5 14.5 0 0 0 2.5-8.5 15.22 15.22 0 0 0-2.2-8.6 14.12 14.12 0 0 0-6.31-5.1Zm99.6-16.6a41.66 41.66 0 0 0-4.6-16.15 23.06 23.06 0 0 0-10.25-9.7Q672.7 1.3 662.79 1.3a33.57 33.57 0 0 0-14.4 3.05 34.63 34.63 0 0 0-11.2 8.3 38.84 38.84 0 0 0-7.3 12 39.63 39.63 0 0 0-2.6 14.35v.2a40.38 40.38 0 0 0 2.55 14.3A38.86 38.86 0 0 0 637 65.6a32.72 32.72 0 0 0 11.35 8.3 36.09 36.09 0 0 0 14.9 3q9.81 0 16.65-3.55a24.45 24.45 0 0 0 10.45-10.1 32.08 32.08 0 0 0 3.7-15.35h-7.2A28.79 28.79 0 0 1 684 60a17 17 0 0 1-7.3 7.45 25.44 25.44 0 0 1-12 2.5q-8 0-13.15-3.75a22.33 22.33 0 0 1-7.7-10.7 47.11 47.11 0 0 1-2.55-16.25V39q0-10 2.65-16.8a22.18 22.18 0 0 1 7.65-10.35 20.36 20.36 0 0 1 12.1-3.55q6.71 0 10.85 2.3a14.87 14.87 0 0 1 6.35 7 37.36 37.36 0 0 1 2.9 12.15v.6Zm15.6-27.1a7.14 7.14 0 0 0-4.85 1.7 5.79 5.79 0 0 0-2 4.6 6 6 0 0 0 2 4.65 7.87 7.87 0 0 0 9.9 0 6.09 6.09 0 0 0 1.85-4.65 5.92 5.92 0 0 0-1.85-4.6 7.18 7.18 0 0 0-5.05-1.7Zm-5.6 72.1h11.4V22.6l-11.4.8v52zm51.9-53.6a14.45 14.45 0 0 0-7.5 2.15 17.82 17.82 0 0 0-6.15 6.5 27 27 0 0 0-2.81 7.35h-.5l-.64-15.2-10.1.8v52h11.4V55.2a50 50 0 0 1 1.75-14 24.26 24.26 0 0 1 4.6-9.2c1.9-2.17 4-3.25 6.25-3.25a5.05 5.05 0 0 1 2.9.75 4.53 4.53 0 0 1 1.65 2.6 19.72 19.72 0 0 1 .55 5.35v1.2h10.2V37.3q0-8.59-3-12t-8.6-3.5Zm51.4 2.3a28 28 0 0 0-11.6-2.3 25.24 25.24 0 0 0-23.15 13.7 28.7 28.7 0 0 0-3.25 13.5v.4a30.69 30.69 0 0 0 1.7 10.1 26.15 26.15 0 0 0 5.1 8.75 25.34 25.34 0 0 0 8.25 6.15 25.8 25.8 0 0 0 11.15 2.3 23.07 23.07 0 0 0 11.85-2.9 21.47 21.47 0 0 0 7.8-7.75 22.14 22.14 0 0 0 3-10.65H812a19.08 19.08 0 0 1-2.15 7.85 13.68 13.68 0 0 1-5.1 5.4 14.55 14.55 0 0 1-7.65 1.95 14.21 14.21 0 0 1-8.4-2.4 14.44 14.44 0 0 1-5.1-7.1 34.1 34.1 0 0 1-1.7-11.5v-.8a35 35 0 0 1 1.7-11.9 13.38 13.38 0 0 1 5-6.8 14.16 14.16 0 0 1 8-2.2 13 13 0 0 1 8.75 2.85q3.36 2.85 3.35 9.75v1.3h9.8v-.6a18.1 18.1 0 0 0-3-10.5 18.89 18.89 0 0 0-8.01-6.6Zm19.9 51.3h11.5V0l-11.5.8v74.6zm68.9-26.2q0-9.41-3.2-15.5a20.6 20.6 0 0 0-8.7-9 26 26 0 0 0-12.3-2.9 23.74 23.74 0 0 0-12.85 3.6 26.25 26.25 0 0 0-9.15 9.8 28.5 28.5 0 0 0-3.4 13.9v.2a29.4 29.4 0 0 0 1.85 10.35 27.62 27.62 0 0 0 5.3 8.8 24.74 24.74 0 0 0 8.3 6 26.37 26.37 0 0 0 11 2.2 27.31 27.31 0 0 0 11.15-2.15 19.6 19.6 0 0 0 7.85-6.1 19.26 19.26 0 0 0 3.7-9.45h-6.6a12.81 12.81 0 0 1-4.75 8.85 16 16 0 0 1-10.05 3.05q-7.59 0-11.5-5.5c-2.52-3.56-3.81-8.81-3.88-15.7h37.28Zm-35.6-13.15a13.39 13.39 0 0 1 4.7-6.6 11.91 11.91 0 0 1 6.9-2.05 11.42 11.42 0 0 1 6.6 1.85 11.54 11.54 0 0 1 4.15 5.9 30.08 30.08 0 0 1 1.43 9.35h-25.36a29.72 29.72 0 0 1 1.58-8.45Z"/></svg>
