<svg xmlns="http://www.w3.org/2000/svg" viewBox="0 0 809.09 96" preserveAspectRatio="xMinYMax meet"><path fill="currentColor" d="m56.6 2.8-21.28 56h-.56L13.8 2.8H0l27.7 72.6h8.9L64.4 2.8h-7.8zm38.11 61.43a28.69 28.69 0 0 0 2.14-3.13 41.17 41.17 0 0 0 3.35-7.3 65.4 65.4 0 0 0 2.3-8.4H97a59.93 59.93 0 0 1-1.85 7 34.21 34.21 0 0 1-2.8 6.3c-.32.55-.66 1.08-1 1.58-.07-.08-.14-.15-.2-.23q-3.66-4.39-7-8.5-2.31-3-4.57-5.86c.68-.33 1.37-.65 2-1a28.42 28.42 0 0 0 4.95-3.3 14.88 14.88 0 0 0 3.45-4.1 10.06 10.06 0 0 0 1.25-5v-.1a10.11 10.11 0 0 0-1.5-5.55 9.5 9.5 0 0 0-4.35-3.6 17.62 17.62 0 0 0-7-1.25 15.44 15.44 0 0 0-10.5 3.55 11.64 11.64 0 0 0-4.1 9.25v.2a15.73 15.73 0 0 0 1.5 6.45 37.56 37.56 0 0 0 2.39 4.45c-1 .44-2 .89-3 1.35a35.15 35.15 0 0 0-6 3.55 15.09 15.09 0 0 0-4.25 4.75 12.74 12.74 0 0 0-1.52 6.36v.3a13.51 13.51 0 0 0 2.25 7.8 14.77 14.77 0 0 0 6.1 5.1A20.43 20.43 0 0 0 70 76.7a26.56 26.56 0 0 0 12-2.6 25.82 25.82 0 0 0 5.29-3.53l1.91 2.08c.93 1 1.83 1.95 2.7 2.75h12.9q-2.91-3-6.45-7c-1.2-1.4-2.42-2.75-3.64-4.17ZM73.2 32.6a7.15 7.15 0 0 1 1.25-4.45 4.86 4.86 0 0 1 4.15-1.65 5.08 5.08 0 0 1 4.1 1.55A6.44 6.44 0 0 1 84 32.3v.4a10.34 10.34 0 0 1-.9 4.55A8.93 8.93 0 0 1 80 40.6a22.56 22.56 0 0 1-2.93 1.64 39.28 39.28 0 0 1-2.22-3.54A11.87 11.87 0 0 1 73.2 33Zm.4 38.3a9.62 9.62 0 0 1-7.6-3.05 11 11 0 0 1-2.7-7.55V60a12.85 12.85 0 0 1 .9-5.15 9.71 9.71 0 0 1 3.1-3.75 22.75 22.75 0 0 1 2.78-1.82c1.5 2.13 3.09 4.36 4.82 6.72q2.49 3.3 5.1 6.45c1.41 1.71 2.76 3.32 4.09 4.87-.57.42-1.16.83-1.79 1.23a15.87 15.87 0 0 1-8.7 2.35ZM99.1 2.8l-2.3 5.8 25.4 66.8h14.3L108.8 2.8h-9.7zm103.8 2.1a52.45 52.45 0 0 0-15.8-2.1h-26.4v72.6h12.8V44.1h13.6a51.41 51.41 0 0 0 15.8-2.1 20.32 20.32 0 0 0 10.15-6.75 18.65 18.65 0 0 0 3.55-11.7v-.3q0-7.2-3.55-11.7A20.37 20.37 0 0 0 202.9 4.9Zm.3 18.8q0 7.4-3.65 10.55T187.4 37.4h-13.9V9.5h13.9q8.49 0 12.15 3.15t3.65 10.75Zm54.8 1.8q-5.25-3.7-15.25-3.7a32.44 32.44 0 0 0-11.15 1.8 17.45 17.45 0 0 0-7.9 5.4 14 14 0 0 0-2.9 9.1v.5l9 .3v-.8a11.45 11.45 0 0 1 1.35-6 7.7 7.7 0 0 1 3.95-3.2 17.81 17.81 0 0 1 6.4-1q5.59 0 7.95 2.25c1.56 1.5 2.35 3.88 2.35 7.15v5.05c-.79.37-1.69.74-2.7 1.1a92.3 92.3 0 0 1-10.3 2.85 46.31 46.31 0 0 0-11.4 3.7 15.17 15.17 0 0 0-6.2 5.25 13.58 13.58 0 0 0-1.9 7.35v.3a13.3 13.3 0 0 0 3.95 9.9q3.94 3.9 11.35 3.9a18.9 18.9 0 0 0 10.05-2.65 19.73 19.73 0 0 0 7-7.4 23.39 23.39 0 0 0 1.09-2.25h.37l1.49 11h8.6V36.8q0-7.6-5.2-11.3Zm-12.3 42.75a10.82 10.82 0 0 1-7 2.35 7.32 7.32 0 0 1-5.85-2.35 9.31 9.31 0 0 1-2-6.35v-.3a15.58 15.58 0 0 1 .75-5.2 7.19 7.19 0 0 1 3.1-3.6 23.23 23.23 0 0 1 7-2.6 63.15 63.15 0 0 0 7.9-2.3c.81-.3 1.53-.61 2.2-.91v6.21a23.22 23.22 0 0 1-1.6 8.8 15.24 15.24 0 0 1-4.55 6.25Zm44-61.35h-6.3a32.84 32.84 0 0 1-1.8 9.4 10.47 10.47 0 0 1-4.45 5.4 18.38 18.38 0 0 1-8.25 2.1v5.7h9.4v30q0 8.4 4.25 12.15t11.85 3.75h11.1V69H298a11.61 11.61 0 0 1-4.3-.75 5.57 5.57 0 0 1-2.95-2.8 13.68 13.68 0 0 1-1.05-6.05V29.5h16v-6.4h-16Zm52.7 14.9a14.45 14.45 0 0 0-7.5 2.2 17.82 17.82 0 0 0-6.15 6.5 26.7 26.7 0 0 0-2.82 7.35h-.49l-.64-15.2-10.1.8v52h11.4V55.2a49.58 49.58 0 0 1 1.75-14 24.11 24.11 0 0 1 4.6-9.2q2.85-3.25 6.25-3.25a5.07 5.07 0 0 1 2.9.75 4.63 4.63 0 0 1 1.65 2.6 20.13 20.13 0 0 1 .55 5.35v1.2H354V37.3q0-8.59-2.95-12t-8.65-3.5Zm58.35 8.1a25.92 25.92 0 0 0-8.3-5.95 24.88 24.88 0 0 0-10.35-2.15 25.44 25.44 0 0 0-10.5 2.2 25.15 25.15 0 0 0-8.35 6 28 28 0 0 0-7.45 19.1v.2a28.24 28.24 0 0 0 1.95 10.45 27.31 27.31 0 0 0 5.5 8.75 26.34 26.34 0 0 0 8.35 6 25 25 0 0 0 10.5 2.2 24.45 24.45 0 0 0 10.35-2.2 26.7 26.7 0 0 0 8.3-6 28.33 28.33 0 0 0 5.55-8.75 27.68 27.68 0 0 0 2-10.45v-.2a27.68 27.68 0 0 0-2-10.45 28.33 28.33 0 0 0-5.55-8.75ZM396 49.4a35.85 35.85 0 0 1-1.7 12 14.37 14.37 0 0 1-4.8 6.95 12.28 12.28 0 0 1-7.4 2.25 12.63 12.63 0 0 1-7.55-2.25 13.86 13.86 0 0 1-4.8-6.95 36.77 36.77 0 0 1-1.65-12v-.5a36.32 36.32 0 0 1 1.65-11.9 13.56 13.56 0 0 1 4.8-6.85 12.81 12.81 0 0 1 7.55-2.2 12.45 12.45 0 0 1 7.4 2.2 14.06 14.06 0 0 1 4.8 6.85 35.41 35.41 0 0 1 1.7 11.9Zm58.9-25.8a20 20 0 0 0-9-1.8 17.25 17.25 0 0 0-12.5 4.85 23.76 23.76 0 0 0-5.83 9.65h-.34l-.73-13.7-10.4.7v52.1h11.4V52.3a38.39 38.39 0 0 1 1.8-12.5 17.47 17.47 0 0 1 5.1-7.95 11.82 11.82 0 0 1 7.8-2.75q4.5 0 6.45 2.55t2 7.55v36.2H462v-37a21.76 21.76 0 0 0-1.75-9.35 11.5 11.5 0 0 0-5.35-5.45ZM507.4 47a35.33 35.33 0 0 0-4.95-1.9c-1.77-.53-3.61-1-5.5-1.5s-3.74-.93-5.5-1.4a48.09 48.09 0 0 1-4.75-1.5 11.65 11.65 0 0 1-3.55-2.2 5.49 5.49 0 0 1-1.56-4.3 5.58 5.58 0 0 1 2.41-4.75q2.38-1.75 7.5-1.75a18.55 18.55 0 0 1 9.7 2.3 16.11 16.11 0 0 1 5.89 6.1l5.2-3.9a17.84 17.84 0 0 0-7.7-7.7q-5.08-2.7-12.8-2.7a25.06 25.06 0 0 0-10.14 1.9A15.34 15.34 0 0 0 475 29a13.54 13.54 0 0 0-2.36 7.9 12.92 12.92 0 0 0 2.36 8.15 16.59 16.59 0 0 0 5.66 4.75 39.08 39.08 0 0 0 5.64 2.3c1.91.6 3.77 1.1 5.61 1.5s3.59.82 5.3 1.25A35.74 35.74 0 0 1 502 56.4a10 10 0 0 1 3.65 2.7 6.44 6.44 0 0 1 1.14 4 6.86 6.86 0 0 1-2.59 5.55q-2.61 2.14-8.8 2.15a20.32 20.32 0 0 1-8.4-1.65 21 21 0 0 1-6.41-4.45 28.74 28.74 0 0 1-4.54-6l-5.1 4.1a28.88 28.88 0 0 0 5.44 6.85 26.4 26.4 0 0 0 8.06 5.1 31.58 31.58 0 0 0 21.85 0 16 16 0 0 0 7.15-5.55 14.57 14.57 0 0 0 2.5-8.5 15.3 15.3 0 0 0-2.2-8.6 14.23 14.23 0 0 0-6.35-5.1ZM607 30.4a41.83 41.83 0 0 0-4.61-16.15 23 23 0 0 0-10.25-9.7Q585.5 1.3 575.59 1.3a33.49 33.49 0 0 0-14.39 3.05 34.42 34.42 0 0 0-11.2 8.3 38.46 38.46 0 0 0-7.3 12A39.43 39.43 0 0 0 540.09 39v.2a40.6 40.6 0 0 0 2.55 14.3 39.06 39.06 0 0 0 7.2 12.1 32.76 32.76 0 0 0 11.36 8.3 36 36 0 0 0 14.89 3q9.81 0 16.66-3.55a24.56 24.56 0 0 0 10.45-10.1 32.19 32.19 0 0 0 3.69-15.35h-7.19a28.79 28.79 0 0 1-2.86 12.1 17 17 0 0 1-7.3 7.45 25.44 25.44 0 0 1-11.95 2.5q-8 0-13.14-3.75a22.27 22.27 0 0 1-7.7-10.7 46.87 46.87 0 0 1-2.55-16.3V39q0-10 2.64-16.8a22.13 22.13 0 0 1 7.66-10.35 20.3 20.3 0 0 1 12.09-3.55q6.7 0 10.86 2.3a14.9 14.9 0 0 1 6.34 7 37.6 37.6 0 0 1 2.91 12.2v.6Zm15.59-27.1a7.14 7.14 0 0 0-4.85 1.7 5.79 5.79 0 0 0-2 4.6 6 6 0 0 0 2 4.65 7.87 7.87 0 0 0 9.9 0 6.09 6.09 0 0 0 1.85-4.65 5.92 5.92 0 0 0-1.85-4.6 7.18 7.18 0 0 0-5.05-1.7Zm-5.6 72.1h11.4V22.6l-11.4.8v52zm51.9-53.6a14.45 14.45 0 0 0-7.5 2.15 17.82 17.82 0 0 0-6.15 6.5 27 27 0 0 0-2.81 7.35h-.5l-.64-15.2-10.1.8v52h11.4V55.2a50 50 0 0 1 1.75-14 24.26 24.26 0 0 1 4.6-9.2c1.9-2.17 4-3.25 6.25-3.25a5.05 5.05 0 0 1 2.9.75 4.53 4.53 0 0 1 1.65 2.6 19.72 19.72 0 0 1 .55 5.35v1.2h10.2V37.3q0-8.59-3-12t-8.6-3.5Zm51.4 2.3a28 28 0 0 0-11.59-2.3 25.27 25.27 0 0 0-23.16 13.7 28.7 28.7 0 0 0-3.25 13.5v.4A30.44 30.44 0 0 0 684 59.5a26 26 0 0 0 5.09 8.75 25.34 25.34 0 0 0 8.25 6.15 25.82 25.82 0 0 0 11.16 2.3 23.06 23.06 0 0 0 11.84-2.9 21.39 21.39 0 0 0 7.8-7.75 22.26 22.26 0 0 0 3.06-10.65h-6.41a19.08 19.08 0 0 1-2.15 7.85 13.68 13.68 0 0 1-5.1 5.4 14.55 14.55 0 0 1-7.65 1.95 14.16 14.16 0 0 1-8.39-2.4 14.39 14.39 0 0 1-5.11-7.1 34.12 34.12 0 0 1-1.69-11.5v-.8a35 35 0 0 1 1.69-11.9 13.34 13.34 0 0 1 5.06-6.8 14.1 14.1 0 0 1 7.94-2.2 13 13 0 0 1 8.75 2.85q3.36 2.85 3.36 9.75v1.3h9.79v-.6a18.1 18.1 0 0 0-2.95-10.5 18.83 18.83 0 0 0-8.05-6.6Zm19.9 51.3h11.5V0l-11.5.8v74.6zm68.9-26.2q0-9.41-3.2-15.5a20.6 20.6 0 0 0-8.7-9 26 26 0 0 0-12.3-2.9A23.74 23.74 0 0 0 772 25.4a26.25 26.25 0 0 0-9.15 9.8 28.5 28.5 0 0 0-3.4 13.9v.2a29.4 29.4 0 0 0 1.85 10.35 27.62 27.62 0 0 0 5.3 8.8 24.74 24.74 0 0 0 8.3 6 26.37 26.37 0 0 0 10.95 2.2 27.31 27.31 0 0 0 11.15-2.1 19.6 19.6 0 0 0 7.85-6.1 19.26 19.26 0 0 0 3.7-9.45H802a12.81 12.81 0 0 1-4.75 8.85 16 16 0 0 1-10 3.05q-7.59 0-11.5-5.5c-2.52-3.56-3.81-8.81-3.88-15.7h37.28Zm-35.6-13.15a13.39 13.39 0 0 1 4.7-6.6 11.91 11.91 0 0 1 6.9-2.05 11.42 11.42 0 0 1 6.6 1.85 11.54 11.54 0 0 1 4.15 5.9 30.08 30.08 0 0 1 1.43 9.35h-25.36a29.72 29.72 0 0 1 1.58-8.45Z"/></svg>
