<svg xmlns="http://www.w3.org/2000/svg" viewBox="0 0 627.29 96" preserveAspectRatio="xMinYMax meet"><path fill="currentColor" d="m56.6 2.8-21.28 56h-.56L13.8 2.8H0l27.7 72.6h8.9L64.4 2.8h-7.8zm38.11 61.43a28.69 28.69 0 0 0 2.14-3.13 41.17 41.17 0 0 0 3.35-7.3 65.4 65.4 0 0 0 2.3-8.4H97a59.93 59.93 0 0 1-1.85 7 34.21 34.21 0 0 1-2.8 6.3c-.32.55-.66 1.08-1 1.58-.07-.08-.14-.15-.2-.23q-3.66-4.39-7-8.5-2.31-3-4.57-5.86c.68-.33 1.37-.65 2-1a28.42 28.42 0 0 0 4.95-3.3 14.88 14.88 0 0 0 3.45-4.1 10.06 10.06 0 0 0 1.25-5v-.1a10.11 10.11 0 0 0-1.5-5.55 9.5 9.5 0 0 0-4.35-3.6 17.62 17.62 0 0 0-7-1.25 15.44 15.44 0 0 0-10.5 3.55 11.64 11.64 0 0 0-4.1 9.25v.2a15.73 15.73 0 0 0 1.5 6.45 37.56 37.56 0 0 0 2.39 4.45c-1 .44-2 .89-3 1.35a35.15 35.15 0 0 0-6 3.55 15.09 15.09 0 0 0-4.25 4.75 12.74 12.74 0 0 0-1.52 6.36v.3a13.51 13.51 0 0 0 2.25 7.8 14.77 14.77 0 0 0 6.1 5.1A20.43 20.43 0 0 0 70 76.7a26.56 26.56 0 0 0 12-2.6 25.82 25.82 0 0 0 5.29-3.53l1.91 2.08c.93 1 1.83 1.95 2.7 2.75h12.9q-2.91-3-6.45-7c-1.2-1.4-2.42-2.75-3.64-4.17ZM73.2 32.6a7.15 7.15 0 0 1 1.25-4.45 4.86 4.86 0 0 1 4.15-1.65 5.08 5.08 0 0 1 4.1 1.55A6.44 6.44 0 0 1 84 32.3v.4a10.34 10.34 0 0 1-.9 4.55A8.93 8.93 0 0 1 80 40.6a22.56 22.56 0 0 1-2.93 1.64 39.28 39.28 0 0 1-2.22-3.54A11.87 11.87 0 0 1 73.2 33Zm.4 38.3a9.62 9.62 0 0 1-7.6-3.05 11 11 0 0 1-2.7-7.55V60a12.85 12.85 0 0 1 .9-5.15 9.71 9.71 0 0 1 3.1-3.75 22.75 22.75 0 0 1 2.78-1.82c1.5 2.13 3.09 4.36 4.82 6.72q2.49 3.3 5.1 6.45c1.41 1.71 2.76 3.32 4.09 4.87-.57.42-1.16.83-1.79 1.23a15.87 15.87 0 0 1-8.7 2.35ZM99.1 2.8l-2.3 5.8 25.4 66.8h14.3L108.8 2.8h-9.7zm103.8 2.1a52.45 52.45 0 0 0-15.8-2.1h-26.4v72.6h12.8V44.1h13.6a51.41 51.41 0 0 0 15.8-2.1 20.32 20.32 0 0 0 10.15-6.75 18.65 18.65 0 0 0 3.55-11.7v-.3q0-7.2-3.55-11.7A20.37 20.37 0 0 0 202.9 4.9Zm.3 18.8q0 7.4-3.65 10.55T187.4 37.4h-13.9V9.5h13.9q8.49 0 12.15 3.15t3.65 10.75Zm53.3 22.5a50.27 50.27 0 0 1-1.4 12.8 15.23 15.23 0 0 1-4.6 8 12.61 12.61 0 0 1-8.4 2.7c-2.8 0-4.89-.82-6.25-2.45s-2-4.15-2-7.55v-37l-11.4.8v36.3q0 8.51 4.3 12.7t12.1 4.2q8.19 0 12.8-4.75a23.83 23.83 0 0 0 5.34-9.25h.39l.17 13.1 10.4-.3V22.6l-11.4.8Zm63.19-21.1a20.87 20.87 0 0 0-11.6-3.3A17.94 17.94 0 0 0 297 25.5a18.54 18.54 0 0 0-6 8.2h-.42V0L279.4.8v74.9h4.5l3.87-11.7h.56a22.46 22.46 0 0 0 6.41 8.5 19.48 19.48 0 0 0 12.55 4.2 21.55 21.55 0 0 0 11.65-3.35 23.93 23.93 0 0 0 8.55-9.45 31 31 0 0 0 3.2-14.6v-.2a33.29 33.29 0 0 0-2.95-14.55 22.41 22.41 0 0 0-8.05-9.45Zm-1.4 24.3q0 10.1-3.14 15.5a10.53 10.53 0 0 1-9.75 5.4 12.19 12.19 0 0 1-6.61-1.7 13.72 13.72 0 0 1-4.45-4.6 20.69 20.69 0 0 1-2.5-6.65 40.49 40.49 0 0 1-.75-8v-.5a33.29 33.29 0 0 1 1.6-10.7 15.86 15.86 0 0 1 4.85-7.35 12.33 12.33 0 0 1 8-2.65 10.36 10.36 0 0 1 9.56 5.4q3.14 5.4 3.14 15.4Zm21.1 26h11.5V0l-11.5.8v74.6zm29.9-72.1a7.14 7.14 0 0 0-4.85 1.7 5.79 5.79 0 0 0-1.95 4.6 6 6 0 0 0 1.95 4.65 7.87 7.87 0 0 0 9.9 0 6.09 6.09 0 0 0 1.85-4.65 5.92 5.92 0 0 0-1.85-4.6 7.18 7.18 0 0 0-5.05-1.7Zm-5.6 72.1h11.4V22.6l-11.4.8v52zm57.4-28.4a34.4 34.4 0 0 0-4.95-1.9c-1.76-.53-3.6-1-5.5-1.5s-3.73-.93-5.5-1.4-3.35-1-4.75-1.5a11.89 11.89 0 0 1-3.55-2.2 5.52 5.52 0 0 1-1.55-4.3 5.58 5.58 0 0 1 2.4-4.75q2.4-1.75 7.5-1.75a18.5 18.5 0 0 1 9.7 2.3 16.13 16.13 0 0 1 5.9 6.1l5.2-3.9a17.89 17.89 0 0 0-7.7-7.7 27.15 27.15 0 0 0-12.8-2.7 25.15 25.15 0 0 0-10.15 1.9 15.4 15.4 0 0 0-6.7 5.3 13.61 13.61 0 0 0-2.35 7.9 12.92 12.92 0 0 0 2.45 8.15 16.65 16.65 0 0 0 5.65 4.75 39.19 39.19 0 0 0 5.61 2.3q2.85.9 5.6 1.5c1.84.4 3.6.82 5.3 1.25a35.27 35.27 0 0 1 4.75 1.55 9.82 9.82 0 0 1 3.65 2.7 6.38 6.38 0 0 1 1.15 4 6.84 6.84 0 0 1-2.6 5.55q-2.59 2.14-8.8 2.15a20.35 20.35 0 0 1-8.45-1.65 21.08 21.08 0 0 1-6.4-4.45 28.79 28.79 0 0 1-4.55-6l-5.1 4.1a29.18 29.18 0 0 0 5.45 6.85 26.47 26.47 0 0 0 8 5.1 31.58 31.58 0 0 0 21.85 0A15.89 15.89 0 0 0 427 69.2a14.5 14.5 0 0 0 2.5-8.5 15.22 15.22 0 0 0-2.2-8.6 14.12 14.12 0 0 0-6.21-5.1Zm56.4-23.4a20 20 0 0 0-9-1.8 17.68 17.68 0 0 0-12.6 4.8 22.81 22.81 0 0 0-5.62 8.8H450V0l-11.3.7v74.7h11.4V52.2a37 37 0 0 1 1.85-12.45 17.72 17.72 0 0 1 5.2-7.9A12 12 0 0 1 465 29.1q4.2 0 6.2 2.55c1.34 1.7 2 4.15 2 7.35v36.4h11.4v-37a21.61 21.61 0 0 0-1.75-9.35 11.46 11.46 0 0 0-5.36-5.45Zm25.2-20.3a7.14 7.14 0 0 0-4.85 1.7 5.79 5.79 0 0 0-1.95 4.6 6 6 0 0 0 1.95 4.65 7.87 7.87 0 0 0 9.9 0 6.09 6.09 0 0 0 1.85-4.65 5.92 5.92 0 0 0-1.85-4.6 7.19 7.19 0 0 0-5.05-1.7Zm-5.6 72.1h11.4V22.6l-11.4.8v52zm63-51.8a20 20 0 0 0-9-1.8 17.26 17.26 0 0 0-12.5 4.85 23.85 23.85 0 0 0-5.82 9.65h-.34l-.74-13.7-10.4.7v52.1h11.4V52.3a38.39 38.39 0 0 1 1.8-12.5 17.47 17.47 0 0 1 5.1-7.95 11.82 11.82 0 0 1 7.8-2.75q4.5 0 6.45 2.55t1.95 7.55v36.2h11.4v-37a21.61 21.61 0 0 0-1.75-9.35 11.5 11.5 0 0 0-5.35-5.45Zm65.6 47.05a9.72 9.72 0 0 0-5.2-4.25 26.42 26.42 0 0 0-9.4-1.4h-22.6a6.86 6.86 0 0 1-4.4-1.15 3.66 3.66 0 0 1-1.4-3 3.29 3.29 0 0 1 1.6-3 7.34 7.34 0 0 1 3.8-1 12 12 0 0 1 2.7.3c.87.2 1.94.38 3.2.55a38.34 38.34 0 0 0 4.9.25 26.39 26.39 0 0 0 11.05-2.25 19.58 19.58 0 0 0 7.9-6.3 15.6 15.6 0 0 0 2.95-9.4v-.2a15.6 15.6 0 0 0-2.95-9.45 18.51 18.51 0 0 0-3.12-3.35l9.57-9.93-9-4.5-3.84 12.21c-.49-.27-1-.52-1.51-.76a27.89 27.89 0 0 0-22 0 19.54 19.54 0 0 0-8 6.3 15.6 15.6 0 0 0-2.95 9.45V40a15.6 15.6 0 0 0 3.01 9.45 18.66 18.66 0 0 0 5 4.66v.17a15.26 15.26 0 0 0-3 .82 10.14 10.14 0 0 0-4.7 3.6 9.12 9.12 0 0 0-1.55 5.2 8.48 8.48 0 0 0 1.6 5.3 10.17 10.17 0 0 0 4.15 3.2 17.9 17.9 0 0 0 3 1v.13a26.08 26.08 0 0 0-6.7 2.44 7.74 7.74 0 0 0-4.5 7.15q0 5.7 6.65 9.15t18.75 3.45a47.57 47.57 0 0 0 14.75-2.1 23.11 23.11 0 0 0 10.15-6.15 13.93 13.93 0 0 0 3.7-9.75 14.19 14.19 0 0 0-1.61-7.07Zm-37.2-30.95q0-6.41 2.7-9.45t7.7-3.05q5.21 0 7.85 3.05t2.65 9.45v.5q0 6.4-2.65 9.45t-7.85 3.05q-5 0-7.7-3.05t-2.7-9.45Zm24.6 48.35q-5.1 2.55-14.4 2.55a37 37 0 0 1-9-.95 12.78 12.78 0 0 1-5.7-2.8 6.26 6.26 0 0 1-1.95-4.75 5.23 5.23 0 0 1 1.96-4.35 11.65 11.65 0 0 1 4.75-2.2 24.1 24.1 0 0 1 5.4-.65h15.9a14.79 14.79 0 0 1 5 .65 4.26 4.26 0 0 1 2.4 2 8 8 0 0 1 .7 3.65q.04 4.31-5.06 6.85Z"/></svg>
