<svg xmlns="http://www.w3.org/2000/svg" width="456.967" height="46.872" viewBox="0 0 456.967 46.872"><g fill="currentColor" fill-rule="nonzero"><path d="M35.402.93h5.58L23.188 45.942h-5.642L0 .93h9.672l12.71 34.286-1.054-.806h2.108l-1.24.62zM63.457 21.452l-1.612-3.286c2.273-.868 4.02-1.684 5.239-2.449 1.219-.765 2.066-1.653 2.542-2.666.475-1.013.713-2.242.713-3.689v-.186c0-1.488-.393-2.656-1.178-3.503-.786-.847-1.902-1.271-3.348-1.271-1.034 0-1.933.207-2.697.62A4.057 4.057 0 0 0 61.38 6.82c-.393.785-.59 1.757-.59 2.914v.186c0 1.612.466 3.265 1.396 4.96.93 1.695 2.128 3.462 3.596 5.301a316.43 316.43 0 0 1 4.557 5.859 221.04 221.04 0 0 0 4.278 5.394 234.676 234.676 0 0 0 4.495 5.332 233.797 233.797 0 0 0 4.402 4.929 700.29 700.29 0 0 0 3.937 4.247H77.22a2127.81 2127.81 0 0 1-4.588-5.146 260.786 260.786 0 0 1-4.898-5.673 138.25 138.25 0 0 1-4.34-5.425 1557.067 1557.067 0 0 1-4.991-6.727c-1.509-2.046-2.708-4.02-3.596-5.921-.889-1.901-1.333-3.823-1.333-5.766v-.186c0-2.15.516-4.061 1.55-5.735 1.033-1.674 2.48-2.986 4.34-3.937C61.225.476 63.374 0 65.813 0c2.314 0 4.247.362 5.797 1.085 1.55.723 2.717 1.746 3.503 3.069.785 1.323 1.178 2.852 1.178 4.588v.124c0 1.53-.31 2.924-.93 4.185-.62 1.26-1.499 2.387-2.635 3.379-1.137.992-2.48 1.901-4.03 2.728-1.55.827-3.297 1.591-5.24 2.294zM78.15 38.626h-.806a23.851 23.851 0 0 1-4.62 4.402c-1.715 1.24-3.668 2.19-5.858 2.852-2.191.661-4.692.992-7.502.992-2.852 0-5.415-.496-7.688-1.488-2.274-.992-4.061-2.428-5.363-4.309-1.302-1.88-1.953-4.123-1.953-6.727v-.186c0-2.025.423-3.834 1.27-5.425.848-1.591 2.005-2.997 3.473-4.216 1.467-1.22 3.151-2.294 5.053-3.224a48.767 48.767 0 0 1 6.014-2.449l1.426 3.162c-1.736.785-3.193 1.54-4.371 2.263-1.178.723-2.088 1.509-2.728 2.356a8.382 8.382 0 0 0-1.395 2.821c-.29 1.033-.434 2.232-.434 3.596v.248c0 1.777.403 3.317 1.209 4.619.806 1.302 1.911 2.294 3.317 2.976 1.405.682 3.038 1.023 4.898 1.023 1.777 0 3.482-.279 5.115-.837 1.632-.558 3.1-1.302 4.402-2.232 1.302-.93 2.345-1.891 3.13-2.883a17.308 17.308 0 0 0 3.039-4.123c.826-1.55 1.508-3.317 2.046-5.301.537-1.984.971-4.175 1.302-6.572h4.526c-.372 2.728-.868 5.218-1.488 7.471s-1.406 4.288-2.356 6.107a22.61 22.61 0 0 1-3.658 5.084zM119.597 31.744H98.89v-4.278h20.708ZM89.961 45.942 107.57.93h6.51l17.298 45.012h-9.61l-13.95-38.688 2.914 3.658h-3.906l4.216-6.076-15.438 41.106zM161.974 41.044l-2.79-4.216h3.844l-4.712 6.51 10.478-28.21h2.976l1.116 2.294-10.54 28.52h-6.324L144.49 13.268h8.122zm20.212 0-2.79-4.216h3.844l-4.712 6.51 11.16-30.07h5.332l-12.524 32.674h-6.262l-11.408-32.674h8.122zM214.86 46.748c-2.357 0-4.547-.455-6.573-1.364a16.474 16.474 0 0 1-5.27-3.72 17.156 17.156 0 0 1-3.472-5.425c-.826-2.046-1.24-4.226-1.24-6.541v-.124c0-2.315.414-4.495 1.24-6.541a17.532 17.532 0 0 1 3.472-5.456 16.245 16.245 0 0 1 5.27-3.751c2.026-.91 4.216-1.364 6.572-1.364s4.537.455 6.541 1.364a16.94 16.94 0 0 1 5.27 3.72 16.887 16.887 0 0 1 3.503 5.425c.827 2.046 1.24 4.247 1.24 6.603v.124c0 2.315-.413 4.495-1.24 6.541a16.887 16.887 0 0 1-3.503 5.425 16.94 16.94 0 0 1-5.27 3.72c-2.004.91-4.185 1.364-6.54 1.364zm-7.937-17.05c0 2.976.31 5.415.93 7.316.62 1.901 1.52 3.286 2.697 4.154 1.178.868 2.615 1.302 4.31 1.302 1.694 0 3.13-.434 4.308-1.302 1.178-.868 2.077-2.253 2.697-4.154.62-1.901.93-4.34.93-7.316v-.124c0-3.017-.31-5.466-.93-7.347-.62-1.88-1.519-3.265-2.697-4.154-1.178-.889-2.614-1.333-4.309-1.333-1.694 0-3.13.444-4.309 1.333-1.178.889-2.077 2.273-2.697 4.154-.62 1.88-.93 4.33-.93 7.347zM262.723 22.382v1.116h-7.006v-.496c0-1.57-.113-2.749-.34-3.534-.228-.785-.559-1.312-.993-1.581-.434-.269-1.002-.403-1.705-.403-1.033 0-1.994.372-2.883 1.116-.888.744-1.663 1.808-2.325 3.193-.661 1.385-1.178 3.08-1.55 5.084-.372 2.005-.558 4.247-.558 6.727v12.338h-7.998V13.516l7.13-.496.558 15.004-1.302-5.766h2.852l-1.922 2.294c.33-2.108.827-3.927 1.488-5.456.662-1.53 1.478-2.78 2.45-3.751.97-.971 2.035-1.695 3.192-2.17a9.378 9.378 0 0 1 3.596-.713c2.439 0 4.268.744 5.487 2.232 1.22 1.488 1.83 4.05 1.83 7.688zM297.66 45.942l-7.254.186v-10.85l1.426 3.72h-3.41l2.666-4.092c-.455 2.852-1.22 5.156-2.294 6.913-1.075 1.757-2.439 3.017-4.092 3.782-1.654.765-3.555 1.147-5.704 1.147-2.646 0-5.012-.692-7.1-2.077-2.087-1.385-3.73-3.348-4.928-5.89-1.199-2.542-1.798-5.57-1.798-9.083v-.124c0-2.645.361-5.022 1.085-7.13.723-2.108 1.736-3.906 3.038-5.394 1.302-1.488 2.82-2.625 4.557-3.41a13.234 13.234 0 0 1 5.518-1.178c3.1 0 5.662.868 7.688 2.604 2.025 1.736 3.286 4.485 3.782 8.246l-3.038-4.588h4.216l-2.046 2.852V.434L297.66 0Zm-23.87-16.368v.124c0 2.77.34 5.063 1.023 6.882.682 1.819 1.612 3.183 2.79 4.092 1.178.91 2.531 1.364 4.06 1.364 1.571 0 2.873-.362 3.907-1.085 1.033-.723 1.86-1.674 2.48-2.852.62-1.178 1.064-2.5 1.333-3.968.268-1.467.403-2.945.403-4.433v-.124a25 25 0 0 0-.434-4.774c-.29-1.488-.755-2.8-1.395-3.937a7.332 7.332 0 0 0-2.573-2.697c-1.075-.661-2.377-.992-3.906-.992-2.232 0-4.072 1.023-5.518 3.069-1.447 2.046-2.17 5.156-2.17 9.331zM333.62 23.932l-1.489-2.666h3.286l-2.232 2.542c.455-2.397 1.189-4.433 2.201-6.107 1.013-1.674 2.294-2.966 3.844-3.875 1.55-.91 3.297-1.364 5.24-1.364 3.389 0 5.879.858 7.47 2.573 1.592 1.715 2.387 4.288 2.387 7.719v23.188h-7.998V23.374c0-1.736-.361-3.08-1.085-4.03-.723-.95-1.808-1.426-3.255-1.426-1.281 0-2.418.351-3.41 1.054-.992.703-1.818 1.695-2.48 2.976-.661 1.281-1.157 2.81-1.488 4.588-.33 1.777-.496 3.74-.496 5.89v13.516h-7.998V23.374c0-1.736-.361-3.08-1.085-4.03-.723-.95-1.808-1.426-3.255-1.426-1.281 0-2.418.351-3.41 1.054-.992.703-1.829 1.695-2.51 2.976-.683 1.281-1.189 2.81-1.52 4.588-.33 1.777-.496 3.74-.496 5.89v13.516h-7.998V13.516l7.006-.496.496 9.3-1.426-1.054h3.224l-2.232 2.542c.496-2.397 1.261-4.433 2.294-6.107 1.034-1.674 2.325-2.966 3.875-3.875 1.55-.91 3.317-1.364 5.301-1.364 2.232 0 4.02.382 5.363 1.147 1.344.765 2.325 1.901 2.945 3.41.62 1.509.93 3.42.93 5.735zM367.254 23.002v.372l-5.952-.248v-.248c0-2.315.589-4.247 1.767-5.797 1.178-1.55 2.79-2.707 4.836-3.472 2.046-.765 4.392-1.147 7.037-1.147 4.133 0 7.326.775 9.579 2.325 2.253 1.55 3.379 3.896 3.379 7.037v24.118h-6.014l-1.116-6.944 1.674.558h-2.914l2.356-5.828c-.207 2.728-.837 5.063-1.891 7.006-1.054 1.943-2.46 3.43-4.216 4.464-1.757 1.033-3.772 1.55-6.045 1.55-2.025 0-3.74-.362-5.146-1.085-1.405-.723-2.47-1.726-3.193-3.007-.723-1.281-1.085-2.749-1.085-4.402v-.186c0-1.736.351-3.234 1.054-4.495.703-1.26 1.932-2.356 3.689-3.286 1.757-.93 4.206-1.788 7.347-2.573a90.164 90.164 0 0 0 4.185-1.116 56.314 56.314 0 0 0 3.255-1.054c.91-.33 1.53-.64 1.86-.93l-.062 3.658c-.372.29-.9.579-1.581.868-.682.29-1.478.568-2.387.837-.91.269-1.901.548-2.976.837-1.364.372-2.47.744-3.317 1.116-.847.372-1.498.806-1.953 1.302a3.943 3.943 0 0 0-.93 1.736c-.165.661-.248 1.447-.248 2.356v.124c0 .95.176 1.788.527 2.511a4.053 4.053 0 0 0 1.519 1.705c.661.413 1.488.62 2.48.62s1.922-.248 2.79-.744c.868-.496 1.633-1.188 2.294-2.077s1.168-1.943 1.519-3.162c.351-1.22.527-2.552.527-3.999V22.32c0-1.86-.444-3.245-1.333-4.154-.889-.91-2.408-1.364-4.557-1.364-2.19 0-3.865.496-5.022 1.488s-1.736 2.563-1.736 4.712zM421.225 22.382v1.116h-7.006v-.496c0-1.57-.114-2.749-.341-3.534-.228-.785-.558-1.312-.992-1.581-.434-.269-1.003-.403-1.705-.403-1.034 0-1.995.372-2.883 1.116-.89.744-1.664 1.808-2.325 3.193-.662 1.385-1.178 3.08-1.55 5.084-.372 2.005-.558 4.247-.558 6.727v12.338h-7.998V13.516l7.13-.496.558 15.004-1.302-5.766h2.852l-1.922 2.294c.33-2.108.826-3.927 1.488-5.456.66-1.53 1.477-2.78 2.449-3.751.97-.971 2.035-1.695 3.193-2.17a9.378 9.378 0 0 1 3.596-.713c2.438 0 4.267.744 5.487 2.232 1.219 1.488 1.829 4.05 1.829 7.688zM436.197 27.962l7.192-3.162 13.578 21.142h-9.238zm-8.37 6.82 21.452-21.514h6.51l-22.072 21.514zm6.2 11.16h-8.122V.434L434.027 0Z"/></g></svg>