<svg xmlns="http://www.w3.org/2000/svg" viewBox="0 0 350.8 96" preserveAspectRatio="xMinYMax meet"><path fill="currentColor" d="m56.61 2.8-21.28 56h-.56l-20.96-56H.01l27.7 72.6h8.9l27.8-72.6h-7.8zm38.11 61.43a30.17 30.17 0 0 0 2.14-3.13 41.17 41.17 0 0 0 3.35-7.3 65.4 65.4 0 0 0 2.3-8.4H97a59.93 59.93 0 0 1-1.85 7 34.21 34.21 0 0 1-2.8 6.3c-.32.55-.66 1.08-1 1.58l-.19-.28q-3.66-4.39-7-8.5-2.31-3-4.57-5.86c.68-.33 1.37-.65 2-1a28.42 28.42 0 0 0 5-3.3 14.88 14.88 0 0 0 3.45-4.1 10.06 10.06 0 0 0 1.25-5v-.1a10.11 10.11 0 0 0-1.5-5.55 9.5 9.5 0 0 0-4.35-3.6 17.62 17.62 0 0 0-7-1.25 15.49 15.49 0 0 0-10.5 3.55 11.64 11.64 0 0 0-4.1 9.25v.2a15.73 15.73 0 0 0 1.5 6.45 37.56 37.56 0 0 0 2.36 4.51c-1 .44-2 .89-3 1.35a35.15 35.15 0 0 0-6 3.55 15.09 15.09 0 0 0-4.25 4.75 12.63 12.63 0 0 0-1.55 6.35v.3a13.51 13.51 0 0 0 2.25 7.8 14.77 14.77 0 0 0 6.1 5.1A20.43 20.43 0 0 0 70 76.7a26.56 26.56 0 0 0 12-2.6 25.82 25.82 0 0 0 5.29-3.53l1.91 2.08c.93 1 1.83 1.95 2.7 2.75h12.9q-2.91-3-6.45-7c-1.19-1.35-2.41-2.75-3.63-4.17ZM73.21 32.6a7.17 7.17 0 0 1 1.25-4.45 4.86 4.86 0 0 1 4.15-1.65 5.08 5.08 0 0 1 4.1 1.55A6.44 6.44 0 0 1 84 32.3v.4a10.34 10.34 0 0 1-.9 4.55A8.85 8.85 0 0 1 80 40.6a22.56 22.56 0 0 1-2.93 1.64 37.15 37.15 0 0 1-2.22-3.54 11.87 11.87 0 0 1-1.64-5.7Zm.4 38.3A9.62 9.62 0 0 1 66 67.85a11 11 0 0 1-2.7-7.55V60a12.85 12.85 0 0 1 .9-5.15 9.71 9.71 0 0 1 3.1-3.75 22.75 22.75 0 0 1 2.78-1.82c1.5 2.13 3.09 4.36 4.82 6.72q2.49 3.3 5.1 6.45c1.41 1.71 2.76 3.32 4.08 4.87-.56.42-1.15.83-1.78 1.23a15.87 15.87 0 0 1-8.69 2.35Zm25.5-68.1-2.3 5.8 25.4 66.8h14.3l-27.7-72.6h-9.7zm74.4 38.7h28.2v-6.9h-28.2V9.7h36.1V2.8h-48.9v72.6h50v-6.9h-37.2v-27zm81.2-16q-5.21-3.69-15-3.7a32 32 0 0 0-11.1 1.8 17.14 17.14 0 0 0-7.75 5.4 14.2 14.2 0 0 0-2.86 9.1v.5l9 .3v-.8a11.77 11.77 0 0 1 1.3-6 7.43 7.43 0 0 1 3.9-3.2 17.4 17.4 0 0 1 6.2-1q5.49 0 7.8 2.25c1.53 1.5 2.3 3.89 2.3 7.15v5.33a27.5 27.5 0 0 1-2.65 1.12 76.17 76.17 0 0 1-10.05 2.75 45.5 45.5 0 0 0-11.25 3.7 15.2 15.2 0 0 0-6.15 5.25 13.58 13.58 0 0 0-1.9 7.35v.2a13.24 13.24 0 0 0 3.9 9.85q3.9 3.86 11.2 3.85a18.47 18.47 0 0 0 9.9-2.65 19.49 19.49 0 0 0 6.9-7.4c.39-.72.74-1.47 1.07-2.25h.33l1.4 11h8.7V36.8q.01-7.59-5.19-11.3Zm-12.25 42.75a10.26 10.26 0 0 1-6.75 2.35 7 7 0 0 1-5.7-2.4 9.31 9.31 0 0 1-2-6.2v-.3a15.24 15.24 0 0 1 .75-5.1 7 7 0 0 1 3.05-3.55 23.46 23.46 0 0 1 6.9-2.55 80.5 80.5 0 0 0 7.7-2.35c.78-.29 1.46-.58 2.1-.87v5.92a23.22 23.22 0 0 1-1.6 8.75 15.6 15.6 0 0 1-4.45 6.3ZM304.31 47a35.33 35.33 0 0 0-4.95-1.9c-1.77-.53-3.61-1-5.5-1.5s-3.74-.93-5.5-1.4a48.09 48.09 0 0 1-4.75-1.5 11.65 11.65 0 0 1-3.55-2.2 5.49 5.49 0 0 1-1.56-4.3 5.6 5.6 0 0 1 2.4-4.75c1.6-1.16 4.1-1.75 7.5-1.75a18.56 18.56 0 0 1 9.71 2.3 16.18 16.18 0 0 1 5.89 6.1l5.2-3.9a17.89 17.89 0 0 0-7.7-7.7q-5.08-2.7-12.8-2.7a25.06 25.06 0 0 0-10.14 1.9 15.35 15.35 0 0 0-6.7 5.3 13.54 13.54 0 0 0-2.36 7.9 12.92 12.92 0 0 0 2.5 8.15 16.59 16.59 0 0 0 5.66 4.75 39.08 39.08 0 0 0 5.64 2.3q2.85.9 5.61 1.5t5.29 1.25a36.25 36.25 0 0 1 4.75 1.55 10 10 0 0 1 3.66 2.7 6.44 6.44 0 0 1 1.14 4 6.86 6.86 0 0 1-2.59 5.55q-2.61 2.14-8.8 2.15a20.32 20.32 0 0 1-8.45-1.65 21 21 0 0 1-6.41-4.45 29.14 29.14 0 0 1-4.55-6l-5.09 4.1a28.88 28.88 0 0 0 5.44 6.85 26.4 26.4 0 0 0 8.06 5.1 31.55 31.55 0 0 0 21.84 0 16 16 0 0 0 7.16-5.55 14.57 14.57 0 0 0 2.5-8.5 15.3 15.3 0 0 0-2.2-8.6 14.23 14.23 0 0 0-6.35-5.1Zm46.5-17.5v-6.4h-16V6.9h-6.3a32.84 32.84 0 0 1-1.8 9.4 10.47 10.47 0 0 1-4.45 5.4 18.38 18.38 0 0 1-8.26 2.1v5.7h9.4v30q0 8.4 4.25 12.15t11.85 3.75h11.1V69h-7.5a11.61 11.61 0 0 1-4.3-.75 5.57 5.57 0 0 1-2.95-2.8 13.68 13.68 0 0 1-1.05-6.05V29.5Z"/></svg>
