<svg xmlns="http://www.w3.org/2000/svg" viewBox="0 0 963.89 96" preserveAspectRatio="xMinYMax meet"><path fill="currentColor" d="m56.6 2.8-21.28 56h-.56L13.8 2.8H0l27.7 72.6h8.9L64.4 2.8h-7.8zm38.11 61.43a28.69 28.69 0 0 0 2.14-3.13 41.17 41.17 0 0 0 3.35-7.3 65.4 65.4 0 0 0 2.3-8.4H97a59.93 59.93 0 0 1-1.85 7 34.21 34.21 0 0 1-2.8 6.3c-.32.55-.66 1.08-1 1.58-.07-.08-.14-.15-.2-.23q-3.66-4.39-7-8.5-2.31-3-4.57-5.86c.68-.33 1.37-.65 2-1a28.42 28.42 0 0 0 4.95-3.3 14.88 14.88 0 0 0 3.45-4.1 10.06 10.06 0 0 0 1.25-5v-.1a10.11 10.11 0 0 0-1.5-5.55 9.5 9.5 0 0 0-4.35-3.6 17.62 17.62 0 0 0-7-1.25 15.44 15.44 0 0 0-10.5 3.55 11.64 11.64 0 0 0-4.1 9.25v.2a15.73 15.73 0 0 0 1.5 6.45 37.56 37.56 0 0 0 2.39 4.45c-1 .44-2 .89-3 1.35a35.15 35.15 0 0 0-6 3.55 15.09 15.09 0 0 0-4.25 4.75 12.74 12.74 0 0 0-1.52 6.36v.3a13.51 13.51 0 0 0 2.25 7.8 14.77 14.77 0 0 0 6.1 5.1A20.43 20.43 0 0 0 70 76.7a26.56 26.56 0 0 0 12-2.6 25.82 25.82 0 0 0 5.29-3.53l1.91 2.08c.93 1 1.83 1.95 2.7 2.75h12.9q-2.91-3-6.45-7c-1.2-1.35-2.42-2.75-3.64-4.17ZM73.2 32.6a7.15 7.15 0 0 1 1.25-4.45 4.86 4.86 0 0 1 4.15-1.65 5.08 5.08 0 0 1 4.1 1.55A6.44 6.44 0 0 1 84 32.3v.4a10.34 10.34 0 0 1-.9 4.55A8.93 8.93 0 0 1 80 40.6a22.56 22.56 0 0 1-2.93 1.64 39.28 39.28 0 0 1-2.22-3.54A11.87 11.87 0 0 1 73.2 33Zm.4 38.3a9.62 9.62 0 0 1-7.6-3.05 11 11 0 0 1-2.7-7.55V60a12.85 12.85 0 0 1 .9-5.15 9.71 9.71 0 0 1 3.1-3.75 22.75 22.75 0 0 1 2.78-1.82c1.5 2.13 3.09 4.36 4.82 6.72q2.49 3.3 5.1 6.45c1.41 1.71 2.76 3.32 4.09 4.87-.57.42-1.16.83-1.79 1.23a15.87 15.87 0 0 1-8.7 2.35ZM99.1 2.8l-2.3 5.8 25.4 66.8h14.3L108.8 2.8h-9.7zm111 38.5a21.61 21.61 0 0 0-6-4 38.09 38.09 0 0 0-6.45-2.65q-3.66-1.15-7.5-2.1t-7.45-2a44.81 44.81 0 0 1-6.2-2.25 17.11 17.11 0 0 1-5.35-3.55c-1.44-1.43-2.15-3.58-2.15-6.45a9.18 9.18 0 0 1 3.6-7.5q3.6-2.9 10.3-2.9 8 0 13.2 2.95T205 21l6.3-4.2a30.32 30.32 0 0 0-7.1-9.25 24.49 24.49 0 0 0-9.2-4.8 44.73 44.73 0 0 0-12-1.45 29.91 29.91 0 0 0-12.3 2.45 21.61 21.61 0 0 0-8.8 6.9 17.07 17.07 0 0 0-3.3 10.45 19.88 19.88 0 0 0 1.6 8.25 17.37 17.37 0 0 0 4.35 6 25.6 25.6 0 0 0 6.15 4q3.39 1.4 7.2 2.55c2.53.77 5.08 1.48 7.65 2.15s4.93 1.3 7.1 1.9A43.47 43.47 0 0 1 198 47.8a15.11 15.11 0 0 1 5.15 3.85Q205 53.9 205 58.3a10.2 10.2 0 0 1-4.35 8.75q-4.35 3.15-11.75 3.15a31.21 31.21 0 0 1-11.15-1.85 21.49 21.49 0 0 1-8.45-5.85 37.61 37.61 0 0 1-6.3-10.2l-6.6 4.1a37.59 37.59 0 0 0 7.15 11.1 28.23 28.23 0 0 0 10.65 7 41.19 41.19 0 0 0 14.7 2.4 34.23 34.23 0 0 0 13.7-2.6 22 22 0 0 0 9.45-7.45 19.39 19.39 0 0 0 3.45-11.55 21 21 0 0 0-1.45-8.2 17.5 17.5 0 0 0-3.95-5.8Zm56.35-11.4a25.92 25.92 0 0 0-8.3-5.95 24.88 24.88 0 0 0-10.35-2.15 25.44 25.44 0 0 0-10.5 2.2 25.15 25.15 0 0 0-8.3 6 28 28 0 0 0-7.5 19.1v.2a28.24 28.24 0 0 0 1.95 10.45A27.31 27.31 0 0 0 229 68.5a26.34 26.34 0 0 0 8.35 6 24.85 24.85 0 0 0 10.5 2.2 24.3 24.3 0 0 0 10.35-2.2 26.7 26.7 0 0 0 8.3-6 28.33 28.33 0 0 0 5.5-8.75 27.68 27.68 0 0 0 2-10.45v-.2a27.68 27.68 0 0 0-2-10.45 28.33 28.33 0 0 0-5.55-8.75Zm-4.75 19.5a35.85 35.85 0 0 1-1.7 12 14.37 14.37 0 0 1-4.8 6.95 12.28 12.28 0 0 1-7.4 2.25 12.63 12.63 0 0 1-7.55-2.25 13.86 13.86 0 0 1-4.8-6.95 36.77 36.77 0 0 1-1.65-12v-.5a36.32 36.32 0 0 1 1.65-11.9 13.56 13.56 0 0 1 4.8-6.85 12.81 12.81 0 0 1 7.55-2.2 12.45 12.45 0 0 1 7.4 2.2A14.06 14.06 0 0 1 260 37a35.41 35.41 0 0 1 1.7 11.95Zm54.9-3.2a50.27 50.27 0 0 1-1.4 12.8 15.23 15.23 0 0 1-4.6 8 12.61 12.61 0 0 1-8.4 2.7c-2.8 0-4.89-.82-6.25-2.45S293.9 63 293.9 59.6v-37l-11.4.8v36.4q0 8.51 4.3 12.7t12.1 4.2q8.19 0 12.8-4.75a23.83 23.83 0 0 0 5.3-9.25h.39l.17 13.1 10.4-.3V22.6l-11.4.8ZM355 6.9h-6.31a32.54 32.54 0 0 1-1.79 9.4 10.44 10.44 0 0 1-4.46 5.4 18.31 18.31 0 0 1-8.25 2.1v5.7h9.4v30q0 8.4 4.25 12.15t11.85 3.75h11.1V69h-7.5a11.55 11.55 0 0 1-4.29-.75 5.63 5.63 0 0 1-3-2.8 13.7 13.7 0 0 1-1-6.05V29.5h16v-6.4h-16Zm63.79 16.7a20 20 0 0 0-9-1.8 17.68 17.68 0 0 0-12.6 4.8 22.81 22.81 0 0 0-5.62 8.8h-.28V0L380 .7v74.7h11.4V52.2a37 37 0 0 1 1.85-12.45 17.72 17.72 0 0 1 5.2-7.9 12 12 0 0 1 7.85-2.75q4.2 0 6.2 2.55c1.34 1.7 2 4.15 2 7.35v36.4h11.4v-37a21.61 21.61 0 0 0-1.75-9.35 11.46 11.46 0 0 0-5.36-5.45Zm101.2-20.8h-10.1l-39 38.07V2.8h-12.8v72.6h12.8V50.35l11.72-11.34 24.68 36.39h14.3L491.4 30.5l28.59-27.7zm39.3 21.9A26 26 0 0 0 547 21.8a23.74 23.74 0 0 0-12.85 3.6 26.25 26.25 0 0 0-9.15 9.8 28.5 28.5 0 0 0-3.4 13.9v.2a29.4 29.4 0 0 0 1.85 10.35 27.62 27.62 0 0 0 5.3 8.8 24.74 24.74 0 0 0 8.3 6 26.21 26.21 0 0 0 11 2.2 27.31 27.31 0 0 0 11.15-2.15 19.6 19.6 0 0 0 7.85-6.1 19.26 19.26 0 0 0 3.7-9.45h-6.6a12.81 12.81 0 0 1-4.75 8.85 16 16 0 0 1-10.05 3.05q-7.59 0-11.5-5.5-3.78-5.34-3.88-15.7h37.28v-.5q0-9.41-3.2-15.5a20.6 20.6 0 0 0-8.76-8.95Zm-23.7 11.35a13.39 13.39 0 0 1 4.7-6.6 11.91 11.91 0 0 1 6.9-2.05 11.42 11.42 0 0 1 6.6 1.85 11.54 11.54 0 0 1 4.15 5.9 30.08 30.08 0 0 1 1.43 9.35H534a29.79 29.79 0 0 1 1.59-8.45Zm83-12.45a20 20 0 0 0-9-1.8 17.25 17.25 0 0 0-12.5 4.85 23.85 23.85 0 0 0-5.82 9.65h-.34l-.74-13.7-10.4.7v52.1h11.4V52.3A38.39 38.39 0 0 1 593 39.8a17.47 17.47 0 0 1 5.1-7.95 11.82 11.82 0 0 1 7.8-2.75q4.5 0 6.45 2.55t1.95 7.55v36.2h11.4v-37a21.61 21.61 0 0 0-1.75-9.35 11.5 11.5 0 0 0-5.36-5.45Zm51.5 23.4a34.4 34.4 0 0 0-5-1.9q-2.65-.8-5.5-1.5c-1.9-.47-3.73-.93-5.5-1.4a49 49 0 0 1-4.75-1.5 11.77 11.77 0 0 1-3.55-2.2 5.52 5.52 0 0 1-1.55-4.3 5.58 5.58 0 0 1 2.4-4.75q2.4-1.75 7.5-1.75a18.52 18.52 0 0 1 9.7 2.3 16.21 16.21 0 0 1 5.9 6.1l5.2-3.9a17.89 17.89 0 0 0-7.7-7.7 27.18 27.18 0 0 0-12.8-2.7 25.11 25.11 0 0 0-10.15 1.9 15.4 15.4 0 0 0-6.7 5.3 13.53 13.53 0 0 0-2.35 7.9 12.92 12.92 0 0 0 2.45 8.15 16.55 16.55 0 0 0 5.65 4.75 39.19 39.19 0 0 0 5.66 2.3q2.85.9 5.6 1.5t5.3 1.25a35.74 35.74 0 0 1 4.75 1.55 9.91 9.91 0 0 1 3.65 2.7 6.38 6.38 0 0 1 1.15 4 6.87 6.87 0 0 1-2.6 5.55c-1.73 1.43-4.67 2.15-8.8 2.15a20.32 20.32 0 0 1-8.45-1.65 21 21 0 0 1-6.4-4.45 28.79 28.79 0 0 1-4.55-6l-5.1 4.1a29.18 29.18 0 0 0 5.45 6.85 26.35 26.35 0 0 0 8.05 5.1 31.58 31.58 0 0 0 21.85 0 16 16 0 0 0 7.15-5.55 14.5 14.5 0 0 0 2.5-8.5 15.22 15.22 0 0 0-2.2-8.6 14.23 14.23 0 0 0-6.26-5.1Zm17.9 28.4h11.4V22.6l-11.4.8v52zm5.6-72.1a7.14 7.14 0 0 0-4.85 1.7 5.79 5.79 0 0 0-2 4.6 6 6 0 0 0 2 4.65 7.87 7.87 0 0 0 9.9 0 6.12 6.12 0 0 0 1.85-4.65 6 6 0 0 0-1.85-4.6 7.19 7.19 0 0 0-5.05-1.7ZM751 23.6a20 20 0 0 0-9-1.8 17.25 17.25 0 0 0-12.5 4.85 23.85 23.85 0 0 0-5.82 9.65h-.34l-.74-13.7-10.4.7v52.1h11.4V52.3a38.39 38.39 0 0 1 1.8-12.5 17.47 17.47 0 0 1 5.1-7.95 11.82 11.82 0 0 1 7.8-2.75q4.5 0 6.45 2.55t2 7.55v36.2h11.4v-37a21.61 21.61 0 0 0-1.75-9.35 11.5 11.5 0 0 0-5.4-5.45Zm59.39 42.8A26.42 26.42 0 0 0 801 65h-22.6a6.86 6.86 0 0 1-4.4-1.15 3.66 3.66 0 0 1-1.4-3 3.27 3.27 0 0 1 1.6-3 7.34 7.34 0 0 1 3.8-1 12 12 0 0 1 2.7.3c.87.2 1.93.38 3.2.55a38.34 38.34 0 0 0 4.9.25 26.39 26.39 0 0 0 11.05-2.25 19.58 19.58 0 0 0 7.9-6.3 15.6 15.6 0 0 0 3-9.45v-.2a15.6 15.6 0 0 0-3-9.45 18.51 18.51 0 0 0-3.13-3.3l9.57-9.93-9-4.5-3.84 12.21c-.49-.26-1-.52-1.51-.76a27.89 27.89 0 0 0-22 0 19.54 19.54 0 0 0-7.95 6.3 15.6 15.6 0 0 0-3 9.45V40a15.6 15.6 0 0 0 3 9.45 18.66 18.66 0 0 0 4.95 4.66v.17a14.87 14.87 0 0 0-2.95.82 10.14 10.14 0 0 0-4.7 3.6 9.12 9.12 0 0 0-1.55 5.2 8.48 8.48 0 0 0 1.6 5.3 10.17 10.17 0 0 0 4.15 3.2 17.9 17.9 0 0 0 2.95 1v.13a26.08 26.08 0 0 0-6.7 2.44 7.75 7.75 0 0 0-4.5 7.15q0 5.7 6.65 9.15t18.75 3.45a47.62 47.62 0 0 0 14.75-2.1 23.11 23.11 0 0 0 10.15-6.15 13.93 13.93 0 0 0 3.7-9.75 14.19 14.19 0 0 0-1.6-7 9.72 9.72 0 0 0-5.15-4.32Zm-32-26.7q0-6.41 2.7-9.45t7.7-3.05c3.47 0 6.08 1 7.85 3.05s2.65 5.18 2.65 9.45v.5q0 6.4-2.65 9.45c-1.77 2-4.38 3.05-7.85 3.05s-5.9-1-7.7-3.05-2.7-5.18-2.7-9.45ZM803 88.05q-5.1 2.55-14.4 2.55a37 37 0 0 1-9-.95 12.68 12.68 0 0 1-5.7-2.8 6.26 6.26 0 0 1-2-4.75 5.23 5.23 0 0 1 2-4.35 11.78 11.78 0 0 1 4.75-2.2 24.1 24.1 0 0 1 5.4-.65H800a14.79 14.79 0 0 1 5 .65 4.29 4.29 0 0 1 2.4 2 8 8 0 0 1 .7 3.65q-.01 4.31-5.1 6.85ZM836.39 6.9h-6.3a32.84 32.84 0 0 1-1.8 9.4 10.42 10.42 0 0 1-4.45 5.4 18.31 18.31 0 0 1-8.25 2.1v5.7H825v30q0 8.4 4.25 12.15t11.85 3.75h11.1V69h-7.5a11.65 11.65 0 0 1-4.3-.75 5.57 5.57 0 0 1-2.95-2.8 13.68 13.68 0 0 1-1.05-6.05V29.5h16v-6.4h-16Zm65.25 23a25.81 25.81 0 0 0-8.3-5.95A24.88 24.88 0 0 0 883 21.8a25.12 25.12 0 0 0-18.86 8.2 28 28 0 0 0-7.45 19.15v.2a28.24 28.24 0 0 0 1.95 10.45 27.31 27.31 0 0 0 5.5 8.75 26.45 26.45 0 0 0 8.35 6A24.85 24.85 0 0 0 883 76.7a24.3 24.3 0 0 0 10.35-2.2 26.58 26.58 0 0 0 8.3-6 28 28 0 0 0 5.55-8.75 27.68 27.68 0 0 0 2-10.45v-.2a27.68 27.68 0 0 0-2-10.45 28 28 0 0 0-5.56-8.75Zm-4.75 19.5a35.85 35.85 0 0 1-1.7 12 14.24 14.24 0 0 1-4.8 6.95A12.26 12.26 0 0 1 883 70.6a12.65 12.65 0 0 1-7.55-2.25 13.86 13.86 0 0 1-4.8-6.95 36.77 36.77 0 0 1-1.65-12v-.5a36.32 36.32 0 0 1 1.64-11.9 13.56 13.56 0 0 1 4.8-6.85A12.83 12.83 0 0 1 883 27.9a12.43 12.43 0 0 1 7.4 2.2 13.93 13.93 0 0 1 4.8 6.85 35.41 35.41 0 0 1 1.7 11.95Zm65.25-20.35a11.5 11.5 0 0 0-5.35-5.45 20 20 0 0 0-9-1.8 17.25 17.25 0 0 0-12.5 4.85 23.85 23.85 0 0 0-5.82 9.65h-.34l-.74-13.7-10.4.7v52.1h11.4V52.3a38.39 38.39 0 0 1 1.8-12.5 17.47 17.47 0 0 1 5.1-7.95 11.82 11.82 0 0 1 7.8-2.75q4.5 0 6.45 2.55t2 7.55v36.2h11.4v-37a21.61 21.61 0 0 0-1.8-9.35Z"/></svg>
