<svg xmlns="http://www.w3.org/2000/svg" viewBox="0 0 750.39 96" preserveAspectRatio="xMinYMax meet"><path fill="currentColor" d="m56.6 2.8-21.28 56h-.56L13.8 2.8H0l27.7 72.6h8.9L64.4 2.8h-7.8zm38.11 61.43a28.69 28.69 0 0 0 2.14-3.13 41.17 41.17 0 0 0 3.35-7.3 65.4 65.4 0 0 0 2.3-8.4H97a59.93 59.93 0 0 1-1.85 7 34.21 34.21 0 0 1-2.8 6.3c-.32.55-.66 1.08-1 1.58-.07-.08-.14-.15-.2-.23q-3.66-4.39-7-8.5-2.31-3-4.57-5.86c.68-.33 1.37-.65 2-1a28.42 28.42 0 0 0 4.95-3.3 14.88 14.88 0 0 0 3.45-4.1 10.06 10.06 0 0 0 1.25-5v-.1a10.11 10.11 0 0 0-1.5-5.55 9.5 9.5 0 0 0-4.35-3.6 17.62 17.62 0 0 0-7-1.25 15.44 15.44 0 0 0-10.5 3.55 11.64 11.64 0 0 0-4.1 9.25v.2a15.73 15.73 0 0 0 1.5 6.45 37.56 37.56 0 0 0 2.39 4.45c-1 .44-2 .89-3 1.35a35.15 35.15 0 0 0-6 3.55 15.09 15.09 0 0 0-4.25 4.75 12.74 12.74 0 0 0-1.52 6.36v.3a13.51 13.51 0 0 0 2.25 7.8 14.77 14.77 0 0 0 6.1 5.1A20.43 20.43 0 0 0 70 76.7a26.56 26.56 0 0 0 12-2.6 25.82 25.82 0 0 0 5.29-3.53l1.91 2.08c.93 1 1.83 1.95 2.7 2.75h12.9q-2.91-3-6.45-7c-1.2-1.4-2.42-2.75-3.64-4.17ZM73.2 32.6a7.15 7.15 0 0 1 1.25-4.45 4.86 4.86 0 0 1 4.15-1.65 5.08 5.08 0 0 1 4.1 1.55A6.44 6.44 0 0 1 84 32.3v.4a10.34 10.34 0 0 1-.9 4.55A8.93 8.93 0 0 1 80 40.6a22.56 22.56 0 0 1-2.93 1.64 39.28 39.28 0 0 1-2.22-3.54A11.87 11.87 0 0 1 73.2 33Zm.4 38.3a9.62 9.62 0 0 1-7.6-3.05 11 11 0 0 1-2.7-7.55V60a12.85 12.85 0 0 1 .9-5.15 9.71 9.71 0 0 1 3.1-3.75 22.75 22.75 0 0 1 2.78-1.82c1.5 2.13 3.09 4.36 4.82 6.72q2.49 3.3 5.1 6.45c1.41 1.71 2.76 3.32 4.09 4.87-.57.42-1.16.83-1.79 1.23a15.87 15.87 0 0 1-8.7 2.35ZM99.1 2.8l-2.3 5.8 25.4 66.8h14.3L108.8 2.8h-9.7zm74.4 38.7h28.2v-6.9h-28.2V9.7h36.1V2.8h-48.9v72.6h50v-6.9h-37.2v-27zm81.2-16q-5.2-3.7-15-3.7a32 32 0 0 0-11.1 1.8 17.14 17.14 0 0 0-7.75 5.4 14.2 14.2 0 0 0-2.85 9.1v.5l9 .3v-.8a11.77 11.77 0 0 1 1.3-6 7.43 7.43 0 0 1 3.9-3.2 17.19 17.19 0 0 1 6.2-1q5.49 0 7.8 2.25t2.3 7.15v5.33c-.78.38-1.66.75-2.65 1.12a76.17 76.17 0 0 1-10 2.75 45.5 45.5 0 0 0-11.25 3.7 15.2 15.2 0 0 0-6.15 5.25 13.58 13.58 0 0 0-1.9 7.35v.2a13.25 13.25 0 0 0 3.9 9.85q3.9 3.86 11.2 3.85a18.47 18.47 0 0 0 9.9-2.65 19.56 19.56 0 0 0 6.9-7.4 23.27 23.27 0 0 0 1.07-2.25h.33l1.4 11h8.7V36.8q-.05-7.6-5.25-11.3Zm-12.25 42.75a10.26 10.26 0 0 1-6.75 2.35 7 7 0 0 1-5.7-2.4 9.33 9.33 0 0 1-2-6.2v-.3a15.24 15.24 0 0 1 .75-5.1 7 7 0 0 1 3.05-3.55 23.46 23.46 0 0 1 6.9-2.55 80.5 80.5 0 0 0 7.7-2.35c.78-.29 1.46-.58 2.1-.87v5.92a23.22 23.22 0 0 1-1.6 8.8 15.6 15.6 0 0 1-4.45 6.25ZM304.3 47a35.33 35.33 0 0 0-4.95-1.9q-2.66-.8-5.5-1.5c-1.9-.47-3.74-.93-5.5-1.4a49 49 0 0 1-4.75-1.5 11.65 11.65 0 0 1-3.55-2.2 5.49 5.49 0 0 1-1.55-4.3 5.58 5.58 0 0 1 2.4-4.75q2.4-1.75 7.5-1.75a18.55 18.55 0 0 1 9.7 2.3 16.21 16.21 0 0 1 5.9 6.1l5.2-3.9a18 18 0 0 0-7.7-7.7 27.18 27.18 0 0 0-12.8-2.7 25.11 25.11 0 0 0-10.15 1.9 15.34 15.34 0 0 0-6.7 5.3 13.53 13.53 0 0 0-2.35 7.9 12.86 12.86 0 0 0 2.5 8.15 16.46 16.46 0 0 0 5.65 4.75 38.73 38.73 0 0 0 5.65 2.3c1.9.6 3.76 1.1 5.6 1.5s3.6.82 5.3 1.25a35.74 35.74 0 0 1 4.75 1.55 10 10 0 0 1 3.65 2.7 6.44 6.44 0 0 1 1.15 4 6.87 6.87 0 0 1-2.6 5.55q-2.61 2.14-8.8 2.15a20.32 20.32 0 0 1-8.45-1.65 20.84 20.84 0 0 1-6.4-4.45 28.45 28.45 0 0 1-4.55-6l-5.1 4.1a28.93 28.93 0 0 0 5.45 6.85 26.23 26.23 0 0 0 8.05 5.1 31.58 31.58 0 0 0 21.85 0 16 16 0 0 0 7.15-5.55 14.57 14.57 0 0 0 2.5-8.5 15.3 15.3 0 0 0-2.2-8.6 14.23 14.23 0 0 0-6.35-5.1Zm30.5-40.1h-6.3a32.84 32.84 0 0 1-1.8 9.4 10.47 10.47 0 0 1-4.45 5.4 18.38 18.38 0 0 1-8.25 2.1v5.7h9.4v30q0 8.4 4.25 12.15t11.85 3.75h11.1V69h-7.5a11.61 11.61 0 0 1-4.3-.75 5.57 5.57 0 0 1-2.95-2.8 13.68 13.68 0 0 1-1.05-6.05V29.5h16v-6.4h-16Zm81.34 54.9h-.29l-23.25-59h-12.3v72.6h5.9V10h.36l25.54 65.4h4.5L442.27 10h.43v65.4h8.3V2.8h-11.6l-23.26 59zm82.76-16.3a53 53 0 0 1-1.65 14.3 16.63 16.63 0 0 1-5.35 8.75q-3.7 3-9.7 3c-3.4 0-5.94-1-7.6-3s-2.5-5-2.5-9V23.4l-7.8.5v35.5q0 8.9 4.35 13.05t12 4.15q8.4 0 13.15-5.1a25.28 25.28 0 0 0 5.45-9.6h.44l.16 13.7 6.9-.1V23.4l-7.8.5Zm51.79 3a32.77 32.77 0 0 0-4.69-1.7q-2.44-.7-5.15-1.35c-1.8-.43-3.56-.88-5.3-1.35a32.66 32.66 0 0 1-5-1.8 12.57 12.57 0 0 1-3.8-2.55 6.62 6.62 0 0 1-1.7-5 6.87 6.87 0 0 1 2.6-5.55q2.61-2.14 8.2-2.15 6.51 0 10.1 2.5a16.12 16.12 0 0 1 5.5 6.6l4.3-2.7a18.06 18.06 0 0 0-7.25-8.1q-4.74-2.8-12.45-2.8a23.8 23.8 0 0 0-9.25 1.7 14.44 14.44 0 0 0-6.3 4.8 12.1 12.1 0 0 0-2.25 7.3 11.94 11.94 0 0 0 2.55 8 16.22 16.22 0 0 0 5.65 4.4A46.49 46.49 0 0 0 532.2 51c1.84.57 3.62 1 5.35 1.4s3.4.77 5 1.2a27.49 27.49 0 0 1 4.7 1.75 8.57 8.57 0 0 1 3.85 3 8.12 8.12 0 0 1 1.15 4.55 8.59 8.59 0 0 1-2.8 6.6q-2.79 2.59-9.7 2.6a19.16 19.16 0 0 1-8.55-1.8 20.12 20.12 0 0 1-6.2-4.75 31.84 31.84 0 0 1-4.4-6.45l-4.2 3.1a30 30 0 0 0 5.15 7.15 24 24 0 0 0 7.7 5.25 26.09 26.09 0 0 0 10.55 2 25.83 25.83 0 0 0 10.15-1.85 15.54 15.54 0 0 0 6.75-5.2 13.28 13.28 0 0 0 2.4-7.95 14.27 14.27 0 0 0-2.15-8.3 13.68 13.68 0 0 0-6.26-4.8Zm50.5-23.1a24 24 0 0 0-11.6-2.8 22.72 22.72 0 0 0-12.35 3.5 26.13 26.13 0 0 0-9 9.6 28 28 0 0 0-3.4 13.8v.1a29.11 29.11 0 0 0 1.75 10 28.6 28.6 0 0 0 5 8.65 23.62 23.62 0 0 0 8 6.1 24.5 24.5 0 0 0 10.7 2.25 26.21 26.21 0 0 0 10.8-2.1 18.08 18.08 0 0 0 11-15.1H607a13.56 13.56 0 0 1-5 9.45q-4.2 3.25-11.1 3.25-8.29 0-12.8-5.9t-4.5-16.6v-.1h38.9V49q0-9.11-3-15a19.94 19.94 0 0 0-8.31-8.6Zm-19.55 3.75a15.63 15.63 0 0 1 8.05-2.15 14.58 14.58 0 0 1 7.7 2 13.14 13.14 0 0 1 5.15 6.2 26.56 26.56 0 0 1 1.84 10.1h-30.65a27.24 27.24 0 0 1 2.06-9.15 15 15 0 0 1 5.85-7Zm74.65 16.35a53 53 0 0 1-1.65 14.3 16.57 16.57 0 0 1-5.35 8.75q-3.69 3-9.7 3-5.1 0-7.6-3c-1.66-2-2.5-5-2.5-9V23.4l-7.8.5v35.5q0 8.9 4.35 13.05t12 4.15q8.4 0 13.15-5.1a25.3 25.3 0 0 0 5.46-9.6h.35l.16 13.7 6.9-.1V23.4l-7.8.5Zm90.2-18.9q-3.9-4-11.2-4a15.32 15.32 0 0 0-11.9 4.95 25.21 25.21 0 0 0-5.28 9.85h-.49a21.56 21.56 0 0 0-1.62-7.35 11.49 11.49 0 0 0-4.95-5.6A16.39 16.39 0 0 0 703 22.6a15.32 15.32 0 0 0-11.9 4.95 25.88 25.88 0 0 0-5.37 10h-.28l-.85-14.1-6.9.5V75.4h7.8V53.9a40.4 40.4 0 0 1 2.25-14.5 20.25 20.25 0 0 1 5.85-8.7 12 12 0 0 1 7.6-2.9q8.89 0 8.9 12v35.6h7.8V53.8a41.26 41.26 0 0 1 2.1-14.15 20.62 20.62 0 0 1 5.7-8.85 11.9 11.9 0 0 1 7.85-3q4.6 0 6.8 3t2.2 9v35.6h7.8V39.6q.04-9-3.86-13Z"/></svg>
