<svg xmlns="http://www.w3.org/2000/svg" viewBox="0 0 1143.69 96" preserveAspectRatio="xMinYMax meet"><path fill="currentColor" d="m56.6 2.8-21.28 56h-.56L13.8 2.8H0l27.7 72.6h8.9L64.4 2.8h-7.8zm38.11 61.43a28.69 28.69 0 0 0 2.14-3.13 41.17 41.17 0 0 0 3.35-7.3 65.4 65.4 0 0 0 2.3-8.4H97a59.93 59.93 0 0 1-1.85 7 34.21 34.21 0 0 1-2.8 6.3c-.32.55-.66 1.08-1 1.58l-.2-.28q-3.66-4.39-7-8.5-2.31-3-4.57-5.86c.68-.33 1.37-.65 2-1a28.42 28.42 0 0 0 4.95-3.3 14.88 14.88 0 0 0 3.45-4.1 10.06 10.06 0 0 0 1.25-5v-.1a10.11 10.11 0 0 0-1.5-5.55 9.5 9.5 0 0 0-4.35-3.6 17.62 17.62 0 0 0-7-1.25 15.44 15.44 0 0 0-10.5 3.55 11.64 11.64 0 0 0-4.1 9.25v.2a15.73 15.73 0 0 0 1.5 6.45 37.56 37.56 0 0 0 2.39 4.45c-1 .44-2 .89-3 1.35a35.15 35.15 0 0 0-6 3.55 15.09 15.09 0 0 0-4.25 4.75 12.74 12.74 0 0 0-1.52 6.41v.3a13.51 13.51 0 0 0 2.25 7.8 14.77 14.77 0 0 0 6.1 5.1A20.43 20.43 0 0 0 70 76.7a26.56 26.56 0 0 0 12-2.6 25.82 25.82 0 0 0 5.29-3.53l1.91 2.08c.93 1 1.83 1.95 2.7 2.75h12.9q-2.91-3-6.45-7c-1.2-1.35-2.42-2.75-3.64-4.17ZM73.2 32.6a7.15 7.15 0 0 1 1.25-4.45 4.86 4.86 0 0 1 4.15-1.65 5.08 5.08 0 0 1 4.1 1.55A6.44 6.44 0 0 1 84 32.3v.4a10.34 10.34 0 0 1-.9 4.55A8.93 8.93 0 0 1 80 40.6a22.56 22.56 0 0 1-2.93 1.64 39.28 39.28 0 0 1-2.22-3.54A11.87 11.87 0 0 1 73.2 33Zm.4 38.3a9.62 9.62 0 0 1-7.6-3.05 11 11 0 0 1-2.7-7.55V60a12.85 12.85 0 0 1 .9-5.15 9.71 9.71 0 0 1 3.1-3.75 22.75 22.75 0 0 1 2.78-1.82c1.5 2.13 3.09 4.36 4.82 6.72q2.49 3.3 5.1 6.45c1.41 1.71 2.76 3.32 4.09 4.87-.57.42-1.16.83-1.79 1.23a15.87 15.87 0 0 1-8.7 2.35ZM99.1 2.8l-2.3 5.8 25.4 66.8h14.3L108.8 2.8h-9.7zm144.4 0-17.55 54.6h-.39L208.3 2.8h-14.17l4.94 15.01-13.68 39.59h-.59L164.98 2.8h-14.27l26.84 72.6h9.07l15.9-47.13 15.51 47.13h9.37l24.1-72.6h-8zm42.1 21.9a26 26 0 0 0-12.3-2.9 23.7 23.7 0 0 0-12.85 3.6 26.09 26.09 0 0 0-9.15 9.8 28.39 28.39 0 0 0-3.4 13.9v.2a29.17 29.17 0 0 0 1.85 10.35 27.44 27.44 0 0 0 5.3 8.8 24.64 24.64 0 0 0 8.3 6 26.15 26.15 0 0 0 10.95 2.2 27.35 27.35 0 0 0 11.15-2.15 19.67 19.67 0 0 0 7.85-6.1A19.35 19.35 0 0 0 297 59h-6.6a12.88 12.88 0 0 1-4.75 8.85 16 16 0 0 1-10 3.05q-7.61 0-11.5-5.5-3.8-5.34-3.89-15.7h37.24v-.5q0-9.41-3.2-15.5a20.71 20.71 0 0 0-8.7-9Zm-23.7 11.35a13.33 13.33 0 0 1 4.7-6.6 11.91 11.91 0 0 1 6.9-2.05 11.42 11.42 0 0 1 6.6 1.85 11.6 11.6 0 0 1 4.15 5.9 30.69 30.69 0 0 1 1.43 9.35h-25.37a29.76 29.76 0 0 1 1.59-8.45Zm80.6-3.65h-.5a16.16 16.16 0 0 0-4.5-6.4 18.77 18.77 0 0 0-12.4-4.15 20.31 20.31 0 0 0-11.2 3.35 24 24 0 0 0-8.35 9.5 31.31 31.31 0 0 0-3.15 14.4v.2a33 33 0 0 0 3 14.5 23.38 23.38 0 0 0 8 9.5 19.82 19.82 0 0 0 11.35 3.4q7.8 0 12.55-4.5a21 21 0 0 0 5.15-8.6h.5v12.1l10.6-.3V0l-11 .8Zm-7.5 36a12.47 12.47 0 0 1-16.75-3.3q-3.56-5.2-3.55-15.8v-.2q0-10.5 3.5-15.7a11.23 11.23 0 0 1 9.9-5.2 12.24 12.24 0 0 1 6.5 1.65 12.44 12.44 0 0 1 4.4 4.55 23.28 23.28 0 0 1 2.4 6.6 38.06 38.06 0 0 1 .8 8v.3a39.81 39.81 0 0 1-.7 7.3 26.13 26.13 0 0 1-2.25 6.8 13.29 13.29 0 0 1-4.25 5Zm72-2a26.46 26.46 0 0 0-9.4-1.4H375a6.86 6.86 0 0 1-4.4-1.15 3.63 3.63 0 0 1-1.4-3 3.27 3.27 0 0 1 1.6-3 7.31 7.31 0 0 1 3.8-1 12 12 0 0 1 2.7.3c.86.2 1.93.38 3.2.55a38.23 38.23 0 0 0 4.9.25 26.42 26.42 0 0 0 11.05-2.25 19.58 19.58 0 0 0 7.9-6.3 15.67 15.67 0 0 0 2.95-9.4v-.2a15.67 15.67 0 0 0-2.95-9.45 18.87 18.87 0 0 0-3.12-3.35l9.57-9.93-9-4.5-3.8 12.24c-.49-.26-1-.52-1.51-.76a27.89 27.89 0 0 0-21.95 0 19.41 19.41 0 0 0-7.95 6.3 15.6 15.6 0 0 0-2.95 9.45v.2a15.6 15.6 0 0 0 2.95 9.45 18.51 18.51 0 0 0 4.95 4.66v.17a14.87 14.87 0 0 0-2.95.82 10.14 10.14 0 0 0-4.7 3.6 9 9 0 0 0-1.55 5.2 8.48 8.48 0 0 0 1.6 5.3 10.11 10.11 0 0 0 4.15 3.2 17.59 17.59 0 0 0 2.95 1v.13A25.94 25.94 0 0 0 364.3 76a7.75 7.75 0 0 0-4.5 7.15q0 5.7 6.65 9.15t18.75 3.4a47.62 47.62 0 0 0 14.8-2.1 23.11 23.11 0 0 0 10.15-6.15 14 14 0 0 0 3.7-9.75 14.3 14.3 0 0 0-1.6-7 9.72 9.72 0 0 0-5.25-4.3Zm-32-26.7q0-6.41 2.7-9.45c1.8-2 4.36-3.05 7.7-3.05s6.08 1 7.85 3.05 2.65 5.18 2.65 9.45v.5q0 6.4-2.65 9.45t-7.85 3.05c-3.34 0-5.9-1-7.7-3.05s-2.7-5.18-2.7-9.45Zm24.6 48.35q-5.1 2.55-14.4 2.55a37 37 0 0 1-8.95-.95 12.68 12.68 0 0 1-5.7-2.8 6.26 6.26 0 0 1-1.95-4.75 5.23 5.23 0 0 1 1.95-4.35 11.78 11.78 0 0 1 4.75-2.2 24 24 0 0 1 5.4-.65h15.9a14.83 14.83 0 0 1 5 .65 4.29 4.29 0 0 1 2.4 2 8.09 8.09 0 0 1 .7 3.65q0 4.31-5.1 6.85Zm69.75-26.15h-.42L456 23.1h-11.7l3.4 9.62-10.53 29.18h-.35L423.8 23.1h-11.7l18.5 52.3h8l12.3-33.63 11.9 33.63h8l19.7-52.3h-7.2l-13.95 38.8zm67.1-32a25.92 25.92 0 0 0-8.3-5.95 24.89 24.89 0 0 0-10.36-2.15A25.43 25.43 0 0 0 507.3 24a25.15 25.15 0 0 0-8.3 6 28 28 0 0 0-7.5 19.1v.2a28.24 28.24 0 0 0 1.95 10.45A27.31 27.31 0 0 0 499 68.5a26.34 26.34 0 0 0 8.35 6 24.83 24.83 0 0 0 10.49 2.2 24.31 24.31 0 0 0 10.36-2.2 26.7 26.7 0 0 0 8.3-6 28.33 28.33 0 0 0 5.5-8.75 27.68 27.68 0 0 0 2-10.45v-.2a27.68 27.68 0 0 0-2-10.45 28.33 28.33 0 0 0-5.55-8.75Zm-4.75 19.5a35.85 35.85 0 0 1-1.7 12 14.37 14.37 0 0 1-4.8 6.95 12.29 12.29 0 0 1-7.41 2.25 12.62 12.62 0 0 1-7.54-2.25 13.86 13.86 0 0 1-4.8-6.95 36.77 36.77 0 0 1-1.65-12v-.5a36.32 36.32 0 0 1 1.65-11.9 13.56 13.56 0 0 1 4.8-6.85 12.8 12.8 0 0 1 7.54-2.2 12.46 12.46 0 0 1 7.41 2.2A14.06 14.06 0 0 1 530 37a35.41 35.41 0 0 1 1.7 11.95ZM594 29.9a25.77 25.77 0 0 0-8.25-5.9 24.89 24.89 0 0 0-10.36-2.15A25.12 25.12 0 0 0 556.54 30a28 28 0 0 0-7.45 19.15v.2a28.44 28.44 0 0 0 1.91 10.4 27.48 27.48 0 0 0 5.5 8.75 26.45 26.45 0 0 0 8.35 6 24.85 24.85 0 0 0 10.5 2.2 24.31 24.31 0 0 0 10.36-2.2 26.54 26.54 0 0 0 8.29-6 28 28 0 0 0 5.55-8.75 27.49 27.49 0 0 0 2-10.45v-.2a27.49 27.49 0 0 0-2-10.45A28 28 0 0 0 594 29.9Zm-4.75 19.5a35.6 35.6 0 0 1-1.7 12 14.24 14.24 0 0 1-4.8 6.95 12.24 12.24 0 0 1-7.4 2.25 12.65 12.65 0 0 1-7.55-2.25 13.92 13.92 0 0 1-4.8-6.95 36.77 36.77 0 0 1-1.65-12v-.5A36.32 36.32 0 0 1 563 37a13.62 13.62 0 0 1 4.8-6.85 12.83 12.83 0 0 1 7.55-2.2 12.41 12.41 0 0 1 7.4 2.2 13.93 13.93 0 0 1 4.8 6.85 35.16 35.16 0 0 1 1.7 11.95Zm57.54-17h-.47a16.18 16.18 0 0 0-4.53-6.4 18.73 18.73 0 0 0-12.4-4.15 20.33 20.33 0 0 0-11.2 3.35 24 24 0 0 0-8.35 9.5 31.31 31.31 0 0 0-3.15 14.45v.2a33.11 33.11 0 0 0 2.95 14.5 23.53 23.53 0 0 0 8 9.5A19.85 19.85 0 0 0 629 76.7q7.8 0 12.55-4.5a21 21 0 0 0 5.16-8.6h.49v12.1l10.6-.3V0l-11 .8Zm-7.5 36a11.32 11.32 0 0 1-6.7 1.9 11.46 11.46 0 0 1-10.05-5.2Q619 59.9 619 49.3v-.2q0-10.5 3.5-15.7a11.26 11.26 0 0 1 9.9-5.2 12.21 12.21 0 0 1 6.5 1.65 12.44 12.44 0 0 1 4.35 4.55 23 23 0 0 1 2.45 6.6 37.4 37.4 0 0 1 .8 8v.3a39 39 0 0 1-.7 7.3 25.4 25.4 0 0 1-2.25 6.8 13.2 13.2 0 0 1-4.26 5Zm112.9-38a41.66 41.66 0 0 0-4.6-16.15 23.06 23.06 0 0 0-10.25-9.7Q730.7 1.3 720.79 1.3a33.57 33.57 0 0 0-14.4 3.05 34.63 34.63 0 0 0-11.2 8.3 38.84 38.84 0 0 0-7.3 12 39.63 39.63 0 0 0-2.6 14.35v.2a40.38 40.38 0 0 0 2.55 14.3A38.86 38.86 0 0 0 695 65.6a32.72 32.72 0 0 0 11.35 8.3 36.09 36.09 0 0 0 14.9 3q9.81 0 16.65-3.55a24.45 24.45 0 0 0 10.45-10.1 32.08 32.08 0 0 0 3.7-15.35h-7.2A28.79 28.79 0 0 1 742 60a17 17 0 0 1-7.3 7.45 25.44 25.44 0 0 1-12 2.5q-8 0-13.15-3.75a22.33 22.33 0 0 1-7.7-10.7 47.11 47.11 0 0 1-2.55-16.25V39q0-10 2.65-16.8a22.18 22.18 0 0 1 7.65-10.35 20.36 20.36 0 0 1 12.1-3.55q6.71 0 10.85 2.3a14.87 14.87 0 0 1 6.35 7 37.36 37.36 0 0 1 2.9 12.15v.6Zm50.95-.5a25.71 25.71 0 0 0-8.3-5.95 24.85 24.85 0 0 0-10.35-2.15 25.12 25.12 0 0 0-18.85 8.2 28.27 28.27 0 0 0-5.5 8.75 27.87 27.87 0 0 0-1.95 10.4v.2a28.24 28.24 0 0 0 1.95 10.45 27.48 27.48 0 0 0 5.5 8.75 26.45 26.45 0 0 0 8.35 6 24.85 24.85 0 0 0 10.5 2.2 24.26 24.26 0 0 0 10.35-2.2 26.47 26.47 0 0 0 8.3-6 28 28 0 0 0 5.55-8.75 27.49 27.49 0 0 0 2-10.45v-.2a27.49 27.49 0 0 0-2-10.45 28 28 0 0 0-5.55-8.8Zm-4.75 19.5a35.6 35.6 0 0 1-1.7 12 14.24 14.24 0 0 1-4.8 6.95 12.24 12.24 0 0 1-7.4 2.25 12.65 12.65 0 0 1-7.55-2.25 13.86 13.86 0 0 1-4.8-6.95 36.77 36.77 0 0 1-1.65-12v-.5a36.32 36.32 0 0 1 1.65-11.9 13.56 13.56 0 0 1 4.8-6.85 12.83 12.83 0 0 1 7.55-2.2 12.41 12.41 0 0 1 7.4 2.2 13.93 13.93 0 0 1 4.8 6.85 35.16 35.16 0 0 1 1.7 11.95Zm21.1 26h11.5V0l-11.5.8v74.6zm24 0h11.5V0l-11.5.8v74.6zm58-50.7a26 26 0 0 0-12.3-2.9 23.72 23.72 0 0 0-12.85 3.6 26.25 26.25 0 0 0-9.15 9.8 28.39 28.39 0 0 0-3.4 13.9v.2a29.4 29.4 0 0 0 1.85 10.35 27.44 27.44 0 0 0 5.3 8.8 24.74 24.74 0 0 0 8.3 6 26.15 26.15 0 0 0 11 2.2 27.31 27.31 0 0 0 11.15-2.15 19.67 19.67 0 0 0 7.85-6.1 19.35 19.35 0 0 0 3.7-9.45h-6.6a12.85 12.85 0 0 1-4.75 8.85 16 16 0 0 1-10 3.05q-7.61 0-11.5-5.5-3.78-5.34-3.89-15.7h37.29v-.5q0-9.41-3.2-15.5a20.6 20.6 0 0 0-8.8-8.95Zm-23.7 11.35a13.33 13.33 0 0 1 4.7-6.6 11.91 11.91 0 0 1 6.9-2.05 11.42 11.42 0 0 1 6.6 1.85 11.6 11.6 0 0 1 4.15 5.9 30.38 30.38 0 0 1 1.43 9.35H876.2a30.12 30.12 0 0 1 1.59-8.45Zm78.5-11.95a28 28 0 0 0-11.6-2.3 25.24 25.24 0 0 0-23.15 13.7 28.58 28.58 0 0 0-3.25 13.5v.4A30.43 30.43 0 0 0 920 59.5a25.82 25.82 0 0 0 5.1 8.75 25.13 25.13 0 0 0 8.25 6.15 25.77 25.77 0 0 0 11.15 2.3 23.07 23.07 0 0 0 11.85-2.9 21.47 21.47 0 0 0 7.8-7.75 22.25 22.25 0 0 0 3.05-10.65h-6.4a19.24 19.24 0 0 1-2.15 7.85 13.75 13.75 0 0 1-5.1 5.4 14.6 14.6 0 0 1-7.65 1.95 14.17 14.17 0 0 1-8.4-2.4 14.32 14.32 0 0 1-5.1-7.1 33.85 33.85 0 0 1-1.7-11.5v-.8a34.73 34.73 0 0 1 1.7-11.9 13.32 13.32 0 0 1 5.05-6.8 14.11 14.11 0 0 1 7.95-2.2 13 13 0 0 1 8.75 2.85q3.35 2.85 3.35 9.75v1.3h9.8v-.6a18.18 18.18 0 0 0-2.95-10.5 19 19 0 0 0-8.06-6.6Zm34.4-17.2h-6.3a32.84 32.84 0 0 1-1.8 9.4 10.42 10.42 0 0 1-4.45 5.4 18.38 18.38 0 0 1-8.25 2.1v5.7h9.4v30q0 8.4 4.25 12.15t11.85 3.75h11.1V69H999a11.65 11.65 0 0 1-4.3-.75 5.57 5.57 0 0 1-3-2.8 13.68 13.68 0 0 1-1-6.05V29.5h16v-6.4h-16Zm30.9-3.6a7.12 7.12 0 0 0-4.85 1.7 5.79 5.79 0 0 0-2 4.6 6 6 0 0 0 2 4.65 7 7 0 0 0 4.85 1.75 7.05 7.05 0 0 0 5.05-1.75 6.12 6.12 0 0 0 1.85-4.65 6 6 0 0 0-1.85-4.6 7.21 7.21 0 0 0-5.05-1.7Zm-5.6 72.1h11.4V22.6l-11.4.8v52zm65.45-45.5a25.92 25.92 0 0 0-8.3-5.95 24.88 24.88 0 0 0-10.35-2.15 25.44 25.44 0 0 0-10.5 2.15 25.15 25.15 0 0 0-8.35 6 28 28 0 0 0-7.45 19.15v.2a28.24 28.24 0 0 0 2 10.45 27.31 27.31 0 0 0 5.5 8.75 26.34 26.34 0 0 0 8.35 6 24.85 24.85 0 0 0 10.5 2.2 24.3 24.3 0 0 0 10.35-2.2 26.7 26.7 0 0 0 8.3-6 28.33 28.33 0 0 0 5.55-8.75 27.68 27.68 0 0 0 2-10.45v-.2a27.68 27.68 0 0 0-2-10.45 28.33 28.33 0 0 0-5.6-8.75Zm-4.75 19.5a35.85 35.85 0 0 1-1.7 12 14.37 14.37 0 0 1-4.8 6.95 12.28 12.28 0 0 1-7.4 2.25 12.63 12.63 0 0 1-7.55-2.25 13.86 13.86 0 0 1-4.8-6.95 36.77 36.77 0 0 1-1.65-12v-.5a36.32 36.32 0 0 1 1.65-11.9 13.56 13.56 0 0 1 4.8-6.85 12.81 12.81 0 0 1 7.55-2.2 12.45 12.45 0 0 1 7.4 2.2A14.06 14.06 0 0 1 1075 37a35.41 35.41 0 0 1 1.7 11.95Zm65.25-20.35a11.5 11.5 0 0 0-5.35-5.45 20 20 0 0 0-9-1.8 17.25 17.25 0 0 0-12.5 4.85 23.74 23.74 0 0 0-5.82 9.65h-.34l-.74-13.7-10.4.7v52.1h11.4V52.3a38.39 38.39 0 0 1 1.8-12.5 17.47 17.47 0 0 1 5.1-7.95 11.82 11.82 0 0 1 7.8-2.75q4.5 0 6.45 2.55t2 7.55v36.2h11.4v-37a21.76 21.76 0 0 0-1.8-9.35Z"/></svg>
