<svg xmlns="http://www.w3.org/2000/svg" viewBox="0 0 579.4 96" preserveAspectRatio="xMinYMax meet"><path fill="currentColor" d="m56.6 2.8-21.28 56h-.56L13.8 2.8H0l27.7 72.6h8.9L64.4 2.8h-7.8zm38.11 61.43a28.69 28.69 0 0 0 2.14-3.13 41.17 41.17 0 0 0 3.35-7.3 65.4 65.4 0 0 0 2.3-8.4H97a59.93 59.93 0 0 1-1.85 7 34.21 34.21 0 0 1-2.8 6.3c-.32.55-.66 1.08-1 1.58-.07-.08-.14-.15-.2-.23q-3.66-4.39-7-8.5-2.31-3-4.57-5.86c.68-.33 1.37-.65 2-1a28.42 28.42 0 0 0 4.95-3.3 14.88 14.88 0 0 0 3.45-4.1 10.06 10.06 0 0 0 1.25-5v-.1a10.11 10.11 0 0 0-1.5-5.55 9.5 9.5 0 0 0-4.35-3.6 17.62 17.62 0 0 0-7-1.25 15.44 15.44 0 0 0-10.5 3.55 11.64 11.64 0 0 0-4.1 9.25v.2a15.73 15.73 0 0 0 1.5 6.45 37.56 37.56 0 0 0 2.39 4.45c-1 .44-2 .89-3 1.35a35.15 35.15 0 0 0-6 3.55 15.09 15.09 0 0 0-4.25 4.75 12.74 12.74 0 0 0-1.52 6.36v.3a13.51 13.51 0 0 0 2.25 7.8 14.77 14.77 0 0 0 6.1 5.1A20.43 20.43 0 0 0 70 76.7a26.56 26.56 0 0 0 12-2.6 25.82 25.82 0 0 0 5.29-3.53l1.91 2.08c.93 1 1.83 1.95 2.7 2.75h12.9q-2.91-3-6.45-7c-1.2-1.4-2.42-2.75-3.64-4.17ZM73.2 32.6a7.15 7.15 0 0 1 1.25-4.45 4.86 4.86 0 0 1 4.15-1.65 5.08 5.08 0 0 1 4.1 1.55A6.44 6.44 0 0 1 84 32.3v.4a10.34 10.34 0 0 1-.9 4.55A8.93 8.93 0 0 1 80 40.6a22.56 22.56 0 0 1-2.93 1.64 39.28 39.28 0 0 1-2.22-3.54A11.87 11.87 0 0 1 73.2 33Zm.4 38.3a9.62 9.62 0 0 1-7.6-3.05 11 11 0 0 1-2.7-7.55V60a12.85 12.85 0 0 1 .9-5.15 9.71 9.71 0 0 1 3.1-3.75 22.75 22.75 0 0 1 2.78-1.82c1.5 2.13 3.09 4.36 4.82 6.72q2.49 3.3 5.1 6.45c1.41 1.71 2.76 3.32 4.09 4.87-.57.42-1.16.83-1.79 1.23a15.87 15.87 0 0 1-8.7 2.35ZM99.1 2.8l-2.3 5.8 25.4 66.8h14.3L108.8 2.8h-9.7zm82.9 0-28.3 72.6h8.1l8.64-23h26.48l8.38 23h13.9l-28-72.6Zm-9.23 43.4 10.78-28.7h.66l10.45 28.7Zm86.03-22.1a28 28 0 0 0-11.6-2.3 25.24 25.24 0 0 0-23.15 13.7A28.58 28.58 0 0 0 220.8 49v.4a30.43 30.43 0 0 0 1.7 10.1 25.82 25.82 0 0 0 5.1 8.75 25.13 25.13 0 0 0 8.25 6.15A25.77 25.77 0 0 0 247 76.7a23.07 23.07 0 0 0 11.85-2.9 21.47 21.47 0 0 0 7.8-7.75 22.25 22.25 0 0 0 3.05-10.65h-6.4a19.24 19.24 0 0 1-2.15 7.85 13.82 13.82 0 0 1-5.1 5.4 14.6 14.6 0 0 1-7.65 1.95 14.17 14.17 0 0 1-8.4-2.4 14.32 14.32 0 0 1-5.1-7.1 33.85 33.85 0 0 1-1.7-11.5v-.8a34.73 34.73 0 0 1 1.7-11.9 13.27 13.27 0 0 1 5-6.8 14.11 14.11 0 0 1 8-2.2 13 13 0 0 1 8.75 2.85Q260 33.6 260 40.5v1.3h9.8v-.6a18.18 18.18 0 0 0-2.95-10.5 19 19 0 0 0-8.05-6.6Zm55.2 1.4q-5.25-3.7-15.25-3.7a32.44 32.44 0 0 0-11.15 1.8 17.45 17.45 0 0 0-7.9 5.4 14 14 0 0 0-2.9 9.1v.5l9 .3v-.8a11.45 11.45 0 0 1 1.35-6 7.7 7.7 0 0 1 4-3.2 17.81 17.81 0 0 1 6.4-1q5.6 0 7.95 2.25c1.56 1.5 2.35 3.88 2.35 7.15v5.05c-.79.37-1.69.74-2.7 1.1a92.3 92.3 0 0 1-10.3 2.85A46.31 46.31 0 0 0 283.4 50a15.17 15.17 0 0 0-6.2 5.25 13.58 13.58 0 0 0-1.9 7.35v.3a13.3 13.3 0 0 0 3.95 9.9q3.94 3.9 11.35 3.9a18.9 18.9 0 0 0 10-2.65 19.73 19.73 0 0 0 7-7.4 23.39 23.39 0 0 0 1.09-2.25h.37l1.49 11h8.6V36.8q.05-7.6-5.15-11.3Zm-12.3 42.75a10.82 10.82 0 0 1-6.95 2.35 7.32 7.32 0 0 1-5.85-2.35 9.31 9.31 0 0 1-2.05-6.35v-.3a15.58 15.58 0 0 1 .75-5.2 7.19 7.19 0 0 1 3.1-3.6 23.23 23.23 0 0 1 7.05-2.6 63.15 63.15 0 0 0 7.9-2.3c.81-.3 1.53-.61 2.2-.91v6.21a23.22 23.22 0 0 1-1.65 8.8 15.24 15.24 0 0 1-4.55 6.25Zm66.1-35.85h-.48a16.09 16.09 0 0 0-4.52-6.4 18.77 18.77 0 0 0-12.4-4.15 20.31 20.31 0 0 0-11.2 3.35 24 24 0 0 0-8.35 9.5 31.31 31.31 0 0 0-3.15 14.4v.2a33 33 0 0 0 2.95 14.5 23.38 23.38 0 0 0 8 9.5A19.82 19.82 0 0 0 350 76.7q7.8 0 12.55-4.5a21 21 0 0 0 5.15-8.6h.5v12.1l10.6-.3V0l-11 .8Zm-7.5 36a12.47 12.47 0 0 1-16.75-3.3Q340 59.9 340 49.3v-.2q0-10.5 3.5-15.7a11.23 11.23 0 0 1 9.9-5.2 12.24 12.24 0 0 1 6.5 1.65 12.44 12.44 0 0 1 4.35 4.55 23.28 23.28 0 0 1 2.45 6.6 38.06 38.06 0 0 1 .8 8v.3a39.81 39.81 0 0 1-.7 7.3 26.13 26.13 0 0 1-2.25 6.8 13.29 13.29 0 0 1-4.25 5Zm64.9-43.7a26 26 0 0 0-12.3-2.9 23.7 23.7 0 0 0-12.85 3.6 26.09 26.09 0 0 0-9.15 9.8 28.39 28.39 0 0 0-3.4 13.9v.2a29.17 29.17 0 0 0 1.85 10.35 27.44 27.44 0 0 0 5.3 8.8 24.64 24.64 0 0 0 8.3 6 26.31 26.31 0 0 0 10.95 2.2 27.35 27.35 0 0 0 11.15-2.15 19.67 19.67 0 0 0 7.85-6.1 19.35 19.35 0 0 0 3.7-9.4H430a12.88 12.88 0 0 1-4.75 8.85 16 16 0 0 1-10.05 3.05q-7.6 0-11.5-5.5c-2.53-3.56-3.82-8.81-3.89-15.7h37.29v-.5q0-9.41-3.2-15.5a20.71 20.71 0 0 0-8.7-9Zm-23.7 11.35a13.33 13.33 0 0 1 4.7-6.6 11.91 11.91 0 0 1 6.9-2.05 11.42 11.42 0 0 1 6.6 1.85 11.6 11.6 0 0 1 4.15 5.9 30.69 30.69 0 0 1 1.43 9.35h-25.37a29.69 29.69 0 0 1 1.59-8.45ZM506.7 21.8a15.89 15.89 0 0 0-11.95 4.8 22.83 22.83 0 0 0-5.29 9.5H489a21.48 21.48 0 0 0-1.47-6.9 11.06 11.06 0 0 0-4.79-5.55 17.05 17.05 0 0 0-8.46-1.85 16.09 16.09 0 0 0-12 4.8 22.91 22.91 0 0 0-5.39 9.7h-.38l-.82-13.7-10 .7v52.1h11.39V52.6a38.16 38.16 0 0 1 1.91-13 17.71 17.71 0 0 1 5-7.8 10.48 10.48 0 0 1 6.75-2.6q7.5 0 7.5 9.9v36.3h11.46V52.5a38.85 38.85 0 0 1 1.8-12.7 17.69 17.69 0 0 1 4.95-7.9 10.29 10.29 0 0 1 6.84-2.7c2.61 0 4.52.83 5.75 2.5s1.86 4.13 1.86 7.4v36.3h11.39v-37q0-8.51-3.89-12.55c-2.61-2.7-6.5-4.05-11.7-4.05Zm65.09 1.3-15.23 40.5H556l-15.21-40.5H528.9l21.79 55c-.57 1.36-1.15 2.63-1.74 3.78a21.3 21.3 0 0 1-4.1 5.75 7 7 0 0 1-4.85 2 5.48 5.48 0 0 1-4.35-1.55 7.1 7.1 0 0 1-1.45-4.55V83h-8.41v.2a13 13 0 0 0 1.66 6.2 10.71 10.71 0 0 0 4.55 4.25 16.16 16.16 0 0 0 7.36 1.55 13.75 13.75 0 0 0 8-2.3 21.87 21.87 0 0 0 6.19-7.15 88.39 88.39 0 0 0 5.85-12.55l20-50.1Z"/></svg>
