<svg xmlns="http://www.w3.org/2000/svg" viewBox="0 0 390.1 96" preserveAspectRatio="xMinYMax meet"><path fill="currentColor" d="m56.6 2.8-21.28 56h-.56L13.8 2.8H0l27.7 72.6h8.9L64.4 2.8h-7.8zm38.11 61.43a28.69 28.69 0 0 0 2.14-3.13 41.17 41.17 0 0 0 3.35-7.3 65.4 65.4 0 0 0 2.3-8.4H97a59.93 59.93 0 0 1-1.85 7 34.21 34.21 0 0 1-2.8 6.3c-.32.55-.66 1.08-1 1.58-.07-.08-.14-.15-.2-.23q-3.66-4.39-7-8.5-2.31-3-4.57-5.86c.68-.33 1.37-.65 2-1a28.42 28.42 0 0 0 4.95-3.3 14.88 14.88 0 0 0 3.45-4.1 10.06 10.06 0 0 0 1.25-5v-.1a10.11 10.11 0 0 0-1.5-5.55 9.5 9.5 0 0 0-4.35-3.6 17.62 17.62 0 0 0-7-1.25 15.44 15.44 0 0 0-10.5 3.55 11.64 11.64 0 0 0-4.1 9.25v.2a15.73 15.73 0 0 0 1.5 6.45 37.56 37.56 0 0 0 2.39 4.45c-1 .44-2 .89-3 1.35a35.15 35.15 0 0 0-6 3.55 15.09 15.09 0 0 0-4.25 4.75 12.74 12.74 0 0 0-1.52 6.36v.3a13.51 13.51 0 0 0 2.25 7.8 14.77 14.77 0 0 0 6.1 5.1A20.43 20.43 0 0 0 70 76.7a26.56 26.56 0 0 0 12-2.6 25.82 25.82 0 0 0 5.29-3.53l1.91 2.08c.93 1 1.83 1.95 2.7 2.75h12.9q-2.91-3-6.45-7c-1.2-1.4-2.42-2.75-3.64-4.17ZM73.2 32.6a7.15 7.15 0 0 1 1.25-4.45 4.86 4.86 0 0 1 4.15-1.65 5.08 5.08 0 0 1 4.1 1.55A6.44 6.44 0 0 1 84 32.3v.4a10.34 10.34 0 0 1-.9 4.55A8.93 8.93 0 0 1 80 40.6a22.56 22.56 0 0 1-2.93 1.64 39.28 39.28 0 0 1-2.22-3.54A11.87 11.87 0 0 1 73.2 33Zm.4 38.3a9.62 9.62 0 0 1-7.6-3.05 11 11 0 0 1-2.7-7.55V60a12.85 12.85 0 0 1 .9-5.15 9.71 9.71 0 0 1 3.1-3.75 22.75 22.75 0 0 1 2.78-1.82c1.5 2.13 3.09 4.36 4.82 6.72q2.49 3.3 5.1 6.45c1.41 1.71 2.76 3.32 4.09 4.87-.57.42-1.16.83-1.79 1.23a15.87 15.87 0 0 1-8.7 2.35ZM99.1 2.8l-2.3 5.8 25.4 66.8h14.3L108.8 2.8h-9.7zm111 38.5a21.61 21.61 0 0 0-6-4 38.09 38.09 0 0 0-6.45-2.65q-3.66-1.15-7.5-2.1t-7.45-2a44.81 44.81 0 0 1-6.2-2.25 17.11 17.11 0 0 1-5.35-3.55c-1.44-1.43-2.15-3.58-2.15-6.45a9.18 9.18 0 0 1 3.6-7.5q3.6-2.9 10.3-2.9 8 0 13.2 2.95T205 21l6.3-4.2a30.32 30.32 0 0 0-7.1-9.25 24.49 24.49 0 0 0-9.2-4.8 44.73 44.73 0 0 0-12-1.45 29.91 29.91 0 0 0-12.3 2.45 21.61 21.61 0 0 0-8.8 6.9 17.07 17.07 0 0 0-3.3 10.45 19.88 19.88 0 0 0 1.6 8.25 17.37 17.37 0 0 0 4.35 6 25.6 25.6 0 0 0 6.15 4q3.39 1.4 7.2 2.55c2.53.77 5.08 1.48 7.65 2.15s4.93 1.3 7.1 1.9A43.47 43.47 0 0 1 198 47.8a15.11 15.11 0 0 1 5.15 3.85Q205 53.9 205 58.3a10.2 10.2 0 0 1-4.35 8.75q-4.35 3.15-11.75 3.15a31.21 31.21 0 0 1-11.15-1.85 21.49 21.49 0 0 1-8.45-5.85 37.61 37.61 0 0 1-6.3-10.2l-6.6 4.1a37.59 37.59 0 0 0 7.15 11.1 28.23 28.23 0 0 0 10.65 7 41.19 41.19 0 0 0 14.7 2.4 34.23 34.23 0 0 0 13.7-2.6 22 22 0 0 0 9.45-7.45 19.39 19.39 0 0 0 3.45-11.55 21 21 0 0 0-1.45-8.2 17.5 17.5 0 0 0-3.95-5.8ZM264 23.6a20 20 0 0 0-9-1.8 17.68 17.68 0 0 0-12.6 4.8 22.7 22.7 0 0 0-5.62 8.8h-.28V0l-11.3.7v74.7h11.4V52.2a36.79 36.79 0 0 1 1.85-12.45 17.56 17.56 0 0 1 5.2-7.9 12 12 0 0 1 7.85-2.75c2.8 0 4.86.85 6.2 2.55s2 4.15 2 7.35v36.4h11.4v-37a21.76 21.76 0 0 0-1.75-9.35A11.5 11.5 0 0 0 264 23.6Zm59.55 6.3a25.92 25.92 0 0 0-8.3-5.95 24.88 24.88 0 0 0-10.35-2.15 25.44 25.44 0 0 0-10.5 2.2 25.15 25.15 0 0 0-8.35 6 28 28 0 0 0-7.45 19.1v.2a28.24 28.24 0 0 0 1.95 10.45 27.31 27.31 0 0 0 5.5 8.75 26.34 26.34 0 0 0 8.35 6 25 25 0 0 0 10.5 2.2 24.45 24.45 0 0 0 10.35-2.2 26.7 26.7 0 0 0 8.3-6 28.33 28.33 0 0 0 5.55-8.75 27.68 27.68 0 0 0 2-10.45v-.2a27.68 27.68 0 0 0-2-10.45 28.33 28.33 0 0 0-5.55-8.75Zm-4.75 19.5a35.85 35.85 0 0 1-1.7 12 14.37 14.37 0 0 1-4.8 6.95 12.28 12.28 0 0 1-7.4 2.25 12.63 12.63 0 0 1-7.55-2.25 13.86 13.86 0 0 1-4.8-6.95 36.77 36.77 0 0 1-1.65-12v-.5a36.32 36.32 0 0 1 1.65-11.9 13.56 13.56 0 0 1 4.8-6.85 12.81 12.81 0 0 1 7.55-2.2 12.45 12.45 0 0 1 7.4 2.2 14.06 14.06 0 0 1 4.8 6.85 35.41 35.41 0 0 1 1.7 11.95Zm68.4-14.9a22.57 22.57 0 0 0-7.9-9.4 20.26 20.26 0 0 0-11.4-3.3 18.12 18.12 0 0 0-15.6 8.6 25.57 25.57 0 0 0-2.41 4.7h-.49l-.4-12.4-10.1.6v71.2h11V65h.36a23.18 23.18 0 0 0 1.59 3.15 17 17 0 0 0 6.65 6.45 19.47 19.47 0 0 0 9.2 2.1 19.76 19.76 0 0 0 11.2-3.4 24 24 0 0 0 8.15-9.55 32.22 32.22 0 0 0 3.05-14.45v-.2a33.79 33.79 0 0 0-2.9-14.6Zm-9.3 14.9q0 10-3.2 15.4a10.63 10.63 0 0 1-9.8 5.4 11.93 11.93 0 0 1-8-2.7 16.11 16.11 0 0 1-4.7-7.35 33.11 33.11 0 0 1-1.6-10.55v-.7a32.25 32.25 0 0 1 1.6-10.55A16.77 16.77 0 0 1 357 31a11.67 11.67 0 0 1 7.95-2.75 10.68 10.68 0 0 1 9.7 5.4q3.3 5.4 3.3 15.4Z"/></svg>
