<svg xmlns="http://www.w3.org/2000/svg" viewBox="0 0 1114.89 96" preserveAspectRatio="xMinYMax meet"><path fill="currentColor" d="m56.6 2.8-21.28 56h-.56L13.8 2.8H0l27.7 72.6h8.9L64.4 2.8h-7.8zm38.11 61.43a28.69 28.69 0 0 0 2.14-3.13 41.17 41.17 0 0 0 3.35-7.3 65.4 65.4 0 0 0 2.3-8.4H97a59.93 59.93 0 0 1-1.85 7 34.21 34.21 0 0 1-2.8 6.3c-.32.55-.66 1.08-1 1.58-.07-.08-.14-.15-.2-.23q-3.66-4.39-7-8.5-2.31-3-4.57-5.86c.68-.33 1.37-.65 2-1a28.42 28.42 0 0 0 4.95-3.3 14.88 14.88 0 0 0 3.45-4.1 10.06 10.06 0 0 0 1.25-5v-.1a10.11 10.11 0 0 0-1.5-5.55 9.5 9.5 0 0 0-4.35-3.6 17.62 17.62 0 0 0-7-1.25 15.44 15.44 0 0 0-10.5 3.55 11.64 11.64 0 0 0-4.1 9.25v.2a15.73 15.73 0 0 0 1.5 6.45 37.56 37.56 0 0 0 2.39 4.45c-1 .44-2 .89-3 1.35a35.15 35.15 0 0 0-6 3.55 15.09 15.09 0 0 0-4.25 4.75 12.74 12.74 0 0 0-1.52 6.36v.3a13.51 13.51 0 0 0 2.25 7.8 14.77 14.77 0 0 0 6.1 5.1A20.43 20.43 0 0 0 70 76.7a26.56 26.56 0 0 0 12-2.6 25.82 25.82 0 0 0 5.29-3.53l1.91 2.08c.93 1 1.83 1.95 2.7 2.75h12.9q-2.91-3-6.45-7c-1.2-1.4-2.42-2.75-3.64-4.17ZM73.2 32.6a7.15 7.15 0 0 1 1.25-4.45 4.86 4.86 0 0 1 4.15-1.65 5.08 5.08 0 0 1 4.1 1.55A6.44 6.44 0 0 1 84 32.3v.4a10.34 10.34 0 0 1-.9 4.55A8.93 8.93 0 0 1 80 40.6a22.56 22.56 0 0 1-2.93 1.64 39.28 39.28 0 0 1-2.22-3.54A11.87 11.87 0 0 1 73.2 33Zm.4 38.3a9.62 9.62 0 0 1-7.6-3.05 11 11 0 0 1-2.7-7.55V60a12.85 12.85 0 0 1 .9-5.15 9.71 9.71 0 0 1 3.1-3.75 22.75 22.75 0 0 1 2.78-1.82c1.5 2.13 3.09 4.36 4.82 6.72q2.49 3.3 5.1 6.45c1.41 1.71 2.76 3.32 4.09 4.87-.57.42-1.16.83-1.79 1.23a15.87 15.87 0 0 1-8.7 2.35ZM99.1 2.8l-2.3 5.8 25.4 66.8h14.3L108.8 2.8h-9.7zm82.9 0-28.3 72.6h8.1l8.64-23h26.48l8.38 23h13.9l-28-72.6Zm-9.23 43.4 10.78-28.7h.66l10.45 28.7ZM286.5 21.8a15.9 15.9 0 0 0-11.95 4.8 22.83 22.83 0 0 0-5.29 9.5h-.44a21.75 21.75 0 0 0-1.47-6.9 11.13 11.13 0 0 0-4.8-5.55 17 17 0 0 0-8.45-1.85 16.06 16.06 0 0 0-12 4.8 22.8 22.8 0 0 0-5.39 9.7h-.39l-.82-13.7-10 .7v52.1h11.4V52.6a38.18 38.18 0 0 1 1.9-13 17.63 17.63 0 0 1 5-7.8 10.44 10.44 0 0 1 6.75-2.6q7.5 0 7.5 9.9v36.3h11.4V52.5a39.12 39.12 0 0 1 1.8-12.7 17.78 17.78 0 0 1 4.95-7.9 10.31 10.31 0 0 1 6.85-2.7c2.6 0 4.51.83 5.75 2.5s1.85 4.13 1.85 7.4v36.3h11.4v-37q0-8.51-3.9-12.55T286.5 21.8Zm61.7 2.9a26 26 0 0 0-12.3-2.9 23.7 23.7 0 0 0-12.85 3.6 26.09 26.09 0 0 0-9.15 9.8 28.39 28.39 0 0 0-3.4 13.9v.2a29.17 29.17 0 0 0 1.85 10.35 27.44 27.44 0 0 0 5.3 8.8 24.64 24.64 0 0 0 8.3 6 26.31 26.31 0 0 0 10.95 2.2 27.35 27.35 0 0 0 11.15-2.15 19.67 19.67 0 0 0 7.85-6.1 19.35 19.35 0 0 0 3.7-9.4H353a12.88 12.88 0 0 1-4.75 8.85 16 16 0 0 1-10.05 3.05q-7.6 0-11.5-5.5c-2.53-3.56-3.82-8.81-3.89-15.7h37.29v-.5q0-9.41-3.2-15.5a20.71 20.71 0 0 0-8.7-9Zm-23.7 11.35a13.33 13.33 0 0 1 4.7-6.6 11.91 11.91 0 0 1 6.9-2.05 11.42 11.42 0 0 1 6.6 1.85 11.6 11.6 0 0 1 4.15 5.9 30.38 30.38 0 0 1 1.43 9.35h-25.37a29.69 29.69 0 0 1 1.59-8.45Zm71.9-14.25a14.45 14.45 0 0 0-7.5 2.2 17.82 17.82 0 0 0-6.15 6.5 26.7 26.7 0 0 0-2.82 7.35h-.5l-.63-15.2-10.1.8v52h11.4V55.2a49.58 49.58 0 0 1 1.75-14 24.11 24.11 0 0 1 4.6-9.2q2.85-3.25 6.25-3.25a5.07 5.07 0 0 1 2.9.75 4.63 4.63 0 0 1 1.65 2.6 20.13 20.13 0 0 1 .55 5.35v1.2H408V37.3q0-8.59-2.95-12t-8.65-3.5ZM415 75.4h11.39V22.6l-11.39.8v52zm5.6-72.1a7.1 7.1 0 0 0-4.85 1.7 5.8 5.8 0 0 0-2 4.6 6 6 0 0 0 2 4.65A7 7 0 0 0 420.6 16a7.05 7.05 0 0 0 5-1.75 6.12 6.12 0 0 0 1.9-4.65 6 6 0 0 0-1.85-4.6 7.21 7.21 0 0 0-5.05-1.7Zm52.9 20.8a28 28 0 0 0-11.6-2.3 25.24 25.24 0 0 0-23.15 13.7A28.58 28.58 0 0 0 435.5 49v.4a30.43 30.43 0 0 0 1.7 10.1 26 26 0 0 0 5.09 8.75 25.34 25.34 0 0 0 8.25 6.15 25.85 25.85 0 0 0 11.16 2.3 23 23 0 0 0 11.84-2.9 21.42 21.42 0 0 0 7.81-7.75 22.25 22.25 0 0 0 3-10.65H478a19.4 19.4 0 0 1-2.15 7.85 13.82 13.82 0 0 1-5.1 5.4 14.6 14.6 0 0 1-7.65 1.95 14.17 14.17 0 0 1-8.4-2.4 14.32 14.32 0 0 1-5.1-7.1 33.85 33.85 0 0 1-1.7-11.5v-.8a34.73 34.73 0 0 1 1.7-11.9 13.27 13.27 0 0 1 5-6.8 14.11 14.11 0 0 1 8-2.2 13 13 0 0 1 8.75 2.85q3.34 2.85 3.35 9.75v1.3h9.8v-.6a18.11 18.11 0 0 0-3-10.5 18.86 18.86 0 0 0-8-6.6Zm55.15 1.4q-5.25-3.7-15.25-3.7a32.5 32.5 0 0 0-11.16 1.8 17.42 17.42 0 0 0-7.84 5.4 14 14 0 0 0-2.91 9.1v.5l9 .3v-.8a11.45 11.45 0 0 1 1.35-6 7.74 7.74 0 0 1 4-3.2 17.88 17.88 0 0 1 6.4-1q5.61 0 8 2.25t2.34 7.15v5.05a28.32 28.32 0 0 1-2.7 1.1 91.09 91.09 0 0 1-10.3 2.85 46.6 46.6 0 0 0-11.4 3.7 15.2 15.2 0 0 0-6.19 5.25A13.59 13.59 0 0 0 490 62.6v.3a13.34 13.34 0 0 0 3.95 9.9q4 3.9 11.35 3.9a18.9 18.9 0 0 0 10.05-2.65 19.65 19.65 0 0 0 7-7.4 21.3 21.3 0 0 0 1.1-2.25h.36l1.49 11h8.61V36.8q-.01-7.6-5.26-11.3Zm-12.31 42.75a10.77 10.77 0 0 1-6.94 2.35 7.35 7.35 0 0 1-5.86-2.35 9.36 9.36 0 0 1-2.05-6.35v-.3a15.58 15.58 0 0 1 .75-5.2 7.24 7.24 0 0 1 3.1-3.6 23.41 23.41 0 0 1 7.06-2.6 62.48 62.48 0 0 0 7.89-2.3c.82-.3 1.54-.61 2.2-.91v6.21a23.22 23.22 0 0 1-1.59 8.8 15.17 15.17 0 0 1-4.56 6.25ZM578.29 47a34.4 34.4 0 0 0-4.95-1.9c-1.76-.53-3.6-1-5.5-1.5s-3.73-.93-5.5-1.4-3.35-1-4.75-1.5a11.89 11.89 0 0 1-3.59-2.2 5.52 5.52 0 0 1-1.55-4.3 5.58 5.58 0 0 1 2.4-4.75q2.4-1.75 7.5-1.75a18.5 18.5 0 0 1 9.7 2.3 16.13 16.13 0 0 1 5.9 6.1l5.2-3.9a17.89 17.89 0 0 0-7.7-7.7 27.15 27.15 0 0 0-12.8-2.7 25.15 25.15 0 0 0-10.15 1.9 15.4 15.4 0 0 0-6.7 5.3 13.61 13.61 0 0 0-2.35 7.9 12.92 12.92 0 0 0 2.45 8.15 16.65 16.65 0 0 0 5.65 4.75 39.19 39.19 0 0 0 5.65 2.3q2.85.9 5.6 1.5c1.84.4 3.6.82 5.3 1.25a35.27 35.27 0 0 1 4.75 1.55 9.82 9.82 0 0 1 3.65 2.7 6.38 6.38 0 0 1 1.15 4 6.84 6.84 0 0 1-2.6 5.55q-2.6 2.14-8.8 2.15a20.35 20.35 0 0 1-8.45-1.65 21.08 21.08 0 0 1-6.4-4.45 28.79 28.79 0 0 1-4.55-6l-5.1 4.1a29.18 29.18 0 0 0 5.45 6.85 26.47 26.47 0 0 0 8 5.1 31.58 31.58 0 0 0 21.85 0 15.89 15.89 0 0 0 7.15-5.55 14.5 14.5 0 0 0 2.5-8.5 15.22 15.22 0 0 0-2.2-8.6 14.12 14.12 0 0 0-6.21-5.1Zm50.4-37.3h36.5V2.8h-49.3v72.6h12.8v-33h25.2v-6.9h-25.2V9.7zm77.25 20.2a25.71 25.71 0 0 0-8.3-5.95 24.81 24.81 0 0 0-10.35-2.15 25.12 25.12 0 0 0-18.85 8.2 28.27 28.27 0 0 0-5.5 8.75 27.87 27.87 0 0 0-2 10.4v.2a28.24 28.24 0 0 0 2 10.45 27.48 27.48 0 0 0 5.5 8.75 26.45 26.45 0 0 0 8.35 6 25 25 0 0 0 10.5 2.2 24.38 24.38 0 0 0 10.35-2.2 26.47 26.47 0 0 0 8.3-6 28 28 0 0 0 5.55-8.75 27.49 27.49 0 0 0 2-10.45v-.2a27.49 27.49 0 0 0-2-10.45 28 28 0 0 0-5.55-8.8Zm-4.75 19.5a35.6 35.6 0 0 1-1.7 12 14.24 14.24 0 0 1-4.8 6.95 12.24 12.24 0 0 1-7.4 2.25 12.65 12.65 0 0 1-7.55-2.25 13.86 13.86 0 0 1-4.8-6.95 36.77 36.77 0 0 1-1.65-12v-.5a36.32 36.32 0 0 1 1.65-11.9 13.56 13.56 0 0 1 4.8-6.85 12.83 12.83 0 0 1 7.55-2.2 12.41 12.41 0 0 1 7.4 2.2 13.93 13.93 0 0 1 4.8 6.85 35.16 35.16 0 0 1 1.7 11.95Zm54.9-3.2a49.82 49.82 0 0 1-1.4 12.8 15.1 15.1 0 0 1-4.6 8 12.57 12.57 0 0 1-8.4 2.7q-4.2 0-6.25-2.45c-1.36-1.63-2.05-4.15-2.05-7.55v-37l-11.4.8v36.3q0 8.51 4.3 12.7t12.1 4.2q8.21 0 12.8-4.75a23.72 23.72 0 0 0 5.35-9.25h.39l.16 13.1 10.4-.3V22.6l-11.4.8Zm62.7-22.6a20 20 0 0 0-9-1.8 17.25 17.25 0 0 0-12.5 4.85 23.85 23.85 0 0 0-5.82 9.65h-.34l-.74-13.7-10.4.7v52.1h11.4V52.3a38.39 38.39 0 0 1 1.8-12.5 17.47 17.47 0 0 1 5.1-7.95 11.82 11.82 0 0 1 7.8-2.75q4.5 0 6.45 2.55t2 7.55v36.2h11.4v-37a21.61 21.61 0 0 0-1.75-9.35 11.5 11.5 0 0 0-5.4-5.45Zm54.7 8.8H873a16.09 16.09 0 0 0-4.51-6.4 18.75 18.75 0 0 0-12.4-4.15 20.33 20.33 0 0 0-11.2 3.35 24 24 0 0 0-8.35 9.5 31.31 31.31 0 0 0-3.15 14.45v.2a33 33 0 0 0 3 14.5 23.45 23.45 0 0 0 8 9.5 19.85 19.85 0 0 0 11.35 3.4q7.8 0 12.55-4.5a21 21 0 0 0 5.15-8.6h.5V75.7l10.6-.3V0l-11 .8Zm-7.5 36a11.32 11.32 0 0 1-6.7 1.9 11.46 11.46 0 0 1-10-5.2q-3.56-5.2-3.55-15.8v-.2q0-10.5 3.5-15.7a11.23 11.23 0 0 1 9.9-5.2 12.24 12.24 0 0 1 6.5 1.65 12.44 12.44 0 0 1 4.35 4.55 23 23 0 0 1 2.45 6.6 38.06 38.06 0 0 1 .8 8v.3a39 39 0 0 1-.7 7.3 26.13 26.13 0 0 1-2.25 6.8 13.2 13.2 0 0 1-4.29 5Zm65.15-42.9q-5.25-3.7-15.25-3.7a32.48 32.48 0 0 0-11.15 1.8 17.45 17.45 0 0 0-7.85 5.4 14.06 14.06 0 0 0-2.9 9.1v.5l9 .3v-.8a11.45 11.45 0 0 1 1.35-6 7.74 7.74 0 0 1 3.95-3.2 17.84 17.84 0 0 1 6.4-1q5.59 0 7.95 2.25T925 37.3v5.05a28.32 28.32 0 0 1-2.7 1.1A91.69 91.69 0 0 1 912 46.3a46.6 46.6 0 0 0-11.4 3.7 15.24 15.24 0 0 0-6.2 5.25 13.58 13.58 0 0 0-1.9 7.35v.3a13.34 13.34 0 0 0 4 9.9q3.94 3.9 11.35 3.9a18.9 18.9 0 0 0 10.05-2.65 19.73 19.73 0 0 0 7-7.4 23.39 23.39 0 0 0 1.09-2.25h.37l1.49 11h8.6V36.8q-.06-7.6-5.31-11.3Zm-12.3 42.75a10.8 10.8 0 0 1-7 2.35 7.35 7.35 0 0 1-5.84-2.35 9.31 9.31 0 0 1-2-6.35v-.3a15.58 15.58 0 0 1 .75-5.2 7.19 7.19 0 0 1 3.1-3.6 23.44 23.44 0 0 1 7-2.6 62.66 62.66 0 0 0 7.9-2.3c.82-.3 1.53-.61 2.2-.91v6.21a23 23 0 0 1-1.6 8.75 15.15 15.15 0 0 1-4.51 6.3ZM962.89 6.9h-6.3a32.84 32.84 0 0 1-1.8 9.4 10.42 10.42 0 0 1-4.45 5.4 18.31 18.31 0 0 1-8.25 2.1v5.7h9.4v30q0 8.4 4.25 12.15t11.85 3.75h11.1V69h-7.5a11.65 11.65 0 0 1-4.3-.75 5.57 5.57 0 0 1-2.95-2.8 13.68 13.68 0 0 1-1.05-6.05V29.5h16v-6.4h-16Zm30.9-3.6a7.12 7.12 0 0 0-4.85 1.7 5.79 5.79 0 0 0-2 4.6 6 6 0 0 0 2 4.65 7 7 0 0 0 4.85 1.75 7.05 7.05 0 0 0 5.05-1.75 6.12 6.12 0 0 0 1.85-4.65 6 6 0 0 0-1.85-4.6 7.21 7.21 0 0 0-5.05-1.7Zm-5.6 72.1h11.4V22.6l-11.4.8v52zm65.45-45.5a25.92 25.92 0 0 0-8.3-5.95A24.88 24.88 0 0 0 1035 21.8a25.44 25.44 0 0 0-10.5 2.15 25.15 25.15 0 0 0-8.35 6 28 28 0 0 0-7.45 19.15v.2a28.24 28.24 0 0 0 1.95 10.45 27.31 27.31 0 0 0 5.5 8.75 26.34 26.34 0 0 0 8.35 6 25 25 0 0 0 10.5 2.2 24.45 24.45 0 0 0 10.35-2.2 26.7 26.7 0 0 0 8.3-6 28.33 28.33 0 0 0 5.55-8.75 27.68 27.68 0 0 0 2-10.45v-.2a27.68 27.68 0 0 0-2-10.45 28.33 28.33 0 0 0-5.56-8.75Zm-4.75 19.5a35.85 35.85 0 0 1-1.7 12 14.37 14.37 0 0 1-4.8 6.95 12.28 12.28 0 0 1-7.4 2.25 12.63 12.63 0 0 1-7.55-2.25 13.86 13.86 0 0 1-4.8-6.95 36.77 36.77 0 0 1-1.65-12v-.5a36.32 36.32 0 0 1 1.65-11.9 13.56 13.56 0 0 1 4.8-6.85 12.81 12.81 0 0 1 7.55-2.2 12.45 12.45 0 0 1 7.4 2.2 14.06 14.06 0 0 1 4.8 6.85 35.41 35.41 0 0 1 1.7 11.95Zm64.25-20.35a11.5 11.5 0 0 0-5.35-5.45 20 20 0 0 0-9-1.8 17.25 17.25 0 0 0-12.5 4.85 23.74 23.74 0 0 0-5.82 9.65h-.34l-.74-13.7-10.4.7v52.1h11.4V52.3a38.39 38.39 0 0 1 1.8-12.5 17.47 17.47 0 0 1 5.1-7.95 11.82 11.82 0 0 1 7.8-2.75q4.5 0 6.45 2.55t2 7.55v36.2h11.4v-37a21.76 21.76 0 0 0-1.8-9.35Z"/></svg>
