<svg xmlns="http://www.w3.org/2000/svg" viewBox="0 0 888.49 96" preserveAspectRatio="xMinYMax meet"><path fill="currentColor" d="m56.6 2.8-21.28 56h-.56L13.8 2.8H0l27.7 72.6h8.9L64.4 2.8h-7.8zm38.11 61.43a28.69 28.69 0 0 0 2.14-3.13 41.17 41.17 0 0 0 3.35-7.3 65.4 65.4 0 0 0 2.3-8.4H97a59.93 59.93 0 0 1-1.85 7 34.21 34.21 0 0 1-2.8 6.3c-.32.55-.66 1.08-1 1.58-.07-.08-.14-.15-.2-.23q-3.66-4.39-7-8.5-2.31-3-4.57-5.86c.68-.33 1.37-.65 2-1a28.42 28.42 0 0 0 4.95-3.3 14.88 14.88 0 0 0 3.45-4.1 10.06 10.06 0 0 0 1.25-5v-.1a10.11 10.11 0 0 0-1.5-5.55 9.5 9.5 0 0 0-4.35-3.6 17.62 17.62 0 0 0-7-1.25 15.44 15.44 0 0 0-10.5 3.55 11.64 11.64 0 0 0-4.1 9.25v.2a15.73 15.73 0 0 0 1.5 6.45 37.56 37.56 0 0 0 2.39 4.45c-1 .44-2 .89-3 1.35a35.15 35.15 0 0 0-6 3.55 15.09 15.09 0 0 0-4.25 4.75 12.74 12.74 0 0 0-1.52 6.36v.3a13.51 13.51 0 0 0 2.25 7.8 14.77 14.77 0 0 0 6.1 5.1A20.43 20.43 0 0 0 70 76.7a26.56 26.56 0 0 0 12-2.6 25.82 25.82 0 0 0 5.29-3.53l1.91 2.08c.93 1 1.83 1.95 2.7 2.75h12.9q-2.91-3-6.45-7c-1.2-1.35-2.42-2.75-3.64-4.17ZM73.2 32.6a7.15 7.15 0 0 1 1.25-4.45 4.86 4.86 0 0 1 4.15-1.65 5.08 5.08 0 0 1 4.1 1.55A6.44 6.44 0 0 1 84 32.3v.4a10.34 10.34 0 0 1-.9 4.55A8.93 8.93 0 0 1 80 40.6a22.56 22.56 0 0 1-2.93 1.64 39.28 39.28 0 0 1-2.22-3.54A11.87 11.87 0 0 1 73.2 33Zm.4 38.3a9.62 9.62 0 0 1-7.6-3.05 11 11 0 0 1-2.7-7.55V60a12.85 12.85 0 0 1 .9-5.15 9.71 9.71 0 0 1 3.1-3.75 22.75 22.75 0 0 1 2.78-1.82c1.5 2.13 3.09 4.36 4.82 6.72q2.49 3.3 5.1 6.45c1.41 1.71 2.76 3.32 4.09 4.87-.57.42-1.16.83-1.79 1.23a15.87 15.87 0 0 1-8.7 2.35ZM99.1 2.8l-2.3 5.8 25.4 66.8h14.3L108.8 2.8h-9.7zm74.4 38.7h28.2v-6.9h-28.2V9.7h36.1V2.8h-48.9v72.6h50v-6.9h-37.2v-27zm81.2-16q-5.2-3.7-15-3.7a32 32 0 0 0-11.1 1.8 17.14 17.14 0 0 0-7.75 5.4 14.2 14.2 0 0 0-2.85 9.1v.5l9 .3v-.8a11.77 11.77 0 0 1 1.3-6 7.43 7.43 0 0 1 3.9-3.2 17.19 17.19 0 0 1 6.2-1q5.49 0 7.8 2.25t2.3 7.15v5.33c-.78.38-1.66.75-2.65 1.12a76.17 76.17 0 0 1-10 2.75 45.5 45.5 0 0 0-11.25 3.7 15.2 15.2 0 0 0-6.15 5.25 13.58 13.58 0 0 0-1.9 7.35v.2a13.25 13.25 0 0 0 3.9 9.85q3.9 3.86 11.2 3.85a18.47 18.47 0 0 0 9.9-2.65 19.56 19.56 0 0 0 6.9-7.4 23.27 23.27 0 0 0 1.07-2.25h.33l1.4 11h8.7V36.8q-.05-7.6-5.25-11.3Zm-12.25 42.75a10.26 10.26 0 0 1-6.75 2.35 7 7 0 0 1-5.7-2.4 9.33 9.33 0 0 1-2-6.2v-.3a15.24 15.24 0 0 1 .75-5.1 7 7 0 0 1 3.05-3.55 23.46 23.46 0 0 1 6.9-2.55 80.5 80.5 0 0 0 7.7-2.35c.78-.29 1.46-.58 2.1-.87v5.92a23.22 23.22 0 0 1-1.6 8.8 15.6 15.6 0 0 1-4.45 6.25ZM304.3 47a35.33 35.33 0 0 0-4.95-1.9q-2.66-.8-5.5-1.5c-1.9-.47-3.74-.93-5.5-1.4a49 49 0 0 1-4.75-1.5 11.65 11.65 0 0 1-3.55-2.2 5.49 5.49 0 0 1-1.55-4.3 5.58 5.58 0 0 1 2.4-4.75q2.4-1.75 7.5-1.75a18.55 18.55 0 0 1 9.7 2.3 16.21 16.21 0 0 1 5.9 6.1l5.2-3.9a18 18 0 0 0-7.7-7.7 27.18 27.18 0 0 0-12.8-2.7 25.11 25.11 0 0 0-10.15 1.9 15.34 15.34 0 0 0-6.7 5.3 13.53 13.53 0 0 0-2.35 7.9 12.86 12.86 0 0 0 2.5 8.15 16.46 16.46 0 0 0 5.65 4.75 38.73 38.73 0 0 0 5.65 2.3c1.9.6 3.76 1.1 5.6 1.5s3.6.82 5.3 1.25a35.74 35.74 0 0 1 4.75 1.55 10 10 0 0 1 3.65 2.7 6.44 6.44 0 0 1 1.15 4 6.87 6.87 0 0 1-2.6 5.55q-2.61 2.14-8.8 2.15a20.32 20.32 0 0 1-8.45-1.65 20.84 20.84 0 0 1-6.4-4.45 28.45 28.45 0 0 1-4.55-6l-5.1 4.1a28.93 28.93 0 0 0 5.45 6.85 26.23 26.23 0 0 0 8.05 5.1 31.58 31.58 0 0 0 21.85 0 16 16 0 0 0 7.15-5.55 14.57 14.57 0 0 0 2.5-8.5 15.3 15.3 0 0 0-2.2-8.6 14.23 14.23 0 0 0-6.35-5.1Zm30.5-40.1h-6.3a32.84 32.84 0 0 1-1.8 9.4 10.47 10.47 0 0 1-4.45 5.4 18.38 18.38 0 0 1-8.25 2.1v5.7h9.4v30q0 8.4 4.25 12.15t11.85 3.75h11.1V69h-7.5a11.61 11.61 0 0 1-4.3-.75 5.57 5.57 0 0 1-2.95-2.8 13.68 13.68 0 0 1-1.05-6.05V29.5h16v-6.4h-16ZM427.7 43a25.58 25.58 0 0 0-5.6-3.75 42.5 42.5 0 0 0-6.5-2.65c-2.4-.77-4.87-1.48-7.4-2.15s-5-1.35-7.35-2A45.39 45.39 0 0 1 394.5 30a17.76 17.76 0 0 1-5.95-4.15q-2.35-2.55-2.35-7.35a11 11 0 0 1 3.95-8.7q3.95-3.4 11.35-3.4 8.19 0 13.35 3.1t9 10.8l5.1-3a29.94 29.94 0 0 0-6.85-9.5 23.55 23.55 0 0 0-9-5 41.15 41.15 0 0 0-11.6-1.5 27.13 27.13 0 0 0-11.7 2.45 21 21 0 0 0-8.25 6.65 15.88 15.88 0 0 0-3.05 9.6 19.05 19.05 0 0 0 1.5 7.85 16.89 16.89 0 0 0 4.25 5.8 24.42 24.42 0 0 0 6.35 4.05 74.21 74.21 0 0 0 7 2.55q3.75 1.16 7.5 2.2l7 1.95a33.64 33.64 0 0 1 5.3 1.9 16.83 16.83 0 0 1 5.75 4.3c1.36 1.67 2.05 4.2 2.05 7.6a11.85 11.85 0 0 1-4.75 10q-4.76 3.6-12.85 3.6a30.16 30.16 0 0 1-11.35-2 21.89 21.89 0 0 1-8.6-6.3 39.6 39.6 0 0 1-6.35-11.1l-5.4 2.8a38.23 38.23 0 0 0 7.15 12 27.87 27.87 0 0 0 10.5 7.25 37.79 37.79 0 0 0 14.05 2.45 32.67 32.67 0 0 0 13.15-2.5 20.53 20.53 0 0 0 8.95-7.15 19 19 0 0 0 3.2-11 19.77 19.77 0 0 0-1.4-7.9 15.38 15.38 0 0 0-3.8-5.35Zm25.6-35h-4.6a38.5 38.5 0 0 1-1.46 9.55 8.86 8.86 0 0 1-3.84 5.15 18.21 18.21 0 0 1-7.71 2v3.9h9.81v30.9q0 8.5 3.95 12.2T461 75.4h9.1v-4.8h-7.5a13.64 13.64 0 0 1-4.75-.8 6.17 6.17 0 0 1-3.35-3.15 16.54 16.54 0 0 1-1.19-7.15V28.6h17.1v-4.8H453.3Zm64.24 22.7a24.12 24.12 0 0 0-7.9-5.95 24.92 24.92 0 0 0-20.25 0 24.21 24.21 0 0 0-7.95 5.95 29.18 29.18 0 0 0-5.25 8.6 27.34 27.34 0 0 0-1.9 10.1v.3a27.34 27.34 0 0 0 1.9 10.1 29.18 29.18 0 0 0 5.25 8.6 24.93 24.93 0 0 0 7.95 6 24.4 24.4 0 0 0 20.25 0 24.84 24.84 0 0 0 7.9-6 28 28 0 0 0 5.2-8.6 27.71 27.71 0 0 0 1.85-10.1v-.3a27.71 27.71 0 0 0-1.85-10.1 28 28 0 0 0-5.2-8.6Zm-1.54 19a32 32 0 0 1-2 12.25 16.37 16.37 0 0 1-5.75 7.5 16.12 16.12 0 0 1-17.4 0A16.5 16.5 0 0 1 485 62a32.23 32.23 0 0 1-2-12.3v-.4a32.23 32.23 0 0 1 2-12.25 15.84 15.84 0 0 1 5.75-7.4 16.67 16.67 0 0 1 17.4 0 15.72 15.72 0 0 1 5.75 7.4 32 32 0 0 1 2 12.25Zm42.79-27.1a13.59 13.59 0 0 0-7.65 2.4 20.07 20.07 0 0 0-6.15 6.9 27.13 27.13 0 0 0-2.68 6.95h-.39l-.73-15.4-6.9.5V75.4h7.8V56a49.28 49.28 0 0 1 2-14.75 26.35 26.35 0 0 1 5.25-9.9q3.25-3.55 7-3.55a6.17 6.17 0 0 1 3.35.8 4.69 4.69 0 0 1 1.85 2.65 17.37 17.37 0 0 1 .6 5.15v1.1h7.5v-.7q0-7.9-2.9-11a10.33 10.33 0 0 0-7.95-3.2Zm49.3 2.8a24 24 0 0 0-11.6-2.8 22.72 22.72 0 0 0-12.35 3.5 26.13 26.13 0 0 0-8.95 9.6 28 28 0 0 0-3.4 13.8v.1a29.11 29.11 0 0 0 1.75 10 28.6 28.6 0 0 0 5 8.65 23.62 23.62 0 0 0 8 6.1 24.5 24.5 0 0 0 10.7 2.25A26.21 26.21 0 0 0 608 74.5a18.08 18.08 0 0 0 11-15.1h-5.1a13.56 13.56 0 0 1-5 9.45q-4.2 3.25-11.1 3.25-8.29 0-12.8-5.9t-4.5-16.6v-.1h38.9V49q0-9.11-3-15a19.94 19.94 0 0 0-8.31-8.6Zm-19.55 3.75a15.63 15.63 0 0 1 8.05-2.15 14.58 14.58 0 0 1 7.7 2 13.14 13.14 0 0 1 5.15 6.2 26.56 26.56 0 0 1 1.84 10.1h-30.65a27.24 27.24 0 0 1 2.06-9.15 15 15 0 0 1 5.85-7Zm75.7-4.8a19.09 19.09 0 0 0-8.55-1.75A17.32 17.32 0 0 0 643 27.55a25.59 25.59 0 0 0-5.94 9.75h-.26V0l-7.8.5v74.9h7.8V53.7a39.62 39.62 0 0 1 2.2-14.05 19.86 19.86 0 0 1 6.1-8.8 14 14 0 0 1 8.8-3.05q5.1 0 7.5 3.1c1.6 2.07 2.4 4.93 2.4 8.6v35.9h7.8V39.6a21.56 21.56 0 0 0-1.9-9.75 11.91 11.91 0 0 0-5.46-5.5Zm59.7 6.35a24.12 24.12 0 0 0-7.9-5.95 24.92 24.92 0 0 0-20.25 0 24.21 24.21 0 0 0-7.95 5.95 29.18 29.18 0 0 0-5.25 8.6 27.34 27.34 0 0 0-1.9 10.1v.3a27.34 27.34 0 0 0 1.9 10.1 29.18 29.18 0 0 0 5.25 8.6 24.93 24.93 0 0 0 7.95 6 24.4 24.4 0 0 0 20.25 0 24.84 24.84 0 0 0 7.9-6 28 28 0 0 0 5.2-8.6A27.71 27.71 0 0 0 731 49.7v-.3a27.71 27.71 0 0 0-1.85-10.1 28 28 0 0 0-5.21-8.6Zm-1.55 19a32 32 0 0 1-2 12.25 16.37 16.37 0 0 1-5.75 7.5 16.12 16.12 0 0 1-17.4 0 16.5 16.5 0 0 1-5.75-7.5 32.23 32.23 0 0 1-2.05-12.25v-.4a32.23 32.23 0 0 1 2.05-12.25 15.84 15.84 0 0 1 5.75-7.4 16.67 16.67 0 0 1 17.4 0 15.72 15.72 0 0 1 5.75 7.4 32 32 0 0 1 2 12.25Zm52.5-4.2a53 53 0 0 1-1.65 14.3 16.57 16.57 0 0 1-5.35 8.75q-3.69 3-9.7 3-5.1 0-7.6-3c-1.66-2-2.5-5-2.5-9V23.4l-7.8.5v35.5q0 8.9 4.35 13.05t12 4.15q8.4 0 13.15-5.1a25.3 25.3 0 0 0 5.46-9.6h.43l.16 13.7 6.9-.1V23.4l-7.8.5Zm51.8 3a33.7 33.7 0 0 0-4.69-1.7q-2.44-.7-5.15-1.35t-5.3-1.35a32.66 32.66 0 0 1-5-1.8 12.45 12.45 0 0 1-3.8-2.55 6.62 6.62 0 0 1-1.7-5 6.87 6.87 0 0 1 2.6-5.55c1.73-1.43 4.47-2.15 8.2-2.15q6.5 0 10.1 2.5a16.2 16.2 0 0 1 5.5 6.6l4.3-2.7a18.12 18.12 0 0 0-7.25-8.1q-4.75-2.8-12.45-2.8a23.77 23.77 0 0 0-9.25 1.7 14.44 14.44 0 0 0-6.3 4.8 12.1 12.1 0 0 0-2.25 7.3 11.94 11.94 0 0 0 2.55 8 16.13 16.13 0 0 0 5.65 4.4A46.49 46.49 0 0 0 808.2 51c1.83.57 3.62 1 5.35 1.4s3.4.77 5 1.2a27.49 27.49 0 0 1 4.7 1.75 8.63 8.63 0 0 1 3.85 3 8.12 8.12 0 0 1 1.15 4.55 8.59 8.59 0 0 1-2.8 6.6q-2.81 2.59-9.7 2.6a19.1 19.1 0 0 1-8.55-1.8 20 20 0 0 1-6.2-4.75 31.84 31.84 0 0 1-4.4-6.45l-4.2 3.1a29.7 29.7 0 0 0 5.15 7.15 24 24 0 0 0 7.7 5.25 28.8 28.8 0 0 0 20.7.15 15.54 15.54 0 0 0 6.75-5.2 13.28 13.28 0 0 0 2.4-7.95 14.34 14.34 0 0 0-2.15-8.3 13.73 13.73 0 0 0-6.26-4.8Zm61.8 1V49q0-9.11-3-15a20 20 0 0 0-8.25-8.65 24.06 24.06 0 0 0-11.6-2.8 22.69 22.69 0 0 0-12.35 3.5 26 26 0 0 0-9 9.6 27.84 27.84 0 0 0-3.4 13.8v.1a28.88 28.88 0 0 0 1.75 10 28.19 28.19 0 0 0 5 8.65 23.42 23.42 0 0 0 8 6.1 24.47 24.47 0 0 0 10.7 2.25 26.28 26.28 0 0 0 10.8-2.1 18.08 18.08 0 0 0 11-15.1H883a13.59 13.59 0 0 1-5 9.45q-4.2 3.25-11.1 3.25-8.31 0-12.8-5.9t-4.5-16.6v-.1Zm-30.85-20.35a15.58 15.58 0 0 1 8.05-2.15 14.6 14.6 0 0 1 7.7 2 13.19 13.19 0 0 1 5.15 6.2 26.39 26.39 0 0 1 1.83 10.1h-30.65a27.22 27.22 0 0 1 2.07-9.15 14.86 14.86 0 0 1 5.85-7Z"/></svg>
