<?xml version="1.0" encoding="UTF-8"?>
<svg width="32" height="32" viewBox="0 0 32 32" xmlns="http://www.w3.org/2000/svg">
    <g id="young" fill="currentColor" fill-rule="nonzero">
        <path d="M1.333 12.242 5.733 10l4.4 2.242h-.266v4.088H1.6v-4.088h-.267zm4.412.527c-1.473 0-2.667 1.333-2.667 2.978h5.333c0-1.645-1.193-2.978-2.666-2.978zM11.6 12.242 16 10l4.4 2.242h-.267v4.088h-8.266v-4.088H11.6zm4.411.527c-1.472 0-2.666 1.333-2.666 2.978h5.333c0-1.645-1.194-2.978-2.667-2.978zM21.867 12.242l4.4-2.242 4.4 2.242H30.4v4.088h-8.267v-4.088h-.266zm4.411.527c-1.473 0-2.667 1.333-2.667 2.978h5.334c0-1.645-1.194-2.978-2.667-2.978zM1 11.846c.11 0 .2.089.2.198 0 .086-.056.16-.133.186v4.1H.133v-4.1A.198.198 0 0 1 0 12.045c0-.11.09-.198.2-.198H1zM11.267 11.846c.11 0 .2.089.2.198 0 .086-.056.16-.134.186v4.1H10.4v-4.1a.198.198 0 0 1-.133-.186c0-.11.09-.198.2-.198h.8zM21.533 11.846c.11 0 .2.089.2.198 0 .086-.055.16-.133.186v4.1h-.933v-4.1a.198.198 0 0 1-.134-.186c0-.11.09-.198.2-.198h.8zM31.8 11.846c.11 0 .2.089.2.198 0 .086-.056.16-.133.186v4.1h-.934v-4.1a.198.198 0 0 1-.133-.186c0-.11.09-.198.2-.198h.8zM32 16.725V22H17.867v-4.088h-1.6V22h-.534v-4.088h-1.6V22H0v-5.275h32zM5.467 17.912H4.133v2.637h1.334v-2.637zm1.866 0H6v2.637h1.333v-2.637zm18.8 0H24.8v2.637h1.333v-2.637zm1.867 0h-1.333v2.637H28v-2.637z"/>
    </g>
</svg>
