<?xml version="1.0" encoding="UTF-8"?>
<svg width="16" height="16" viewBox="0 0 16 16" fill="none" xmlns="http://www.w3.org/2000/svg">
  <path fill-rule="evenodd" clip-rule="evenodd" d="M13.7383 3.30588C14.3666 3.47059 14.8619 3.95294 15.031 4.56471C15.3451 5.68235 15.3331 8.01176 15.3331 8.01176C15.3331 8.01176 15.3331 10.3294 15.031 11.4471C14.8619 12.0588 14.3666 12.5412 13.7383 12.7059C12.5906 13 7.99981 13 7.99981 13C7.99981 13 3.42103 13 2.26123 12.6941C1.633 12.5294 1.13767 12.0471 0.968535 11.4353C0.666504 10.3294 0.666504 8 0.666504 8C0.666504 8 0.666504 5.68235 0.968535 4.56471C1.13767 3.95294 1.64509 3.45882 2.26123 3.29412C3.40894 3 7.99981 3 7.99981 3C7.99981 3 12.5906 3 13.7383 3.30588ZM6.66651 5.66669L10.6665 8.00002L6.66651 10.3334V5.66669Z" fill="currentColor"/>
</svg>
